  0
SECTION
  2
HEADER
  9
$ACADVER
  1
AC1014
  9
$HANDSEED
  5
FFFF
  9
$MEASUREMENT
 70
     1
  0
ENDSEC
  0
SECTION
  2
TABLES
  0
TABLE
  2
VPORT
  5
8
330
0
100
AcDbSymbolTable
 70
     4
  0
VPORT
  5
2E
330
8
100
AcDbSymbolTableRecord
100
AcDbViewportTableRecord
  2
*ACTIVE
 70
     0
 10
0.0
 20
0.0
 11
1.0
 21
1.0
 12
210.0
 22
148.5
 13
0.0
 23
0.0
 14
10.0
 24
10.0
 15
10.0
 25
10.0
 16
0.0
 26
0.0
 36
1.0
 17
0.0
 27
0.0
 37
0.0
 40
341.0
 41
1.24
 42
50.0
 43
0.0
 44
0.0
 50
0.0
 51
0.0
 71
     0
 72
   100
 73
     1
 74
     3
 75
     0
 76
     0
 77
     0
 78
     0
  0
ENDTAB
  0
TABLE
  2
LTYPE
  5
5
330
0
100
AcDbSymbolTable
 70
     1
  0
LTYPE
  5
14
330
5
100
AcDbSymbolTableRecord
100
AcDbLinetypeTableRecord
  2
BYBLOCK
 70
     0
  3

 72
    65
 73
     0
 40
0.0
  0
LTYPE
  5
15
330
5
100
AcDbSymbolTableRecord
100
AcDbLinetypeTableRecord
  2
BYLAYER
 70
     0
  3

 72
    65
 73
     0
 40
0.0
  0
LTYPE
  5
16
330
5
100
AcDbSymbolTableRecord
100
AcDbLinetypeTableRecord
  2
CONTINUOUS
 70
     0
  3
Solid line
 72
    65
 73
     0
 40
0.0
  0
ENDTAB
  0
TABLE
  2
LAYER
  5
2
100
AcDbSymbolTable
 70
2
  0
LAYER
  5
50
100
AcDbSymbolTableRecord
100
AcDbLayerTableRecord
  2
0
 70
0
  6
CONTINUOUS
  0
LAYER
  5
51
100
AcDbSymbolTableRecord
100
AcDbLayerTableRecord
  2
Layer_1
 70
0
  6
CONTINUOUS
  0
ENDTAB
  0
TABLE
  2
STYLE
  5
3
330
0
100
AcDbSymbolTable
 70
     1
  0
STYLE
  5
11
330
3
100
AcDbSymbolTableRecord
100
AcDbTextStyleTableRecord
  2
STANDARD
 70
     0
 40
0.0
 41
1.0
 50
0.0
 71
     0
 42
2.5
  3
txt
  4

  0
ENDTAB
  0
TABLE
  2
VIEW
  5
6
330
0
100
AcDbSymbolTable
 70
     0
  0
ENDTAB
  0
TABLE
  2
UCS
  5
7
330
0
100
AcDbSymbolTable
 70
     0
  0
ENDTAB
  0
TABLE
  2
APPID
  5
9
330
0
100
AcDbSymbolTable
 70
     2
  0
APPID
  5
12
330
9
100
AcDbSymbolTableRecord
100
AcDbRegAppTableRecord
  2
ACAD
 70
     0
  0
ENDTAB
  0
TABLE
  2
DIMSTYLE
  5
A
330
0
100
AcDbSymbolTable
 70
     1
  0
DIMSTYLE
105
27
330
A
100
AcDbSymbolTableRecord
100
AcDbDimStyleTableRecord
  2
ISO-25
 70
     0
  3

  4

  5

  6

  7

 40
1.0
 41
2.5
 42
0.625
 43
3.75
 44
1.25
 45
0.0
 46
0.0
 47
0.0
 48
0.0
140
2.5
141
2.5
142
0.0
143
0.03937007874016
144
1.0
145
0.0
146
1.0
147
0.625
 71
     0
 72
     0
 73
     0
 74
     0
 75
     0
 76
     0
 77
     1
 78
     8
170
     0
171
     3
172
     1
173
     0
174
     0
175
     0
176
     0
177
     0
178
     0
270
     2
271
     2
272
     2
273
     2
274
     3
340
11
275
     0
280
     0
281
     0
282
     0
283
     0
284
     8
285
     0
286
     0
287
     3
288
     0
  0
ENDTAB
  0
TABLE
  2
BLOCK_RECORD
  5
1
330
0
100
AcDbSymbolTable
 70
     1
  0
BLOCK_RECORD
  5
1F
330
1
100
AcDbSymbolTableRecord
100
AcDbBlockTableRecord
  2
*MODEL_SPACE
  0
BLOCK_RECORD
  5
1B
330
1
100
AcDbSymbolTableRecord
100
AcDbBlockTableRecord
  2
*PAPER_SPACE
  0
ENDTAB
  0
ENDSEC
  0
SECTION
  2
BLOCKS
  0
BLOCK
  5
20
330
1F
100
AcDbEntity
  8
0
100
AcDbBlockBegin
  2
*MODEL_SPACE
 70
     0
 10
0.0
 20
0.0
 30
0.0
  3
*MODEL_SPACE
  1

  0
ENDBLK
  5
21
330
1F
100
AcDbEntity
  8
0
100
AcDbBlockEnd
  0
BLOCK
  5
1C
330
1B
100
AcDbEntity
 67
     1
  8
0
100
AcDbBlockBegin
  2
*PAPER_SPACE
  1

  0
ENDBLK
  5
1D
330
1B
100
AcDbEntity
 67
     1
  8
0
100
AcDbBlockEnd
  0
ENDSEC
  0
SECTION
  2
ENTITIES
  0
LWPOLYLINE
  5
100
100
AcDbEntity
  8
Layer_1
 62
7
100
AcDbPolyline
 90
4
 70
1
 10
0.132292
 20
296.867708
 30
0.0
 10
80.332692
 20
296.867708
 30
0.0
 10
80.332692
 20
197.616944
 30
0.0
 10
0.132292
 20
197.616944
 30
0.0
  0
LWPOLYLINE
  5
101
100
AcDbEntity
  8
Layer_1
 62
7
100
AcDbPolyline
 90
40
 70
0
 10
3.013769
 20
202.114861
 30
0.0
 10
2.896638
 20
202.098961
 30
0.0
 10
2.780883
 20
202.077791
 30
0.0
 10
2.667877
 20
202.046021
 30
0.0
 10
2.556267
 20
202.003771
 30
0.0
 10
2.450146
 20
201.953441
 30
0.0
 10
2.348178
 20
201.895261
 30
0.0
 10
2.250338
 20
201.831761
 30
0.0
 10
2.156628
 20
201.757661
 30
0.0
 10
2.071197
 20
201.678271
 30
0.0
 10
1.991265
 20
201.593601
 30
0.0
 10
1.918228
 20
201.498431
 30
0.0
 10
1.852086
 20
201.400481
 30
0.0
 10
1.794207
 20
201.297301
 30
0.0
 10
1.745976
 20
201.191461
 30
0.0
 10
1.704638
 20
201.080341
 30
0.0
 10
1.672937
 20
200.969211
 30
0.0
 10
1.649506
 20
200.852801
 30
0.0
 10
1.635727
 20
200.736381
 30
0.0
 10
1.630217
 20
200.617321
 30
0.0
 10
1.635728
 20
200.500901
 30
0.0
 10
1.649506
 20
200.381841
 30
0.0
 10
1.672938
 20
200.268071
 30
0.0
 10
1.704638
 20
200.154301
 30
0.0
 10
1.745975
 20
200.043171
 30
0.0
 10
1.794207
 20
199.937341
 30
0.0
 10
1.852087
 20
199.834151
 30
0.0
 10
1.918228
 20
199.736251
 30
0.0
 10
1.991265
 20
199.643661
 30
0.0
 10
2.071197
 20
199.556351
 30
0.0
 10
2.156627
 20
199.476941
 30
0.0
 10
2.250338
 20
199.405561
 30
0.0
 10
2.348178
 20
199.339431
 30
0.0
 10
2.450146
 20
199.281181
 30
0.0
 10
2.556267
 20
199.233571
 30
0.0
 10
2.667877
 20
199.191251
 30
0.0
 10
2.780883
 20
199.159511
 30
0.0
 10
2.896638
 20
199.135661
 30
0.0
 10
3.013769
 20
199.122451
 30
0.0
 10
3.130900
 20
199.117421
 30
0.0
  0
LWPOLYLINE
  5
102
100
AcDbEntity
  8
Layer_1
 62
7
100
AcDbPolyline
 90
2
 70
0
 10
3.130900
 20
199.117131
 30
0.0
 10
3.248031
 20
199.122131
 30
0.0
  0
LWPOLYLINE
  5
103
100
AcDbEntity
  8
Layer_1
 62
7
100
AcDbPolyline
 90
40
 70
0
 10
3.248031
 20
199.122421
 30
0.0
 10
3.365162
 20
199.135621
 30
0.0
 10
3.482293
 20
199.159451
 30
0.0
 10
3.595297
 20
199.191161
 30
0.0
 10
3.705522
 20
199.233511
 30
0.0
 10
3.811647
 20
199.281151
 30
0.0
 10
3.915019
 20
199.339371
 30
0.0
 10
4.012835
 20
199.405481
 30
0.0
 10
4.105202
 20
199.476931
 30
0.0
 10
4.191985
 20
199.556361
 30
0.0
 10
4.271916
 20
199.643641
 30
0.0
 10
4.344941
 20
199.736251
 30
0.0
 10
4.409711
 20
199.834161
 30
0.0
 10
4.467602
 20
199.937341
 30
0.0
 10
4.517211
 20
200.043171
 30
0.0
 10
4.557190
 20
200.154301
 30
0.0
 10
4.590262
 20
200.268071
 30
0.0
 10
4.612302
 20
200.381841
 30
0.0
 10
4.626060
 20
200.500901
 30
0.0
 10
4.631560
 20
200.617321
 30
0.0
 10
4.626064
 20
200.736381
 30
0.0
 10
4.612303
 20
200.852801
 30
0.0
 10
4.590262
 20
200.969211
 30
0.0
 10
4.557189
 20
201.080341
 30
0.0
 10
4.517210
 20
201.191461
 30
0.0
 10
4.467602
 20
201.297301
 30
0.0
 10
4.409711
 20
201.400491
 30
0.0
 10
4.344941
 20
201.498391
 30
0.0
 10
4.271916
 20
201.593581
 30
0.0
 10
4.191985
 20
201.678331
 30
0.0
 10
4.105202
 20
201.757701
 30
0.0
 10
4.012836
 20
201.831771
 30
0.0
 10
3.915020
 20
201.895261
 30
0.0
 10
3.811647
 20
201.953461
 30
0.0
 10
3.705522
 20
202.003761
 30
0.0
 10
3.595297
 20
202.046041
 30
0.0
 10
3.482293
 20
202.077871
 30
0.0
 10
3.365162
 20
202.099021
 30
0.0
 10
3.248031
 20
202.114891
 30
0.0
 10
3.132276
 20
202.117861
 30
0.0
  0
LWPOLYLINE
  5
104
100
AcDbEntity
  8
Layer_1
 62
7
100
AcDbPolyline
 90
2
 70
0
 10
3.132276
 20
202.117511
 30
0.0
 10
3.013769
 20
202.114511
 30
0.0
  0
LWPOLYLINE
  5
105
100
AcDbEntity
  8
Layer_1
 62
7
100
AcDbPolyline
 90
40
 70
0
 10
77.214313
 20
202.114861
 30
0.0
 10
77.097367
 20
202.098961
 30
0.0
 10
76.981215
 20
202.077791
 30
0.0
 10
76.868238
 20
202.046021
 30
0.0
 10
76.758436
 20
202.003771
 30
0.0
 10
76.652073
 20
201.953441
 30
0.0
 10
76.548621
 20
201.895261
 30
0.0
 10
76.450721
 20
201.831761
 30
0.0
 10
76.357065
 20
201.757661
 30
0.0
 10
76.271863
 20
201.678271
 30
0.0
 10
76.191697
 20
201.593601
 30
0.0
 10
76.118668
 20
201.498431
 30
0.0
 10
76.053583
 20
201.400481
 30
0.0
 10
75.995906
 20
201.297301
 30
0.0
 10
75.946427
 20
201.191461
 30
0.0
 10
75.905159
 20
201.080341
 30
0.0
 10
75.873404
 20
200.969211
 30
0.0
 10
75.851174
 20
200.852801
 30
0.0
 10
75.836099
 20
200.736381
 30
0.0
 10
75.832098
 20
200.617321
 30
0.0
 10
75.836129
 20
200.500901
 30
0.0
 10
75.851178
 20
200.381841
 30
0.0
 10
75.873409
 20
200.268071
 30
0.0
 10
75.905154
 20
200.154301
 30
0.0
 10
75.946424
 20
200.043171
 30
0.0
 10
75.995909
 20
199.937341
 30
0.0
 10
76.053587
 20
199.834151
 30
0.0
 10
76.118676
 20
199.736251
 30
0.0
 10
76.191703
 20
199.643661
 30
0.0
 10
76.271868
 20
199.556351
 30
0.0
 10
76.357067
 20
199.476941
 30
0.0
 10
76.450723
 20
199.405561
 30
0.0
 10
76.548625
 20
199.339431
 30
0.0
 10
76.652073
 20
199.281181
 30
0.0
 10
76.758436
 20
199.233571
 30
0.0
 10
76.868238
 20
199.191251
 30
0.0
 10
76.981215
 20
199.159511
 30
0.0
 10
77.097367
 20
199.135661
 30
0.0
 10
77.214313
 20
199.122451
 30
0.0
 10
77.332582
 20
199.117421
 30
0.0
  0
LWPOLYLINE
  5
106
100
AcDbEntity
  8
Layer_1
 62
7
100
AcDbPolyline
 90
2
 70
0
 10
77.332582
 20
199.117131
 30
0.0
 10
77.450057
 20
199.122131
 30
0.0
  0
LWPOLYLINE
  5
107
100
AcDbEntity
  8
Layer_1
 62
7
100
AcDbPolyline
 90
40
 70
0
 10
77.450057
 20
199.122421
 30
0.0
 10
77.567267
 20
199.135621
 30
0.0
 10
77.682890
 20
199.159451
 30
0.0
 10
77.795867
 20
199.191161
 30
0.0
 10
77.905934
 20
199.233511
 30
0.0
 10
78.012032
 20
199.281151
 30
0.0
 10
78.115484
 20
199.339371
 30
0.0
 10
78.213374
 20
199.405481
 30
0.0
 10
78.306779
 20
199.476931
 30
0.0
 10
78.392237
 20
199.556361
 30
0.0
 10
78.472408
 20
199.643641
 30
0.0
 10
78.545437
 20
199.736251
 30
0.0
 10
78.609992
 20
199.834161
 30
0.0
 10
78.668200
 20
199.937341
 30
0.0
 10
78.717678
 20
200.043171
 30
0.0
 10
78.758685
 20
200.154301
 30
0.0
 10
78.790696
 20
200.268071
 30
0.0
 10
78.813980
 20
200.381841
 30
0.0
 10
78.828004
 20
200.500901
 30
0.0
 10
78.832007
 20
200.617321
 30
0.0
 10
78.827975
 20
200.736381
 30
0.0
 10
78.813987
 20
200.852801
 30
0.0
 10
78.790704
 20
200.969211
 30
0.0
 10
78.758690
 20
201.080341
 30
0.0
 10
78.717676
 20
201.191461
 30
0.0
 10
78.668195
 20
201.297301
 30
0.0
 10
78.609988
 20
201.400491
 30
0.0
 10
78.545430
 20
201.498391
 30
0.0
 10
78.472402
 20
201.593581
 30
0.0
 10
78.392237
 20
201.678331
 30
0.0
 10
78.306778
 20
201.757701
 30
0.0
 10
78.213377
 20
201.831771
 30
0.0
 10
78.115489
 20
201.895261
 30
0.0
 10
78.012032
 20
201.953461
 30
0.0
 10
77.905934
 20
202.003761
 30
0.0
 10
77.795867
 20
202.046041
 30
0.0
 10
77.682890
 20
202.077821
 30
0.0
 10
77.567267
 20
202.099021
 30
0.0
 10
77.450057
 20
202.114891
 30
0.0
 10
77.332582
 20
202.117861
 30
0.0
  0
LWPOLYLINE
  5
108
100
AcDbEntity
  8
Layer_1
 62
7
100
AcDbPolyline
 90
2
 70
0
 10
77.332582
 20
202.117511
 30
0.0
 10
77.214313
 20
202.114511
 30
0.0
  0
LWPOLYLINE
  5
109
100
AcDbEntity
  8
Layer_1
 62
7
100
AcDbPolyline
 90
60
 70
1
 10
14.181409
 20
216.143071
 30
0.0
 10
14.181409
 20
215.142941
 30
0.0
 10
13.382102
 20
215.142941
 30
0.0
 10
13.382102
 20
212.044671
 30
0.0
 10
14.181409
 20
212.044671
 30
0.0
 10
14.181409
 20
211.444071
 30
0.0
 10
12.657303
 20
211.444071
 30
0.0
 10
12.657303
 20
214.671991
 30
0.0
 10
10.932008
 20
214.671991
 30
0.0
 10
10.932008
 20
215.592741
 30
0.0
 10
7.631568
 20
215.592741
 30
0.0
 10
7.631568
 20
214.671991
 30
0.0
 10
5.906273
 20
214.671991
 30
0.0
 10
5.906273
 20
211.444071
 30
0.0
 10
5.082202
 20
211.444071
 30
0.0
 10
5.082202
 20
208.642131
 30
0.0
 10
5.906273
 20
208.642131
 30
0.0
 10
5.906273
 20
202.374151
 30
0.0
 10
7.631568
 20
202.374151
 30
0.0
 10
7.631568
 20
201.392551
 30
0.0
 10
10.932008
 20
201.392551
 30
0.0
 10
10.932008
 20
202.374151
 30
0.0
 10
12.657303
 20
202.374151
 30
0.0
 10
12.657303
 20
206.842961
 30
0.0
 10
14.181409
 20
206.842961
 30
0.0
 10
14.181409
 20
206.245011
 30
0.0
 10
13.382102
 20
206.245011
 30
0.0
 10
13.382102
 20
203.144091
 30
0.0
 10
14.181409
 20
203.144091
 30
0.0
 10
14.181409
 20
202.143961
 30
0.0
 10
28.182259
 20
202.143961
 30
0.0
 10
28.182259
 20
203.144091
 30
0.0
 10
28.981565
 20
203.144091
 30
0.0
 10
28.981565
 20
206.245011
 30
0.0
 10
28.182259
 20
206.245011
 30
0.0
 10
28.182259
 20
206.842961
 30
0.0
 10
29.706524
 20
206.842961
 30
0.0
 10
29.706524
 20
202.374151
 30
0.0
 10
31.431607
 20
202.374151
 30
0.0
 10
31.431607
 20
201.392551
 30
0.0
 10
34.732020
 20
201.392551
 30
0.0
 10
34.732020
 20
202.374151
 30
0.0
 10
36.457367
 20
202.374151
 30
0.0
 10
36.457367
 20
208.642131
 30
0.0
 10
37.281280
 20
208.642131
 30
0.0
 10
37.281280
 20
211.444071
 30
0.0
 10
36.457367
 20
211.444071
 30
0.0
 10
36.457367
 20
214.671991
 30
0.0
 10
34.732020
 20
214.671991
 30
0.0
 10
34.732020
 20
215.592741
 30
0.0
 10
31.431607
 20
215.592741
 30
0.0
 10
31.431607
 20
214.671991
 30
0.0
 10
29.706524
 20
214.671991
 30
0.0
 10
29.706524
 20
211.444071
 30
0.0
 10
28.182259
 20
211.444071
 30
0.0
 10
28.182259
 20
212.044671
 30
0.0
 10
28.981565
 20
212.044671
 30
0.0
 10
28.981565
 20
215.142941
 30
0.0
 10
28.182259
 20
215.142941
 30
0.0
 10
28.182259
 20
216.143071
 30
0.0
  0
LWPOLYLINE
  5
10a
100
AcDbEntity
  8
Layer_1
 62
7
100
AcDbPolyline
 90
20
 70
1
 10
42.756567
 20
216.143071
 30
0.0
 10
42.756567
 20
215.142941
 30
0.0
 10
41.956997
 20
215.142941
 30
0.0
 10
41.956997
 20
212.044671
 30
0.0
 10
42.756567
 20
212.044671
 30
0.0
 10
42.756567
 20
206.245011
 30
0.0
 10
41.956997
 20
206.245011
 30
0.0
 10
41.956997
 20
203.144091
 30
0.0
 10
42.756567
 20
203.144091
 30
0.0
 10
42.756567
 20
202.143961
 30
0.0
 10
56.757259
 20
202.143961
 30
0.0
 10
56.757259
 20
203.144091
 30
0.0
 10
57.556565
 20
203.144091
 30
0.0
 10
57.556565
 20
206.245011
 30
0.0
 10
56.757259
 20
206.245011
 30
0.0
 10
56.757259
 20
212.044671
 30
0.0
 10
57.556565
 20
212.044671
 30
0.0
 10
57.556565
 20
215.142941
 30
0.0
 10
56.757259
 20
215.142941
 30
0.0
 10
56.757259
 20
216.143071
 30
0.0
  0
LWPOLYLINE
  5
10b
100
AcDbEntity
  8
Layer_1
 62
7
100
AcDbPolyline
 90
60
 70
1
 10
69.615480
 20
234.767881
 30
0.0
 10
69.615480
 20
233.943971
 30
0.0
 10
75.885575
 20
233.943971
 30
0.0
 10
75.885575
 20
232.218621
 30
0.0
 10
76.865592
 20
232.218621
 30
0.0
 10
76.865592
 20
228.917151
 30
0.0
 10
75.885575
 20
228.917151
 30
0.0
 10
75.885575
 20
227.192071
 30
0.0
 10
71.415175
 20
227.192071
 30
0.0
 10
71.415175
 20
225.668071
 30
0.0
 10
72.016309
 20
225.668071
 30
0.0
 10
72.016309
 20
226.467111
 30
0.0
 10
75.115373
 20
226.467111
 30
0.0
 10
75.115373
 20
225.668071
 30
0.0
 10
76.115763
 20
225.668071
 30
0.0
 10
76.115763
 20
211.668961
 30
0.0
 10
75.115373
 20
211.668961
 30
0.0
 10
75.115373
 20
210.867281
 30
0.0
 10
72.016309
 20
210.867281
 30
0.0
 10
72.016309
 20
211.668961
 30
0.0
 10
71.415175
 20
211.668961
 30
0.0
 10
71.415175
 20
210.144961
 30
0.0
 10
75.885575
 20
210.144961
 30
0.0
 10
75.885575
 20
208.417241
 30
0.0
 10
76.865592
 20
208.417241
 30
0.0
 10
76.865592
 20
205.117881
 30
0.0
 10
75.885575
 20
205.117881
 30
0.0
 10
75.885575
 20
203.392801
 30
0.0
 10
69.615480
 20
203.392801
 30
0.0
 10
69.615480
 20
202.567301
 30
0.0
 10
66.815394
 20
202.567301
 30
0.0
 10
66.815394
 20
203.392801
 30
0.0
 10
63.585625
 20
203.392801
 30
0.0
 10
63.585625
 20
205.117881
 30
0.0
 10
62.666198
 20
205.117881
 30
0.0
 10
62.666198
 20
208.417241
 30
0.0
 10
63.585625
 20
208.417241
 30
0.0
 10
63.585625
 20
210.144961
 30
0.0
 10
66.815394
 20
210.144961
 30
0.0
 10
66.815394
 20
211.668961
 30
0.0
 10
66.216113
 20
211.668961
 30
0.0
 10
66.216113
 20
210.867281
 30
0.0
 10
63.115725
 20
210.867281
 30
0.0
 10
63.115725
 20
211.668961
 30
0.0
 10
62.115071
 20
211.668961
 30
0.0
 10
62.115071
 20
225.668071
 30
0.0
 10
63.115725
 20
225.668071
 30
0.0
 10
63.115725
 20
226.467111
 30
0.0
 10
66.216113
 20
226.467111
 30
0.0
 10
66.216113
 20
225.668071
 30
0.0
 10
66.815394
 20
225.668071
 30
0.0
 10
66.815394
 20
227.192071
 30
0.0
 10
63.585625
 20
227.192071
 30
0.0
 10
63.585625
 20
228.917151
 30
0.0
 10
62.666198
 20
228.917151
 30
0.0
 10
62.666198
 20
232.218621
 30
0.0
 10
63.585625
 20
232.218621
 30
0.0
 10
63.585625
 20
233.943971
 30
0.0
 10
66.815394
 20
233.943971
 30
0.0
 10
66.815394
 20
234.767881
 30
0.0
  0
LWPOLYLINE
  5
10c
100
AcDbEntity
  8
Layer_1
 62
7
100
AcDbPolyline
 90
20
 70
1
 10
4.655006
 20
235.193861
 30
0.0
 10
4.655006
 20
234.193211
 30
0.0
 10
3.855753
 20
234.193211
 30
0.0
 10
3.855753
 20
231.094141
 30
0.0
 10
4.655006
 20
231.094141
 30
0.0
 10
4.655006
 20
225.295011
 30
0.0
 10
3.855753
 20
225.295011
 30
0.0
 10
3.855753
 20
222.194091
 30
0.0
 10
4.655006
 20
222.194091
 30
0.0
 10
4.655006
 20
221.193961
 30
0.0
 10
18.657312
 20
221.193961
 30
0.0
 10
18.657312
 20
222.194091
 30
0.0
 10
19.456513
 20
222.194091
 30
0.0
 10
19.456513
 20
225.295011
 30
0.0
 10
18.657312
 20
225.295011
 30
0.0
 10
18.657312
 20
231.094141
 30
0.0
 10
19.456513
 20
231.094141
 30
0.0
 10
19.456513
 20
234.193211
 30
0.0
 10
18.657312
 20
234.193211
 30
0.0
 10
18.657312
 20
235.193861
 30
0.0
  0
LWPOLYLINE
  5
10d
100
AcDbEntity
  8
Layer_1
 62
7
100
AcDbPolyline
 90
20
 70
1
 10
23.706409
 20
235.193861
 30
0.0
 10
23.706409
 20
234.193211
 30
0.0
 10
22.907103
 20
234.193211
 30
0.0
 10
22.907103
 20
231.094141
 30
0.0
 10
23.706409
 20
231.094141
 30
0.0
 10
23.706409
 20
225.295011
 30
0.0
 10
22.907103
 20
225.295011
 30
0.0
 10
22.907103
 20
222.194091
 30
0.0
 10
23.706409
 20
222.194091
 30
0.0
 10
23.706409
 20
221.193961
 30
0.0
 10
37.707259
 20
221.193961
 30
0.0
 10
37.707259
 20
222.194091
 30
0.0
 10
38.506565
 20
222.194091
 30
0.0
 10
38.506565
 20
225.295011
 30
0.0
 10
37.707259
 20
225.295011
 30
0.0
 10
37.707259
 20
231.094141
 30
0.0
 10
38.506565
 20
231.094141
 30
0.0
 10
38.506565
 20
234.193211
 30
0.0
 10
37.707259
 20
234.193211
 30
0.0
 10
37.707259
 20
235.193861
 30
0.0
  0
LWPOLYLINE
  5
10e
100
AcDbEntity
  8
Layer_1
 62
7
100
AcDbPolyline
 90
20
 70
1
 10
42.756567
 20
235.193861
 30
0.0
 10
42.756567
 20
234.193211
 30
0.0
 10
41.956997
 20
234.193211
 30
0.0
 10
41.956997
 20
231.094141
 30
0.0
 10
42.756567
 20
231.094141
 30
0.0
 10
42.756567
 20
225.295011
 30
0.0
 10
41.956997
 20
225.295011
 30
0.0
 10
41.956997
 20
222.194091
 30
0.0
 10
42.756567
 20
222.194091
 30
0.0
 10
42.756567
 20
221.193961
 30
0.0
 10
56.757259
 20
221.193961
 30
0.0
 10
56.757259
 20
222.194091
 30
0.0
 10
57.556565
 20
222.194091
 30
0.0
 10
57.556565
 20
225.295011
 30
0.0
 10
56.757259
 20
225.295011
 30
0.0
 10
56.757259
 20
231.094141
 30
0.0
 10
57.556565
 20
231.094141
 30
0.0
 10
57.556565
 20
234.193211
 30
0.0
 10
56.757259
 20
234.193211
 30
0.0
 10
56.757259
 20
235.193861
 30
0.0
  0
LWPOLYLINE
  5
10f
100
AcDbEntity
  8
Layer_1
 62
7
100
AcDbPolyline
 90
20
 70
1
 10
4.655006
 20
254.243861
 30
0.0
 10
4.655006
 20
253.243211
 30
0.0
 10
3.855753
 20
253.243211
 30
0.0
 10
3.855753
 20
250.144141
 30
0.0
 10
4.655006
 20
250.144141
 30
0.0
 10
4.655006
 20
244.344211
 30
0.0
 10
3.855753
 20
244.344211
 30
0.0
 10
3.855753
 20
241.243561
 30
0.0
 10
4.655006
 20
241.243561
 30
0.0
 10
4.655006
 20
240.243171
 30
0.0
 10
18.657312
 20
240.243171
 30
0.0
 10
18.657312
 20
241.243561
 30
0.0
 10
19.456513
 20
241.243561
 30
0.0
 10
19.456513
 20
244.344211
 30
0.0
 10
18.657312
 20
244.344211
 30
0.0
 10
18.657312
 20
250.144141
 30
0.0
 10
19.456513
 20
250.144141
 30
0.0
 10
19.456513
 20
253.243211
 30
0.0
 10
18.657312
 20
253.243211
 30
0.0
 10
18.657312
 20
254.243861
 30
0.0
  0
LWPOLYLINE
  5
110
100
AcDbEntity
  8
Layer_1
 62
7
100
AcDbPolyline
 90
20
 70
1
 10
23.706409
 20
254.243861
 30
0.0
 10
23.706409
 20
253.243211
 30
0.0
 10
22.907103
 20
253.243211
 30
0.0
 10
22.907103
 20
250.144141
 30
0.0
 10
23.706409
 20
250.144141
 30
0.0
 10
23.706409
 20
244.344211
 30
0.0
 10
22.907103
 20
244.344211
 30
0.0
 10
22.907103
 20
241.243561
 30
0.0
 10
23.706409
 20
241.243561
 30
0.0
 10
23.706409
 20
240.243171
 30
0.0
 10
37.707259
 20
240.243171
 30
0.0
 10
37.707259
 20
241.243561
 30
0.0
 10
38.506565
 20
241.243561
 30
0.0
 10
38.506565
 20
244.344211
 30
0.0
 10
37.707259
 20
244.344211
 30
0.0
 10
37.707259
 20
250.144141
 30
0.0
 10
38.506565
 20
250.144141
 30
0.0
 10
38.506565
 20
253.243211
 30
0.0
 10
37.707259
 20
253.243211
 30
0.0
 10
37.707259
 20
254.243861
 30
0.0
  0
LWPOLYLINE
  5
111
100
AcDbEntity
  8
Layer_1
 62
7
100
AcDbPolyline
 90
20
 70
1
 10
42.756567
 20
254.243861
 30
0.0
 10
42.756567
 20
253.243211
 30
0.0
 10
41.956997
 20
253.243211
 30
0.0
 10
41.956997
 20
250.144141
 30
0.0
 10
42.756567
 20
250.144141
 30
0.0
 10
42.756567
 20
244.344211
 30
0.0
 10
41.956997
 20
244.344211
 30
0.0
 10
41.956997
 20
241.243561
 30
0.0
 10
42.756567
 20
241.243561
 30
0.0
 10
42.756567
 20
240.243171
 30
0.0
 10
56.757259
 20
240.243171
 30
0.0
 10
56.757259
 20
241.243561
 30
0.0
 10
57.556565
 20
241.243561
 30
0.0
 10
57.556565
 20
244.344211
 30
0.0
 10
56.757259
 20
244.344211
 30
0.0
 10
56.757259
 20
250.144141
 30
0.0
 10
57.556565
 20
250.144141
 30
0.0
 10
57.556565
 20
253.243211
 30
0.0
 10
56.757259
 20
253.243211
 30
0.0
 10
56.757259
 20
254.243861
 30
0.0
  0
LWPOLYLINE
  5
112
100
AcDbEntity
  8
Layer_1
 62
7
100
AcDbPolyline
 90
60
 70
1
 10
69.615480
 20
272.867883
 30
0.0
 10
69.615480
 20
272.043971
 30
0.0
 10
75.885575
 20
272.043971
 30
0.0
 10
75.885575
 20
270.318888
 30
0.0
 10
76.865592
 20
270.318888
 30
0.0
 10
76.865592
 20
267.018211
 30
0.0
 10
75.885575
 20
267.018211
 30
0.0
 10
75.885575
 20
265.293127
 30
0.0
 10
71.415175
 20
265.293127
 30
0.0
 10
71.415175
 20
263.768863
 30
0.0
 10
72.016309
 20
263.768863
 30
0.0
 10
72.016309
 20
264.568169
 30
0.0
 10
75.115373
 20
264.568169
 30
0.0
 10
75.115373
 20
263.768863
 30
0.0
 10
76.115763
 20
263.768863
 30
0.0
 10
76.115763
 20
249.768171
 30
0.0
 10
75.115373
 20
249.768171
 30
0.0
 10
75.115373
 20
248.968601
 30
0.0
 10
72.016309
 20
248.968601
 30
0.0
 10
72.016309
 20
249.768171
 30
0.0
 10
71.415175
 20
249.768171
 30
0.0
 10
71.415175
 20
248.243641
 30
0.0
 10
75.885575
 20
248.243641
 30
0.0
 10
75.885575
 20
246.518561
 30
0.0
 10
76.865592
 20
246.518561
 30
0.0
 10
76.865592
 20
243.217881
 30
0.0
 10
75.885575
 20
243.217881
 30
0.0
 10
75.885575
 20
241.493061
 30
0.0
 10
69.615480
 20
241.493061
 30
0.0
 10
69.615480
 20
240.668881
 30
0.0
 10
66.815394
 20
240.668881
 30
0.0
 10
66.815394
 20
241.493061
 30
0.0
 10
63.585625
 20
241.493061
 30
0.0
 10
63.585625
 20
243.217881
 30
0.0
 10
62.666198
 20
243.217881
 30
0.0
 10
62.666198
 20
246.518561
 30
0.0
 10
63.585625
 20
246.518561
 30
0.0
 10
63.585625
 20
248.243641
 30
0.0
 10
66.815394
 20
248.243641
 30
0.0
 10
66.815394
 20
249.768171
 30
0.0
 10
66.216113
 20
249.768171
 30
0.0
 10
66.216113
 20
248.968601
 30
0.0
 10
63.115725
 20
248.968601
 30
0.0
 10
63.115725
 20
249.768171
 30
0.0
 10
62.115071
 20
249.768171
 30
0.0
 10
62.115071
 20
263.768863
 30
0.0
 10
63.115725
 20
263.768863
 30
0.0
 10
63.115725
 20
264.568169
 30
0.0
 10
66.216113
 20
264.568169
 30
0.0
 10
66.216113
 20
263.768863
 30
0.0
 10
66.815394
 20
263.768863
 30
0.0
 10
66.815394
 20
265.293127
 30
0.0
 10
63.585625
 20
265.293127
 30
0.0
 10
63.585625
 20
267.018211
 30
0.0
 10
62.666198
 20
267.018211
 30
0.0
 10
62.666198
 20
270.318888
 30
0.0
 10
63.585625
 20
270.318888
 30
0.0
 10
63.585625
 20
272.043971
 30
0.0
 10
66.815394
 20
272.043971
 30
0.0
 10
66.815394
 20
272.867883
 30
0.0
  0
LWPOLYLINE
  5
113
100
AcDbEntity
  8
Layer_1
 62
7
100
AcDbPolyline
 90
40
 70
0
 10
40.113380
 20
258.238542
 30
0.0
 10
39.996434
 20
258.224782
 30
0.0
 10
39.881605
 20
258.203084
 30
0.0
 10
39.767305
 20
258.169748
 30
0.0
 10
39.657238
 20
258.130060
 30
0.0
 10
39.551140
 20
258.080323
 30
0.0
 10
39.447688
 20
258.022381
 30
0.0
 10
39.350058
 20
257.957817
 30
0.0
 10
39.257717
 20
257.884789
 30
0.0
 10
39.170937
 20
257.804624
 30
0.0
 10
39.090764
 20
257.717845
 30
0.0
 10
39.017745
 20
257.625502
 30
0.0
 10
38.953180
 20
257.527872
 30
0.0
 10
38.894972
 20
257.424419
 30
0.0
 10
38.845494
 20
257.316731
 30
0.0
 10
38.804227
 20
257.208251
 30
0.0
 10
38.772732
 20
257.093421
 30
0.0
 10
38.748926
 20
256.977801
 30
0.0
 10
38.736484
 20
256.862181
 30
0.0
 10
38.731188
 20
256.743381
 30
0.0
 10
38.736497
 20
256.625111
 30
0.0
 10
38.748928
 20
256.507901
 30
0.0
 10
38.772734
 20
256.393601
 30
0.0
 10
38.804226
 20
256.279301
 30
0.0
 10
38.845492
 20
256.168971
 30
0.0
 10
38.894977
 20
256.063141
 30
0.0
 10
38.953184
 20
255.959681
 30
0.0
 10
39.017742
 20
255.861481
 30
0.0
 10
39.090760
 20
255.769221
 30
0.0
 10
39.170935
 20
255.682381
 30
0.0
 10
39.257714
 20
255.602801
 30
0.0
 10
39.350057
 20
255.529761
 30
0.0
 10
39.447687
 20
255.464641
 30
0.0
 10
39.551140
 20
255.406951
 30
0.0
 10
39.657238
 20
255.357471
 30
0.0
 10
39.767305
 20
255.315991
 30
0.0
 10
39.881605
 20
255.284151
 30
0.0
 10
39.996434
 20
255.262201
 30
0.0
 10
40.113380
 20
255.248441
 30
0.0
 10
40.231913
 20
255.242481
 30
0.0
  0
LWPOLYLINE
  5
114
100
AcDbEntity
  8
Layer_1
 62
7
100
AcDbPolyline
 90
2
 70
0
 10
40.231913
 20
255.242931
 30
0.0
 10
40.350182
 20
255.248931
 30
0.0
  0
LWPOLYLINE
  5
115
100
AcDbEntity
  8
Layer_1
 62
7
100
AcDbPolyline
 90
41
 70
0
 10
40.350182
 20
255.248481
 30
0.0
 10
40.466334
 20
255.262281
 30
0.0
 10
40.581957
 20
255.284241
 30
0.0
 10
40.696257
 20
255.316001
 30
0.0
 10
40.805265
 20
255.357451
 30
0.0
 10
40.912422
 20
255.406991
 30
0.0
 10
41.015874
 20
255.464671
 30
0.0
 10
41.114034
 20
255.529751
 30
0.0
 10
41.206104
 20
255.602741
 30
0.0
 10
41.292889
 20
255.682361
 30
0.0
 10
41.372792
 20
255.769201
 30
0.0
 10
41.445827
 20
255.861481
 30
0.0
 10
41.510912
 20
255.959721
 30
0.0
 10
41.568589
 20
256.063141
 30
0.0
 10
41.618068
 20
256.168971
 30
0.0
 10
41.658015
 20
256.279301
 30
0.0
 10
41.691087
 20
256.393601
 30
0.0
 10
41.713310
 20
256.507901
 30
0.0
 10
41.727075
 20
256.625111
 30
0.0
 10
41.731274
 20
256.743381
 30
0.0
 10
41.727107
 20
256.862181
 30
0.0
 10
41.713314
 20
256.977801
 30
0.0
 10
41.691085
 20
257.093421
 30
0.0
 10
41.658020
 20
257.208251
 30
0.0
 10
41.618067
 20
257.316731
 30
0.0
 10
41.568585
 20
257.424419
 30
0.0
 10
41.510908
 20
257.527871
 30
0.0
 10
41.445819
 20
257.625501
 30
0.0
 10
41.372792
 20
257.717842
 30
0.0
 10
41.292897
 20
257.804622
 30
0.0
 10
41.206112
 20
257.884795
 30
0.0
 10
41.114039
 20
257.957824
 30
0.0
 10
41.015874
 20
258.022379
 30
0.0
 10
40.912422
 20
258.080317
 30
0.0
 10
40.805265
 20
258.130061
 30
0.0
 10
40.696257
 20
258.169753
 30
0.0
 10
40.581957
 20
258.203090
 30
0.0
 10
40.466334
 20
258.224788
 30
0.0
 10
40.350182
 20
258.238544
 30
0.0
 10
40.231913
 20
258.243042
 30
0.0
 10
40.113380
 20
258.238540
 30
0.0
  0
LWPOLYLINE
  5
116
100
AcDbEntity
  8
Layer_1
 62
7
100
AcDbPolyline
 90
20
 70
1
 10
4.655006
 20
273.293863
 30
0.0
 10
4.655006
 20
272.293208
 30
0.0
 10
3.855753
 20
272.293208
 30
0.0
 10
3.855753
 20
269.194144
 30
0.0
 10
4.655006
 20
269.194144
 30
0.0
 10
4.655006
 20
263.394213
 30
0.0
 10
3.855753
 20
263.394213
 30
0.0
 10
3.855753
 20
260.293561
 30
0.0
 10
4.655006
 20
260.293561
 30
0.0
 10
4.655006
 20
259.293171
 30
0.0
 10
18.657312
 20
259.293171
 30
0.0
 10
18.657312
 20
260.293561
 30
0.0
 10
19.456513
 20
260.293561
 30
0.0
 10
19.456513
 20
263.394213
 30
0.0
 10
18.657312
 20
263.394213
 30
0.0
 10
18.657312
 20
269.194144
 30
0.0
 10
19.456513
 20
269.194144
 30
0.0
 10
19.456513
 20
272.293208
 30
0.0
 10
18.657312
 20
272.293208
 30
0.0
 10
18.657312
 20
273.293863
 30
0.0
  0
LWPOLYLINE
  5
117
100
AcDbEntity
  8
Layer_1
 62
7
100
AcDbPolyline
 90
20
 70
1
 10
23.706409
 20
273.293863
 30
0.0
 10
23.706409
 20
272.293208
 30
0.0
 10
22.907103
 20
272.293208
 30
0.0
 10
22.907103
 20
269.194144
 30
0.0
 10
23.706409
 20
269.194144
 30
0.0
 10
23.706409
 20
263.394213
 30
0.0
 10
22.907103
 20
263.394213
 30
0.0
 10
22.907103
 20
260.293561
 30
0.0
 10
23.706409
 20
260.293561
 30
0.0
 10
23.706409
 20
259.293171
 30
0.0
 10
37.707259
 20
259.293171
 30
0.0
 10
37.707259
 20
260.293561
 30
0.0
 10
38.506565
 20
260.293561
 30
0.0
 10
38.506565
 20
263.394213
 30
0.0
 10
37.707259
 20
263.394213
 30
0.0
 10
37.707259
 20
269.194144
 30
0.0
 10
38.506565
 20
269.194144
 30
0.0
 10
38.506565
 20
272.293208
 30
0.0
 10
37.707259
 20
272.293208
 30
0.0
 10
37.707259
 20
273.293863
 30
0.0
  0
LWPOLYLINE
  5
118
100
AcDbEntity
  8
Layer_1
 62
7
100
AcDbPolyline
 90
20
 70
1
 10
42.756567
 20
273.293863
 30
0.0
 10
42.756567
 20
272.293208
 30
0.0
 10
41.956997
 20
272.293208
 30
0.0
 10
41.956997
 20
269.194144
 30
0.0
 10
42.756567
 20
269.194144
 30
0.0
 10
42.756567
 20
263.394213
 30
0.0
 10
41.956997
 20
263.394213
 30
0.0
 10
41.956997
 20
260.293561
 30
0.0
 10
42.756567
 20
260.293561
 30
0.0
 10
42.756567
 20
259.293171
 30
0.0
 10
56.757259
 20
259.293171
 30
0.0
 10
56.757259
 20
260.293561
 30
0.0
 10
57.556565
 20
260.293561
 30
0.0
 10
57.556565
 20
263.394213
 30
0.0
 10
56.757259
 20
263.394213
 30
0.0
 10
56.757259
 20
269.194144
 30
0.0
 10
57.556565
 20
269.194144
 30
0.0
 10
57.556565
 20
272.293208
 30
0.0
 10
56.757259
 20
272.293208
 30
0.0
 10
56.757259
 20
273.293863
 30
0.0
  0
LWPOLYLINE
  5
119
100
AcDbEntity
  8
Layer_1
 62
7
100
AcDbPolyline
 90
20
 70
1
 10
4.655006
 20
292.345186
 30
0.0
 10
4.655006
 20
291.344796
 30
0.0
 10
3.855753
 20
291.344796
 30
0.0
 10
3.855753
 20
288.244145
 30
0.0
 10
4.655006
 20
288.244145
 30
0.0
 10
4.655006
 20
282.444212
 30
0.0
 10
3.855753
 20
282.444212
 30
0.0
 10
3.855753
 20
279.343560
 30
0.0
 10
4.655006
 20
279.343560
 30
0.0
 10
4.655006
 20
278.343171
 30
0.0
 10
18.657312
 20
278.343171
 30
0.0
 10
18.657312
 20
279.343560
 30
0.0
 10
19.456513
 20
279.343560
 30
0.0
 10
19.456513
 20
282.444212
 30
0.0
 10
18.657312
 20
282.444212
 30
0.0
 10
18.657312
 20
288.244145
 30
0.0
 10
19.456513
 20
288.244145
 30
0.0
 10
19.456513
 20
291.344796
 30
0.0
 10
18.657312
 20
291.344796
 30
0.0
 10
18.657312
 20
292.345186
 30
0.0
  0
LWPOLYLINE
  5
11a
100
AcDbEntity
  8
Layer_1
 62
7
100
AcDbPolyline
 90
20
 70
1
 10
23.706409
 20
292.345186
 30
0.0
 10
23.706409
 20
291.344796
 30
0.0
 10
22.907103
 20
291.344796
 30
0.0
 10
22.907103
 20
288.244145
 30
0.0
 10
23.706409
 20
288.244145
 30
0.0
 10
23.706409
 20
282.444212
 30
0.0
 10
22.907103
 20
282.444212
 30
0.0
 10
22.907103
 20
279.343560
 30
0.0
 10
23.706409
 20
279.343560
 30
0.0
 10
23.706409
 20
278.343171
 30
0.0
 10
37.707259
 20
278.343171
 30
0.0
 10
37.707259
 20
279.343560
 30
0.0
 10
38.506565
 20
279.343560
 30
0.0
 10
38.506565
 20
282.444212
 30
0.0
 10
37.707259
 20
282.444212
 30
0.0
 10
37.707259
 20
288.244145
 30
0.0
 10
38.506565
 20
288.244145
 30
0.0
 10
38.506565
 20
291.344796
 30
0.0
 10
37.707259
 20
291.344796
 30
0.0
 10
37.707259
 20
292.345186
 30
0.0
  0
LWPOLYLINE
  5
11b
100
AcDbEntity
  8
Layer_1
 62
7
100
AcDbPolyline
 90
20
 70
1
 10
42.756567
 20
292.345186
 30
0.0
 10
42.756567
 20
291.344796
 30
0.0
 10
41.956997
 20
291.344796
 30
0.0
 10
41.956997
 20
288.244145
 30
0.0
 10
42.756567
 20
288.244145
 30
0.0
 10
42.756567
 20
282.444212
 30
0.0
 10
41.956997
 20
282.444212
 30
0.0
 10
41.956997
 20
279.343560
 30
0.0
 10
42.756567
 20
279.343560
 30
0.0
 10
42.756567
 20
278.343171
 30
0.0
 10
56.757259
 20
278.343171
 30
0.0
 10
56.757259
 20
279.343560
 30
0.0
 10
57.556565
 20
279.343560
 30
0.0
 10
57.556565
 20
282.444212
 30
0.0
 10
56.757259
 20
282.444212
 30
0.0
 10
56.757259
 20
288.244145
 30
0.0
 10
57.556565
 20
288.244145
 30
0.0
 10
57.556565
 20
291.344796
 30
0.0
 10
56.757259
 20
291.344796
 30
0.0
 10
56.757259
 20
292.345186
 30
0.0
  0
LWPOLYLINE
  5
11c
100
AcDbEntity
  8
Layer_1
 62
7
100
AcDbPolyline
 90
20
 70
1
 10
61.806567
 20
292.345186
 30
0.0
 10
61.806567
 20
291.344796
 30
0.0
 10
61.006996
 20
291.344796
 30
0.0
 10
61.006996
 20
288.244145
 30
0.0
 10
61.806567
 20
288.244145
 30
0.0
 10
61.806567
 20
282.444212
 30
0.0
 10
61.006996
 20
282.444212
 30
0.0
 10
61.006996
 20
279.343560
 30
0.0
 10
61.806567
 20
279.343560
 30
0.0
 10
61.806567
 20
278.343171
 30
0.0
 10
75.807259
 20
278.343171
 30
0.0
 10
75.807259
 20
279.343560
 30
0.0
 10
76.606565
 20
279.343560
 30
0.0
 10
76.606565
 20
282.444212
 30
0.0
 10
75.807259
 20
282.444212
 30
0.0
 10
75.807259
 20
288.244145
 30
0.0
 10
76.606565
 20
288.244145
 30
0.0
 10
76.606565
 20
291.344796
 30
0.0
 10
75.807259
 20
291.344796
 30
0.0
 10
75.807259
 20
292.345186
 30
0.0
  0
ENDSEC
  0
SECTION
  2
OBJECTS
  0
DICTIONARY
  5
C
330
0
100
AcDbDictionary
  3
ACAD_GROUP
350
D
  3
ACAD_MLINESTYLE
350
17
  0
DICTIONARY
  5
D
330
C
100
AcDbDictionary
  0
DICTIONARY
  5
1A
330
C
100
AcDbDictionary
  0
DICTIONARY
  5
17
330
C
100
AcDbDictionary
  3
STANDARD
350
18
  0
DICTIONARY
  5
19
330
C
100
AcDbDictionary
  0
ENDSEC
  0
EOF
