  0
SECTION
  2
HEADER
  9
$ACADVER
  1
AC1014
  9
$HANDSEED
  5
FFFF
  9
$MEASUREMENT
 70
     1
  0
ENDSEC
  0
SECTION
  2
TABLES
  0
TABLE
  2
VPORT
  5
8
330
0
100
AcDbSymbolTable
 70
     4
  0
VPORT
  5
2E
330
8
100
AcDbSymbolTableRecord
100
AcDbViewportTableRecord
  2
*ACTIVE
 70
     0
 10
0.0
 20
0.0
 11
1.0
 21
1.0
 12
210.0
 22
148.5
 13
0.0
 23
0.0
 14
10.0
 24
10.0
 15
10.0
 25
10.0
 16
0.0
 26
0.0
 36
1.0
 17
0.0
 27
0.0
 37
0.0
 40
341.0
 41
1.24
 42
50.0
 43
0.0
 44
0.0
 50
0.0
 51
0.0
 71
     0
 72
   100
 73
     1
 74
     3
 75
     0
 76
     0
 77
     0
 78
     0
  0
ENDTAB
  0
TABLE
  2
LTYPE
  5
5
330
0
100
AcDbSymbolTable
 70
     1
  0
LTYPE
  5
14
330
5
100
AcDbSymbolTableRecord
100
AcDbLinetypeTableRecord
  2
BYBLOCK
 70
     0
  3

 72
    65
 73
     0
 40
0.0
  0
LTYPE
  5
15
330
5
100
AcDbSymbolTableRecord
100
AcDbLinetypeTableRecord
  2
BYLAYER
 70
     0
  3

 72
    65
 73
     0
 40
0.0
  0
LTYPE
  5
16
330
5
100
AcDbSymbolTableRecord
100
AcDbLinetypeTableRecord
  2
CONTINUOUS
 70
     0
  3
Solid line
 72
    65
 73
     0
 40
0.0
  0
ENDTAB
  0
TABLE
  2
LAYER
  5
2
100
AcDbSymbolTable
 70
2
  0
LAYER
  5
50
100
AcDbSymbolTableRecord
100
AcDbLayerTableRecord
  2
0
 70
0
  6
CONTINUOUS
  0
LAYER
  5
51
100
AcDbSymbolTableRecord
100
AcDbLayerTableRecord
  2
Layer_1
 70
0
  6
CONTINUOUS
  0
ENDTAB
  0
TABLE
  2
STYLE
  5
3
330
0
100
AcDbSymbolTable
 70
     1
  0
STYLE
  5
11
330
3
100
AcDbSymbolTableRecord
100
AcDbTextStyleTableRecord
  2
STANDARD
 70
     0
 40
0.0
 41
1.0
 50
0.0
 71
     0
 42
2.5
  3
txt
  4

  0
ENDTAB
  0
TABLE
  2
VIEW
  5
6
330
0
100
AcDbSymbolTable
 70
     0
  0
ENDTAB
  0
TABLE
  2
UCS
  5
7
330
0
100
AcDbSymbolTable
 70
     0
  0
ENDTAB
  0
TABLE
  2
APPID
  5
9
330
0
100
AcDbSymbolTable
 70
     2
  0
APPID
  5
12
330
9
100
AcDbSymbolTableRecord
100
AcDbRegAppTableRecord
  2
ACAD
 70
     0
  0
ENDTAB
  0
TABLE
  2
DIMSTYLE
  5
A
330
0
100
AcDbSymbolTable
 70
     1
  0
DIMSTYLE
105
27
330
A
100
AcDbSymbolTableRecord
100
AcDbDimStyleTableRecord
  2
ISO-25
 70
     0
  3

  4

  5

  6

  7

 40
1.0
 41
2.5
 42
0.625
 43
3.75
 44
1.25
 45
0.0
 46
0.0
 47
0.0
 48
0.0
140
2.5
141
2.5
142
0.0
143
0.03937007874016
144
1.0
145
0.0
146
1.0
147
0.625
 71
     0
 72
     0
 73
     0
 74
     0
 75
     0
 76
     0
 77
     1
 78
     8
170
     0
171
     3
172
     1
173
     0
174
     0
175
     0
176
     0
177
     0
178
     0
270
     2
271
     2
272
     2
273
     2
274
     3
340
11
275
     0
280
     0
281
     0
282
     0
283
     0
284
     8
285
     0
286
     0
287
     3
288
     0
  0
ENDTAB
  0
TABLE
  2
BLOCK_RECORD
  5
1
330
0
100
AcDbSymbolTable
 70
     1
  0
BLOCK_RECORD
  5
1F
330
1
100
AcDbSymbolTableRecord
100
AcDbBlockTableRecord
  2
*MODEL_SPACE
  0
BLOCK_RECORD
  5
1B
330
1
100
AcDbSymbolTableRecord
100
AcDbBlockTableRecord
  2
*PAPER_SPACE
  0
ENDTAB
  0
ENDSEC
  0
SECTION
  2
BLOCKS
  0
BLOCK
  5
20
330
1F
100
AcDbEntity
  8
0
100
AcDbBlockBegin
  2
*MODEL_SPACE
 70
     0
 10
0.0
 20
0.0
 30
0.0
  3
*MODEL_SPACE
  1

  0
ENDBLK
  5
21
330
1F
100
AcDbEntity
  8
0
100
AcDbBlockEnd
  0
BLOCK
  5
1C
330
1B
100
AcDbEntity
 67
     1
  8
0
100
AcDbBlockBegin
  2
*PAPER_SPACE
  1

  0
ENDBLK
  5
1D
330
1B
100
AcDbEntity
 67
     1
  8
0
100
AcDbBlockEnd
  0
ENDSEC
  0
SECTION
  2
ENTITIES
  0
LWPOLYLINE
  5
100
100
AcDbEntity
  8
Layer_1
 62
7
100
AcDbPolyline
 90
2
 70
0
 10
0.072500
 20
296.867709
 30
0.0
 10
80.272501
 20
296.867709
 30
0.0
  0
LWPOLYLINE
  5
101
100
AcDbEntity
  8
Layer_1
 62
7
100
AcDbPolyline
 90
2
 70
0
 10
80.275001
 20
296.808209
 30
0.0
 10
80.275001
 20
266.808218
 30
0.0
  0
LWPOLYLINE
  5
102
100
AcDbEntity
  8
Layer_1
 62
7
100
AcDbPolyline
 90
2
 70
0
 10
80.272504
 20
266.786918
 30
0.0
 10
0.072500
 20
266.786918
 30
0.0
  0
LWPOLYLINE
  5
103
100
AcDbEntity
  8
Layer_1
 62
7
100
AcDbPolyline
 90
2
 70
0
 10
0.072733
 20
266.808218
 30
0.0
 10
0.072733
 20
296.808209
 30
0.0
  0
LWPOLYLINE
  5
104
100
AcDbEntity
  8
Layer_1
 62
7
100
AcDbPolyline
 90
80
 70
1
 10
3.054007
 20
294.805656
 30
0.0
 10
2.976855
 20
294.795073
 30
0.0
 10
2.899676
 20
294.781843
 30
0.0
 10
2.823873
 20
294.760677
 30
0.0
 10
2.750848
 20
294.731573
 30
0.0
 10
2.679189
 20
294.699823
 30
0.0
 10
2.610288
 20
294.660135
 30
0.0
 10
2.545519
 20
294.617802
 30
0.0
 10
2.483508
 20
294.567531
 30
0.0
 10
2.425631
 20
294.517260
 30
0.0
 10
2.371889
 20
294.459052
 30
0.0
 10
2.323660
 20
294.395552
 30
0.0
 10
2.280938
 20
294.332052
 30
0.0
 10
2.240978
 20
294.260615
 30
0.0
 10
2.209279
 20
294.191823
 30
0.0
 10
2.181720
 20
294.117740
 30
0.0
 10
2.159669
 20
294.043657
 30
0.0
 10
2.145890
 20
293.964282
 30
0.0
 10
2.136240
 20
293.887553
 30
0.0
 10
2.132110
 20
293.808178
 30
0.0
 10
2.136240
 20
293.728803
 30
0.0
 10
2.145890
 20
293.652074
 30
0.0
 10
2.159669
 20
293.575345
 30
0.0
 10
2.181720
 20
293.498616
 30
0.0
 10
2.209279
 20
293.427178
 30
0.0
 10
2.240978
 20
293.355741
 30
0.0
 10
2.280938
 20
293.286949
 30
0.0
 10
2.323660
 20
293.220804
 30
0.0
 10
2.371889
 20
293.159950
 30
0.0
 10
2.425631
 20
293.101741
 30
0.0
 10
2.483508
 20
293.048825
 30
0.0
 10
2.545519
 20
292.998554
 30
0.0
 10
2.610288
 20
292.956221
 30
0.0
 10
2.679189
 20
292.916533
 30
0.0
 10
2.750848
 20
292.884783
 30
0.0
 10
2.823873
 20
292.858325
 30
0.0
 10
2.899676
 20
292.837158
 30
0.0
 10
2.976855
 20
292.821283
 30
0.0
 10
3.054007
 20
292.810700
 30
0.0
 10
3.133938
 20
292.808054
 30
0.0
 10
3.209741
 20
292.810700
 30
0.0
 10
3.289672
 20
292.821283
 30
0.0
 10
3.366824
 20
292.837158
 30
0.0
 10
3.442627
 20
292.858325
 30
0.0
 10
3.515652
 20
292.884783
 30
0.0
 10
3.585925
 20
292.916533
 30
0.0
 10
3.654849
 20
292.956221
 30
0.0
 10
3.720995
 20
292.998554
 30
0.0
 10
3.783013
 20
293.048825
 30
0.0
 10
3.840851
 20
293.101741
 30
0.0
 10
3.893238
 20
293.159950
 30
0.0
 10
3.942848
 20
293.220804
 30
0.0
 10
3.985578
 20
293.286949
 30
0.0
 10
4.024180
 20
293.355741
 30
0.0
 10
4.055825
 20
293.427178
 30
0.0
 10
4.084796
 20
293.498616
 30
0.0
 10
4.105460
 20
293.575345
 30
0.0
 10
4.120594
 20
293.652074
 30
0.0
 10
4.128902
 20
293.728803
 30
0.0
 10
4.133030
 20
293.808178
 30
0.0
 10
4.128902
 20
293.887553
 30
0.0
 10
4.120594
 20
293.964282
 30
0.0
 10
4.105460
 20
294.043657
 30
0.0
 10
4.084796
 20
294.117740
 30
0.0
 10
4.055825
 20
294.191823
 30
0.0
 10
4.024180
 20
294.260615
 30
0.0
 10
3.985578
 20
294.332052
 30
0.0
 10
3.942848
 20
294.395552
 30
0.0
 10
3.893238
 20
294.459052
 30
0.0
 10
3.840851
 20
294.517260
 30
0.0
 10
3.783013
 20
294.567531
 30
0.0
 10
3.720995
 20
294.617802
 30
0.0
 10
3.654849
 20
294.660135
 30
0.0
 10
3.585925
 20
294.699823
 30
0.0
 10
3.515652
 20
294.731573
 30
0.0
 10
3.442627
 20
294.760677
 30
0.0
 10
3.366824
 20
294.781843
 30
0.0
 10
3.289672
 20
294.795073
 30
0.0
 10
3.209741
 20
294.805656
 30
0.0
 10
3.133938
 20
294.808302
 30
0.0
  0
LWPOLYLINE
  5
105
100
AcDbEntity
  8
Layer_1
 62
7
100
AcDbPolyline
 90
80
 70
1
 10
3.054008
 20
270.781041
 30
0.0
 10
2.976856
 20
270.770458
 30
0.0
 10
2.899677
 20
270.757228
 30
0.0
 10
2.823874
 20
270.736062
 30
0.0
 10
2.750849
 20
270.706958
 30
0.0
 10
2.679189
 20
270.675208
 30
0.0
 10
2.610289
 20
270.635520
 30
0.0
 10
2.545519
 20
270.593187
 30
0.0
 10
2.483509
 20
270.542916
 30
0.0
 10
2.425631
 20
270.492645
 30
0.0
 10
2.371889
 20
270.434437
 30
0.0
 10
2.323661
 20
270.370937
 30
0.0
 10
2.280939
 20
270.307437
 30
0.0
 10
2.240979
 20
270.236000
 30
0.0
 10
2.209279
 20
270.167208
 30
0.0
 10
2.181720
 20
270.093125
 30
0.0
 10
2.159670
 20
270.019042
 30
0.0
 10
2.145890
 20
269.939667
 30
0.0
 10
2.136241
 20
269.862938
 30
0.0
 10
2.132111
 20
269.783563
 30
0.0
 10
2.136241
 20
269.704188
 30
0.0
 10
2.145890
 20
269.627459
 30
0.0
 10
2.159670
 20
269.550730
 30
0.0
 10
2.181720
 20
269.474001
 30
0.0
 10
2.209279
 20
269.402563
 30
0.0
 10
2.240979
 20
269.331126
 30
0.0
 10
2.280939
 20
269.262334
 30
0.0
 10
2.323661
 20
269.196189
 30
0.0
 10
2.371889
 20
269.135335
 30
0.0
 10
2.425631
 20
269.077126
 30
0.0
 10
2.483509
 20
269.024210
 30
0.0
 10
2.545519
 20
268.973939
 30
0.0
 10
2.610289
 20
268.931606
 30
0.0
 10
2.679189
 20
268.891918
 30
0.0
 10
2.750849
 20
268.860168
 30
0.0
 10
2.823874
 20
268.833710
 30
0.0
 10
2.899677
 20
268.812543
 30
0.0
 10
2.976856
 20
268.796668
 30
0.0
 10
3.054008
 20
268.786085
 30
0.0
 10
3.133938
 20
268.783439
 30
0.0
 10
3.209742
 20
268.786085
 30
0.0
 10
3.289672
 20
268.796668
 30
0.0
 10
3.366824
 20
268.812543
 30
0.0
 10
3.442627
 20
268.833710
 30
0.0
 10
3.515652
 20
268.860168
 30
0.0
 10
3.585926
 20
268.891918
 30
0.0
 10
3.654850
 20
268.931606
 30
0.0
 10
3.720995
 20
268.973939
 30
0.0
 10
3.783014
 20
269.024210
 30
0.0
 10
3.840851
 20
269.077126
 30
0.0
 10
3.893239
 20
269.135335
 30
0.0
 10
3.942848
 20
269.196189
 30
0.0
 10
3.985578
 20
269.262334
 30
0.0
 10
4.024181
 20
269.331126
 30
0.0
 10
4.055825
 20
269.402563
 30
0.0
 10
4.084797
 20
269.474001
 30
0.0
 10
4.105461
 20
269.550730
 30
0.0
 10
4.120595
 20
269.627459
 30
0.0
 10
4.128903
 20
269.704188
 30
0.0
 10
4.133030
 20
269.783563
 30
0.0
 10
4.128903
 20
269.862938
 30
0.0
 10
4.120595
 20
269.939667
 30
0.0
 10
4.105461
 20
270.019042
 30
0.0
 10
4.084797
 20
270.093125
 30
0.0
 10
4.055825
 20
270.167208
 30
0.0
 10
4.024181
 20
270.236000
 30
0.0
 10
3.985578
 20
270.307437
 30
0.0
 10
3.942848
 20
270.370937
 30
0.0
 10
3.893239
 20
270.434437
 30
0.0
 10
3.840851
 20
270.492645
 30
0.0
 10
3.783014
 20
270.542916
 30
0.0
 10
3.720995
 20
270.593187
 30
0.0
 10
3.654850
 20
270.635520
 30
0.0
 10
3.585926
 20
270.675208
 30
0.0
 10
3.515652
 20
270.706958
 30
0.0
 10
3.442627
 20
270.736062
 30
0.0
 10
3.366824
 20
270.757228
 30
0.0
 10
3.289672
 20
270.770458
 30
0.0
 10
3.209742
 20
270.781041
 30
0.0
 10
3.133938
 20
270.783687
 30
0.0
  0
LWPOLYLINE
  5
106
100
AcDbEntity
  8
Layer_1
 62
7
100
AcDbPolyline
 90
80
 70
1
 10
77.254007
 20
294.805656
 30
0.0
 10
77.176855
 20
294.795073
 30
0.0
 10
77.099676
 20
294.781843
 30
0.0
 10
77.023873
 20
294.760677
 30
0.0
 10
76.950848
 20
294.731573
 30
0.0
 10
76.879189
 20
294.699823
 30
0.0
 10
76.810288
 20
294.660135
 30
0.0
 10
76.745519
 20
294.617802
 30
0.0
 10
76.683508
 20
294.567531
 30
0.0
 10
76.625631
 20
294.517260
 30
0.0
 10
76.571889
 20
294.459052
 30
0.0
 10
76.523660
 20
294.395552
 30
0.0
 10
76.480938
 20
294.332052
 30
0.0
 10
76.440978
 20
294.260615
 30
0.0
 10
76.409279
 20
294.191823
 30
0.0
 10
76.381720
 20
294.117740
 30
0.0
 10
76.359669
 20
294.043657
 30
0.0
 10
76.345890
 20
293.964282
 30
0.0
 10
76.336240
 20
293.887553
 30
0.0
 10
76.332110
 20
293.808178
 30
0.0
 10
76.336240
 20
293.728803
 30
0.0
 10
76.345890
 20
293.652074
 30
0.0
 10
76.359669
 20
293.575345
 30
0.0
 10
76.381720
 20
293.498616
 30
0.0
 10
76.409279
 20
293.427178
 30
0.0
 10
76.440978
 20
293.355741
 30
0.0
 10
76.480938
 20
293.286949
 30
0.0
 10
76.523660
 20
293.220804
 30
0.0
 10
76.571889
 20
293.159950
 30
0.0
 10
76.625631
 20
293.101741
 30
0.0
 10
76.683508
 20
293.048825
 30
0.0
 10
76.745519
 20
292.998554
 30
0.0
 10
76.810288
 20
292.956221
 30
0.0
 10
76.879189
 20
292.916533
 30
0.0
 10
76.950848
 20
292.884783
 30
0.0
 10
77.023873
 20
292.858325
 30
0.0
 10
77.099676
 20
292.837158
 30
0.0
 10
77.176855
 20
292.821283
 30
0.0
 10
77.254007
 20
292.810700
 30
0.0
 10
77.333938
 20
292.808054
 30
0.0
 10
77.409741
 20
292.810700
 30
0.0
 10
77.489672
 20
292.821283
 30
0.0
 10
77.566824
 20
292.837158
 30
0.0
 10
77.642627
 20
292.858325
 30
0.0
 10
77.715652
 20
292.884783
 30
0.0
 10
77.785925
 20
292.916533
 30
0.0
 10
77.854849
 20
292.956221
 30
0.0
 10
77.920995
 20
292.998554
 30
0.0
 10
77.983013
 20
293.048825
 30
0.0
 10
78.040851
 20
293.101741
 30
0.0
 10
78.093238
 20
293.159950
 30
0.0
 10
78.142848
 20
293.220804
 30
0.0
 10
78.185578
 20
293.286949
 30
0.0
 10
78.224180
 20
293.355741
 30
0.0
 10
78.255825
 20
293.427178
 30
0.0
 10
78.284796
 20
293.498616
 30
0.0
 10
78.305460
 20
293.575345
 30
0.0
 10
78.320594
 20
293.652074
 30
0.0
 10
78.328902
 20
293.728803
 30
0.0
 10
78.333030
 20
293.808178
 30
0.0
 10
78.328902
 20
293.887553
 30
0.0
 10
78.320594
 20
293.964282
 30
0.0
 10
78.305460
 20
294.043657
 30
0.0
 10
78.284796
 20
294.117740
 30
0.0
 10
78.255825
 20
294.191823
 30
0.0
 10
78.224180
 20
294.260615
 30
0.0
 10
78.185578
 20
294.332052
 30
0.0
 10
78.142848
 20
294.395552
 30
0.0
 10
78.093238
 20
294.459052
 30
0.0
 10
78.040851
 20
294.517260
 30
0.0
 10
77.983013
 20
294.567531
 30
0.0
 10
77.920995
 20
294.617802
 30
0.0
 10
77.854849
 20
294.660135
 30
0.0
 10
77.785925
 20
294.699823
 30
0.0
 10
77.715652
 20
294.731573
 30
0.0
 10
77.642627
 20
294.760677
 30
0.0
 10
77.566824
 20
294.781843
 30
0.0
 10
77.489672
 20
294.795073
 30
0.0
 10
77.409741
 20
294.805656
 30
0.0
 10
77.333938
 20
294.808302
 30
0.0
  0
LWPOLYLINE
  5
107
100
AcDbEntity
  8
Layer_1
 62
7
100
AcDbPolyline
 90
80
 70
1
 10
77.253960
 20
270.781041
 30
0.0
 10
77.176808
 20
270.770458
 30
0.0
 10
77.099629
 20
270.757228
 30
0.0
 10
77.023826
 20
270.736062
 30
0.0
 10
76.950801
 20
270.706958
 30
0.0
 10
76.879141
 20
270.675208
 30
0.0
 10
76.810241
 20
270.635520
 30
0.0
 10
76.745471
 20
270.593187
 30
0.0
 10
76.683461
 20
270.542916
 30
0.0
 10
76.625583
 20
270.492645
 30
0.0
 10
76.571841
 20
270.434437
 30
0.0
 10
76.523613
 20
270.370937
 30
0.0
 10
76.480891
 20
270.307437
 30
0.0
 10
76.440931
 20
270.236000
 30
0.0
 10
76.409231
 20
270.167208
 30
0.0
 10
76.381672
 20
270.093125
 30
0.0
 10
76.359622
 20
270.019042
 30
0.0
 10
76.345842
 20
269.939667
 30
0.0
 10
76.336193
 20
269.862938
 30
0.0
 10
76.332063
 20
269.783563
 30
0.0
 10
76.336193
 20
269.704188
 30
0.0
 10
76.345842
 20
269.627459
 30
0.0
 10
76.359622
 20
269.550730
 30
0.0
 10
76.381672
 20
269.474001
 30
0.0
 10
76.409231
 20
269.402563
 30
0.0
 10
76.440931
 20
269.331126
 30
0.0
 10
76.480891
 20
269.262334
 30
0.0
 10
76.523613
 20
269.196189
 30
0.0
 10
76.571841
 20
269.135335
 30
0.0
 10
76.625583
 20
269.077126
 30
0.0
 10
76.683461
 20
269.024210
 30
0.0
 10
76.745471
 20
268.973939
 30
0.0
 10
76.810241
 20
268.931606
 30
0.0
 10
76.879141
 20
268.891918
 30
0.0
 10
76.950801
 20
268.860168
 30
0.0
 10
77.023826
 20
268.833710
 30
0.0
 10
77.099629
 20
268.812543
 30
0.0
 10
77.176808
 20
268.796668
 30
0.0
 10
77.253960
 20
268.786085
 30
0.0
 10
77.333890
 20
268.783439
 30
0.0
 10
77.409694
 20
268.786085
 30
0.0
 10
77.489624
 20
268.796668
 30
0.0
 10
77.566776
 20
268.812543
 30
0.0
 10
77.642579
 20
268.833710
 30
0.0
 10
77.715604
 20
268.860168
 30
0.0
 10
77.785878
 20
268.891918
 30
0.0
 10
77.854802
 20
268.931606
 30
0.0
 10
77.920947
 20
268.973939
 30
0.0
 10
77.982966
 20
269.024210
 30
0.0
 10
78.040803
 20
269.077126
 30
0.0
 10
78.093191
 20
269.135335
 30
0.0
 10
78.142800
 20
269.196189
 30
0.0
 10
78.185530
 20
269.262334
 30
0.0
 10
78.224133
 20
269.331126
 30
0.0
 10
78.255777
 20
269.402563
 30
0.0
 10
78.284749
 20
269.474001
 30
0.0
 10
78.305413
 20
269.550730
 30
0.0
 10
78.320547
 20
269.627459
 30
0.0
 10
78.328855
 20
269.704188
 30
0.0
 10
78.332982
 20
269.783563
 30
0.0
 10
78.328855
 20
269.862938
 30
0.0
 10
78.320547
 20
269.939667
 30
0.0
 10
78.305413
 20
270.019042
 30
0.0
 10
78.284749
 20
270.093125
 30
0.0
 10
78.255777
 20
270.167208
 30
0.0
 10
78.224133
 20
270.236000
 30
0.0
 10
78.185530
 20
270.307437
 30
0.0
 10
78.142800
 20
270.370937
 30
0.0
 10
78.093191
 20
270.434437
 30
0.0
 10
78.040803
 20
270.492645
 30
0.0
 10
77.982966
 20
270.542916
 30
0.0
 10
77.920947
 20
270.593187
 30
0.0
 10
77.854802
 20
270.635520
 30
0.0
 10
77.785878
 20
270.675208
 30
0.0
 10
77.715604
 20
270.706958
 30
0.0
 10
77.642579
 20
270.736062
 30
0.0
 10
77.566776
 20
270.757228
 30
0.0
 10
77.489624
 20
270.770458
 30
0.0
 10
77.409694
 20
270.781041
 30
0.0
 10
77.333890
 20
270.783687
 30
0.0
  0
ENDSEC
  0
SECTION
  2
OBJECTS
  0
DICTIONARY
  5
C
330
0
100
AcDbDictionary
  3
ACAD_GROUP
350
D
  3
ACAD_MLINESTYLE
350
17
  0
DICTIONARY
  5
D
330
C
100
AcDbDictionary
  0
DICTIONARY
  5
1A
330
C
100
AcDbDictionary
  0
DICTIONARY
  5
17
330
C
100
AcDbDictionary
  3
STANDARD
350
18
  0
DICTIONARY
  5
19
330
C
100
AcDbDictionary
  0
ENDSEC
  0
EOF
