  0
SECTION
  2
HEADER
  9
$ACADVER
  1
AC1014
  9
$HANDSEED
  5
FFFF
  9
$MEASUREMENT
 70
     1
  0
ENDSEC
  0
SECTION
  2
TABLES
  0
TABLE
  2
VPORT
  5
8
330
0
100
AcDbSymbolTable
 70
     4
  0
VPORT
  5
2E
330
8
100
AcDbSymbolTableRecord
100
AcDbViewportTableRecord
  2
*ACTIVE
 70
     0
 10
0.0
 20
0.0
 11
1.0
 21
1.0
 12
210.0
 22
148.5
 13
0.0
 23
0.0
 14
10.0
 24
10.0
 15
10.0
 25
10.0
 16
0.0
 26
0.0
 36
1.0
 17
0.0
 27
0.0
 37
0.0
 40
341.0
 41
1.24
 42
50.0
 43
0.0
 44
0.0
 50
0.0
 51
0.0
 71
     0
 72
   100
 73
     1
 74
     3
 75
     0
 76
     0
 77
     0
 78
     0
  0
ENDTAB
  0
TABLE
  2
LTYPE
  5
5
330
0
100
AcDbSymbolTable
 70
     1
  0
LTYPE
  5
14
330
5
100
AcDbSymbolTableRecord
100
AcDbLinetypeTableRecord
  2
BYBLOCK
 70
     0
  3

 72
    65
 73
     0
 40
0.0
  0
LTYPE
  5
15
330
5
100
AcDbSymbolTableRecord
100
AcDbLinetypeTableRecord
  2
BYLAYER
 70
     0
  3

 72
    65
 73
     0
 40
0.0
  0
LTYPE
  5
16
330
5
100
AcDbSymbolTableRecord
100
AcDbLinetypeTableRecord
  2
CONTINUOUS
 70
     0
  3
Solid line
 72
    65
 73
     0
 40
0.0
  0
ENDTAB
  0
TABLE
  2
LAYER
  5
2
100
AcDbSymbolTable
 70
1
  0
LAYER
  5
50
100
AcDbSymbolTableRecord
100
AcDbLayerTableRecord
  2
0
 70
0
  6
CONTINUOUS
  0
ENDTAB
  0
TABLE
  2
STYLE
  5
3
330
0
100
AcDbSymbolTable
 70
     1
  0
STYLE
  5
11
330
3
100
AcDbSymbolTableRecord
100
AcDbTextStyleTableRecord
  2
STANDARD
 70
     0
 40
0.0
 41
1.0
 50
0.0
 71
     0
 42
2.5
  3
txt
  4

  0
ENDTAB
  0
TABLE
  2
VIEW
  5
6
330
0
100
AcDbSymbolTable
 70
     0
  0
ENDTAB
  0
TABLE
  2
UCS
  5
7
330
0
100
AcDbSymbolTable
 70
     0
  0
ENDTAB
  0
TABLE
  2
APPID
  5
9
330
0
100
AcDbSymbolTable
 70
     2
  0
APPID
  5
12
330
9
100
AcDbSymbolTableRecord
100
AcDbRegAppTableRecord
  2
ACAD
 70
     0
  0
ENDTAB
  0
TABLE
  2
DIMSTYLE
  5
A
330
0
100
AcDbSymbolTable
 70
     1
  0
DIMSTYLE
105
27
330
A
100
AcDbSymbolTableRecord
100
AcDbDimStyleTableRecord
  2
ISO-25
 70
     0
  3

  4

  5

  6

  7

 40
1.0
 41
2.5
 42
0.625
 43
3.75
 44
1.25
 45
0.0
 46
0.0
 47
0.0
 48
0.0
140
2.5
141
2.5
142
0.0
143
0.03937007874016
144
1.0
145
0.0
146
1.0
147
0.625
 71
     0
 72
     0
 73
     0
 74
     0
 75
     0
 76
     0
 77
     1
 78
     8
170
     0
171
     3
172
     1
173
     0
174
     0
175
     0
176
     0
177
     0
178
     0
270
     2
271
     2
272
     2
273
     2
274
     3
340
11
275
     0
280
     0
281
     0
282
     0
283
     0
284
     8
285
     0
286
     0
287
     3
288
     0
  0
ENDTAB
  0
TABLE
  2
BLOCK_RECORD
  5
1
330
0
100
AcDbSymbolTable
 70
     1
  0
BLOCK_RECORD
  5
1F
330
1
100
AcDbSymbolTableRecord
100
AcDbBlockTableRecord
  2
*MODEL_SPACE
  0
BLOCK_RECORD
  5
1B
330
1
100
AcDbSymbolTableRecord
100
AcDbBlockTableRecord
  2
*PAPER_SPACE
  0
ENDTAB
  0
ENDSEC
  0
SECTION
  2
BLOCKS
  0
BLOCK
  5
20
330
1F
100
AcDbEntity
  8
0
100
AcDbBlockBegin
  2
*MODEL_SPACE
 70
     0
 10
0.0
 20
0.0
 30
0.0
  3
*MODEL_SPACE
  1

  0
ENDBLK
  5
21
330
1F
100
AcDbEntity
  8
0
100
AcDbBlockEnd
  0
BLOCK
  5
1C
330
1B
100
AcDbEntity
 67
     1
  8
0
100
AcDbBlockBegin
  2
*PAPER_SPACE
  1

  0
ENDBLK
  5
1D
330
1B
100
AcDbEntity
 67
     1
  8
0
100
AcDbBlockEnd
  0
ENDSEC
  0
SECTION
  2
ENTITIES
  0
LWPOLYLINE
  5
100
100
AcDbEntity
  8
0
 62
7
100
AcDbPolyline
 90
2
 70
0
 10
0.095085
 20
135.384670
 30
0.0
 10
86.295060
 20
135.384670
 30
0.0
  0
LWPOLYLINE
  5
101
100
AcDbEntity
  8
0
 62
7
100
AcDbPolyline
 90
2
 70
0
 10
86.295835
 20
135.384961
 30
0.0
 10
86.295835
 20
0.134986
 30
0.0
  0
LWPOLYLINE
  5
102
100
AcDbEntity
  8
0
 62
7
100
AcDbPolyline
 90
2
 70
0
 10
86.295417
 20
0.134854
 30
0.0
 10
0.095085
 20
0.134854
 30
0.0
  0
LWPOLYLINE
  5
103
100
AcDbEntity
  8
0
 62
7
100
AcDbPolyline
 90
2
 70
0
 10
0.095293
 20
0.134986
 30
0.0
 10
0.095293
 20
135.384961
 30
0.0
  0
LWPOLYLINE
  5
104
100
AcDbEntity
  8
0
 62
7
100
AcDbPolyline
 90
20
 70
1
 10
83.485543
 20
3.587666
 30
0.0
 10
83.207202
 20
3.444791
 30
0.0
 10
82.985216
 20
3.222541
 30
0.0
 10
82.843400
 20
2.944728
 30
0.0
 10
82.795246
 20
2.635166
 30
0.0
 10
82.843400
 20
2.325604
 30
0.0
 10
82.985216
 20
2.047791
 30
0.0
 10
83.207202
 20
1.825541
 30
0.0
 10
83.485543
 20
1.682666
 30
0.0
 10
83.795635
 20
1.635041
 30
0.0
 10
84.104403
 20
1.682666
 30
0.0
 10
84.382745
 20
1.825541
 30
0.0
 10
84.604466
 20
2.047791
 30
0.0
 10
84.746547
 20
2.325604
 30
0.0
 10
84.794701
 20
2.635166
 30
0.0
 10
84.746547
 20
2.944728
 30
0.0
 10
84.604466
 20
3.222541
 30
0.0
 10
84.382745
 20
3.444791
 30
0.0
 10
84.104403
 20
3.587666
 30
0.0
 10
83.795635
 20
3.635291
 30
0.0
  0
LWPOLYLINE
  5
105
100
AcDbEntity
  8
0
 62
7
100
AcDbPolyline
 90
20
 70
1
 10
2.284790
 20
3.587666
 30
0.0
 10
2.006420
 20
3.444791
 30
0.0
 10
1.784559
 20
3.222541
 30
0.0
 10
1.642620
 20
2.944728
 30
0.0
 10
1.593011
 20
2.635166
 30
0.0
 10
1.642620
 20
2.325604
 30
0.0
 10
1.784559
 20
2.047791
 30
0.0
 10
2.006420
 20
1.825541
 30
0.0
 10
2.284790
 20
1.682666
 30
0.0
 10
2.593469
 20
1.635041
 30
0.0
 10
2.903537
 20
1.682666
 30
0.0
 10
3.181878
 20
1.825541
 30
0.0
 10
3.403758
 20
2.047791
 30
0.0
 10
3.545707
 20
2.325604
 30
0.0
 10
3.593914
 20
2.635166
 30
0.0
 10
3.545707
 20
2.944728
 30
0.0
 10
3.403758
 20
3.222541
 30
0.0
 10
3.181878
 20
3.444791
 30
0.0
 10
2.903537
 20
3.587666
 30
0.0
 10
2.594850
 20
3.635291
 30
0.0
  0
LWPOLYLINE
  5
106
100
AcDbEntity
  8
0
 62
7
100
AcDbPolyline
 90
20
 70
1
 10
83.485543
 20
103.837998
 30
0.0
 10
83.207202
 20
103.695917
 30
0.0
 10
82.985216
 20
103.473931
 30
0.0
 10
82.843400
 20
103.195854
 30
0.0
 10
82.795246
 20
102.887086
 30
0.0
 10
82.843400
 20
102.576994
 30
0.0
 10
82.985216
 20
102.298917
 30
0.0
 10
83.207202
 20
102.076932
 30
0.0
 10
83.485543
 20
101.934851
 30
0.0
 10
83.795635
 20
101.886961
 30
0.0
 10
84.104403
 20
101.934851
 30
0.0
 10
84.382745
 20
102.076932
 30
0.0
 10
84.604466
 20
102.298917
 30
0.0
 10
84.746547
 20
102.576994
 30
0.0
 10
84.794701
 20
102.886027
 30
0.0
 10
84.746547
 20
103.195854
 30
0.0
 10
84.604466
 20
103.473931
 30
0.0
 10
84.382745
 20
103.695917
 30
0.0
 10
84.104403
 20
103.837998
 30
0.0
 10
83.795635
 20
103.885888
 30
0.0
  0
LWPOLYLINE
  5
107
100
AcDbEntity
  8
0
 62
7
100
AcDbPolyline
 90
20
 70
1
 10
2.284790
 20
103.837998
 30
0.0
 10
2.006420
 20
103.695917
 30
0.0
 10
1.784559
 20
103.473931
 30
0.0
 10
1.642620
 20
103.195854
 30
0.0
 10
1.593011
 20
102.887086
 30
0.0
 10
1.642620
 20
102.576994
 30
0.0
 10
1.784559
 20
102.298917
 30
0.0
 10
2.006420
 20
102.076932
 30
0.0
 10
2.284790
 20
101.934851
 30
0.0
 10
2.593469
 20
101.886961
 30
0.0
 10
2.903537
 20
101.934851
 30
0.0
 10
3.181878
 20
102.076932
 30
0.0
 10
3.403758
 20
102.298917
 30
0.0
 10
3.545707
 20
102.576994
 30
0.0
 10
3.593914
 20
102.886027
 30
0.0
 10
3.545707
 20
103.195854
 30
0.0
 10
3.403758
 20
103.473931
 30
0.0
 10
3.181878
 20
103.695917
 30
0.0
 10
2.903537
 20
103.837998
 30
0.0
 10
2.594850
 20
103.885888
 30
0.0
  0
LWPOLYLINE
  5
108
100
AcDbEntity
  8
0
 62
7
100
AcDbPolyline
 90
20
 70
1
 10
2.284790
 20
108.838338
 30
0.0
 10
2.006420
 20
108.696257
 30
0.0
 10
1.784559
 20
108.474272
 30
0.0
 10
1.642620
 20
108.196195
 30
0.0
 10
1.593011
 20
107.887426
 30
0.0
 10
1.642620
 20
107.577335
 30
0.0
 10
1.784559
 20
107.299258
 30
0.0
 10
2.006420
 20
107.077272
 30
0.0
 10
2.284790
 20
106.935191
 30
0.0
 10
2.593469
 20
106.887301
 30
0.0
 10
2.903537
 20
106.935191
 30
0.0
 10
3.181878
 20
107.077272
 30
0.0
 10
3.403758
 20
107.299258
 30
0.0
 10
3.545707
 20
107.577335
 30
0.0
 10
3.593914
 20
107.886368
 30
0.0
 10
3.545707
 20
108.196195
 30
0.0
 10
3.403758
 20
108.474272
 30
0.0
 10
3.181878
 20
108.696257
 30
0.0
 10
2.903537
 20
108.838338
 30
0.0
 10
2.594850
 20
108.886228
 30
0.0
  0
LWPOLYLINE
  5
109
100
AcDbEntity
  8
0
 62
7
100
AcDbPolyline
 90
20
 70
1
 10
83.485543
 20
108.838338
 30
0.0
 10
83.207202
 20
108.696257
 30
0.0
 10
82.985216
 20
108.474272
 30
0.0
 10
82.843400
 20
108.196195
 30
0.0
 10
82.795246
 20
107.887426
 30
0.0
 10
82.843400
 20
107.577335
 30
0.0
 10
82.985216
 20
107.299258
 30
0.0
 10
83.207202
 20
107.077272
 30
0.0
 10
83.485543
 20
106.935191
 30
0.0
 10
83.795635
 20
106.887301
 30
0.0
 10
84.104403
 20
106.935191
 30
0.0
 10
84.382745
 20
107.077272
 30
0.0
 10
84.604466
 20
107.299258
 30
0.0
 10
84.746547
 20
107.577335
 30
0.0
 10
84.794701
 20
107.886368
 30
0.0
 10
84.746547
 20
108.196195
 30
0.0
 10
84.604466
 20
108.474272
 30
0.0
 10
84.382745
 20
108.696257
 30
0.0
 10
84.104403
 20
108.838338
 30
0.0
 10
83.795635
 20
108.886228
 30
0.0
  0
LWPOLYLINE
  5
10a
100
AcDbEntity
  8
0
 62
7
100
AcDbPolyline
 90
20
 70
1
 10
2.284790
 20
133.791376
 30
0.0
 10
2.006420
 20
133.649295
 30
0.0
 10
1.784559
 20
133.427310
 30
0.0
 10
1.642620
 20
133.149233
 30
0.0
 10
1.593011
 20
132.840464
 30
0.0
 10
1.642620
 20
132.530372
 30
0.0
 10
1.784559
 20
132.252295
 30
0.0
 10
2.006420
 20
132.030310
 30
0.0
 10
2.284790
 20
131.888229
 30
0.0
 10
2.593469
 20
131.840339
 30
0.0
 10
2.903537
 20
131.888229
 30
0.0
 10
3.181878
 20
132.030310
 30
0.0
 10
3.403758
 20
132.252295
 30
0.0
 10
3.545707
 20
132.530372
 30
0.0
 10
3.593914
 20
132.839406
 30
0.0
 10
3.545707
 20
133.149233
 30
0.0
 10
3.403758
 20
133.427310
 30
0.0
 10
3.181878
 20
133.649295
 30
0.0
 10
2.903537
 20
133.791376
 30
0.0
 10
2.594850
 20
133.839266
 30
0.0
  0
LWPOLYLINE
  5
10b
100
AcDbEntity
  8
0
 62
7
100
AcDbPolyline
 90
20
 70
1
 10
83.487387
 20
133.791376
 30
0.0
 10
83.209017
 20
133.649295
 30
0.0
 10
82.987156
 20
133.427310
 30
0.0
 10
82.845217
 20
133.149233
 30
0.0
 10
82.795608
 20
132.840464
 30
0.0
 10
82.845217
 20
132.530372
 30
0.0
 10
82.987156
 20
132.252295
 30
0.0
 10
83.209017
 20
132.030310
 30
0.0
 10
83.487387
 20
131.888229
 30
0.0
 10
83.796066
 20
131.840339
 30
0.0
 10
84.106134
 20
131.888229
 30
0.0
 10
84.384475
 20
132.030310
 30
0.0
 10
84.606355
 20
132.252295
 30
0.0
 10
84.748304
 20
132.530372
 30
0.0
 10
84.796511
 20
132.839406
 30
0.0
 10
84.748304
 20
133.149233
 30
0.0
 10
84.606355
 20
133.427310
 30
0.0
 10
84.384475
 20
133.649295
 30
0.0
 10
84.106134
 20
133.791376
 30
0.0
 10
83.797447
 20
133.839266
 30
0.0
  0
ENDSEC
  0
SECTION
  2
OBJECTS
  0
DICTIONARY
  5
C
330
0
100
AcDbDictionary
  3
ACAD_GROUP
350
D
  3
ACAD_MLINESTYLE
350
17
  0
DICTIONARY
  5
D
330
C
100
AcDbDictionary
  0
DICTIONARY
  5
1A
330
C
100
AcDbDictionary
  0
DICTIONARY
  5
17
330
C
100
AcDbDictionary
  3
STANDARD
350
18
  0
DICTIONARY
  5
19
330
C
100
AcDbDictionary
  0
ENDSEC
  0
EOF
