  0
SECTION
  2
HEADER
  9
$ACADVER
  1
AC1009
  9
$FILLMODE
 70
 0
  9
$SPLFRAME
 70
 1
  9
$EXTMIN
 10
0
 20
0
 30
0.0
  9
$EXTMAX
 10
1058.33
 20
1058.33
 30
0.0
  0
ENDSEC
  0
SECTION
  2
TABLES
  0
TABLE
  2
LAYER
 70
1
  0
LAYER
  2
0
 70
     0
 62
     7
  6
CONTINUOUS
  0
ENDTAB
  0
ENDSEC
  0
SECTION
  2
ENTITIES
  0
LINE
  8
0
 62
     0
 10
0.0950846
 20
105.385
 30
0.0
 11
86.2954
 21
105.385
 31
0.0
  0
LINE
  8
0
 62
     0
 10
86.2954
 20
105.385
 30
0.0
 11
86.2954
 21
0.135048
 31
0.0
  0
LINE
  8
0
 62
     0
 10
86.2954
 20
0.135048
 30
0.0
 11
0.0950846
 21
0.135048
 31
0.0
  0
LINE
  8
0
 62
     0
 10
0.0950846
 20
0.135048
 30
0.0
 11
0.0950846
 21
105.385
 31
0.0
  0
LINE
  8
0
 62
     0
 10
83.4856
 20
3.58704
 30
0.0
 11
83.2072
 21
3.4451
 31
0.0
  0
LINE
  8
0
 62
     0
 10
83.2072
 20
3.4451
 30
0.0
 11
82.9853
 21
3.22323
 31
0.0
  0
LINE
  8
0
 62
     0
 10
82.9853
 20
3.22323
 30
0.0
 11
82.8435
 21
2.94487
 31
0.0
  0
LINE
  8
0
 62
     0
 10
82.8435
 20
2.94487
 30
0.0
 11
82.7952
 21
2.63481
 31
0.0
  0
LINE
  8
0
 62
     0
 10
82.7952
 20
2.63481
 30
0.0
 11
82.8435
 21
2.32613
 31
0.0
  0
LINE
  8
0
 62
     0
 10
82.8435
 20
2.32613
 30
0.0
 11
82.9853
 21
2.04777
 31
0.0
  0
LINE
  8
0
 62
     0
 10
82.9853
 20
2.04777
 30
0.0
 11
83.2072
 21
1.8259
 31
0.0
  0
LINE
  8
0
 62
     0
 10
83.2072
 20
1.8259
 30
0.0
 11
83.4856
 21
1.68396
 31
0.0
  0
LINE
  8
0
 62
     0
 10
83.4856
 20
1.68396
 30
0.0
 11
83.7957
 21
1.63573
 31
0.0
  0
LINE
  8
0
 62
     0
 10
83.7957
 20
1.63573
 30
0.0
 11
84.1043
 21
1.68396
 31
0.0
  0
LINE
  8
0
 62
     0
 10
84.1043
 20
1.68396
 30
0.0
 11
84.3827
 21
1.8259
 31
0.0
  0
LINE
  8
0
 62
     0
 10
84.3827
 20
1.8259
 30
0.0
 11
84.6046
 21
2.04777
 31
0.0
  0
LINE
  8
0
 62
     0
 10
84.6046
 20
2.04777
 30
0.0
 11
84.7467
 21
2.32613
 31
0.0
  0
LINE
  8
0
 62
     0
 10
84.7467
 20
2.32613
 30
0.0
 11
84.7947
 21
2.63481
 31
0.0
  0
LINE
  8
0
 62
     0
 10
84.7947
 20
2.63481
 30
0.0
 11
84.7467
 21
2.94487
 31
0.0
  0
LINE
  8
0
 62
     0
 10
84.7467
 20
2.94487
 30
0.0
 11
84.6046
 21
3.22323
 31
0.0
  0
LINE
  8
0
 62
     0
 10
84.6046
 20
3.22323
 30
0.0
 11
84.3827
 21
3.4451
 31
0.0
  0
LINE
  8
0
 62
     0
 10
84.3827
 20
3.4451
 30
0.0
 11
84.1043
 21
3.58704
 31
0.0
  0
LINE
  8
0
 62
     0
 10
84.1043
 20
3.58704
 30
0.0
 11
83.7957
 21
3.63527
 31
0.0
  0
LINE
  8
0
 62
     0
 10
83.7957
 20
3.63527
 30
0.0
 11
83.4856
 21
3.58704
 31
0.0
  0
LINE
  8
0
 62
     0
 10
2.28479
 20
3.58704
 30
0.0
 11
2.00642
 21
3.4451
 31
0.0
  0
LINE
  8
0
 62
     0
 10
2.00642
 20
3.4451
 30
0.0
 11
1.78456
 21
3.22323
 31
0.0
  0
LINE
  8
0
 62
     0
 10
1.78456
 20
3.22323
 30
0.0
 11
1.64262
 21
2.94487
 31
0.0
  0
LINE
  8
0
 62
     0
 10
1.64262
 20
2.94487
 30
0.0
 11
1.59301
 21
2.63481
 31
0.0
  0
LINE
  8
0
 62
     0
 10
1.59301
 20
2.63481
 30
0.0
 11
1.64262
 21
2.32613
 31
0.0
  0
LINE
  8
0
 62
     0
 10
1.64262
 20
2.32613
 30
0.0
 11
1.78456
 21
2.04777
 31
0.0
  0
LINE
  8
0
 62
     0
 10
1.78456
 20
2.04777
 30
0.0
 11
2.00642
 21
1.8259
 31
0.0
  0
LINE
  8
0
 62
     0
 10
2.00642
 20
1.8259
 30
0.0
 11
2.28479
 21
1.68396
 31
0.0
  0
LINE
  8
0
 62
     0
 10
2.28479
 20
1.68396
 30
0.0
 11
2.59347
 21
1.63573
 31
0.0
  0
LINE
  8
0
 62
     0
 10
2.59347
 20
1.63573
 30
0.0
 11
2.90353
 21
1.68396
 31
0.0
  0
LINE
  8
0
 62
     0
 10
2.90353
 20
1.68396
 30
0.0
 11
3.18189
 21
1.8259
 31
0.0
  0
LINE
  8
0
 62
     0
 10
3.18189
 20
1.8259
 30
0.0
 11
3.40376
 21
2.04777
 31
0.0
  0
LINE
  8
0
 62
     0
 10
3.40376
 20
2.04777
 30
0.0
 11
3.5457
 21
2.32613
 31
0.0
  0
LINE
  8
0
 62
     0
 10
3.5457
 20
2.32613
 30
0.0
 11
3.59392
 21
2.63481
 31
0.0
  0
LINE
  8
0
 62
     0
 10
3.59392
 20
2.63481
 30
0.0
 11
3.5457
 21
2.94487
 31
0.0
  0
LINE
  8
0
 62
     0
 10
3.5457
 20
2.94487
 30
0.0
 11
3.40376
 21
3.22323
 31
0.0
  0
LINE
  8
0
 62
     0
 10
3.40376
 20
3.22323
 30
0.0
 11
3.18189
 21
3.4451
 31
0.0
  0
LINE
  8
0
 62
     0
 10
3.18189
 20
3.4451
 30
0.0
 11
2.90353
 21
3.58704
 31
0.0
  0
LINE
  8
0
 62
     0
 10
2.90353
 20
3.58704
 30
0.0
 11
2.59485
 21
3.63527
 31
0.0
  0
LINE
  8
0
 62
     0
 10
2.59485
 20
3.63527
 30
0.0
 11
2.28479
 21
3.58704
 31
0.0
  0
LINE
  8
0
 62
     0
 10
83.4856
 20
103.838
 30
0.0
 11
83.2072
 21
103.696
 31
0.0
  0
LINE
  8
0
 62
     0
 10
83.2072
 20
103.696
 30
0.0
 11
82.9853
 21
103.474
 31
0.0
  0
LINE
  8
0
 62
     0
 10
82.9853
 20
103.474
 30
0.0
 11
82.8435
 21
103.196
 31
0.0
  0
LINE
  8
0
 62
     0
 10
82.8435
 20
103.196
 30
0.0
 11
82.7952
 21
102.887
 31
0.0
  0
LINE
  8
0
 62
     0
 10
82.7952
 20
102.887
 30
0.0
 11
82.8435
 21
102.577
 31
0.0
  0
LINE
  8
0
 62
     0
 10
82.8435
 20
102.577
 30
0.0
 11
82.9853
 21
102.299
 31
0.0
  0
LINE
  8
0
 62
     0
 10
82.9853
 20
102.299
 30
0.0
 11
83.2072
 21
102.077
 31
0.0
  0
LINE
  8
0
 62
     0
 10
83.2072
 20
102.077
 30
0.0
 11
83.4856
 21
101.935
 31
0.0
  0
LINE
  8
0
 62
     0
 10
83.4856
 20
101.935
 30
0.0
 11
83.7957
 21
101.887
 31
0.0
  0
LINE
  8
0
 62
     0
 10
83.7957
 20
101.887
 30
0.0
 11
84.1043
 21
101.935
 31
0.0
  0
LINE
  8
0
 62
     0
 10
84.1043
 20
101.935
 30
0.0
 11
84.3827
 21
102.077
 31
0.0
  0
LINE
  8
0
 62
     0
 10
84.3827
 20
102.077
 30
0.0
 11
84.6046
 21
102.299
 31
0.0
  0
LINE
  8
0
 62
     0
 10
84.6046
 20
102.299
 30
0.0
 11
84.7467
 21
102.577
 31
0.0
  0
LINE
  8
0
 62
     0
 10
84.7467
 20
102.577
 30
0.0
 11
84.7947
 21
102.886
 31
0.0
  0
LINE
  8
0
 62
     0
 10
84.7947
 20
102.886
 30
0.0
 11
84.7467
 21
103.196
 31
0.0
  0
LINE
  8
0
 62
     0
 10
84.7467
 20
103.196
 30
0.0
 11
84.6046
 21
103.474
 31
0.0
  0
LINE
  8
0
 62
     0
 10
84.6046
 20
103.474
 30
0.0
 11
84.3827
 21
103.696
 31
0.0
  0
LINE
  8
0
 62
     0
 10
84.3827
 20
103.696
 30
0.0
 11
84.1043
 21
103.838
 31
0.0
  0
LINE
  8
0
 62
     0
 10
84.1043
 20
103.838
 30
0.0
 11
83.7957
 21
103.886
 31
0.0
  0
LINE
  8
0
 62
     0
 10
83.7957
 20
103.886
 30
0.0
 11
83.4856
 21
103.838
 31
0.0
  0
LINE
  8
0
 62
     0
 10
2.28479
 20
103.838
 30
0.0
 11
2.00642
 21
103.696
 31
0.0
  0
LINE
  8
0
 62
     0
 10
2.00642
 20
103.696
 30
0.0
 11
1.78456
 21
103.474
 31
0.0
  0
LINE
  8
0
 62
     0
 10
1.78456
 20
103.474
 30
0.0
 11
1.64262
 21
103.196
 31
0.0
  0
LINE
  8
0
 62
     0
 10
1.64262
 20
103.196
 30
0.0
 11
1.59301
 21
102.887
 31
0.0
  0
LINE
  8
0
 62
     0
 10
1.59301
 20
102.887
 30
0.0
 11
1.64262
 21
102.577
 31
0.0
  0
LINE
  8
0
 62
     0
 10
1.64262
 20
102.577
 30
0.0
 11
1.78456
 21
102.299
 31
0.0
  0
LINE
  8
0
 62
     0
 10
1.78456
 20
102.299
 30
0.0
 11
2.00642
 21
102.077
 31
0.0
  0
LINE
  8
0
 62
     0
 10
2.00642
 20
102.077
 30
0.0
 11
2.28479
 21
101.935
 31
0.0
  0
LINE
  8
0
 62
     0
 10
2.28479
 20
101.935
 30
0.0
 11
2.59347
 21
101.887
 31
0.0
  0
LINE
  8
0
 62
     0
 10
2.59347
 20
101.887
 30
0.0
 11
2.90353
 21
101.935
 31
0.0
  0
LINE
  8
0
 62
     0
 10
2.90353
 20
101.935
 30
0.0
 11
3.18189
 21
102.077
 31
0.0
  0
LINE
  8
0
 62
     0
 10
3.18189
 20
102.077
 30
0.0
 11
3.40376
 21
102.299
 31
0.0
  0
LINE
  8
0
 62
     0
 10
3.40376
 20
102.299
 30
0.0
 11
3.5457
 21
102.577
 31
0.0
  0
LINE
  8
0
 62
     0
 10
3.5457
 20
102.577
 30
0.0
 11
3.59392
 21
102.886
 31
0.0
  0
LINE
  8
0
 62
     0
 10
3.59392
 20
102.886
 30
0.0
 11
3.5457
 21
103.196
 31
0.0
  0
LINE
  8
0
 62
     0
 10
3.5457
 20
103.196
 30
0.0
 11
3.40376
 21
103.474
 31
0.0
  0
LINE
  8
0
 62
     0
 10
3.40376
 20
103.474
 30
0.0
 11
3.18189
 21
103.696
 31
0.0
  0
LINE
  8
0
 62
     0
 10
3.18189
 20
103.696
 30
0.0
 11
2.90353
 21
103.838
 31
0.0
  0
LINE
  8
0
 62
     0
 10
2.90353
 20
103.838
 30
0.0
 11
2.59485
 21
103.886
 31
0.0
  0
LINE
  8
0
 62
     0
 10
2.59485
 20
103.886
 30
0.0
 11
2.28479
 21
103.838
 31
0.0
  0
ENDSEC
  0
EOF
