  0
SECTION
  2
HEADER
  9
$ACADVER
  1
AC1009
  9
$FILLMODE
 70
 0
  9
$SPLFRAME
 70
 1
  9
$EXTMIN
 10
0
 20
0
 30
0.0
  9
$EXTMAX
 10
1058.33
 20
1058.33
 30
0.0
  0
ENDSEC
  0
SECTION
  2
TABLES
  0
TABLE
  2
LAYER
 70
1
  0
LAYER
  2
0
 70
     0
 62
     7
  6
CONTINUOUS
  0
ENDTAB
  0
ENDSEC
  0
SECTION
  2
ENTITIES
  0
LINE
  8
0
 62
     0
 10
0.0950846
 20
105.385
 30
0.0
 11
86.2954
 21
105.385
 31
0.0
  0
LINE
  8
0
 62
     0
 10
86.2954
 20
105.385
 30
0.0
 11
86.2954
 21
0.135048
 31
0.0
  0
LINE
  8
0
 62
     0
 10
86.2954
 20
0.135048
 30
0.0
 11
0.0950846
 21
0.135048
 31
0.0
  0
LINE
  8
0
 62
     0
 10
0.0950846
 20
0.135048
 30
0.0
 11
0.0950846
 21
105.385
 31
0.0
  0
LINE
  8
0
 62
     0
 10
83.4856
 20
3.58704
 30
0.0
 11
83.2072
 21
3.4451
 31
0.0
  0
LINE
  8
0
 62
     0
 10
83.2072
 20
3.4451
 30
0.0
 11
82.9853
 21
3.22323
 31
0.0
  0
LINE
  8
0
 62
     0
 10
82.9853
 20
3.22323
 30
0.0
 11
82.8435
 21
2.94487
 31
0.0
  0
LINE
  8
0
 62
     0
 10
82.8435
 20
2.94487
 30
0.0
 11
82.7952
 21
2.63481
 31
0.0
  0
LINE
  8
0
 62
     0
 10
82.7952
 20
2.63481
 30
0.0
 11
82.8435
 21
2.32613
 31
0.0
  0
LINE
  8
0
 62
     0
 10
82.8435
 20
2.32613
 30
0.0
 11
82.9853
 21
2.04777
 31
0.0
  0
LINE
  8
0
 62
     0
 10
82.9853
 20
2.04777
 30
0.0
 11
83.2072
 21
1.8259
 31
0.0
  0
LINE
  8
0
 62
     0
 10
83.2072
 20
1.8259
 30
0.0
 11
83.4856
 21
1.68396
 31
0.0
  0
LINE
  8
0
 62
     0
 10
83.4856
 20
1.68396
 30
0.0
 11
83.7957
 21
1.63573
 31
0.0
  0
LINE
  8
0
 62
     0
 10
83.7957
 20
1.63573
 30
0.0
 11
84.1043
 21
1.68396
 31
0.0
  0
LINE
  8
0
 62
     0
 10
84.1043
 20
1.68396
 30
0.0
 11
84.3827
 21
1.8259
 31
0.0
  0
LINE
  8
0
 62
     0
 10
84.3827
 20
1.8259
 30
0.0
 11
84.6046
 21
2.04777
 31
0.0
  0
LINE
  8
0
 62
     0
 10
84.6046
 20
2.04777
 30
0.0
 11
84.7467
 21
2.32613
 31
0.0
  0
LINE
  8
0
 62
     0
 10
84.7467
 20
2.32613
 30
0.0
 11
84.7947
 21
2.63481
 31
0.0
  0
LINE
  8
0
 62
     0
 10
84.7947
 20
2.63481
 30
0.0
 11
84.7467
 21
2.94487
 31
0.0
  0
LINE
  8
0
 62
     0
 10
84.7467
 20
2.94487
 30
0.0
 11
84.6046
 21
3.22323
 31
0.0
  0
LINE
  8
0
 62
     0
 10
84.6046
 20
3.22323
 30
0.0
 11
84.3827
 21
3.4451
 31
0.0
  0
LINE
  8
0
 62
     0
 10
84.3827
 20
3.4451
 30
0.0
 11
84.1043
 21
3.58704
 31
0.0
  0
LINE
  8
0
 62
     0
 10
84.1043
 20
3.58704
 30
0.0
 11
83.7957
 21
3.63527
 31
0.0
  0
LINE
  8
0
 62
     0
 10
83.7957
 20
3.63527
 30
0.0
 11
83.4856
 21
3.58704
 31
0.0
  0
LINE
  8
0
 62
     0
 10
2.28479
 20
3.58704
 30
0.0
 11
2.00642
 21
3.4451
 31
0.0
  0
LINE
  8
0
 62
     0
 10
2.00642
 20
3.4451
 30
0.0
 11
1.78456
 21
3.22323
 31
0.0
  0
LINE
  8
0
 62
     0
 10
1.78456
 20
3.22323
 30
0.0
 11
1.64262
 21
2.94487
 31
0.0
  0
LINE
  8
0
 62
     0
 10
1.64262
 20
2.94487
 30
0.0
 11
1.59301
 21
2.63481
 31
0.0
  0
LINE
  8
0
 62
     0
 10
1.59301
 20
2.63481
 30
0.0
 11
1.64262
 21
2.32613
 31
0.0
  0
LINE
  8
0
 62
     0
 10
1.64262
 20
2.32613
 30
0.0
 11
1.78456
 21
2.04777
 31
0.0
  0
LINE
  8
0
 62
     0
 10
1.78456
 20
2.04777
 30
0.0
 11
2.00642
 21
1.8259
 31
0.0
  0
LINE
  8
0
 62
     0
 10
2.00642
 20
1.8259
 30
0.0
 11
2.28479
 21
1.68396
 31
0.0
  0
LINE
  8
0
 62
     0
 10
2.28479
 20
1.68396
 30
0.0
 11
2.59347
 21
1.63573
 31
0.0
  0
LINE
  8
0
 62
     0
 10
2.59347
 20
1.63573
 30
0.0
 11
2.90353
 21
1.68396
 31
0.0
  0
LINE
  8
0
 62
     0
 10
2.90353
 20
1.68396
 30
0.0
 11
3.18189
 21
1.8259
 31
0.0
  0
LINE
  8
0
 62
     0
 10
3.18189
 20
1.8259
 30
0.0
 11
3.40376
 21
2.04777
 31
0.0
  0
LINE
  8
0
 62
     0
 10
3.40376
 20
2.04777
 30
0.0
 11
3.5457
 21
2.32613
 31
0.0
  0
LINE
  8
0
 62
     0
 10
3.5457
 20
2.32613
 30
0.0
 11
3.59392
 21
2.63481
 31
0.0
  0
LINE
  8
0
 62
     0
 10
3.59392
 20
2.63481
 30
0.0
 11
3.5457
 21
2.94487
 31
0.0
  0
LINE
  8
0
 62
     0
 10
3.5457
 20
2.94487
 30
0.0
 11
3.40376
 21
3.22323
 31
0.0
  0
LINE
  8
0
 62
     0
 10
3.40376
 20
3.22323
 30
0.0
 11
3.18189
 21
3.4451
 31
0.0
  0
LINE
  8
0
 62
     0
 10
3.18189
 20
3.4451
 30
0.0
 11
2.90353
 21
3.58704
 31
0.0
  0
LINE
  8
0
 62
     0
 10
2.90353
 20
3.58704
 30
0.0
 11
2.59485
 21
3.63527
 31
0.0
  0
LINE
  8
0
 62
     0
 10
2.59485
 20
3.63527
 30
0.0
 11
2.28479
 21
3.58704
 31
0.0
  0
LINE
  8
0
 62
     0
 10
17.1442
 20
21.6614
 30
0.0
 11
17.1442
 21
20.6609
 31
0.0
  0
LINE
  8
0
 62
     0
 10
17.1442
 20
20.6609
 30
0.0
 11
16.3449
 21
20.6609
 31
0.0
  0
LINE
  8
0
 62
     0
 10
16.3449
 20
20.6609
 30
0.0
 11
16.3449
 21
17.5617
 31
0.0
  0
LINE
  8
0
 62
     0
 10
16.3449
 20
17.5617
 30
0.0
 11
17.1442
 21
17.5617
 31
0.0
  0
LINE
  8
0
 62
     0
 10
17.1442
 20
17.5617
 30
0.0
 11
17.1442
 21
16.9609
 31
0.0
  0
LINE
  8
0
 62
     0
 10
17.1442
 20
16.9609
 30
0.0
 11
15.62
 21
16.9609
 31
0.0
  0
LINE
  8
0
 62
     0
 10
15.62
 20
16.9609
 30
0.0
 11
15.62
 21
20.191
 31
0.0
  0
LINE
  8
0
 62
     0
 10
15.62
 20
20.191
 30
0.0
 11
13.8948
 21
20.191
 31
0.0
  0
LINE
  8
0
 62
     0
 10
13.8948
 20
20.191
 30
0.0
 11
13.8948
 21
21.1116
 31
0.0
  0
LINE
  8
0
 62
     0
 10
13.8948
 20
21.1116
 30
0.0
 11
10.5944
 21
21.1116
 31
0.0
  0
LINE
  8
0
 62
     0
 10
10.5944
 20
21.1116
 30
0.0
 11
10.5944
 21
20.191
 31
0.0
  0
LINE
  8
0
 62
     0
 10
10.5944
 20
20.191
 30
0.0
 11
8.86905
 21
20.191
 31
0.0
  0
LINE
  8
0
 62
     0
 10
8.86905
 20
20.191
 30
0.0
 11
8.86905
 21
16.9609
 31
0.0
  0
LINE
  8
0
 62
     0
 10
8.86905
 20
16.9609
 30
0.0
 11
8.04499
 21
16.9609
 31
0.0
  0
LINE
  8
0
 62
     0
 10
8.04499
 20
16.9609
 30
0.0
 11
8.04499
 21
14.1607
 31
0.0
  0
LINE
  8
0
 62
     0
 10
8.04499
 20
14.1607
 30
0.0
 11
8.86905
 21
14.1607
 31
0.0
  0
LINE
  8
0
 62
     0
 10
8.86905
 20
14.1607
 30
0.0
 11
8.86905
 21
7.89065
 31
0.0
  0
LINE
  8
0
 62
     0
 10
8.86905
 20
7.89065
 30
0.0
 11
10.5944
 21
7.89065
 31
0.0
  0
LINE
  8
0
 62
     0
 10
10.5944
 20
7.89065
 30
0.0
 11
10.5944
 21
6.91085
 31
0.0
  0
LINE
  8
0
 62
     0
 10
10.5944
 20
6.91085
 30
0.0
 11
13.8948
 21
6.91085
 31
0.0
  0
LINE
  8
0
 62
     0
 10
13.8948
 20
6.91085
 30
0.0
 11
13.8948
 21
7.89065
 31
0.0
  0
LINE
  8
0
 62
     0
 10
13.8948
 20
7.89065
 30
0.0
 11
15.62
 21
7.89065
 31
0.0
  0
LINE
  8
0
 62
     0
 10
15.62
 20
7.89065
 30
0.0
 11
15.62
 21
12.361
 31
0.0
  0
LINE
  8
0
 62
     0
 10
15.62
 20
12.361
 30
0.0
 11
17.1442
 21
12.361
 31
0.0
  0
LINE
  8
0
 62
     0
 10
17.1442
 20
12.361
 30
0.0
 11
17.1442
 21
11.7615
 31
0.0
  0
LINE
  8
0
 62
     0
 10
17.1442
 20
11.7615
 30
0.0
 11
16.3449
 21
11.7615
 31
0.0
  0
LINE
  8
0
 62
     0
 10
16.3449
 20
11.7615
 30
0.0
 11
16.3449
 21
8.66098
 31
0.0
  0
LINE
  8
0
 62
     0
 10
16.3449
 20
8.66098
 30
0.0
 11
17.1442
 21
8.66098
 31
0.0
  0
LINE
  8
0
 62
     0
 10
17.1442
 20
8.66098
 30
0.0
 11
17.1442
 21
7.6605
 31
0.0
  0
LINE
  8
0
 62
     0
 10
17.1442
 20
7.6605
 30
0.0
 11
31.1451
 21
7.6605
 31
0.0
  0
LINE
  8
0
 62
     0
 10
31.1451
 20
7.6605
 30
0.0
 11
31.1451
 21
8.66098
 31
0.0
  0
LINE
  8
0
 62
     0
 10
31.1451
 20
8.66098
 30
0.0
 11
31.9443
 21
8.66098
 31
0.0
  0
LINE
  8
0
 62
     0
 10
31.9443
 20
8.66098
 30
0.0
 11
31.9443
 21
11.7615
 31
0.0
  0
LINE
  8
0
 62
     0
 10
31.9443
 20
11.7615
 30
0.0
 11
31.1451
 21
11.7615
 31
0.0
  0
LINE
  8
0
 62
     0
 10
31.1451
 20
11.7615
 30
0.0
 11
31.1451
 21
12.361
 31
0.0
  0
LINE
  8
0
 62
     0
 10
31.1451
 20
12.361
 30
0.0
 11
32.6692
 21
12.361
 31
0.0
  0
LINE
  8
0
 62
     0
 10
32.6692
 20
12.361
 30
0.0
 11
32.6692
 21
7.89065
 31
0.0
  0
LINE
  8
0
 62
     0
 10
32.6692
 20
7.89065
 30
0.0
 11
34.3945
 21
7.89065
 31
0.0
  0
LINE
  8
0
 62
     0
 10
34.3945
 20
7.89065
 30
0.0
 11
34.3945
 21
6.91085
 31
0.0
  0
LINE
  8
0
 62
     0
 10
34.3945
 20
6.91085
 30
0.0
 11
37.695
 21
6.91085
 31
0.0
  0
LINE
  8
0
 62
     0
 10
37.695
 20
6.91085
 30
0.0
 11
37.695
 21
7.89065
 31
0.0
  0
LINE
  8
0
 62
     0
 10
37.695
 20
7.89065
 30
0.0
 11
39.4201
 21
7.89065
 31
0.0
  0
LINE
  8
0
 62
     0
 10
39.4201
 20
7.89065
 30
0.0
 11
39.4201
 21
14.1607
 31
0.0
  0
LINE
  8
0
 62
     0
 10
39.4201
 20
14.1607
 30
0.0
 11
40.2442
 21
14.1607
 31
0.0
  0
LINE
  8
0
 62
     0
 10
40.2442
 20
14.1607
 30
0.0
 11
40.2442
 21
16.9609
 31
0.0
  0
LINE
  8
0
 62
     0
 10
40.2442
 20
16.9609
 30
0.0
 11
39.4201
 21
16.9609
 31
0.0
  0
LINE
  8
0
 62
     0
 10
39.4201
 20
16.9609
 30
0.0
 11
39.4201
 21
20.191
 31
0.0
  0
LINE
  8
0
 62
     0
 10
39.4201
 20
20.191
 30
0.0
 11
37.695
 21
20.191
 31
0.0
  0
LINE
  8
0
 62
     0
 10
37.695
 20
20.191
 30
0.0
 11
37.695
 21
21.1116
 31
0.0
  0
LINE
  8
0
 62
     0
 10
37.695
 20
21.1116
 30
0.0
 11
34.3945
 21
21.1116
 31
0.0
  0
LINE
  8
0
 62
     0
 10
34.3945
 20
21.1116
 30
0.0
 11
34.3945
 21
20.191
 31
0.0
  0
LINE
  8
0
 62
     0
 10
34.3945
 20
20.191
 30
0.0
 11
32.6692
 21
20.191
 31
0.0
  0
LINE
  8
0
 62
     0
 10
32.6692
 20
20.191
 30
0.0
 11
32.6692
 21
16.9609
 31
0.0
  0
LINE
  8
0
 62
     0
 10
32.6692
 20
16.9609
 30
0.0
 11
31.1451
 21
16.9609
 31
0.0
  0
LINE
  8
0
 62
     0
 10
31.1451
 20
16.9609
 30
0.0
 11
31.1451
 21
17.5617
 31
0.0
  0
LINE
  8
0
 62
     0
 10
31.1451
 20
17.5617
 30
0.0
 11
31.9443
 21
17.5617
 31
0.0
  0
LINE
  8
0
 62
     0
 10
31.9443
 20
17.5617
 30
0.0
 11
31.9443
 21
20.6609
 31
0.0
  0
LINE
  8
0
 62
     0
 10
31.9443
 20
20.6609
 30
0.0
 11
31.1451
 21
20.6609
 31
0.0
  0
LINE
  8
0
 62
     0
 10
31.1451
 20
20.6609
 30
0.0
 11
31.1451
 21
21.6614
 31
0.0
  0
LINE
  8
0
 62
     0
 10
31.1451
 20
21.6614
 30
0.0
 11
17.1442
 21
21.6614
 31
0.0
  0
LINE
  8
0
 62
     0
 10
45.7193
 20
21.6614
 30
0.0
 11
45.7193
 21
20.6609
 31
0.0
  0
LINE
  8
0
 62
     0
 10
45.7193
 20
20.6609
 30
0.0
 11
44.9199
 21
20.6609
 31
0.0
  0
LINE
  8
0
 62
     0
 10
44.9199
 20
20.6609
 30
0.0
 11
44.9199
 21
17.5617
 31
0.0
  0
LINE
  8
0
 62
     0
 10
44.9199
 20
17.5617
 30
0.0
 11
45.7193
 21
17.5617
 31
0.0
  0
LINE
  8
0
 62
     0
 10
45.7193
 20
17.5617
 30
0.0
 11
45.7193
 21
11.7615
 31
0.0
  0
LINE
  8
0
 62
     0
 10
45.7193
 20
11.7615
 30
0.0
 11
44.9199
 21
11.7615
 31
0.0
  0
LINE
  8
0
 62
     0
 10
44.9199
 20
11.7615
 30
0.0
 11
44.9199
 21
8.66098
 31
0.0
  0
LINE
  8
0
 62
     0
 10
44.9199
 20
8.66098
 30
0.0
 11
45.7193
 21
8.66098
 31
0.0
  0
LINE
  8
0
 62
     0
 10
45.7193
 20
8.66098
 30
0.0
 11
45.7193
 21
7.6605
 31
0.0
  0
LINE
  8
0
 62
     0
 10
45.7193
 20
7.6605
 30
0.0
 11
59.72
 21
7.6605
 31
0.0
  0
LINE
  8
0
 62
     0
 10
59.72
 20
7.6605
 30
0.0
 11
59.72
 21
8.66098
 31
0.0
  0
LINE
  8
0
 62
     0
 10
59.72
 20
8.66098
 30
0.0
 11
60.5194
 21
8.66098
 31
0.0
  0
LINE
  8
0
 62
     0
 10
60.5194
 20
8.66098
 30
0.0
 11
60.5194
 21
11.7615
 31
0.0
  0
LINE
  8
0
 62
     0
 10
60.5194
 20
11.7615
 30
0.0
 11
59.72
 21
11.7615
 31
0.0
  0
LINE
  8
0
 62
     0
 10
59.72
 20
11.7615
 30
0.0
 11
59.72
 21
17.5617
 31
0.0
  0
LINE
  8
0
 62
     0
 10
59.72
 20
17.5617
 30
0.0
 11
60.5194
 21
17.5617
 31
0.0
  0
LINE
  8
0
 62
     0
 10
60.5194
 20
17.5617
 30
0.0
 11
60.5194
 21
20.6609
 31
0.0
  0
LINE
  8
0
 62
     0
 10
60.5194
 20
20.6609
 30
0.0
 11
59.72
 21
20.6609
 31
0.0
  0
LINE
  8
0
 62
     0
 10
59.72
 20
20.6609
 30
0.0
 11
59.72
 21
21.6614
 31
0.0
  0
LINE
  8
0
 62
     0
 10
59.72
 20
21.6614
 30
0.0
 11
45.7193
 21
21.6614
 31
0.0
  0
LINE
  8
0
 62
     0
 10
71.2692
 20
40.2855
 30
0.0
 11
71.2692
 21
39.4614
 31
0.0
  0
LINE
  8
0
 62
     0
 10
71.2692
 20
39.4614
 30
0.0
 11
64.9993
 21
39.4614
 31
0.0
  0
LINE
  8
0
 62
     0
 10
64.9993
 20
39.4614
 30
0.0
 11
64.9993
 21
37.7363
 31
0.0
  0
LINE
  8
0
 62
     0
 10
64.9993
 20
37.7363
 30
0.0
 11
64.0196
 21
37.7363
 31
0.0
  0
LINE
  8
0
 62
     0
 10
64.0196
 20
37.7363
 30
0.0
 11
64.0196
 21
34.4358
 31
0.0
  0
LINE
  8
0
 62
     0
 10
64.0196
 20
34.4358
 30
0.0
 11
64.9993
 21
34.4358
 31
0.0
  0
LINE
  8
0
 62
     0
 10
64.9993
 20
34.4358
 30
0.0
 11
64.9993
 21
32.7105
 31
0.0
  0
LINE
  8
0
 62
     0
 10
64.9993
 20
32.7105
 30
0.0
 11
69.4697
 21
32.7105
 31
0.0
  0
LINE
  8
0
 62
     0
 10
69.4697
 20
32.7105
 30
0.0
 11
69.4697
 21
31.1864
 31
0.0
  0
LINE
  8
0
 62
     0
 10
69.4697
 20
31.1864
 30
0.0
 11
68.8689
 21
31.1864
 31
0.0
  0
LINE
  8
0
 62
     0
 10
68.8689
 20
31.1864
 30
0.0
 11
68.8689
 21
31.9857
 31
0.0
  0
LINE
  8
0
 62
     0
 10
68.8689
 20
31.9857
 30
0.0
 11
65.7698
 21
31.9857
 31
0.0
  0
LINE
  8
0
 62
     0
 10
65.7698
 20
31.9857
 30
0.0
 11
65.7698
 21
31.1864
 31
0.0
  0
LINE
  8
0
 62
     0
 10
65.7698
 20
31.1864
 30
0.0
 11
64.7693
 21
31.1864
 31
0.0
  0
LINE
  8
0
 62
     0
 10
64.7693
 20
31.1864
 30
0.0
 11
64.7693
 21
17.1855
 31
0.0
  0
LINE
  8
0
 62
     0
 10
64.7693
 20
17.1855
 30
0.0
 11
65.7698
 21
17.1855
 31
0.0
  0
LINE
  8
0
 62
     0
 10
65.7698
 20
17.1855
 30
0.0
 11
65.7698
 21
16.3862
 31
0.0
  0
LINE
  8
0
 62
     0
 10
65.7698
 20
16.3862
 30
0.0
 11
68.8689
 21
16.3862
 31
0.0
  0
LINE
  8
0
 62
     0
 10
68.8689
 20
16.3862
 30
0.0
 11
68.8689
 21
17.1855
 31
0.0
  0
LINE
  8
0
 62
     0
 10
68.8689
 20
17.1855
 30
0.0
 11
69.4697
 21
17.1855
 31
0.0
  0
LINE
  8
0
 62
     0
 10
69.4697
 20
17.1855
 30
0.0
 11
69.4697
 21
15.6614
 31
0.0
  0
LINE
  8
0
 62
     0
 10
69.4697
 20
15.6614
 30
0.0
 11
64.9993
 21
15.6614
 31
0.0
  0
LINE
  8
0
 62
     0
 10
64.9993
 20
15.6614
 30
0.0
 11
64.9993
 21
13.9361
 31
0.0
  0
LINE
  8
0
 62
     0
 10
64.9993
 20
13.9361
 30
0.0
 11
64.0196
 21
13.9361
 31
0.0
  0
LINE
  8
0
 62
     0
 10
64.0196
 20
13.9361
 30
0.0
 11
64.0196
 21
10.6357
 31
0.0
  0
LINE
  8
0
 62
     0
 10
64.0196
 20
10.6357
 30
0.0
 11
64.9993
 21
10.6357
 31
0.0
  0
LINE
  8
0
 62
     0
 10
64.9993
 20
10.6357
 30
0.0
 11
64.9993
 21
8.91039
 31
0.0
  0
LINE
  8
0
 62
     0
 10
64.9993
 20
8.91039
 30
0.0
 11
71.2692
 21
8.91039
 31
0.0
  0
LINE
  8
0
 62
     0
 10
71.2692
 20
8.91039
 30
0.0
 11
71.2692
 21
8.08634
 31
0.0
  0
LINE
  8
0
 62
     0
 10
71.2692
 20
8.08634
 30
0.0
 11
74.0696
 21
8.08634
 31
0.0
  0
LINE
  8
0
 62
     0
 10
74.0696
 20
8.08634
 30
0.0
 11
74.0696
 21
8.91039
 31
0.0
  0
LINE
  8
0
 62
     0
 10
74.0696
 20
8.91039
 30
0.0
 11
77.2996
 21
8.91039
 31
0.0
  0
LINE
  8
0
 62
     0
 10
77.2996
 20
8.91039
 30
0.0
 11
77.2996
 21
10.6357
 31
0.0
  0
LINE
  8
0
 62
     0
 10
77.2996
 20
10.6357
 30
0.0
 11
78.219
 21
10.6357
 31
0.0
  0
LINE
  8
0
 62
     0
 10
78.219
 20
10.6357
 30
0.0
 11
78.219
 21
13.9361
 31
0.0
  0
LINE
  8
0
 62
     0
 10
78.219
 20
13.9361
 30
0.0
 11
77.2996
 21
13.9361
 31
0.0
  0
LINE
  8
0
 62
     0
 10
77.2996
 20
13.9361
 30
0.0
 11
77.2996
 21
15.6614
 31
0.0
  0
LINE
  8
0
 62
     0
 10
77.2996
 20
15.6614
 30
0.0
 11
74.0696
 21
15.6614
 31
0.0
  0
LINE
  8
0
 62
     0
 10
74.0696
 20
15.6614
 30
0.0
 11
74.0696
 21
17.1855
 31
0.0
  0
LINE
  8
0
 62
     0
 10
74.0696
 20
17.1855
 30
0.0
 11
74.6689
 21
17.1855
 31
0.0
  0
LINE
  8
0
 62
     0
 10
74.6689
 20
17.1855
 30
0.0
 11
74.6689
 21
16.3862
 31
0.0
  0
LINE
  8
0
 62
     0
 10
74.6689
 20
16.3862
 30
0.0
 11
77.7695
 21
16.3862
 31
0.0
  0
LINE
  8
0
 62
     0
 10
77.7695
 20
16.3862
 30
0.0
 11
77.7695
 21
17.1855
 31
0.0
  0
LINE
  8
0
 62
     0
 10
77.7695
 20
17.1855
 30
0.0
 11
78.77
 21
17.1855
 31
0.0
  0
LINE
  8
0
 62
     0
 10
78.77
 20
17.1855
 30
0.0
 11
78.77
 21
31.1864
 31
0.0
  0
LINE
  8
0
 62
     0
 10
78.77
 20
31.1864
 30
0.0
 11
77.7695
 21
31.1864
 31
0.0
  0
LINE
  8
0
 62
     0
 10
77.7695
 20
31.1864
 30
0.0
 11
77.7695
 21
31.9857
 31
0.0
  0
LINE
  8
0
 62
     0
 10
77.7695
 20
31.9857
 30
0.0
 11
74.6689
 21
31.9857
 31
0.0
  0
LINE
  8
0
 62
     0
 10
74.6689
 20
31.9857
 30
0.0
 11
74.6689
 21
31.1864
 31
0.0
  0
LINE
  8
0
 62
     0
 10
74.6689
 20
31.1864
 30
0.0
 11
74.0696
 21
31.1864
 31
0.0
  0
LINE
  8
0
 62
     0
 10
74.0696
 20
31.1864
 30
0.0
 11
74.0696
 21
32.7105
 31
0.0
  0
LINE
  8
0
 62
     0
 10
74.0696
 20
32.7105
 30
0.0
 11
77.2996
 21
32.7105
 31
0.0
  0
LINE
  8
0
 62
     0
 10
77.2996
 20
32.7105
 30
0.0
 11
77.2996
 21
34.4358
 31
0.0
  0
LINE
  8
0
 62
     0
 10
77.2996
 20
34.4358
 30
0.0
 11
78.219
 21
34.4358
 31
0.0
  0
LINE
  8
0
 62
     0
 10
78.219
 20
34.4358
 30
0.0
 11
78.219
 21
37.7363
 31
0.0
  0
LINE
  8
0
 62
     0
 10
78.219
 20
37.7363
 30
0.0
 11
77.2996
 21
37.7363
 31
0.0
  0
LINE
  8
0
 62
     0
 10
77.2996
 20
37.7363
 30
0.0
 11
77.2996
 21
39.4614
 31
0.0
  0
LINE
  8
0
 62
     0
 10
77.2996
 20
39.4614
 30
0.0
 11
74.0696
 21
39.4614
 31
0.0
  0
LINE
  8
0
 62
     0
 10
74.0696
 20
39.4614
 30
0.0
 11
74.0696
 21
40.2855
 31
0.0
  0
LINE
  8
0
 62
     0
 10
74.0696
 20
40.2855
 30
0.0
 11
71.2692
 21
40.2855
 31
0.0
  0
LINE
  8
0
 62
     0
 10
7.61919
 20
40.7113
 30
0.0
 11
7.61919
 21
39.7108
 31
0.0
  0
LINE
  8
0
 62
     0
 10
7.61919
 20
39.7108
 30
0.0
 11
6.81852
 21
39.7108
 31
0.0
  0
LINE
  8
0
 62
     0
 10
6.81852
 20
39.7108
 30
0.0
 11
6.81852
 21
36.6116
 31
0.0
  0
LINE
  8
0
 62
     0
 10
6.81852
 20
36.6116
 30
0.0
 11
7.61919
 21
36.6116
 31
0.0
  0
LINE
  8
0
 62
     0
 10
7.61919
 20
36.6116
 30
0.0
 11
7.61919
 21
30.8115
 31
0.0
  0
LINE
  8
0
 62
     0
 10
7.61919
 20
30.8115
 30
0.0
 11
6.81852
 21
30.8115
 31
0.0
  0
LINE
  8
0
 62
     0
 10
6.81852
 20
30.8115
 30
0.0
 11
6.81852
 21
27.711
 31
0.0
  0
LINE
  8
0
 62
     0
 10
6.81852
 20
27.711
 30
0.0
 11
7.61919
 21
27.711
 31
0.0
  0
LINE
  8
0
 62
     0
 10
7.61919
 20
27.711
 30
0.0
 11
7.61919
 21
26.7105
 31
0.0
  0
LINE
  8
0
 62
     0
 10
7.61919
 20
26.7105
 30
0.0
 11
21.6201
 21
26.7105
 31
0.0
  0
LINE
  8
0
 62
     0
 10
21.6201
 20
26.7105
 30
0.0
 11
21.6201
 21
27.711
 31
0.0
  0
LINE
  8
0
 62
     0
 10
21.6201
 20
27.711
 30
0.0
 11
22.4193
 21
27.711
 31
0.0
  0
LINE
  8
0
 62
     0
 10
22.4193
 20
27.711
 30
0.0
 11
22.4193
 21
30.8115
 31
0.0
  0
LINE
  8
0
 62
     0
 10
22.4193
 20
30.8115
 30
0.0
 11
21.6201
 21
30.8115
 31
0.0
  0
LINE
  8
0
 62
     0
 10
21.6201
 20
30.8115
 30
0.0
 11
21.6201
 21
36.6116
 31
0.0
  0
LINE
  8
0
 62
     0
 10
21.6201
 20
36.6116
 30
0.0
 11
22.4193
 21
36.6116
 31
0.0
  0
LINE
  8
0
 62
     0
 10
22.4193
 20
36.6116
 30
0.0
 11
22.4193
 21
39.7108
 31
0.0
  0
LINE
  8
0
 62
     0
 10
22.4193
 20
39.7108
 30
0.0
 11
21.6201
 21
39.7108
 31
0.0
  0
LINE
  8
0
 62
     0
 10
21.6201
 20
39.7108
 30
0.0
 11
21.6201
 21
40.7113
 31
0.0
  0
LINE
  8
0
 62
     0
 10
21.6201
 20
40.7113
 30
0.0
 11
7.61919
 21
40.7113
 31
0.0
  0
LINE
  8
0
 62
     0
 10
26.6692
 20
40.7113
 30
0.0
 11
26.6692
 21
39.7108
 31
0.0
  0
LINE
  8
0
 62
     0
 10
26.6692
 20
39.7108
 30
0.0
 11
25.8699
 21
39.7108
 31
0.0
  0
LINE
  8
0
 62
     0
 10
25.8699
 20
39.7108
 30
0.0
 11
25.8699
 21
36.6116
 31
0.0
  0
LINE
  8
0
 62
     0
 10
25.8699
 20
36.6116
 30
0.0
 11
26.6692
 21
36.6116
 31
0.0
  0
LINE
  8
0
 62
     0
 10
26.6692
 20
36.6116
 30
0.0
 11
26.6692
 21
30.8115
 31
0.0
  0
LINE
  8
0
 62
     0
 10
26.6692
 20
30.8115
 30
0.0
 11
25.8699
 21
30.8115
 31
0.0
  0
LINE
  8
0
 62
     0
 10
25.8699
 20
30.8115
 30
0.0
 11
25.8699
 21
27.711
 31
0.0
  0
LINE
  8
0
 62
     0
 10
25.8699
 20
27.711
 30
0.0
 11
26.6692
 21
27.711
 31
0.0
  0
LINE
  8
0
 62
     0
 10
26.6692
 20
27.711
 30
0.0
 11
26.6692
 21
26.7105
 31
0.0
  0
LINE
  8
0
 62
     0
 10
26.6692
 20
26.7105
 30
0.0
 11
40.67
 21
26.7105
 31
0.0
  0
LINE
  8
0
 62
     0
 10
40.67
 20
26.7105
 30
0.0
 11
40.67
 21
27.711
 31
0.0
  0
LINE
  8
0
 62
     0
 10
40.67
 20
27.711
 30
0.0
 11
41.4694
 21
27.711
 31
0.0
  0
LINE
  8
0
 62
     0
 10
41.4694
 20
27.711
 30
0.0
 11
41.4694
 21
30.8115
 31
0.0
  0
LINE
  8
0
 62
     0
 10
41.4694
 20
30.8115
 30
0.0
 11
40.67
 21
30.8115
 31
0.0
  0
LINE
  8
0
 62
     0
 10
40.67
 20
30.8115
 30
0.0
 11
40.67
 21
36.6116
 31
0.0
  0
LINE
  8
0
 62
     0
 10
40.67
 20
36.6116
 30
0.0
 11
41.4694
 21
36.6116
 31
0.0
  0
LINE
  8
0
 62
     0
 10
41.4694
 20
36.6116
 30
0.0
 11
41.4694
 21
39.7108
 31
0.0
  0
LINE
  8
0
 62
     0
 10
41.4694
 20
39.7108
 30
0.0
 11
40.67
 21
39.7108
 31
0.0
  0
LINE
  8
0
 62
     0
 10
40.67
 20
39.7108
 30
0.0
 11
40.67
 21
40.7113
 31
0.0
  0
LINE
  8
0
 62
     0
 10
40.67
 20
40.7113
 30
0.0
 11
26.6692
 21
40.7113
 31
0.0
  0
LINE
  8
0
 62
     0
 10
45.7193
 20
40.7113
 30
0.0
 11
45.7193
 21
39.7108
 31
0.0
  0
LINE
  8
0
 62
     0
 10
45.7193
 20
39.7108
 30
0.0
 11
44.9199
 21
39.7108
 31
0.0
  0
LINE
  8
0
 62
     0
 10
44.9199
 20
39.7108
 30
0.0
 11
44.9199
 21
36.6116
 31
0.0
  0
LINE
  8
0
 62
     0
 10
44.9199
 20
36.6116
 30
0.0
 11
45.7193
 21
36.6116
 31
0.0
  0
LINE
  8
0
 62
     0
 10
45.7193
 20
36.6116
 30
0.0
 11
45.7193
 21
30.8115
 31
0.0
  0
LINE
  8
0
 62
     0
 10
45.7193
 20
30.8115
 30
0.0
 11
44.9199
 21
30.8115
 31
0.0
  0
LINE
  8
0
 62
     0
 10
44.9199
 20
30.8115
 30
0.0
 11
44.9199
 21
27.711
 31
0.0
  0
LINE
  8
0
 62
     0
 10
44.9199
 20
27.711
 30
0.0
 11
45.7193
 21
27.711
 31
0.0
  0
LINE
  8
0
 62
     0
 10
45.7193
 20
27.711
 30
0.0
 11
45.7193
 21
26.7105
 31
0.0
  0
LINE
  8
0
 62
     0
 10
45.7193
 20
26.7105
 30
0.0
 11
59.72
 21
26.7105
 31
0.0
  0
LINE
  8
0
 62
     0
 10
59.72
 20
26.7105
 30
0.0
 11
59.72
 21
27.711
 31
0.0
  0
LINE
  8
0
 62
     0
 10
59.72
 20
27.711
 30
0.0
 11
60.5194
 21
27.711
 31
0.0
  0
LINE
  8
0
 62
     0
 10
60.5194
 20
27.711
 30
0.0
 11
60.5194
 21
30.8115
 31
0.0
  0
LINE
  8
0
 62
     0
 10
60.5194
 20
30.8115
 30
0.0
 11
59.72
 21
30.8115
 31
0.0
  0
LINE
  8
0
 62
     0
 10
59.72
 20
30.8115
 30
0.0
 11
59.72
 21
36.6116
 31
0.0
  0
LINE
  8
0
 62
     0
 10
59.72
 20
36.6116
 30
0.0
 11
60.5194
 21
36.6116
 31
0.0
  0
LINE
  8
0
 62
     0
 10
60.5194
 20
36.6116
 30
0.0
 11
60.5194
 21
39.7108
 31
0.0
  0
LINE
  8
0
 62
     0
 10
60.5194
 20
39.7108
 30
0.0
 11
59.72
 21
39.7108
 31
0.0
  0
LINE
  8
0
 62
     0
 10
59.72
 20
39.7108
 30
0.0
 11
59.72
 21
40.7113
 31
0.0
  0
LINE
  8
0
 62
     0
 10
59.72
 20
40.7113
 30
0.0
 11
45.7193
 21
40.7113
 31
0.0
  0
LINE
  8
0
 62
     0
 10
7.61919
 20
59.7613
 30
0.0
 11
7.61919
 21
58.7608
 31
0.0
  0
LINE
  8
0
 62
     0
 10
7.61919
 20
58.7608
 30
0.0
 11
6.81852
 21
58.7608
 31
0.0
  0
LINE
  8
0
 62
     0
 10
6.81852
 20
58.7608
 30
0.0
 11
6.81852
 21
55.6616
 31
0.0
  0
LINE
  8
0
 62
     0
 10
6.81852
 20
55.6616
 30
0.0
 11
7.61919
 21
55.6616
 31
0.0
  0
LINE
  8
0
 62
     0
 10
7.61919
 20
55.6616
 30
0.0
 11
7.61919
 21
49.8616
 31
0.0
  0
LINE
  8
0
 62
     0
 10
7.61919
 20
49.8616
 30
0.0
 11
6.81852
 21
49.8616
 31
0.0
  0
LINE
  8
0
 62
     0
 10
6.81852
 20
49.8616
 30
0.0
 11
6.81852
 21
46.761
 31
0.0
  0
LINE
  8
0
 62
     0
 10
6.81852
 20
46.761
 30
0.0
 11
7.61919
 21
46.761
 31
0.0
  0
LINE
  8
0
 62
     0
 10
7.61919
 20
46.761
 30
0.0
 11
7.61919
 21
45.7606
 31
0.0
  0
LINE
  8
0
 62
     0
 10
7.61919
 20
45.7606
 30
0.0
 11
21.6201
 21
45.7606
 31
0.0
  0
LINE
  8
0
 62
     0
 10
21.6201
 20
45.7606
 30
0.0
 11
21.6201
 21
46.761
 31
0.0
  0
LINE
  8
0
 62
     0
 10
21.6201
 20
46.761
 30
0.0
 11
22.4193
 21
46.761
 31
0.0
  0
LINE
  8
0
 62
     0
 10
22.4193
 20
46.761
 30
0.0
 11
22.4193
 21
49.8616
 31
0.0
  0
LINE
  8
0
 62
     0
 10
22.4193
 20
49.8616
 30
0.0
 11
21.6201
 21
49.8616
 31
0.0
  0
LINE
  8
0
 62
     0
 10
21.6201
 20
49.8616
 30
0.0
 11
21.6201
 21
55.6616
 31
0.0
  0
LINE
  8
0
 62
     0
 10
21.6201
 20
55.6616
 30
0.0
 11
22.4193
 21
55.6616
 31
0.0
  0
LINE
  8
0
 62
     0
 10
22.4193
 20
55.6616
 30
0.0
 11
22.4193
 21
58.7608
 31
0.0
  0
LINE
  8
0
 62
     0
 10
22.4193
 20
58.7608
 30
0.0
 11
21.6201
 21
58.7608
 31
0.0
  0
LINE
  8
0
 62
     0
 10
21.6201
 20
58.7608
 30
0.0
 11
21.6201
 21
59.7613
 31
0.0
  0
LINE
  8
0
 62
     0
 10
21.6201
 20
59.7613
 30
0.0
 11
7.61919
 21
59.7613
 31
0.0
  0
LINE
  8
0
 62
     0
 10
26.6692
 20
59.7613
 30
0.0
 11
26.6692
 21
58.7608
 31
0.0
  0
LINE
  8
0
 62
     0
 10
26.6692
 20
58.7608
 30
0.0
 11
25.8699
 21
58.7608
 31
0.0
  0
LINE
  8
0
 62
     0
 10
25.8699
 20
58.7608
 30
0.0
 11
25.8699
 21
55.6616
 31
0.0
  0
LINE
  8
0
 62
     0
 10
25.8699
 20
55.6616
 30
0.0
 11
26.6692
 21
55.6616
 31
0.0
  0
LINE
  8
0
 62
     0
 10
26.6692
 20
55.6616
 30
0.0
 11
26.6692
 21
49.8616
 31
0.0
  0
LINE
  8
0
 62
     0
 10
26.6692
 20
49.8616
 30
0.0
 11
25.8699
 21
49.8616
 31
0.0
  0
LINE
  8
0
 62
     0
 10
25.8699
 20
49.8616
 30
0.0
 11
25.8699
 21
46.761
 31
0.0
  0
LINE
  8
0
 62
     0
 10
25.8699
 20
46.761
 30
0.0
 11
26.6692
 21
46.761
 31
0.0
  0
LINE
  8
0
 62
     0
 10
26.6692
 20
46.761
 30
0.0
 11
26.6692
 21
45.7606
 31
0.0
  0
LINE
  8
0
 62
     0
 10
26.6692
 20
45.7606
 30
0.0
 11
40.67
 21
45.7606
 31
0.0
  0
LINE
  8
0
 62
     0
 10
40.67
 20
45.7606
 30
0.0
 11
40.67
 21
46.761
 31
0.0
  0
LINE
  8
0
 62
     0
 10
40.67
 20
46.761
 30
0.0
 11
41.4694
 21
46.761
 31
0.0
  0
LINE
  8
0
 62
     0
 10
41.4694
 20
46.761
 30
0.0
 11
41.4694
 21
49.8616
 31
0.0
  0
LINE
  8
0
 62
     0
 10
41.4694
 20
49.8616
 30
0.0
 11
40.67
 21
49.8616
 31
0.0
  0
LINE
  8
0
 62
     0
 10
40.67
 20
49.8616
 30
0.0
 11
40.67
 21
55.6616
 31
0.0
  0
LINE
  8
0
 62
     0
 10
40.67
 20
55.6616
 30
0.0
 11
41.4694
 21
55.6616
 31
0.0
  0
LINE
  8
0
 62
     0
 10
41.4694
 20
55.6616
 30
0.0
 11
41.4694
 21
58.7608
 31
0.0
  0
LINE
  8
0
 62
     0
 10
41.4694
 20
58.7608
 30
0.0
 11
40.67
 21
58.7608
 31
0.0
  0
LINE
  8
0
 62
     0
 10
40.67
 20
58.7608
 30
0.0
 11
40.67
 21
59.7613
 31
0.0
  0
LINE
  8
0
 62
     0
 10
40.67
 20
59.7613
 30
0.0
 11
26.6692
 21
59.7613
 31
0.0
  0
LINE
  8
0
 62
     0
 10
45.7193
 20
59.7613
 30
0.0
 11
45.7193
 21
58.7608
 31
0.0
  0
LINE
  8
0
 62
     0
 10
45.7193
 20
58.7608
 30
0.0
 11
44.9199
 21
58.7608
 31
0.0
  0
LINE
  8
0
 62
     0
 10
44.9199
 20
58.7608
 30
0.0
 11
44.9199
 21
55.6616
 31
0.0
  0
LINE
  8
0
 62
     0
 10
44.9199
 20
55.6616
 30
0.0
 11
45.7193
 21
55.6616
 31
0.0
  0
LINE
  8
0
 62
     0
 10
45.7193
 20
55.6616
 30
0.0
 11
45.7193
 21
49.8616
 31
0.0
  0
LINE
  8
0
 62
     0
 10
45.7193
 20
49.8616
 30
0.0
 11
44.9199
 21
49.8616
 31
0.0
  0
LINE
  8
0
 62
     0
 10
44.9199
 20
49.8616
 30
0.0
 11
44.9199
 21
46.761
 31
0.0
  0
LINE
  8
0
 62
     0
 10
44.9199
 20
46.761
 30
0.0
 11
45.7193
 21
46.761
 31
0.0
  0
LINE
  8
0
 62
     0
 10
45.7193
 20
46.761
 30
0.0
 11
45.7193
 21
45.7606
 31
0.0
  0
LINE
  8
0
 62
     0
 10
45.7193
 20
45.7606
 30
0.0
 11
59.72
 21
45.7606
 31
0.0
  0
LINE
  8
0
 62
     0
 10
59.72
 20
45.7606
 30
0.0
 11
59.72
 21
46.761
 31
0.0
  0
LINE
  8
0
 62
     0
 10
59.72
 20
46.761
 30
0.0
 11
60.5194
 21
46.761
 31
0.0
  0
LINE
  8
0
 62
     0
 10
60.5194
 20
46.761
 30
0.0
 11
60.5194
 21
49.8616
 31
0.0
  0
LINE
  8
0
 62
     0
 10
60.5194
 20
49.8616
 30
0.0
 11
59.72
 21
49.8616
 31
0.0
  0
LINE
  8
0
 62
     0
 10
59.72
 20
49.8616
 30
0.0
 11
59.72
 21
55.6616
 31
0.0
  0
LINE
  8
0
 62
     0
 10
59.72
 20
55.6616
 30
0.0
 11
60.5194
 21
55.6616
 31
0.0
  0
LINE
  8
0
 62
     0
 10
60.5194
 20
55.6616
 30
0.0
 11
60.5194
 21
58.7608
 31
0.0
  0
LINE
  8
0
 62
     0
 10
60.5194
 20
58.7608
 30
0.0
 11
59.72
 21
58.7608
 31
0.0
  0
LINE
  8
0
 62
     0
 10
59.72
 20
58.7608
 30
0.0
 11
59.72
 21
59.7613
 31
0.0
  0
LINE
  8
0
 62
     0
 10
59.72
 20
59.7613
 30
0.0
 11
45.7193
 21
59.7613
 31
0.0
  0
LINE
  8
0
 62
     0
 10
71.2692
 20
78.3855
 30
0.0
 11
71.2692
 21
77.5614
 31
0.0
  0
LINE
  8
0
 62
     0
 10
71.2692
 20
77.5614
 30
0.0
 11
64.9993
 21
77.5614
 31
0.0
  0
LINE
  8
0
 62
     0
 10
64.9993
 20
77.5614
 30
0.0
 11
64.9993
 21
75.8363
 31
0.0
  0
LINE
  8
0
 62
     0
 10
64.9993
 20
75.8363
 30
0.0
 11
64.0196
 21
75.8363
 31
0.0
  0
LINE
  8
0
 62
     0
 10
64.0196
 20
75.8363
 30
0.0
 11
64.0196
 21
72.5357
 31
0.0
  0
LINE
  8
0
 62
     0
 10
64.0196
 20
72.5357
 30
0.0
 11
64.9993
 21
72.5357
 31
0.0
  0
LINE
  8
0
 62
     0
 10
64.9993
 20
72.5357
 30
0.0
 11
64.9993
 21
70.8106
 31
0.0
  0
LINE
  8
0
 62
     0
 10
64.9993
 20
70.8106
 30
0.0
 11
69.4697
 21
70.8106
 31
0.0
  0
LINE
  8
0
 62
     0
 10
69.4697
 20
70.8106
 30
0.0
 11
69.4697
 21
69.2863
 31
0.0
  0
LINE
  8
0
 62
     0
 10
69.4697
 20
69.2863
 30
0.0
 11
68.8689
 21
69.2863
 31
0.0
  0
LINE
  8
0
 62
     0
 10
68.8689
 20
69.2863
 30
0.0
 11
68.8689
 21
70.0857
 31
0.0
  0
LINE
  8
0
 62
     0
 10
68.8689
 20
70.0857
 30
0.0
 11
65.7698
 21
70.0857
 31
0.0
  0
LINE
  8
0
 62
     0
 10
65.7698
 20
70.0857
 30
0.0
 11
65.7698
 21
69.2863
 31
0.0
  0
LINE
  8
0
 62
     0
 10
65.7698
 20
69.2863
 30
0.0
 11
64.7693
 21
69.2863
 31
0.0
  0
LINE
  8
0
 62
     0
 10
64.7693
 20
69.2863
 30
0.0
 11
64.7693
 21
55.2856
 31
0.0
  0
LINE
  8
0
 62
     0
 10
64.7693
 20
55.2856
 30
0.0
 11
65.7698
 21
55.2856
 31
0.0
  0
LINE
  8
0
 62
     0
 10
65.7698
 20
55.2856
 30
0.0
 11
65.7698
 21
54.4862
 31
0.0
  0
LINE
  8
0
 62
     0
 10
65.7698
 20
54.4862
 30
0.0
 11
68.8689
 21
54.4862
 31
0.0
  0
LINE
  8
0
 62
     0
 10
68.8689
 20
54.4862
 30
0.0
 11
68.8689
 21
55.2856
 31
0.0
  0
LINE
  8
0
 62
     0
 10
68.8689
 20
55.2856
 30
0.0
 11
69.4697
 21
55.2856
 31
0.0
  0
LINE
  8
0
 62
     0
 10
69.4697
 20
55.2856
 30
0.0
 11
69.4697
 21
53.7616
 31
0.0
  0
LINE
  8
0
 62
     0
 10
69.4697
 20
53.7616
 30
0.0
 11
64.9993
 21
53.7616
 31
0.0
  0
LINE
  8
0
 62
     0
 10
64.9993
 20
53.7616
 30
0.0
 11
64.9993
 21
52.0361
 31
0.0
  0
LINE
  8
0
 62
     0
 10
64.9993
 20
52.0361
 30
0.0
 11
64.0196
 21
52.0361
 31
0.0
  0
LINE
  8
0
 62
     0
 10
64.0196
 20
52.0361
 30
0.0
 11
64.0196
 21
48.7355
 31
0.0
  0
LINE
  8
0
 62
     0
 10
64.0196
 20
48.7355
 30
0.0
 11
64.9993
 21
48.7355
 31
0.0
  0
LINE
  8
0
 62
     0
 10
64.9993
 20
48.7355
 30
0.0
 11
64.9993
 21
47.0105
 31
0.0
  0
LINE
  8
0
 62
     0
 10
64.9993
 20
47.0105
 30
0.0
 11
71.2692
 21
47.0105
 31
0.0
  0
LINE
  8
0
 62
     0
 10
71.2692
 20
47.0105
 30
0.0
 11
71.2692
 21
46.1864
 31
0.0
  0
LINE
  8
0
 62
     0
 10
71.2692
 20
46.1864
 30
0.0
 11
74.0696
 21
46.1864
 31
0.0
  0
LINE
  8
0
 62
     0
 10
74.0696
 20
46.1864
 30
0.0
 11
74.0696
 21
47.0105
 31
0.0
  0
LINE
  8
0
 62
     0
 10
74.0696
 20
47.0105
 30
0.0
 11
77.2996
 21
47.0105
 31
0.0
  0
LINE
  8
0
 62
     0
 10
77.2996
 20
47.0105
 30
0.0
 11
77.2996
 21
48.7355
 31
0.0
  0
LINE
  8
0
 62
     0
 10
77.2996
 20
48.7355
 30
0.0
 11
78.219
 21
48.7355
 31
0.0
  0
LINE
  8
0
 62
     0
 10
78.219
 20
48.7355
 30
0.0
 11
78.219
 21
52.0361
 31
0.0
  0
LINE
  8
0
 62
     0
 10
78.219
 20
52.0361
 30
0.0
 11
77.2996
 21
52.0361
 31
0.0
  0
LINE
  8
0
 62
     0
 10
77.2996
 20
52.0361
 30
0.0
 11
77.2996
 21
53.7616
 31
0.0
  0
LINE
  8
0
 62
     0
 10
77.2996
 20
53.7616
 30
0.0
 11
74.0696
 21
53.7616
 31
0.0
  0
LINE
  8
0
 62
     0
 10
74.0696
 20
53.7616
 30
0.0
 11
74.0696
 21
55.2856
 31
0.0
  0
LINE
  8
0
 62
     0
 10
74.0696
 20
55.2856
 30
0.0
 11
74.6689
 21
55.2856
 31
0.0
  0
LINE
  8
0
 62
     0
 10
74.6689
 20
55.2856
 30
0.0
 11
74.6689
 21
54.4862
 31
0.0
  0
LINE
  8
0
 62
     0
 10
74.6689
 20
54.4862
 30
0.0
 11
77.7695
 21
54.4862
 31
0.0
  0
LINE
  8
0
 62
     0
 10
77.7695
 20
54.4862
 30
0.0
 11
77.7695
 21
55.2856
 31
0.0
  0
LINE
  8
0
 62
     0
 10
77.7695
 20
55.2856
 30
0.0
 11
78.77
 21
55.2856
 31
0.0
  0
LINE
  8
0
 62
     0
 10
78.77
 20
55.2856
 30
0.0
 11
78.77
 21
69.2863
 31
0.0
  0
LINE
  8
0
 62
     0
 10
78.77
 20
69.2863
 30
0.0
 11
77.7695
 21
69.2863
 31
0.0
  0
LINE
  8
0
 62
     0
 10
77.7695
 20
69.2863
 30
0.0
 11
77.7695
 21
70.0857
 31
0.0
  0
LINE
  8
0
 62
     0
 10
77.7695
 20
70.0857
 30
0.0
 11
74.6689
 21
70.0857
 31
0.0
  0
LINE
  8
0
 62
     0
 10
74.6689
 20
70.0857
 30
0.0
 11
74.6689
 21
69.2863
 31
0.0
  0
LINE
  8
0
 62
     0
 10
74.6689
 20
69.2863
 30
0.0
 11
74.0696
 21
69.2863
 31
0.0
  0
LINE
  8
0
 62
     0
 10
74.0696
 20
69.2863
 30
0.0
 11
74.0696
 21
70.8106
 31
0.0
  0
LINE
  8
0
 62
     0
 10
74.0696
 20
70.8106
 30
0.0
 11
77.2996
 21
70.8106
 31
0.0
  0
LINE
  8
0
 62
     0
 10
77.2996
 20
70.8106
 30
0.0
 11
77.2996
 21
72.5357
 31
0.0
  0
LINE
  8
0
 62
     0
 10
77.2996
 20
72.5357
 30
0.0
 11
78.219
 21
72.5357
 31
0.0
  0
LINE
  8
0
 62
     0
 10
78.219
 20
72.5357
 30
0.0
 11
78.219
 21
75.8363
 31
0.0
  0
LINE
  8
0
 62
     0
 10
78.219
 20
75.8363
 30
0.0
 11
77.2996
 21
75.8363
 31
0.0
  0
LINE
  8
0
 62
     0
 10
77.2996
 20
75.8363
 30
0.0
 11
77.2996
 21
77.5614
 31
0.0
  0
LINE
  8
0
 62
     0
 10
77.2996
 20
77.5614
 30
0.0
 11
74.0696
 21
77.5614
 31
0.0
  0
LINE
  8
0
 62
     0
 10
74.0696
 20
77.5614
 30
0.0
 11
74.0696
 21
78.3855
 31
0.0
  0
LINE
  8
0
 62
     0
 10
74.0696
 20
78.3855
 30
0.0
 11
71.2692
 21
78.3855
 31
0.0
  0
LINE
  8
0
 62
     0
 10
7.61919
 20
78.8113
 30
0.0
 11
7.61919
 21
77.8108
 31
0.0
  0
LINE
  8
0
 62
     0
 10
7.61919
 20
77.8108
 30
0.0
 11
6.81852
 21
77.8108
 31
0.0
  0
LINE
  8
0
 62
     0
 10
6.81852
 20
77.8108
 30
0.0
 11
6.81852
 21
74.7116
 31
0.0
  0
LINE
  8
0
 62
     0
 10
6.81852
 20
74.7116
 30
0.0
 11
7.61919
 21
74.7116
 31
0.0
  0
LINE
  8
0
 62
     0
 10
7.61919
 20
74.7116
 30
0.0
 11
7.61919
 21
68.9116
 31
0.0
  0
LINE
  8
0
 62
     0
 10
7.61919
 20
68.9116
 30
0.0
 11
6.81852
 21
68.9116
 31
0.0
  0
LINE
  8
0
 62
     0
 10
6.81852
 20
68.9116
 30
0.0
 11
6.81852
 21
65.811
 31
0.0
  0
LINE
  8
0
 62
     0
 10
6.81852
 20
65.811
 30
0.0
 11
7.61919
 21
65.811
 31
0.0
  0
LINE
  8
0
 62
     0
 10
7.61919
 20
65.811
 30
0.0
 11
7.61919
 21
64.8106
 31
0.0
  0
LINE
  8
0
 62
     0
 10
7.61919
 20
64.8106
 30
0.0
 11
21.6201
 21
64.8106
 31
0.0
  0
LINE
  8
0
 62
     0
 10
21.6201
 20
64.8106
 30
0.0
 11
21.6201
 21
65.811
 31
0.0
  0
LINE
  8
0
 62
     0
 10
21.6201
 20
65.811
 30
0.0
 11
22.4193
 21
65.811
 31
0.0
  0
LINE
  8
0
 62
     0
 10
22.4193
 20
65.811
 30
0.0
 11
22.4193
 21
68.9116
 31
0.0
  0
LINE
  8
0
 62
     0
 10
22.4193
 20
68.9116
 30
0.0
 11
21.6201
 21
68.9116
 31
0.0
  0
LINE
  8
0
 62
     0
 10
21.6201
 20
68.9116
 30
0.0
 11
21.6201
 21
74.7116
 31
0.0
  0
LINE
  8
0
 62
     0
 10
21.6201
 20
74.7116
 30
0.0
 11
22.4193
 21
74.7116
 31
0.0
  0
LINE
  8
0
 62
     0
 10
22.4193
 20
74.7116
 30
0.0
 11
22.4193
 21
77.8108
 31
0.0
  0
LINE
  8
0
 62
     0
 10
22.4193
 20
77.8108
 30
0.0
 11
21.6201
 21
77.8108
 31
0.0
  0
LINE
  8
0
 62
     0
 10
21.6201
 20
77.8108
 30
0.0
 11
21.6201
 21
78.8113
 31
0.0
  0
LINE
  8
0
 62
     0
 10
21.6201
 20
78.8113
 30
0.0
 11
7.61919
 21
78.8113
 31
0.0
  0
LINE
  8
0
 62
     0
 10
26.6692
 20
78.8113
 30
0.0
 11
26.6692
 21
77.8108
 31
0.0
  0
LINE
  8
0
 62
     0
 10
26.6692
 20
77.8108
 30
0.0
 11
25.8699
 21
77.8108
 31
0.0
  0
LINE
  8
0
 62
     0
 10
25.8699
 20
77.8108
 30
0.0
 11
25.8699
 21
74.7116
 31
0.0
  0
LINE
  8
0
 62
     0
 10
25.8699
 20
74.7116
 30
0.0
 11
26.6692
 21
74.7116
 31
0.0
  0
LINE
  8
0
 62
     0
 10
26.6692
 20
74.7116
 30
0.0
 11
26.6692
 21
68.9116
 31
0.0
  0
LINE
  8
0
 62
     0
 10
26.6692
 20
68.9116
 30
0.0
 11
25.8699
 21
68.9116
 31
0.0
  0
LINE
  8
0
 62
     0
 10
25.8699
 20
68.9116
 30
0.0
 11
25.8699
 21
65.811
 31
0.0
  0
LINE
  8
0
 62
     0
 10
25.8699
 20
65.811
 30
0.0
 11
26.6692
 21
65.811
 31
0.0
  0
LINE
  8
0
 62
     0
 10
26.6692
 20
65.811
 30
0.0
 11
26.6692
 21
64.8106
 31
0.0
  0
LINE
  8
0
 62
     0
 10
26.6692
 20
64.8106
 30
0.0
 11
40.67
 21
64.8106
 31
0.0
  0
LINE
  8
0
 62
     0
 10
40.67
 20
64.8106
 30
0.0
 11
40.67
 21
65.811
 31
0.0
  0
LINE
  8
0
 62
     0
 10
40.67
 20
65.811
 30
0.0
 11
41.4694
 21
65.811
 31
0.0
  0
LINE
  8
0
 62
     0
 10
41.4694
 20
65.811
 30
0.0
 11
41.4694
 21
68.9116
 31
0.0
  0
LINE
  8
0
 62
     0
 10
41.4694
 20
68.9116
 30
0.0
 11
40.67
 21
68.9116
 31
0.0
  0
LINE
  8
0
 62
     0
 10
40.67
 20
68.9116
 30
0.0
 11
40.67
 21
74.7116
 31
0.0
  0
LINE
  8
0
 62
     0
 10
40.67
 20
74.7116
 30
0.0
 11
41.4694
 21
74.7116
 31
0.0
  0
LINE
  8
0
 62
     0
 10
41.4694
 20
74.7116
 30
0.0
 11
41.4694
 21
77.8108
 31
0.0
  0
LINE
  8
0
 62
     0
 10
41.4694
 20
77.8108
 30
0.0
 11
40.67
 21
77.8108
 31
0.0
  0
LINE
  8
0
 62
     0
 10
40.67
 20
77.8108
 30
0.0
 11
40.67
 21
78.8113
 31
0.0
  0
LINE
  8
0
 62
     0
 10
40.67
 20
78.8113
 30
0.0
 11
26.6692
 21
78.8113
 31
0.0
  0
LINE
  8
0
 62
     0
 10
45.7193
 20
78.8113
 30
0.0
 11
45.7193
 21
77.8108
 31
0.0
  0
LINE
  8
0
 62
     0
 10
45.7193
 20
77.8108
 30
0.0
 11
44.9199
 21
77.8108
 31
0.0
  0
LINE
  8
0
 62
     0
 10
44.9199
 20
77.8108
 30
0.0
 11
44.9199
 21
74.7116
 31
0.0
  0
LINE
  8
0
 62
     0
 10
44.9199
 20
74.7116
 30
0.0
 11
45.7193
 21
74.7116
 31
0.0
  0
LINE
  8
0
 62
     0
 10
45.7193
 20
74.7116
 30
0.0
 11
45.7193
 21
68.9116
 31
0.0
  0
LINE
  8
0
 62
     0
 10
45.7193
 20
68.9116
 30
0.0
 11
44.9199
 21
68.9116
 31
0.0
  0
LINE
  8
0
 62
     0
 10
44.9199
 20
68.9116
 30
0.0
 11
44.9199
 21
65.811
 31
0.0
  0
LINE
  8
0
 62
     0
 10
44.9199
 20
65.811
 30
0.0
 11
45.7193
 21
65.811
 31
0.0
  0
LINE
  8
0
 62
     0
 10
45.7193
 20
65.811
 30
0.0
 11
45.7193
 21
64.8106
 31
0.0
  0
LINE
  8
0
 62
     0
 10
45.7193
 20
64.8106
 30
0.0
 11
59.72
 21
64.8106
 31
0.0
  0
LINE
  8
0
 62
     0
 10
59.72
 20
64.8106
 30
0.0
 11
59.72
 21
65.811
 31
0.0
  0
LINE
  8
0
 62
     0
 10
59.72
 20
65.811
 30
0.0
 11
60.5194
 21
65.811
 31
0.0
  0
LINE
  8
0
 62
     0
 10
60.5194
 20
65.811
 30
0.0
 11
60.5194
 21
68.9116
 31
0.0
  0
LINE
  8
0
 62
     0
 10
60.5194
 20
68.9116
 30
0.0
 11
59.72
 21
68.9116
 31
0.0
  0
LINE
  8
0
 62
     0
 10
59.72
 20
68.9116
 30
0.0
 11
59.72
 21
74.7116
 31
0.0
  0
LINE
  8
0
 62
     0
 10
59.72
 20
74.7116
 30
0.0
 11
60.5194
 21
74.7116
 31
0.0
  0
LINE
  8
0
 62
     0
 10
60.5194
 20
74.7116
 30
0.0
 11
60.5194
 21
77.8108
 31
0.0
  0
LINE
  8
0
 62
     0
 10
60.5194
 20
77.8108
 30
0.0
 11
59.72
 21
77.8108
 31
0.0
  0
LINE
  8
0
 62
     0
 10
59.72
 20
77.8108
 30
0.0
 11
59.72
 21
78.8113
 31
0.0
  0
LINE
  8
0
 62
     0
 10
59.72
 20
78.8113
 30
0.0
 11
45.7193
 21
78.8113
 31
0.0
  0
LINE
  8
0
 62
     0
 10
7.61919
 20
97.8613
 30
0.0
 11
7.61919
 21
96.8622
 31
0.0
  0
LINE
  8
0
 62
     0
 10
7.61919
 20
96.8622
 30
0.0
 11
6.81852
 21
96.8622
 31
0.0
  0
LINE
  8
0
 62
     0
 10
6.81852
 20
96.8622
 30
0.0
 11
6.81852
 21
93.7616
 31
0.0
  0
LINE
  8
0
 62
     0
 10
6.81852
 20
93.7616
 30
0.0
 11
7.61919
 21
93.7616
 31
0.0
  0
LINE
  8
0
 62
     0
 10
7.61919
 20
93.7616
 30
0.0
 11
7.61919
 21
87.9616
 31
0.0
  0
LINE
  8
0
 62
     0
 10
7.61919
 20
87.9616
 30
0.0
 11
6.81852
 21
87.9616
 31
0.0
  0
LINE
  8
0
 62
     0
 10
6.81852
 20
87.9616
 30
0.0
 11
6.81852
 21
84.861
 31
0.0
  0
LINE
  8
0
 62
     0
 10
6.81852
 20
84.861
 30
0.0
 11
7.61919
 21
84.861
 31
0.0
  0
LINE
  8
0
 62
     0
 10
7.61919
 20
84.861
 30
0.0
 11
7.61919
 21
83.8606
 31
0.0
  0
LINE
  8
0
 62
     0
 10
7.61919
 20
83.8606
 30
0.0
 11
21.6201
 21
83.8606
 31
0.0
  0
LINE
  8
0
 62
     0
 10
21.6201
 20
83.8606
 30
0.0
 11
21.6201
 21
84.861
 31
0.0
  0
LINE
  8
0
 62
     0
 10
21.6201
 20
84.861
 30
0.0
 11
22.4193
 21
84.861
 31
0.0
  0
LINE
  8
0
 62
     0
 10
22.4193
 20
84.861
 30
0.0
 11
22.4193
 21
87.9616
 31
0.0
  0
LINE
  8
0
 62
     0
 10
22.4193
 20
87.9616
 30
0.0
 11
21.6201
 21
87.9616
 31
0.0
  0
LINE
  8
0
 62
     0
 10
21.6201
 20
87.9616
 30
0.0
 11
21.6201
 21
93.7616
 31
0.0
  0
LINE
  8
0
 62
     0
 10
21.6201
 20
93.7616
 30
0.0
 11
22.4193
 21
93.7616
 31
0.0
  0
LINE
  8
0
 62
     0
 10
22.4193
 20
93.7616
 30
0.0
 11
22.4193
 21
96.8622
 31
0.0
  0
LINE
  8
0
 62
     0
 10
22.4193
 20
96.8622
 30
0.0
 11
21.6201
 21
96.8622
 31
0.0
  0
LINE
  8
0
 62
     0
 10
21.6201
 20
96.8622
 30
0.0
 11
21.6201
 21
97.8613
 31
0.0
  0
LINE
  8
0
 62
     0
 10
21.6201
 20
97.8613
 30
0.0
 11
7.61919
 21
97.8613
 31
0.0
  0
LINE
  8
0
 62
     0
 10
26.6692
 20
97.8613
 30
0.0
 11
26.6692
 21
96.8622
 31
0.0
  0
LINE
  8
0
 62
     0
 10
26.6692
 20
96.8622
 30
0.0
 11
25.8699
 21
96.8622
 31
0.0
  0
LINE
  8
0
 62
     0
 10
25.8699
 20
96.8622
 30
0.0
 11
25.8699
 21
93.7616
 31
0.0
  0
LINE
  8
0
 62
     0
 10
25.8699
 20
93.7616
 30
0.0
 11
26.6692
 21
93.7616
 31
0.0
  0
LINE
  8
0
 62
     0
 10
26.6692
 20
93.7616
 30
0.0
 11
26.6692
 21
87.9616
 31
0.0
  0
LINE
  8
0
 62
     0
 10
26.6692
 20
87.9616
 30
0.0
 11
25.8699
 21
87.9616
 31
0.0
  0
LINE
  8
0
 62
     0
 10
25.8699
 20
87.9616
 30
0.0
 11
25.8699
 21
84.861
 31
0.0
  0
LINE
  8
0
 62
     0
 10
25.8699
 20
84.861
 30
0.0
 11
26.6692
 21
84.861
 31
0.0
  0
LINE
  8
0
 62
     0
 10
26.6692
 20
84.861
 30
0.0
 11
26.6692
 21
83.8606
 31
0.0
  0
LINE
  8
0
 62
     0
 10
26.6692
 20
83.8606
 30
0.0
 11
40.67
 21
83.8606
 31
0.0
  0
LINE
  8
0
 62
     0
 10
40.67
 20
83.8606
 30
0.0
 11
40.67
 21
84.861
 31
0.0
  0
LINE
  8
0
 62
     0
 10
40.67
 20
84.861
 30
0.0
 11
41.4694
 21
84.861
 31
0.0
  0
LINE
  8
0
 62
     0
 10
41.4694
 20
84.861
 30
0.0
 11
41.4694
 21
87.9616
 31
0.0
  0
LINE
  8
0
 62
     0
 10
41.4694
 20
87.9616
 30
0.0
 11
40.67
 21
87.9616
 31
0.0
  0
LINE
  8
0
 62
     0
 10
40.67
 20
87.9616
 30
0.0
 11
40.67
 21
93.7616
 31
0.0
  0
LINE
  8
0
 62
     0
 10
40.67
 20
93.7616
 30
0.0
 11
41.4694
 21
93.7616
 31
0.0
  0
LINE
  8
0
 62
     0
 10
41.4694
 20
93.7616
 30
0.0
 11
41.4694
 21
96.8622
 31
0.0
  0
LINE
  8
0
 62
     0
 10
41.4694
 20
96.8622
 30
0.0
 11
40.67
 21
96.8622
 31
0.0
  0
LINE
  8
0
 62
     0
 10
40.67
 20
96.8622
 30
0.0
 11
40.67
 21
97.8613
 31
0.0
  0
LINE
  8
0
 62
     0
 10
40.67
 20
97.8613
 30
0.0
 11
26.6692
 21
97.8613
 31
0.0
  0
LINE
  8
0
 62
     0
 10
45.7193
 20
97.8613
 30
0.0
 11
45.7193
 21
96.8622
 31
0.0
  0
LINE
  8
0
 62
     0
 10
45.7193
 20
96.8622
 30
0.0
 11
44.9199
 21
96.8622
 31
0.0
  0
LINE
  8
0
 62
     0
 10
44.9199
 20
96.8622
 30
0.0
 11
44.9199
 21
93.7616
 31
0.0
  0
LINE
  8
0
 62
     0
 10
44.9199
 20
93.7616
 30
0.0
 11
45.7193
 21
93.7616
 31
0.0
  0
LINE
  8
0
 62
     0
 10
45.7193
 20
93.7616
 30
0.0
 11
45.7193
 21
87.9616
 31
0.0
  0
LINE
  8
0
 62
     0
 10
45.7193
 20
87.9616
 30
0.0
 11
44.9199
 21
87.9616
 31
0.0
  0
LINE
  8
0
 62
     0
 10
44.9199
 20
87.9616
 30
0.0
 11
44.9199
 21
84.861
 31
0.0
  0
LINE
  8
0
 62
     0
 10
44.9199
 20
84.861
 30
0.0
 11
45.7193
 21
84.861
 31
0.0
  0
LINE
  8
0
 62
     0
 10
45.7193
 20
84.861
 30
0.0
 11
45.7193
 21
83.8606
 31
0.0
  0
LINE
  8
0
 62
     0
 10
45.7193
 20
83.8606
 30
0.0
 11
59.72
 21
83.8606
 31
0.0
  0
LINE
  8
0
 62
     0
 10
59.72
 20
83.8606
 30
0.0
 11
59.72
 21
84.861
 31
0.0
  0
LINE
  8
0
 62
     0
 10
59.72
 20
84.861
 30
0.0
 11
60.5194
 21
84.861
 31
0.0
  0
LINE
  8
0
 62
     0
 10
60.5194
 20
84.861
 30
0.0
 11
60.5194
 21
87.9616
 31
0.0
  0
LINE
  8
0
 62
     0
 10
60.5194
 20
87.9616
 30
0.0
 11
59.72
 21
87.9616
 31
0.0
  0
LINE
  8
0
 62
     0
 10
59.72
 20
87.9616
 30
0.0
 11
59.72
 21
93.7616
 31
0.0
  0
LINE
  8
0
 62
     0
 10
59.72
 20
93.7616
 30
0.0
 11
60.5194
 21
93.7616
 31
0.0
  0
LINE
  8
0
 62
     0
 10
60.5194
 20
93.7616
 30
0.0
 11
60.5194
 21
96.8622
 31
0.0
  0
LINE
  8
0
 62
     0
 10
60.5194
 20
96.8622
 30
0.0
 11
59.72
 21
96.8622
 31
0.0
  0
LINE
  8
0
 62
     0
 10
59.72
 20
96.8622
 30
0.0
 11
59.72
 21
97.8613
 31
0.0
  0
LINE
  8
0
 62
     0
 10
59.72
 20
97.8613
 30
0.0
 11
45.7193
 21
97.8613
 31
0.0
  0
LINE
  8
0
 62
     0
 10
64.7693
 20
97.8613
 30
0.0
 11
64.7693
 21
96.8622
 31
0.0
  0
LINE
  8
0
 62
     0
 10
64.7693
 20
96.8622
 30
0.0
 11
63.9699
 21
96.8622
 31
0.0
  0
LINE
  8
0
 62
     0
 10
63.9699
 20
96.8622
 30
0.0
 11
63.9699
 21
93.7616
 31
0.0
  0
LINE
  8
0
 62
     0
 10
63.9699
 20
93.7616
 30
0.0
 11
64.7693
 21
93.7616
 31
0.0
  0
LINE
  8
0
 62
     0
 10
64.7693
 20
93.7616
 30
0.0
 11
64.7693
 21
87.9616
 31
0.0
  0
LINE
  8
0
 62
     0
 10
64.7693
 20
87.9616
 30
0.0
 11
63.9699
 21
87.9616
 31
0.0
  0
LINE
  8
0
 62
     0
 10
63.9699
 20
87.9616
 30
0.0
 11
63.9699
 21
84.861
 31
0.0
  0
LINE
  8
0
 62
     0
 10
63.9699
 20
84.861
 30
0.0
 11
64.7693
 21
84.861
 31
0.0
  0
LINE
  8
0
 62
     0
 10
64.7693
 20
84.861
 30
0.0
 11
64.7693
 21
83.8606
 31
0.0
  0
LINE
  8
0
 62
     0
 10
64.7693
 20
83.8606
 30
0.0
 11
78.77
 21
83.8606
 31
0.0
  0
LINE
  8
0
 62
     0
 10
78.77
 20
83.8606
 30
0.0
 11
78.77
 21
84.861
 31
0.0
  0
LINE
  8
0
 62
     0
 10
78.77
 20
84.861
 30
0.0
 11
79.5694
 21
84.861
 31
0.0
  0
LINE
  8
0
 62
     0
 10
79.5694
 20
84.861
 30
0.0
 11
79.5694
 21
87.9616
 31
0.0
  0
LINE
  8
0
 62
     0
 10
79.5694
 20
87.9616
 30
0.0
 11
78.77
 21
87.9616
 31
0.0
  0
LINE
  8
0
 62
     0
 10
78.77
 20
87.9616
 30
0.0
 11
78.77
 21
93.7616
 31
0.0
  0
LINE
  8
0
 62
     0
 10
78.77
 20
93.7616
 30
0.0
 11
79.5694
 21
93.7616
 31
0.0
  0
LINE
  8
0
 62
     0
 10
79.5694
 20
93.7616
 30
0.0
 11
79.5694
 21
96.8622
 31
0.0
  0
LINE
  8
0
 62
     0
 10
79.5694
 20
96.8622
 30
0.0
 11
78.77
 21
96.8622
 31
0.0
  0
LINE
  8
0
 62
     0
 10
78.77
 20
96.8622
 30
0.0
 11
78.77
 21
97.8613
 31
0.0
  0
LINE
  8
0
 62
     0
 10
78.77
 20
97.8613
 30
0.0
 11
64.7693
 21
97.8613
 31
0.0
  0
LINE
  8
0
 62
     0
 10
83.4856
 20
103.838
 30
0.0
 11
83.2072
 21
103.696
 31
0.0
  0
LINE
  8
0
 62
     0
 10
83.2072
 20
103.696
 30
0.0
 11
82.9853
 21
103.474
 31
0.0
  0
LINE
  8
0
 62
     0
 10
82.9853
 20
103.474
 30
0.0
 11
82.8435
 21
103.196
 31
0.0
  0
LINE
  8
0
 62
     0
 10
82.8435
 20
103.196
 30
0.0
 11
82.7952
 21
102.887
 31
0.0
  0
LINE
  8
0
 62
     0
 10
82.7952
 20
102.887
 30
0.0
 11
82.8435
 21
102.577
 31
0.0
  0
LINE
  8
0
 62
     0
 10
82.8435
 20
102.577
 30
0.0
 11
82.9853
 21
102.299
 31
0.0
  0
LINE
  8
0
 62
     0
 10
82.9853
 20
102.299
 30
0.0
 11
83.2072
 21
102.077
 31
0.0
  0
LINE
  8
0
 62
     0
 10
83.2072
 20
102.077
 30
0.0
 11
83.4856
 21
101.935
 31
0.0
  0
LINE
  8
0
 62
     0
 10
83.4856
 20
101.935
 30
0.0
 11
83.7957
 21
101.887
 31
0.0
  0
LINE
  8
0
 62
     0
 10
83.7957
 20
101.887
 30
0.0
 11
84.1043
 21
101.935
 31
0.0
  0
LINE
  8
0
 62
     0
 10
84.1043
 20
101.935
 30
0.0
 11
84.3827
 21
102.077
 31
0.0
  0
LINE
  8
0
 62
     0
 10
84.3827
 20
102.077
 30
0.0
 11
84.6046
 21
102.299
 31
0.0
  0
LINE
  8
0
 62
     0
 10
84.6046
 20
102.299
 30
0.0
 11
84.7467
 21
102.577
 31
0.0
  0
LINE
  8
0
 62
     0
 10
84.7467
 20
102.577
 30
0.0
 11
84.7947
 21
102.886
 31
0.0
  0
LINE
  8
0
 62
     0
 10
84.7947
 20
102.886
 30
0.0
 11
84.7467
 21
103.196
 31
0.0
  0
LINE
  8
0
 62
     0
 10
84.7467
 20
103.196
 30
0.0
 11
84.6046
 21
103.474
 31
0.0
  0
LINE
  8
0
 62
     0
 10
84.6046
 20
103.474
 30
0.0
 11
84.3827
 21
103.696
 31
0.0
  0
LINE
  8
0
 62
     0
 10
84.3827
 20
103.696
 30
0.0
 11
84.1043
 21
103.838
 31
0.0
  0
LINE
  8
0
 62
     0
 10
84.1043
 20
103.838
 30
0.0
 11
83.7957
 21
103.886
 31
0.0
  0
LINE
  8
0
 62
     0
 10
83.7957
 20
103.886
 30
0.0
 11
83.4856
 21
103.838
 31
0.0
  0
LINE
  8
0
 62
     0
 10
2.28479
 20
103.838
 30
0.0
 11
2.00642
 21
103.696
 31
0.0
  0
LINE
  8
0
 62
     0
 10
2.00642
 20
103.696
 30
0.0
 11
1.78456
 21
103.474
 31
0.0
  0
LINE
  8
0
 62
     0
 10
1.78456
 20
103.474
 30
0.0
 11
1.64262
 21
103.196
 31
0.0
  0
LINE
  8
0
 62
     0
 10
1.64262
 20
103.196
 30
0.0
 11
1.59301
 21
102.887
 31
0.0
  0
LINE
  8
0
 62
     0
 10
1.59301
 20
102.887
 30
0.0
 11
1.64262
 21
102.577
 31
0.0
  0
LINE
  8
0
 62
     0
 10
1.64262
 20
102.577
 30
0.0
 11
1.78456
 21
102.299
 31
0.0
  0
LINE
  8
0
 62
     0
 10
1.78456
 20
102.299
 30
0.0
 11
2.00642
 21
102.077
 31
0.0
  0
LINE
  8
0
 62
     0
 10
2.00642
 20
102.077
 30
0.0
 11
2.28479
 21
101.935
 31
0.0
  0
LINE
  8
0
 62
     0
 10
2.28479
 20
101.935
 30
0.0
 11
2.59347
 21
101.887
 31
0.0
  0
LINE
  8
0
 62
     0
 10
2.59347
 20
101.887
 30
0.0
 11
2.90353
 21
101.935
 31
0.0
  0
LINE
  8
0
 62
     0
 10
2.90353
 20
101.935
 30
0.0
 11
3.18189
 21
102.077
 31
0.0
  0
LINE
  8
0
 62
     0
 10
3.18189
 20
102.077
 30
0.0
 11
3.40376
 21
102.299
 31
0.0
  0
LINE
  8
0
 62
     0
 10
3.40376
 20
102.299
 30
0.0
 11
3.5457
 21
102.577
 31
0.0
  0
LINE
  8
0
 62
     0
 10
3.5457
 20
102.577
 30
0.0
 11
3.59392
 21
102.886
 31
0.0
  0
LINE
  8
0
 62
     0
 10
3.59392
 20
102.886
 30
0.0
 11
3.5457
 21
103.196
 31
0.0
  0
LINE
  8
0
 62
     0
 10
3.5457
 20
103.196
 30
0.0
 11
3.40376
 21
103.474
 31
0.0
  0
LINE
  8
0
 62
     0
 10
3.40376
 20
103.474
 30
0.0
 11
3.18189
 21
103.696
 31
0.0
  0
LINE
  8
0
 62
     0
 10
3.18189
 20
103.696
 30
0.0
 11
2.90353
 21
103.838
 31
0.0
  0
LINE
  8
0
 62
     0
 10
2.90353
 20
103.838
 30
0.0
 11
2.59485
 21
103.886
 31
0.0
  0
LINE
  8
0
 62
     0
 10
2.59485
 20
103.886
 30
0.0
 11
2.28479
 21
103.838
 31
0.0
  0
ENDSEC
  0
EOF
