G04 #@! TF.GenerationSoftware,KiCad,Pcbnew,7.0.1*
G04 #@! TF.CreationDate,2023-10-11T20:02:21-04:00*
G04 #@! TF.ProjectId,keyboard,6b657962-6f61-4726-942e-6b696361645f,rev?*
G04 #@! TF.SameCoordinates,Original*
G04 #@! TF.FileFunction,Copper,L1,Top*
G04 #@! TF.FilePolarity,Positive*
%FSLAX46Y46*%
G04 Gerber Fmt 4.6, Leading zero omitted, Abs format (unit mm)*
G04 Created by KiCad (PCBNEW 7.0.1) date 2023-10-11 20:02:21*
%MOMM*%
%LPD*%
G01*
G04 APERTURE LIST*
G04 Aperture macros list*
%AMHorizOval*
0 Thick line with rounded ends*
0 $1 width*
0 $2 $3 position (X,Y) of the first rounded end (center of the circle)*
0 $4 $5 position (X,Y) of the second rounded end (center of the circle)*
0 Add line between two ends*
20,1,$1,$2,$3,$4,$5,0*
0 Add two circle primitives to create the rounded ends*
1,1,$1,$2,$3*
1,1,$1,$4,$5*%
G04 Aperture macros list end*
G04 #@! TA.AperFunction,ComponentPad*
%ADD10R,1.800000X1.800000*%
G04 #@! TD*
G04 #@! TA.AperFunction,ComponentPad*
%ADD11O,1.800000X1.800000*%
G04 #@! TD*
G04 #@! TA.AperFunction,ComponentPad*
%ADD12HorizOval,2.250000X-0.730000X0.655001X0.730000X-0.655001X0*%
G04 #@! TD*
G04 #@! TA.AperFunction,ComponentPad*
%ADD13C,2.250000*%
G04 #@! TD*
G04 #@! TA.AperFunction,ComponentPad*
%ADD14HorizOval,2.250000X-0.290000X0.020000X0.290000X-0.020000X0*%
G04 #@! TD*
G04 #@! TA.AperFunction,ComponentPad*
%ADD15HorizOval,2.250000X0.655001X0.730000X-0.655001X-0.730000X0*%
G04 #@! TD*
G04 #@! TA.AperFunction,ComponentPad*
%ADD16HorizOval,2.250000X0.020000X0.290000X-0.020000X-0.290000X0*%
G04 #@! TD*
G04 #@! TA.AperFunction,ComponentPad*
%ADD17R,1.700000X1.700000*%
G04 #@! TD*
G04 #@! TA.AperFunction,ComponentPad*
%ADD18O,1.700000X1.700000*%
G04 #@! TD*
G04 #@! TA.AperFunction,Conductor*
%ADD19C,0.250000*%
G04 #@! TD*
G04 APERTURE END LIST*
D10*
X318050000Y-223110000D03*
D11*
X318050000Y-218030000D03*
D10*
X299000000Y-223110000D03*
D11*
X299000000Y-218030000D03*
D10*
X337440000Y-213230000D03*
D11*
X337440000Y-208150000D03*
D10*
X318050000Y-204060000D03*
D11*
X318050000Y-198980000D03*
D10*
X299000000Y-204060000D03*
D11*
X299000000Y-198980000D03*
D10*
X279950000Y-204060000D03*
D11*
X279950000Y-198980000D03*
D10*
X318050000Y-185010000D03*
D11*
X318050000Y-179930000D03*
D10*
X299000000Y-185010000D03*
D11*
X299000000Y-179930000D03*
D10*
X279950000Y-185010000D03*
D11*
X279950000Y-179930000D03*
D10*
X337440000Y-175730000D03*
D11*
X337440000Y-170650000D03*
D10*
X318050000Y-165960000D03*
D11*
X318050000Y-160880000D03*
D10*
X299000000Y-165960000D03*
D11*
X299000000Y-160880000D03*
D10*
X279950000Y-165960000D03*
D11*
X279950000Y-160880000D03*
D10*
X337100000Y-147005000D03*
D11*
X337100000Y-141925000D03*
D10*
X318050000Y-147000000D03*
D11*
X318050000Y-141920000D03*
D10*
X299000000Y-147000000D03*
D11*
X299000000Y-141920000D03*
D10*
X279950000Y-147000000D03*
D11*
X279950000Y-141920000D03*
D12*
X325415000Y-175892999D03*
D13*
X324685000Y-175238000D03*
D14*
X323895000Y-170218000D03*
D13*
X323605000Y-170198000D03*
D15*
X268355001Y-198060000D03*
D13*
X269010000Y-197330000D03*
D16*
X274030000Y-196540000D03*
D13*
X274050000Y-196250000D03*
D12*
X325415000Y-213992999D03*
D13*
X324685000Y-213338000D03*
D14*
X323895000Y-208318000D03*
D13*
X323605000Y-208298000D03*
D17*
X307250000Y-106000000D03*
D18*
X307250000Y-108540000D03*
X307250000Y-111080000D03*
X307250000Y-113620000D03*
X307250000Y-116160000D03*
X307250000Y-118700000D03*
X307250000Y-121240000D03*
X307250000Y-123780000D03*
X307250000Y-126320000D03*
D15*
X287405001Y-159960000D03*
D13*
X288060000Y-159230000D03*
D16*
X293080000Y-158440000D03*
D13*
X293100000Y-158150000D03*
D15*
X325505001Y-140910000D03*
D13*
X326160000Y-140180000D03*
D16*
X331180000Y-139390000D03*
D13*
X331200000Y-139100000D03*
D15*
X268355001Y-140910000D03*
D13*
X269010000Y-140180000D03*
D16*
X274030000Y-139390000D03*
D13*
X274050000Y-139100000D03*
D15*
X277880001Y-217110000D03*
D13*
X278535000Y-216380000D03*
D16*
X283555000Y-215590000D03*
D13*
X283575000Y-215300000D03*
D15*
X306455001Y-159960000D03*
D13*
X307110000Y-159230000D03*
D16*
X312130000Y-158440000D03*
D13*
X312150000Y-158150000D03*
D15*
X268355001Y-159960000D03*
D13*
X269010000Y-159230000D03*
D16*
X274030000Y-158440000D03*
D13*
X274050000Y-158150000D03*
D15*
X306455001Y-179010000D03*
D13*
X307110000Y-178280000D03*
D16*
X312130000Y-177490000D03*
D13*
X312150000Y-177200000D03*
D15*
X287405001Y-140910000D03*
D13*
X288060000Y-140180000D03*
D16*
X293080000Y-139390000D03*
D13*
X293100000Y-139100000D03*
D15*
X306455001Y-198060000D03*
D13*
X307110000Y-197330000D03*
D16*
X312130000Y-196540000D03*
D13*
X312150000Y-196250000D03*
D15*
X287405001Y-179010000D03*
D13*
X288060000Y-178280000D03*
D16*
X293080000Y-177490000D03*
D13*
X293100000Y-177200000D03*
D15*
X287405001Y-198060000D03*
D13*
X288060000Y-197330000D03*
D16*
X293080000Y-196540000D03*
D13*
X293100000Y-196250000D03*
D17*
X292000000Y-106000000D03*
D18*
X292000000Y-108540000D03*
X292000000Y-111080000D03*
X292000000Y-113620000D03*
X292000000Y-116160000D03*
X292000000Y-118700000D03*
X292000000Y-121240000D03*
X292000000Y-123780000D03*
X292000000Y-126320000D03*
D15*
X268355001Y-179010000D03*
D13*
X269010000Y-178280000D03*
D16*
X274030000Y-177490000D03*
D13*
X274050000Y-177200000D03*
D15*
X306455001Y-140910000D03*
D13*
X307110000Y-140180000D03*
D16*
X312130000Y-139390000D03*
D13*
X312150000Y-139100000D03*
D15*
X306455001Y-217110000D03*
D13*
X307110000Y-216380000D03*
D16*
X312130000Y-215590000D03*
D13*
X312150000Y-215300000D03*
D19*
X264000000Y-164500000D02*
X269010000Y-169510000D01*
X267700000Y-160690000D02*
X264310000Y-160690000D01*
X269010000Y-150510000D02*
X269010000Y-159230000D01*
X324810000Y-136000000D02*
X271000000Y-136000000D01*
X264310000Y-160690000D02*
X264000000Y-161000000D01*
X263500000Y-180000000D02*
X263500000Y-183000000D01*
X307250000Y-126320000D02*
X307430000Y-126500000D01*
X264000000Y-161000000D02*
X264000000Y-164500000D01*
X264500000Y-146000000D02*
X269010000Y-150510000D01*
X269010000Y-137990000D02*
X269010000Y-140180000D01*
X264860000Y-141640000D02*
X264500000Y-142000000D01*
X307250000Y-126320000D02*
X307570000Y-126000000D01*
X307570000Y-126000000D02*
X318590812Y-126000000D01*
X264500000Y-142000000D02*
X264500000Y-146000000D01*
X324810000Y-132219188D02*
X324810000Y-136000000D01*
X263500000Y-183000000D02*
X269010000Y-188510000D01*
X263760000Y-179740000D02*
X263500000Y-180000000D01*
X269010000Y-188510000D02*
X269010000Y-197330000D01*
X269010000Y-169510000D02*
X269010000Y-178280000D01*
X318590812Y-126000000D02*
X324810000Y-132219188D01*
X267700000Y-141640000D02*
X264860000Y-141640000D01*
X271000000Y-136000000D02*
X269010000Y-137990000D01*
X267700000Y-179740000D02*
X263760000Y-179740000D01*
X283000000Y-180000000D02*
X283000000Y-183000000D01*
X283000000Y-211915000D02*
X278535000Y-216380000D01*
X291740000Y-136500000D02*
X288060000Y-140180000D01*
X286750000Y-179740000D02*
X283260000Y-179740000D01*
X307250000Y-123780000D02*
X307470000Y-124000000D01*
X283260000Y-179740000D02*
X283000000Y-180000000D01*
X286750000Y-198790000D02*
X283210000Y-198790000D01*
X283310000Y-160690000D02*
X283000000Y-161000000D01*
X283000000Y-142000000D02*
X283000000Y-145000000D01*
X283210000Y-198790000D02*
X283000000Y-199000000D01*
X316727208Y-123500000D02*
X325260000Y-132032792D01*
X283000000Y-183000000D02*
X288060000Y-188060000D01*
X307250000Y-123780000D02*
X307530000Y-123500000D01*
X283000000Y-145000000D02*
X288060000Y-150060000D01*
X283000000Y-161000000D02*
X283000000Y-164000000D01*
X288060000Y-188060000D02*
X288060000Y-197330000D01*
X307530000Y-123500000D02*
X316727208Y-123500000D01*
X283000000Y-164000000D02*
X288060000Y-169060000D01*
X283360000Y-141640000D02*
X283000000Y-142000000D01*
X325260000Y-132032792D02*
X325260000Y-136500000D01*
X286750000Y-141640000D02*
X283360000Y-141640000D01*
X286750000Y-160690000D02*
X283310000Y-160690000D01*
X288060000Y-169060000D02*
X288060000Y-178280000D01*
X325260000Y-136500000D02*
X291740000Y-136500000D01*
X283000000Y-199000000D02*
X283000000Y-211915000D01*
X288060000Y-150060000D02*
X288060000Y-159230000D01*
X305800000Y-141640000D02*
X302360000Y-141640000D01*
X325710000Y-137000000D02*
X310290000Y-137000000D01*
X302000000Y-161000000D02*
X302000000Y-164000000D01*
X302000000Y-164000000D02*
X307110000Y-169110000D01*
X307110000Y-150110000D02*
X307110000Y-159230000D01*
X302000000Y-199000000D02*
X302000000Y-202000000D01*
X314863604Y-121000000D02*
X325710000Y-131846396D01*
X305800000Y-198790000D02*
X302210000Y-198790000D01*
X307250000Y-121240000D02*
X307510000Y-121500000D01*
X302000000Y-145000000D02*
X307110000Y-150110000D01*
X302000000Y-183000000D02*
X307110000Y-188110000D01*
X307000000Y-208000000D02*
X307110000Y-208110000D01*
X302000000Y-142000000D02*
X302000000Y-145000000D01*
X302210000Y-198790000D02*
X302000000Y-199000000D01*
X302260000Y-179740000D02*
X302000000Y-180000000D01*
X307110000Y-208110000D02*
X307110000Y-216380000D01*
X310290000Y-137000000D02*
X307110000Y-140180000D01*
X307110000Y-188110000D02*
X307110000Y-197330000D01*
X325710000Y-131846396D02*
X325710000Y-137000000D01*
X302000000Y-180000000D02*
X302000000Y-183000000D01*
X307000000Y-207000000D02*
X307000000Y-208000000D01*
X307250000Y-121240000D02*
X307490000Y-121000000D01*
X307490000Y-121000000D02*
X314863604Y-121000000D01*
X302310000Y-160690000D02*
X302000000Y-161000000D01*
X307110000Y-169110000D02*
X307110000Y-178280000D01*
X302000000Y-202000000D02*
X307000000Y-207000000D01*
X305800000Y-179740000D02*
X302260000Y-179740000D01*
X305800000Y-160690000D02*
X302310000Y-160690000D01*
X302360000Y-141640000D02*
X302000000Y-142000000D01*
X321000000Y-207000000D02*
X321000000Y-209695000D01*
X325500000Y-142290000D02*
X325500000Y-164500000D01*
X321000000Y-171595000D02*
X324787000Y-175382000D01*
X307250000Y-118700000D02*
X307550000Y-119000000D01*
X326160000Y-131660000D02*
X326160000Y-140180000D01*
X326247000Y-201753000D02*
X321000000Y-207000000D01*
X313000000Y-118500000D02*
X326160000Y-131660000D01*
X324850000Y-141640000D02*
X325500000Y-142290000D01*
X307250000Y-118700000D02*
X307450000Y-118500000D01*
X307450000Y-118500000D02*
X313000000Y-118500000D01*
X326247000Y-176692000D02*
X326247000Y-201753000D01*
X321000000Y-209695000D02*
X324787000Y-213482000D01*
X325500000Y-164500000D02*
X321000000Y-169000000D01*
X321000000Y-169000000D02*
X321000000Y-171595000D01*
M02*
