%TF.GenerationSoftware,KiCad,Pcbnew,7.0.1*%
%TF.CreationDate,2023-10-11T20:02:25-04:00*%
%TF.ProjectId,keyboard,6b657962-6f61-4726-942e-6b696361645f,rev?*%
%TF.SameCoordinates,Original*%
%TF.FileFunction,NonPlated,1,2,NPTH,Drill*%
%TF.FilePolarity,Positive*%
%FSLAX46Y46*%
G04 Gerber Fmt 4.6, Leading zero omitted, Abs format (unit mm)*
G04 Created by KiCad (PCBNEW 7.0.1) date 2023-10-11 20:02:25*
%MOMM*%
%LPD*%
G01*
G04 APERTURE LIST*
%TA.AperFunction,ComponentDrill*%
%ADD10C,1.750000*%
%TD*%
%TA.AperFunction,ComponentDrill*%
%ADD11C,2.200000*%
%TD*%
%TA.AperFunction,ComponentDrill*%
%ADD12C,3.048000*%
%TD*%
%TA.AperFunction,ComponentDrill*%
%ADD13C,3.987800*%
%TD*%
G04 APERTURE END LIST*
D10*
%TO.C,K_0*%
X266430000Y-144180000D03*
%TO.C,K_4*%
X266430000Y-163230000D03*
%TO.C,K_8*%
X266430000Y-182280000D03*
%TO.C,K_11*%
X266430000Y-201330000D03*
%TO.C,K_15*%
X275955000Y-220380000D03*
%TO.C,K_0*%
X276590000Y-144180000D03*
%TO.C,K_4*%
X276590000Y-163230000D03*
%TO.C,K_8*%
X276590000Y-182280000D03*
%TO.C,K_11*%
X276590000Y-201330000D03*
%TO.C,K_1*%
X285480000Y-144180000D03*
%TO.C,K_5*%
X285480000Y-163230000D03*
%TO.C,K_9*%
X285480000Y-182280000D03*
%TO.C,K_12*%
X285480000Y-201330000D03*
%TO.C,K_15*%
X286115000Y-220380000D03*
%TO.C,K_1*%
X295640000Y-144180000D03*
%TO.C,K_5*%
X295640000Y-163230000D03*
%TO.C,K_9*%
X295640000Y-182280000D03*
%TO.C,K_12*%
X295640000Y-201330000D03*
%TO.C,K_2*%
X304530000Y-144180000D03*
%TO.C,K_6*%
X304530000Y-163230000D03*
%TO.C,K_10*%
X304530000Y-182280000D03*
%TO.C,K_13*%
X304530000Y-201330000D03*
%TO.C,K_16*%
X304530000Y-220380000D03*
%TO.C,K_2*%
X314690000Y-144180000D03*
%TO.C,K_6*%
X314690000Y-163230000D03*
%TO.C,K_10*%
X314690000Y-182280000D03*
%TO.C,K_13*%
X314690000Y-201330000D03*
%TO.C,K_16*%
X314690000Y-220380000D03*
%TO.C,K_3*%
X323580000Y-144180000D03*
%TO.C,K_7*%
X328685000Y-167658000D03*
X328685000Y-177818000D03*
%TO.C,K_14*%
X328685000Y-205758000D03*
X328685000Y-215918000D03*
%TO.C,K_3*%
X333740000Y-144180000D03*
D11*
%TO.C,REF\u002A\u002A*%
X263000000Y-228900000D03*
X263100000Y-105000000D03*
X263100000Y-129100000D03*
X300100000Y-172800000D03*
X337200000Y-228900000D03*
X337300000Y-105000000D03*
X337300000Y-129100000D03*
D12*
%TO.C,K_15*%
X269097000Y-213395000D03*
X292973000Y-213395000D03*
%TO.C,K_7*%
X321700000Y-160800000D03*
X321700000Y-184676000D03*
%TO.C,K_14*%
X321700000Y-198900000D03*
X321700000Y-222776000D03*
D13*
%TO.C,K_15*%
X269097000Y-228635000D03*
%TO.C,K_0*%
X271510000Y-144180000D03*
%TO.C,K_4*%
X271510000Y-163230000D03*
%TO.C,K_8*%
X271510000Y-182280000D03*
%TO.C,K_11*%
X271510000Y-201330000D03*
%TO.C,K_15*%
X281035000Y-220380000D03*
%TO.C,K_1*%
X290560000Y-144180000D03*
%TO.C,K_5*%
X290560000Y-163230000D03*
%TO.C,K_9*%
X290560000Y-182280000D03*
%TO.C,K_12*%
X290560000Y-201330000D03*
%TO.C,K_15*%
X292973000Y-228635000D03*
%TO.C,K_2*%
X309610000Y-144180000D03*
%TO.C,K_6*%
X309610000Y-163230000D03*
%TO.C,K_10*%
X309610000Y-182280000D03*
%TO.C,K_13*%
X309610000Y-201330000D03*
%TO.C,K_16*%
X309610000Y-220380000D03*
%TO.C,K_3*%
X328660000Y-144180000D03*
%TO.C,K_7*%
X328685000Y-172738000D03*
%TO.C,K_14*%
X328685000Y-210838000D03*
%TO.C,K_7*%
X336940000Y-160800000D03*
X336940000Y-184676000D03*
%TO.C,K_14*%
X336940000Y-198900000D03*
X336940000Y-222776000D03*
M02*
