G04 #@! TF.GenerationSoftware,KiCad,Pcbnew,7.0.1*
G04 #@! TF.CreationDate,2023-10-11T20:02:21-04:00*
G04 #@! TF.ProjectId,keyboard,6b657962-6f61-4726-942e-6b696361645f,rev?*
G04 #@! TF.SameCoordinates,Original*
G04 #@! TF.FileFunction,Legend,Top*
G04 #@! TF.FilePolarity,Positive*
%FSLAX46Y46*%
G04 Gerber Fmt 4.6, Leading zero omitted, Abs format (unit mm)*
G04 Created by KiCad (PCBNEW 7.0.1) date 2023-10-11 20:02:21*
%MOMM*%
%LPD*%
G01*
G04 APERTURE LIST*
%ADD10C,0.150000*%
%ADD11C,0.120000*%
G04 APERTURE END LIST*
D10*
X306916666Y-102692619D02*
X306916666Y-103406904D01*
X306916666Y-103406904D02*
X306869047Y-103549761D01*
X306869047Y-103549761D02*
X306773809Y-103645000D01*
X306773809Y-103645000D02*
X306630952Y-103692619D01*
X306630952Y-103692619D02*
X306535714Y-103692619D01*
X307821428Y-103025952D02*
X307821428Y-103692619D01*
X307583333Y-102645000D02*
X307345238Y-103359285D01*
X307345238Y-103359285D02*
X307964285Y-103359285D01*
X291666666Y-102692619D02*
X291666666Y-103406904D01*
X291666666Y-103406904D02*
X291619047Y-103549761D01*
X291619047Y-103549761D02*
X291523809Y-103645000D01*
X291523809Y-103645000D02*
X291380952Y-103692619D01*
X291380952Y-103692619D02*
X291285714Y-103692619D01*
X292047619Y-102692619D02*
X292666666Y-102692619D01*
X292666666Y-102692619D02*
X292333333Y-103073571D01*
X292333333Y-103073571D02*
X292476190Y-103073571D01*
X292476190Y-103073571D02*
X292571428Y-103121190D01*
X292571428Y-103121190D02*
X292619047Y-103168809D01*
X292619047Y-103168809D02*
X292666666Y-103264047D01*
X292666666Y-103264047D02*
X292666666Y-103502142D01*
X292666666Y-103502142D02*
X292619047Y-103597380D01*
X292619047Y-103597380D02*
X292571428Y-103645000D01*
X292571428Y-103645000D02*
X292476190Y-103692619D01*
X292476190Y-103692619D02*
X292190476Y-103692619D01*
X292190476Y-103692619D02*
X292095238Y-103645000D01*
X292095238Y-103645000D02*
X292047619Y-103597380D01*
D11*
X305920000Y-107270000D02*
X305920000Y-127650000D01*
X305920000Y-107270000D02*
X308580000Y-107270000D01*
X305920000Y-127650000D02*
X308580000Y-127650000D01*
X307250000Y-104670000D02*
X308580000Y-104670000D01*
X308580000Y-104670000D02*
X308580000Y-106000000D01*
X308580000Y-107270000D02*
X308580000Y-127650000D01*
X290670000Y-107270000D02*
X290670000Y-127650000D01*
X290670000Y-107270000D02*
X293330000Y-107270000D01*
X290670000Y-127650000D02*
X293330000Y-127650000D01*
X292000000Y-104670000D02*
X293330000Y-104670000D01*
X293330000Y-104670000D02*
X293330000Y-106000000D01*
X293330000Y-107270000D02*
X293330000Y-127650000D01*
M02*
