%TF.GenerationSoftware,KiCad,Pcbnew,7.0.1*%
%TF.CreationDate,2023-10-11T20:02:27-04:00*%
%TF.ProjectId,keyboard,6b657962-6f61-4726-942e-6b696361645f,rev?*%
%TF.SameCoordinates,Original*%
%TF.FileFunction,Drillmap*%
%TF.FilePolarity,Positive*%
%FSLAX45Y45*%
G04 Gerber Fmt 4.5, Leading zero omitted, Abs format (unit mm)*
G04 Created by KiCad (PCBNEW 7.0.1) date 2023-10-11 20:02:27*
%MOMM*%
%LPD*%
G01*
G04 APERTURE LIST*
%ADD10C,0.200000*%
%ADD11C,0.175000*%
%ADD12C,0.220000*%
%ADD13C,0.304800*%
%ADD14C,0.398780*%
G04 APERTURE END LIST*
D10*
X26000000Y-10200000D02*
X34020000Y-10200000D01*
X34020000Y-23200000D02*
X26000000Y-23200000D01*
X34020000Y-10200000D02*
X34020000Y-23200000D01*
X26000000Y-23200000D02*
X26000000Y-10200000D01*
D11*
X26555500Y-14330500D02*
X26730500Y-14505500D01*
X26730500Y-14330500D02*
X26555500Y-14505500D01*
X26555500Y-16235500D02*
X26730500Y-16410500D01*
X26730500Y-16235500D02*
X26555500Y-16410500D01*
X26555500Y-18140500D02*
X26730500Y-18315500D01*
X26730500Y-18140500D02*
X26555500Y-18315500D01*
X26555500Y-20045500D02*
X26730500Y-20220500D01*
X26730500Y-20045500D02*
X26555500Y-20220500D01*
X27508000Y-21950500D02*
X27683000Y-22125500D01*
X27683000Y-21950500D02*
X27508000Y-22125500D01*
X27571500Y-14330500D02*
X27746500Y-14505500D01*
X27746500Y-14330500D02*
X27571500Y-14505500D01*
X27571500Y-16235500D02*
X27746500Y-16410500D01*
X27746500Y-16235500D02*
X27571500Y-16410500D01*
X27571500Y-18140500D02*
X27746500Y-18315500D01*
X27746500Y-18140500D02*
X27571500Y-18315500D01*
X27571500Y-20045500D02*
X27746500Y-20220500D01*
X27746500Y-20045500D02*
X27571500Y-20220500D01*
X28460500Y-14330500D02*
X28635500Y-14505500D01*
X28635500Y-14330500D02*
X28460500Y-14505500D01*
X28460500Y-16235500D02*
X28635500Y-16410500D01*
X28635500Y-16235500D02*
X28460500Y-16410500D01*
X28460500Y-18140500D02*
X28635500Y-18315500D01*
X28635500Y-18140500D02*
X28460500Y-18315500D01*
X28460500Y-20045500D02*
X28635500Y-20220500D01*
X28635500Y-20045500D02*
X28460500Y-20220500D01*
X28524000Y-21950500D02*
X28699000Y-22125500D01*
X28699000Y-21950500D02*
X28524000Y-22125500D01*
X29476500Y-14330500D02*
X29651500Y-14505500D01*
X29651500Y-14330500D02*
X29476500Y-14505500D01*
X29476500Y-16235500D02*
X29651500Y-16410500D01*
X29651500Y-16235500D02*
X29476500Y-16410500D01*
X29476500Y-18140500D02*
X29651500Y-18315500D01*
X29651500Y-18140500D02*
X29476500Y-18315500D01*
X29476500Y-20045500D02*
X29651500Y-20220500D01*
X29651500Y-20045500D02*
X29476500Y-20220500D01*
X30365500Y-14330500D02*
X30540500Y-14505500D01*
X30540500Y-14330500D02*
X30365500Y-14505500D01*
X30365500Y-16235500D02*
X30540500Y-16410500D01*
X30540500Y-16235500D02*
X30365500Y-16410500D01*
X30365500Y-18140500D02*
X30540500Y-18315500D01*
X30540500Y-18140500D02*
X30365500Y-18315500D01*
X30365500Y-20045500D02*
X30540500Y-20220500D01*
X30540500Y-20045500D02*
X30365500Y-20220500D01*
X30365500Y-21950500D02*
X30540500Y-22125500D01*
X30540500Y-21950500D02*
X30365500Y-22125500D01*
X31381500Y-14330500D02*
X31556500Y-14505500D01*
X31556500Y-14330500D02*
X31381500Y-14505500D01*
X31381500Y-16235500D02*
X31556500Y-16410500D01*
X31556500Y-16235500D02*
X31381500Y-16410500D01*
X31381500Y-18140500D02*
X31556500Y-18315500D01*
X31556500Y-18140500D02*
X31381500Y-18315500D01*
X31381500Y-20045500D02*
X31556500Y-20220500D01*
X31556500Y-20045500D02*
X31381500Y-20220500D01*
X31381500Y-21950500D02*
X31556500Y-22125500D01*
X31556500Y-21950500D02*
X31381500Y-22125500D01*
X32270500Y-14330500D02*
X32445500Y-14505500D01*
X32445500Y-14330500D02*
X32270500Y-14505500D01*
X32781000Y-16678300D02*
X32956000Y-16853300D01*
X32956000Y-16678300D02*
X32781000Y-16853300D01*
X32781000Y-17694300D02*
X32956000Y-17869300D01*
X32956000Y-17694300D02*
X32781000Y-17869300D01*
X32781000Y-20488300D02*
X32956000Y-20663300D01*
X32956000Y-20488300D02*
X32781000Y-20663300D01*
X32781000Y-21504300D02*
X32956000Y-21679300D01*
X32956000Y-21504300D02*
X32781000Y-21679300D01*
X33286500Y-14330500D02*
X33461500Y-14505500D01*
X33461500Y-14330500D02*
X33286500Y-14505500D01*
D12*
X26410000Y-22890000D02*
G75*
G03*
X26410000Y-22890000I-110000J0D01*
G01*
X26420000Y-10500000D02*
G75*
G03*
X26420000Y-10500000I-110000J0D01*
G01*
X26420000Y-12910000D02*
G75*
G03*
X26420000Y-12910000I-110000J0D01*
G01*
X30120000Y-17280000D02*
G75*
G03*
X30120000Y-17280000I-110000J0D01*
G01*
X33830000Y-22890000D02*
G75*
G03*
X33830000Y-22890000I-110000J0D01*
G01*
X33840000Y-10500000D02*
G75*
G03*
X33840000Y-10500000I-110000J0D01*
G01*
X33840000Y-12910000D02*
G75*
G03*
X33840000Y-12910000I-110000J0D01*
G01*
D13*
X26909700Y-21187100D02*
X26909700Y-21491900D01*
X26757300Y-21339500D02*
X27062100Y-21339500D01*
X29297300Y-21187100D02*
X29297300Y-21491900D01*
X29144900Y-21339500D02*
X29449700Y-21339500D01*
X32170000Y-15927600D02*
X32170000Y-16232400D01*
X32017600Y-16080000D02*
X32322400Y-16080000D01*
X32170000Y-18315200D02*
X32170000Y-18620000D01*
X32017600Y-18467600D02*
X32322400Y-18467600D01*
X32170000Y-19737600D02*
X32170000Y-20042400D01*
X32017600Y-19890000D02*
X32322400Y-19890000D01*
X32170000Y-22125200D02*
X32170000Y-22430000D01*
X32017600Y-22277600D02*
X32322400Y-22277600D01*
D14*
X27050691Y-23004491D02*
X27050691Y-22722509D01*
X26768709Y-22722509D01*
X26768709Y-23004491D01*
X27050691Y-23004491D01*
X27291991Y-14558991D02*
X27291991Y-14277009D01*
X27010009Y-14277009D01*
X27010009Y-14558991D01*
X27291991Y-14558991D01*
X27291991Y-16463991D02*
X27291991Y-16182009D01*
X27010009Y-16182009D01*
X27010009Y-16463991D01*
X27291991Y-16463991D01*
X27291991Y-18368991D02*
X27291991Y-18087009D01*
X27010009Y-18087009D01*
X27010009Y-18368991D01*
X27291991Y-18368991D01*
X27291991Y-20273991D02*
X27291991Y-19992009D01*
X27010009Y-19992009D01*
X27010009Y-20273991D01*
X27291991Y-20273991D01*
X28244491Y-22178991D02*
X28244491Y-21897009D01*
X27962509Y-21897009D01*
X27962509Y-22178991D01*
X28244491Y-22178991D01*
X29196991Y-14558991D02*
X29196991Y-14277009D01*
X28915009Y-14277009D01*
X28915009Y-14558991D01*
X29196991Y-14558991D01*
X29196991Y-16463991D02*
X29196991Y-16182009D01*
X28915009Y-16182009D01*
X28915009Y-16463991D01*
X29196991Y-16463991D01*
X29196991Y-18368991D02*
X29196991Y-18087009D01*
X28915009Y-18087009D01*
X28915009Y-18368991D01*
X29196991Y-18368991D01*
X29196991Y-20273991D02*
X29196991Y-19992009D01*
X28915009Y-19992009D01*
X28915009Y-20273991D01*
X29196991Y-20273991D01*
X29438291Y-23004491D02*
X29438291Y-22722509D01*
X29156309Y-22722509D01*
X29156309Y-23004491D01*
X29438291Y-23004491D01*
X31101991Y-14558991D02*
X31101991Y-14277009D01*
X30820009Y-14277009D01*
X30820009Y-14558991D01*
X31101991Y-14558991D01*
X31101991Y-16463991D02*
X31101991Y-16182009D01*
X30820009Y-16182009D01*
X30820009Y-16463991D01*
X31101991Y-16463991D01*
X31101991Y-18368991D02*
X31101991Y-18087009D01*
X30820009Y-18087009D01*
X30820009Y-18368991D01*
X31101991Y-18368991D01*
X31101991Y-20273991D02*
X31101991Y-19992009D01*
X30820009Y-19992009D01*
X30820009Y-20273991D01*
X31101991Y-20273991D01*
X31101991Y-22178991D02*
X31101991Y-21897009D01*
X30820009Y-21897009D01*
X30820009Y-22178991D01*
X31101991Y-22178991D01*
X33006991Y-14558991D02*
X33006991Y-14277009D01*
X32725009Y-14277009D01*
X32725009Y-14558991D01*
X33006991Y-14558991D01*
X33009491Y-17414791D02*
X33009491Y-17132809D01*
X32727509Y-17132809D01*
X32727509Y-17414791D01*
X33009491Y-17414791D01*
X33009491Y-21224791D02*
X33009491Y-20942809D01*
X32727509Y-20942809D01*
X32727509Y-21224791D01*
X33009491Y-21224791D01*
X33834991Y-16220991D02*
X33834991Y-15939009D01*
X33553009Y-15939009D01*
X33553009Y-16220991D01*
X33834991Y-16220991D01*
X33834991Y-18608591D02*
X33834991Y-18326609D01*
X33553009Y-18326609D01*
X33553009Y-18608591D01*
X33834991Y-18608591D01*
X33834991Y-20030991D02*
X33834991Y-19749009D01*
X33553009Y-19749009D01*
X33553009Y-20030991D01*
X33834991Y-20030991D01*
X33834991Y-22418591D02*
X33834991Y-22136609D01*
X33553009Y-22136609D01*
X33553009Y-22418591D01*
X33834991Y-22418591D01*
D10*
X26237619Y-23522524D02*
X26237619Y-23322524D01*
X26237619Y-23322524D02*
X26285238Y-23322524D01*
X26285238Y-23322524D02*
X26313809Y-23332048D01*
X26313809Y-23332048D02*
X26332857Y-23351095D01*
X26332857Y-23351095D02*
X26342381Y-23370143D01*
X26342381Y-23370143D02*
X26351905Y-23408238D01*
X26351905Y-23408238D02*
X26351905Y-23436809D01*
X26351905Y-23436809D02*
X26342381Y-23474905D01*
X26342381Y-23474905D02*
X26332857Y-23493952D01*
X26332857Y-23493952D02*
X26313809Y-23513000D01*
X26313809Y-23513000D02*
X26285238Y-23522524D01*
X26285238Y-23522524D02*
X26237619Y-23522524D01*
X26437619Y-23522524D02*
X26437619Y-23389190D01*
X26437619Y-23427286D02*
X26447143Y-23408238D01*
X26447143Y-23408238D02*
X26456667Y-23398714D01*
X26456667Y-23398714D02*
X26475714Y-23389190D01*
X26475714Y-23389190D02*
X26494762Y-23389190D01*
X26561428Y-23522524D02*
X26561428Y-23389190D01*
X26561428Y-23322524D02*
X26551905Y-23332048D01*
X26551905Y-23332048D02*
X26561428Y-23341571D01*
X26561428Y-23341571D02*
X26570952Y-23332048D01*
X26570952Y-23332048D02*
X26561428Y-23322524D01*
X26561428Y-23322524D02*
X26561428Y-23341571D01*
X26685238Y-23522524D02*
X26666190Y-23513000D01*
X26666190Y-23513000D02*
X26656667Y-23493952D01*
X26656667Y-23493952D02*
X26656667Y-23322524D01*
X26790000Y-23522524D02*
X26770952Y-23513000D01*
X26770952Y-23513000D02*
X26761428Y-23493952D01*
X26761428Y-23493952D02*
X26761428Y-23322524D01*
X27018571Y-23522524D02*
X27018571Y-23322524D01*
X27018571Y-23322524D02*
X27085238Y-23465381D01*
X27085238Y-23465381D02*
X27151905Y-23322524D01*
X27151905Y-23322524D02*
X27151905Y-23522524D01*
X27332857Y-23522524D02*
X27332857Y-23417762D01*
X27332857Y-23417762D02*
X27323333Y-23398714D01*
X27323333Y-23398714D02*
X27304286Y-23389190D01*
X27304286Y-23389190D02*
X27266190Y-23389190D01*
X27266190Y-23389190D02*
X27247143Y-23398714D01*
X27332857Y-23513000D02*
X27313809Y-23522524D01*
X27313809Y-23522524D02*
X27266190Y-23522524D01*
X27266190Y-23522524D02*
X27247143Y-23513000D01*
X27247143Y-23513000D02*
X27237619Y-23493952D01*
X27237619Y-23493952D02*
X27237619Y-23474905D01*
X27237619Y-23474905D02*
X27247143Y-23455857D01*
X27247143Y-23455857D02*
X27266190Y-23446333D01*
X27266190Y-23446333D02*
X27313809Y-23446333D01*
X27313809Y-23446333D02*
X27332857Y-23436809D01*
X27428095Y-23389190D02*
X27428095Y-23589190D01*
X27428095Y-23398714D02*
X27447143Y-23389190D01*
X27447143Y-23389190D02*
X27485238Y-23389190D01*
X27485238Y-23389190D02*
X27504286Y-23398714D01*
X27504286Y-23398714D02*
X27513809Y-23408238D01*
X27513809Y-23408238D02*
X27523333Y-23427286D01*
X27523333Y-23427286D02*
X27523333Y-23484428D01*
X27523333Y-23484428D02*
X27513809Y-23503476D01*
X27513809Y-23503476D02*
X27504286Y-23513000D01*
X27504286Y-23513000D02*
X27485238Y-23522524D01*
X27485238Y-23522524D02*
X27447143Y-23522524D01*
X27447143Y-23522524D02*
X27428095Y-23513000D01*
X27609048Y-23503476D02*
X27618571Y-23513000D01*
X27618571Y-23513000D02*
X27609048Y-23522524D01*
X27609048Y-23522524D02*
X27599524Y-23513000D01*
X27599524Y-23513000D02*
X27609048Y-23503476D01*
X27609048Y-23503476D02*
X27609048Y-23522524D01*
X27609048Y-23398714D02*
X27618571Y-23408238D01*
X27618571Y-23408238D02*
X27609048Y-23417762D01*
X27609048Y-23417762D02*
X27599524Y-23408238D01*
X27599524Y-23408238D02*
X27609048Y-23398714D01*
X27609048Y-23398714D02*
X27609048Y-23417762D01*
D11*
X25815000Y-23762500D02*
X25990000Y-23937500D01*
X25990000Y-23762500D02*
X25815000Y-23937500D01*
D10*
X26342381Y-23942524D02*
X26228095Y-23942524D01*
X26285238Y-23942524D02*
X26285238Y-23742524D01*
X26285238Y-23742524D02*
X26266190Y-23771095D01*
X26266190Y-23771095D02*
X26247143Y-23790143D01*
X26247143Y-23790143D02*
X26228095Y-23799667D01*
X26428095Y-23923476D02*
X26437619Y-23933000D01*
X26437619Y-23933000D02*
X26428095Y-23942524D01*
X26428095Y-23942524D02*
X26418571Y-23933000D01*
X26418571Y-23933000D02*
X26428095Y-23923476D01*
X26428095Y-23923476D02*
X26428095Y-23942524D01*
X26504286Y-23742524D02*
X26637619Y-23742524D01*
X26637619Y-23742524D02*
X26551905Y-23942524D01*
X26809048Y-23742524D02*
X26713809Y-23742524D01*
X26713809Y-23742524D02*
X26704286Y-23837762D01*
X26704286Y-23837762D02*
X26713809Y-23828238D01*
X26713809Y-23828238D02*
X26732857Y-23818714D01*
X26732857Y-23818714D02*
X26780476Y-23818714D01*
X26780476Y-23818714D02*
X26799524Y-23828238D01*
X26799524Y-23828238D02*
X26809048Y-23837762D01*
X26809048Y-23837762D02*
X26818571Y-23856809D01*
X26818571Y-23856809D02*
X26818571Y-23904428D01*
X26818571Y-23904428D02*
X26809048Y-23923476D01*
X26809048Y-23923476D02*
X26799524Y-23933000D01*
X26799524Y-23933000D02*
X26780476Y-23942524D01*
X26780476Y-23942524D02*
X26732857Y-23942524D01*
X26732857Y-23942524D02*
X26713809Y-23933000D01*
X26713809Y-23933000D02*
X26704286Y-23923476D01*
X26942381Y-23742524D02*
X26961429Y-23742524D01*
X26961429Y-23742524D02*
X26980476Y-23752048D01*
X26980476Y-23752048D02*
X26990000Y-23761571D01*
X26990000Y-23761571D02*
X26999524Y-23780619D01*
X26999524Y-23780619D02*
X27009048Y-23818714D01*
X27009048Y-23818714D02*
X27009048Y-23866333D01*
X27009048Y-23866333D02*
X26999524Y-23904428D01*
X26999524Y-23904428D02*
X26990000Y-23923476D01*
X26990000Y-23923476D02*
X26980476Y-23933000D01*
X26980476Y-23933000D02*
X26961429Y-23942524D01*
X26961429Y-23942524D02*
X26942381Y-23942524D01*
X26942381Y-23942524D02*
X26923333Y-23933000D01*
X26923333Y-23933000D02*
X26913809Y-23923476D01*
X26913809Y-23923476D02*
X26904286Y-23904428D01*
X26904286Y-23904428D02*
X26894762Y-23866333D01*
X26894762Y-23866333D02*
X26894762Y-23818714D01*
X26894762Y-23818714D02*
X26904286Y-23780619D01*
X26904286Y-23780619D02*
X26913809Y-23761571D01*
X26913809Y-23761571D02*
X26923333Y-23752048D01*
X26923333Y-23752048D02*
X26942381Y-23742524D01*
X27094762Y-23942524D02*
X27094762Y-23809190D01*
X27094762Y-23828238D02*
X27104286Y-23818714D01*
X27104286Y-23818714D02*
X27123333Y-23809190D01*
X27123333Y-23809190D02*
X27151905Y-23809190D01*
X27151905Y-23809190D02*
X27170952Y-23818714D01*
X27170952Y-23818714D02*
X27180476Y-23837762D01*
X27180476Y-23837762D02*
X27180476Y-23942524D01*
X27180476Y-23837762D02*
X27190000Y-23818714D01*
X27190000Y-23818714D02*
X27209048Y-23809190D01*
X27209048Y-23809190D02*
X27237619Y-23809190D01*
X27237619Y-23809190D02*
X27256667Y-23818714D01*
X27256667Y-23818714D02*
X27266190Y-23837762D01*
X27266190Y-23837762D02*
X27266190Y-23942524D01*
X27361429Y-23942524D02*
X27361429Y-23809190D01*
X27361429Y-23828238D02*
X27370952Y-23818714D01*
X27370952Y-23818714D02*
X27390000Y-23809190D01*
X27390000Y-23809190D02*
X27418571Y-23809190D01*
X27418571Y-23809190D02*
X27437619Y-23818714D01*
X27437619Y-23818714D02*
X27447143Y-23837762D01*
X27447143Y-23837762D02*
X27447143Y-23942524D01*
X27447143Y-23837762D02*
X27456667Y-23818714D01*
X27456667Y-23818714D02*
X27475714Y-23809190D01*
X27475714Y-23809190D02*
X27504286Y-23809190D01*
X27504286Y-23809190D02*
X27523333Y-23818714D01*
X27523333Y-23818714D02*
X27532857Y-23837762D01*
X27532857Y-23837762D02*
X27532857Y-23942524D01*
X27923333Y-23733000D02*
X27751905Y-23990143D01*
X28180476Y-23742524D02*
X28199524Y-23742524D01*
X28199524Y-23742524D02*
X28218572Y-23752048D01*
X28218572Y-23752048D02*
X28228095Y-23761571D01*
X28228095Y-23761571D02*
X28237619Y-23780619D01*
X28237619Y-23780619D02*
X28247143Y-23818714D01*
X28247143Y-23818714D02*
X28247143Y-23866333D01*
X28247143Y-23866333D02*
X28237619Y-23904428D01*
X28237619Y-23904428D02*
X28228095Y-23923476D01*
X28228095Y-23923476D02*
X28218572Y-23933000D01*
X28218572Y-23933000D02*
X28199524Y-23942524D01*
X28199524Y-23942524D02*
X28180476Y-23942524D01*
X28180476Y-23942524D02*
X28161429Y-23933000D01*
X28161429Y-23933000D02*
X28151905Y-23923476D01*
X28151905Y-23923476D02*
X28142381Y-23904428D01*
X28142381Y-23904428D02*
X28132857Y-23866333D01*
X28132857Y-23866333D02*
X28132857Y-23818714D01*
X28132857Y-23818714D02*
X28142381Y-23780619D01*
X28142381Y-23780619D02*
X28151905Y-23761571D01*
X28151905Y-23761571D02*
X28161429Y-23752048D01*
X28161429Y-23752048D02*
X28180476Y-23742524D01*
X28332857Y-23923476D02*
X28342381Y-23933000D01*
X28342381Y-23933000D02*
X28332857Y-23942524D01*
X28332857Y-23942524D02*
X28323333Y-23933000D01*
X28323333Y-23933000D02*
X28332857Y-23923476D01*
X28332857Y-23923476D02*
X28332857Y-23942524D01*
X28466191Y-23742524D02*
X28485238Y-23742524D01*
X28485238Y-23742524D02*
X28504286Y-23752048D01*
X28504286Y-23752048D02*
X28513810Y-23761571D01*
X28513810Y-23761571D02*
X28523333Y-23780619D01*
X28523333Y-23780619D02*
X28532857Y-23818714D01*
X28532857Y-23818714D02*
X28532857Y-23866333D01*
X28532857Y-23866333D02*
X28523333Y-23904428D01*
X28523333Y-23904428D02*
X28513810Y-23923476D01*
X28513810Y-23923476D02*
X28504286Y-23933000D01*
X28504286Y-23933000D02*
X28485238Y-23942524D01*
X28485238Y-23942524D02*
X28466191Y-23942524D01*
X28466191Y-23942524D02*
X28447143Y-23933000D01*
X28447143Y-23933000D02*
X28437619Y-23923476D01*
X28437619Y-23923476D02*
X28428095Y-23904428D01*
X28428095Y-23904428D02*
X28418572Y-23866333D01*
X28418572Y-23866333D02*
X28418572Y-23818714D01*
X28418572Y-23818714D02*
X28428095Y-23780619D01*
X28428095Y-23780619D02*
X28437619Y-23761571D01*
X28437619Y-23761571D02*
X28447143Y-23752048D01*
X28447143Y-23752048D02*
X28466191Y-23742524D01*
X28704286Y-23742524D02*
X28666191Y-23742524D01*
X28666191Y-23742524D02*
X28647143Y-23752048D01*
X28647143Y-23752048D02*
X28637619Y-23761571D01*
X28637619Y-23761571D02*
X28618572Y-23790143D01*
X28618572Y-23790143D02*
X28609048Y-23828238D01*
X28609048Y-23828238D02*
X28609048Y-23904428D01*
X28609048Y-23904428D02*
X28618572Y-23923476D01*
X28618572Y-23923476D02*
X28628095Y-23933000D01*
X28628095Y-23933000D02*
X28647143Y-23942524D01*
X28647143Y-23942524D02*
X28685238Y-23942524D01*
X28685238Y-23942524D02*
X28704286Y-23933000D01*
X28704286Y-23933000D02*
X28713810Y-23923476D01*
X28713810Y-23923476D02*
X28723333Y-23904428D01*
X28723333Y-23904428D02*
X28723333Y-23856809D01*
X28723333Y-23856809D02*
X28713810Y-23837762D01*
X28713810Y-23837762D02*
X28704286Y-23828238D01*
X28704286Y-23828238D02*
X28685238Y-23818714D01*
X28685238Y-23818714D02*
X28647143Y-23818714D01*
X28647143Y-23818714D02*
X28628095Y-23828238D01*
X28628095Y-23828238D02*
X28618572Y-23837762D01*
X28618572Y-23837762D02*
X28609048Y-23856809D01*
X28837619Y-23828238D02*
X28818572Y-23818714D01*
X28818572Y-23818714D02*
X28809048Y-23809190D01*
X28809048Y-23809190D02*
X28799524Y-23790143D01*
X28799524Y-23790143D02*
X28799524Y-23780619D01*
X28799524Y-23780619D02*
X28809048Y-23761571D01*
X28809048Y-23761571D02*
X28818572Y-23752048D01*
X28818572Y-23752048D02*
X28837619Y-23742524D01*
X28837619Y-23742524D02*
X28875714Y-23742524D01*
X28875714Y-23742524D02*
X28894762Y-23752048D01*
X28894762Y-23752048D02*
X28904286Y-23761571D01*
X28904286Y-23761571D02*
X28913810Y-23780619D01*
X28913810Y-23780619D02*
X28913810Y-23790143D01*
X28913810Y-23790143D02*
X28904286Y-23809190D01*
X28904286Y-23809190D02*
X28894762Y-23818714D01*
X28894762Y-23818714D02*
X28875714Y-23828238D01*
X28875714Y-23828238D02*
X28837619Y-23828238D01*
X28837619Y-23828238D02*
X28818572Y-23837762D01*
X28818572Y-23837762D02*
X28809048Y-23847286D01*
X28809048Y-23847286D02*
X28799524Y-23866333D01*
X28799524Y-23866333D02*
X28799524Y-23904428D01*
X28799524Y-23904428D02*
X28809048Y-23923476D01*
X28809048Y-23923476D02*
X28818572Y-23933000D01*
X28818572Y-23933000D02*
X28837619Y-23942524D01*
X28837619Y-23942524D02*
X28875714Y-23942524D01*
X28875714Y-23942524D02*
X28894762Y-23933000D01*
X28894762Y-23933000D02*
X28904286Y-23923476D01*
X28904286Y-23923476D02*
X28913810Y-23904428D01*
X28913810Y-23904428D02*
X28913810Y-23866333D01*
X28913810Y-23866333D02*
X28904286Y-23847286D01*
X28904286Y-23847286D02*
X28894762Y-23837762D01*
X28894762Y-23837762D02*
X28875714Y-23828238D01*
X29009048Y-23942524D02*
X29047143Y-23942524D01*
X29047143Y-23942524D02*
X29066191Y-23933000D01*
X29066191Y-23933000D02*
X29075714Y-23923476D01*
X29075714Y-23923476D02*
X29094762Y-23894905D01*
X29094762Y-23894905D02*
X29104286Y-23856809D01*
X29104286Y-23856809D02*
X29104286Y-23780619D01*
X29104286Y-23780619D02*
X29094762Y-23761571D01*
X29094762Y-23761571D02*
X29085238Y-23752048D01*
X29085238Y-23752048D02*
X29066191Y-23742524D01*
X29066191Y-23742524D02*
X29028095Y-23742524D01*
X29028095Y-23742524D02*
X29009048Y-23752048D01*
X29009048Y-23752048D02*
X28999524Y-23761571D01*
X28999524Y-23761571D02*
X28990000Y-23780619D01*
X28990000Y-23780619D02*
X28990000Y-23828238D01*
X28990000Y-23828238D02*
X28999524Y-23847286D01*
X28999524Y-23847286D02*
X29009048Y-23856809D01*
X29009048Y-23856809D02*
X29028095Y-23866333D01*
X29028095Y-23866333D02*
X29066191Y-23866333D01*
X29066191Y-23866333D02*
X29085238Y-23856809D01*
X29085238Y-23856809D02*
X29094762Y-23847286D01*
X29094762Y-23847286D02*
X29104286Y-23828238D01*
X29180476Y-23742524D02*
X29180476Y-23780619D01*
X29256667Y-23742524D02*
X29256667Y-23780619D01*
X29551905Y-24018714D02*
X29542381Y-24009190D01*
X29542381Y-24009190D02*
X29523334Y-23980619D01*
X29523334Y-23980619D02*
X29513810Y-23961571D01*
X29513810Y-23961571D02*
X29504286Y-23933000D01*
X29504286Y-23933000D02*
X29494762Y-23885381D01*
X29494762Y-23885381D02*
X29494762Y-23847286D01*
X29494762Y-23847286D02*
X29504286Y-23799667D01*
X29504286Y-23799667D02*
X29513810Y-23771095D01*
X29513810Y-23771095D02*
X29523334Y-23752048D01*
X29523334Y-23752048D02*
X29542381Y-23723476D01*
X29542381Y-23723476D02*
X29551905Y-23713952D01*
X29609048Y-23742524D02*
X29732857Y-23742524D01*
X29732857Y-23742524D02*
X29666191Y-23818714D01*
X29666191Y-23818714D02*
X29694762Y-23818714D01*
X29694762Y-23818714D02*
X29713810Y-23828238D01*
X29713810Y-23828238D02*
X29723334Y-23837762D01*
X29723334Y-23837762D02*
X29732857Y-23856809D01*
X29732857Y-23856809D02*
X29732857Y-23904428D01*
X29732857Y-23904428D02*
X29723334Y-23923476D01*
X29723334Y-23923476D02*
X29713810Y-23933000D01*
X29713810Y-23933000D02*
X29694762Y-23942524D01*
X29694762Y-23942524D02*
X29637619Y-23942524D01*
X29637619Y-23942524D02*
X29618572Y-23933000D01*
X29618572Y-23933000D02*
X29609048Y-23923476D01*
X29904286Y-23809190D02*
X29904286Y-23942524D01*
X29856667Y-23733000D02*
X29809048Y-23875857D01*
X29809048Y-23875857D02*
X29932857Y-23875857D01*
X30161429Y-23942524D02*
X30161429Y-23742524D01*
X30247143Y-23942524D02*
X30247143Y-23837762D01*
X30247143Y-23837762D02*
X30237619Y-23818714D01*
X30237619Y-23818714D02*
X30218572Y-23809190D01*
X30218572Y-23809190D02*
X30190000Y-23809190D01*
X30190000Y-23809190D02*
X30170953Y-23818714D01*
X30170953Y-23818714D02*
X30161429Y-23828238D01*
X30370953Y-23942524D02*
X30351905Y-23933000D01*
X30351905Y-23933000D02*
X30342381Y-23923476D01*
X30342381Y-23923476D02*
X30332857Y-23904428D01*
X30332857Y-23904428D02*
X30332857Y-23847286D01*
X30332857Y-23847286D02*
X30342381Y-23828238D01*
X30342381Y-23828238D02*
X30351905Y-23818714D01*
X30351905Y-23818714D02*
X30370953Y-23809190D01*
X30370953Y-23809190D02*
X30399524Y-23809190D01*
X30399524Y-23809190D02*
X30418572Y-23818714D01*
X30418572Y-23818714D02*
X30428096Y-23828238D01*
X30428096Y-23828238D02*
X30437619Y-23847286D01*
X30437619Y-23847286D02*
X30437619Y-23904428D01*
X30437619Y-23904428D02*
X30428096Y-23923476D01*
X30428096Y-23923476D02*
X30418572Y-23933000D01*
X30418572Y-23933000D02*
X30399524Y-23942524D01*
X30399524Y-23942524D02*
X30370953Y-23942524D01*
X30551905Y-23942524D02*
X30532857Y-23933000D01*
X30532857Y-23933000D02*
X30523334Y-23913952D01*
X30523334Y-23913952D02*
X30523334Y-23742524D01*
X30704286Y-23933000D02*
X30685238Y-23942524D01*
X30685238Y-23942524D02*
X30647143Y-23942524D01*
X30647143Y-23942524D02*
X30628096Y-23933000D01*
X30628096Y-23933000D02*
X30618572Y-23913952D01*
X30618572Y-23913952D02*
X30618572Y-23837762D01*
X30618572Y-23837762D02*
X30628096Y-23818714D01*
X30628096Y-23818714D02*
X30647143Y-23809190D01*
X30647143Y-23809190D02*
X30685238Y-23809190D01*
X30685238Y-23809190D02*
X30704286Y-23818714D01*
X30704286Y-23818714D02*
X30713810Y-23837762D01*
X30713810Y-23837762D02*
X30713810Y-23856809D01*
X30713810Y-23856809D02*
X30618572Y-23875857D01*
X30790000Y-23933000D02*
X30809048Y-23942524D01*
X30809048Y-23942524D02*
X30847143Y-23942524D01*
X30847143Y-23942524D02*
X30866191Y-23933000D01*
X30866191Y-23933000D02*
X30875715Y-23913952D01*
X30875715Y-23913952D02*
X30875715Y-23904428D01*
X30875715Y-23904428D02*
X30866191Y-23885381D01*
X30866191Y-23885381D02*
X30847143Y-23875857D01*
X30847143Y-23875857D02*
X30818572Y-23875857D01*
X30818572Y-23875857D02*
X30799524Y-23866333D01*
X30799524Y-23866333D02*
X30790000Y-23847286D01*
X30790000Y-23847286D02*
X30790000Y-23837762D01*
X30790000Y-23837762D02*
X30799524Y-23818714D01*
X30799524Y-23818714D02*
X30818572Y-23809190D01*
X30818572Y-23809190D02*
X30847143Y-23809190D01*
X30847143Y-23809190D02*
X30866191Y-23818714D01*
X30942381Y-24018714D02*
X30951905Y-24009190D01*
X30951905Y-24009190D02*
X30970953Y-23980619D01*
X30970953Y-23980619D02*
X30980477Y-23961571D01*
X30980477Y-23961571D02*
X30990000Y-23933000D01*
X30990000Y-23933000D02*
X30999524Y-23885381D01*
X30999524Y-23885381D02*
X30999524Y-23847286D01*
X30999524Y-23847286D02*
X30990000Y-23799667D01*
X30990000Y-23799667D02*
X30980477Y-23771095D01*
X30980477Y-23771095D02*
X30970953Y-23752048D01*
X30970953Y-23752048D02*
X30951905Y-23723476D01*
X30951905Y-23723476D02*
X30942381Y-23713952D01*
X31304286Y-24018714D02*
X31294762Y-24009190D01*
X31294762Y-24009190D02*
X31275715Y-23980619D01*
X31275715Y-23980619D02*
X31266191Y-23961571D01*
X31266191Y-23961571D02*
X31256667Y-23933000D01*
X31256667Y-23933000D02*
X31247143Y-23885381D01*
X31247143Y-23885381D02*
X31247143Y-23847286D01*
X31247143Y-23847286D02*
X31256667Y-23799667D01*
X31256667Y-23799667D02*
X31266191Y-23771095D01*
X31266191Y-23771095D02*
X31275715Y-23752048D01*
X31275715Y-23752048D02*
X31294762Y-23723476D01*
X31294762Y-23723476D02*
X31304286Y-23713952D01*
X31380477Y-23809190D02*
X31380477Y-23942524D01*
X31380477Y-23828238D02*
X31390000Y-23818714D01*
X31390000Y-23818714D02*
X31409048Y-23809190D01*
X31409048Y-23809190D02*
X31437619Y-23809190D01*
X31437619Y-23809190D02*
X31456667Y-23818714D01*
X31456667Y-23818714D02*
X31466191Y-23837762D01*
X31466191Y-23837762D02*
X31466191Y-23942524D01*
X31590000Y-23942524D02*
X31570953Y-23933000D01*
X31570953Y-23933000D02*
X31561429Y-23923476D01*
X31561429Y-23923476D02*
X31551905Y-23904428D01*
X31551905Y-23904428D02*
X31551905Y-23847286D01*
X31551905Y-23847286D02*
X31561429Y-23828238D01*
X31561429Y-23828238D02*
X31570953Y-23818714D01*
X31570953Y-23818714D02*
X31590000Y-23809190D01*
X31590000Y-23809190D02*
X31618572Y-23809190D01*
X31618572Y-23809190D02*
X31637619Y-23818714D01*
X31637619Y-23818714D02*
X31647143Y-23828238D01*
X31647143Y-23828238D02*
X31656667Y-23847286D01*
X31656667Y-23847286D02*
X31656667Y-23904428D01*
X31656667Y-23904428D02*
X31647143Y-23923476D01*
X31647143Y-23923476D02*
X31637619Y-23933000D01*
X31637619Y-23933000D02*
X31618572Y-23942524D01*
X31618572Y-23942524D02*
X31590000Y-23942524D01*
X31713810Y-23809190D02*
X31790000Y-23809190D01*
X31742381Y-23742524D02*
X31742381Y-23913952D01*
X31742381Y-23913952D02*
X31751905Y-23933000D01*
X31751905Y-23933000D02*
X31770953Y-23942524D01*
X31770953Y-23942524D02*
X31790000Y-23942524D01*
X32009048Y-23809190D02*
X32009048Y-24009190D01*
X32009048Y-23818714D02*
X32028096Y-23809190D01*
X32028096Y-23809190D02*
X32066191Y-23809190D01*
X32066191Y-23809190D02*
X32085239Y-23818714D01*
X32085239Y-23818714D02*
X32094762Y-23828238D01*
X32094762Y-23828238D02*
X32104286Y-23847286D01*
X32104286Y-23847286D02*
X32104286Y-23904428D01*
X32104286Y-23904428D02*
X32094762Y-23923476D01*
X32094762Y-23923476D02*
X32085239Y-23933000D01*
X32085239Y-23933000D02*
X32066191Y-23942524D01*
X32066191Y-23942524D02*
X32028096Y-23942524D01*
X32028096Y-23942524D02*
X32009048Y-23933000D01*
X32218572Y-23942524D02*
X32199524Y-23933000D01*
X32199524Y-23933000D02*
X32190000Y-23913952D01*
X32190000Y-23913952D02*
X32190000Y-23742524D01*
X32380477Y-23942524D02*
X32380477Y-23837762D01*
X32380477Y-23837762D02*
X32370953Y-23818714D01*
X32370953Y-23818714D02*
X32351905Y-23809190D01*
X32351905Y-23809190D02*
X32313810Y-23809190D01*
X32313810Y-23809190D02*
X32294762Y-23818714D01*
X32380477Y-23933000D02*
X32361429Y-23942524D01*
X32361429Y-23942524D02*
X32313810Y-23942524D01*
X32313810Y-23942524D02*
X32294762Y-23933000D01*
X32294762Y-23933000D02*
X32285239Y-23913952D01*
X32285239Y-23913952D02*
X32285239Y-23894905D01*
X32285239Y-23894905D02*
X32294762Y-23875857D01*
X32294762Y-23875857D02*
X32313810Y-23866333D01*
X32313810Y-23866333D02*
X32361429Y-23866333D01*
X32361429Y-23866333D02*
X32380477Y-23856809D01*
X32447143Y-23809190D02*
X32523334Y-23809190D01*
X32475715Y-23742524D02*
X32475715Y-23913952D01*
X32475715Y-23913952D02*
X32485239Y-23933000D01*
X32485239Y-23933000D02*
X32504286Y-23942524D01*
X32504286Y-23942524D02*
X32523334Y-23942524D01*
X32666191Y-23933000D02*
X32647143Y-23942524D01*
X32647143Y-23942524D02*
X32609048Y-23942524D01*
X32609048Y-23942524D02*
X32590000Y-23933000D01*
X32590000Y-23933000D02*
X32580477Y-23913952D01*
X32580477Y-23913952D02*
X32580477Y-23837762D01*
X32580477Y-23837762D02*
X32590000Y-23818714D01*
X32590000Y-23818714D02*
X32609048Y-23809190D01*
X32609048Y-23809190D02*
X32647143Y-23809190D01*
X32647143Y-23809190D02*
X32666191Y-23818714D01*
X32666191Y-23818714D02*
X32675715Y-23837762D01*
X32675715Y-23837762D02*
X32675715Y-23856809D01*
X32675715Y-23856809D02*
X32580477Y-23875857D01*
X32847143Y-23942524D02*
X32847143Y-23742524D01*
X32847143Y-23933000D02*
X32828096Y-23942524D01*
X32828096Y-23942524D02*
X32790000Y-23942524D01*
X32790000Y-23942524D02*
X32770953Y-23933000D01*
X32770953Y-23933000D02*
X32761429Y-23923476D01*
X32761429Y-23923476D02*
X32751905Y-23904428D01*
X32751905Y-23904428D02*
X32751905Y-23847286D01*
X32751905Y-23847286D02*
X32761429Y-23828238D01*
X32761429Y-23828238D02*
X32770953Y-23818714D01*
X32770953Y-23818714D02*
X32790000Y-23809190D01*
X32790000Y-23809190D02*
X32828096Y-23809190D01*
X32828096Y-23809190D02*
X32847143Y-23818714D01*
X32923334Y-24018714D02*
X32932858Y-24009190D01*
X32932858Y-24009190D02*
X32951905Y-23980619D01*
X32951905Y-23980619D02*
X32961429Y-23961571D01*
X32961429Y-23961571D02*
X32970953Y-23933000D01*
X32970953Y-23933000D02*
X32980477Y-23885381D01*
X32980477Y-23885381D02*
X32980477Y-23847286D01*
X32980477Y-23847286D02*
X32970953Y-23799667D01*
X32970953Y-23799667D02*
X32961429Y-23771095D01*
X32961429Y-23771095D02*
X32951905Y-23752048D01*
X32951905Y-23752048D02*
X32932858Y-23723476D01*
X32932858Y-23723476D02*
X32923334Y-23713952D01*
X25990000Y-24145000D02*
G75*
G03*
X25990000Y-24145000I-100000J0D01*
G01*
X26228095Y-24056571D02*
X26237619Y-24047048D01*
X26237619Y-24047048D02*
X26256667Y-24037524D01*
X26256667Y-24037524D02*
X26304286Y-24037524D01*
X26304286Y-24037524D02*
X26323333Y-24047048D01*
X26323333Y-24047048D02*
X26332857Y-24056571D01*
X26332857Y-24056571D02*
X26342381Y-24075619D01*
X26342381Y-24075619D02*
X26342381Y-24094667D01*
X26342381Y-24094667D02*
X26332857Y-24123238D01*
X26332857Y-24123238D02*
X26218571Y-24237524D01*
X26218571Y-24237524D02*
X26342381Y-24237524D01*
X26428095Y-24218476D02*
X26437619Y-24228000D01*
X26437619Y-24228000D02*
X26428095Y-24237524D01*
X26428095Y-24237524D02*
X26418571Y-24228000D01*
X26418571Y-24228000D02*
X26428095Y-24218476D01*
X26428095Y-24218476D02*
X26428095Y-24237524D01*
X26513809Y-24056571D02*
X26523333Y-24047048D01*
X26523333Y-24047048D02*
X26542381Y-24037524D01*
X26542381Y-24037524D02*
X26590000Y-24037524D01*
X26590000Y-24037524D02*
X26609048Y-24047048D01*
X26609048Y-24047048D02*
X26618571Y-24056571D01*
X26618571Y-24056571D02*
X26628095Y-24075619D01*
X26628095Y-24075619D02*
X26628095Y-24094667D01*
X26628095Y-24094667D02*
X26618571Y-24123238D01*
X26618571Y-24123238D02*
X26504286Y-24237524D01*
X26504286Y-24237524D02*
X26628095Y-24237524D01*
X26751905Y-24037524D02*
X26770952Y-24037524D01*
X26770952Y-24037524D02*
X26790000Y-24047048D01*
X26790000Y-24047048D02*
X26799524Y-24056571D01*
X26799524Y-24056571D02*
X26809048Y-24075619D01*
X26809048Y-24075619D02*
X26818571Y-24113714D01*
X26818571Y-24113714D02*
X26818571Y-24161333D01*
X26818571Y-24161333D02*
X26809048Y-24199428D01*
X26809048Y-24199428D02*
X26799524Y-24218476D01*
X26799524Y-24218476D02*
X26790000Y-24228000D01*
X26790000Y-24228000D02*
X26770952Y-24237524D01*
X26770952Y-24237524D02*
X26751905Y-24237524D01*
X26751905Y-24237524D02*
X26732857Y-24228000D01*
X26732857Y-24228000D02*
X26723333Y-24218476D01*
X26723333Y-24218476D02*
X26713809Y-24199428D01*
X26713809Y-24199428D02*
X26704286Y-24161333D01*
X26704286Y-24161333D02*
X26704286Y-24113714D01*
X26704286Y-24113714D02*
X26713809Y-24075619D01*
X26713809Y-24075619D02*
X26723333Y-24056571D01*
X26723333Y-24056571D02*
X26732857Y-24047048D01*
X26732857Y-24047048D02*
X26751905Y-24037524D01*
X26942381Y-24037524D02*
X26961429Y-24037524D01*
X26961429Y-24037524D02*
X26980476Y-24047048D01*
X26980476Y-24047048D02*
X26990000Y-24056571D01*
X26990000Y-24056571D02*
X26999524Y-24075619D01*
X26999524Y-24075619D02*
X27009048Y-24113714D01*
X27009048Y-24113714D02*
X27009048Y-24161333D01*
X27009048Y-24161333D02*
X26999524Y-24199428D01*
X26999524Y-24199428D02*
X26990000Y-24218476D01*
X26990000Y-24218476D02*
X26980476Y-24228000D01*
X26980476Y-24228000D02*
X26961429Y-24237524D01*
X26961429Y-24237524D02*
X26942381Y-24237524D01*
X26942381Y-24237524D02*
X26923333Y-24228000D01*
X26923333Y-24228000D02*
X26913809Y-24218476D01*
X26913809Y-24218476D02*
X26904286Y-24199428D01*
X26904286Y-24199428D02*
X26894762Y-24161333D01*
X26894762Y-24161333D02*
X26894762Y-24113714D01*
X26894762Y-24113714D02*
X26904286Y-24075619D01*
X26904286Y-24075619D02*
X26913809Y-24056571D01*
X26913809Y-24056571D02*
X26923333Y-24047048D01*
X26923333Y-24047048D02*
X26942381Y-24037524D01*
X27094762Y-24237524D02*
X27094762Y-24104190D01*
X27094762Y-24123238D02*
X27104286Y-24113714D01*
X27104286Y-24113714D02*
X27123333Y-24104190D01*
X27123333Y-24104190D02*
X27151905Y-24104190D01*
X27151905Y-24104190D02*
X27170952Y-24113714D01*
X27170952Y-24113714D02*
X27180476Y-24132762D01*
X27180476Y-24132762D02*
X27180476Y-24237524D01*
X27180476Y-24132762D02*
X27190000Y-24113714D01*
X27190000Y-24113714D02*
X27209048Y-24104190D01*
X27209048Y-24104190D02*
X27237619Y-24104190D01*
X27237619Y-24104190D02*
X27256667Y-24113714D01*
X27256667Y-24113714D02*
X27266190Y-24132762D01*
X27266190Y-24132762D02*
X27266190Y-24237524D01*
X27361429Y-24237524D02*
X27361429Y-24104190D01*
X27361429Y-24123238D02*
X27370952Y-24113714D01*
X27370952Y-24113714D02*
X27390000Y-24104190D01*
X27390000Y-24104190D02*
X27418571Y-24104190D01*
X27418571Y-24104190D02*
X27437619Y-24113714D01*
X27437619Y-24113714D02*
X27447143Y-24132762D01*
X27447143Y-24132762D02*
X27447143Y-24237524D01*
X27447143Y-24132762D02*
X27456667Y-24113714D01*
X27456667Y-24113714D02*
X27475714Y-24104190D01*
X27475714Y-24104190D02*
X27504286Y-24104190D01*
X27504286Y-24104190D02*
X27523333Y-24113714D01*
X27523333Y-24113714D02*
X27532857Y-24132762D01*
X27532857Y-24132762D02*
X27532857Y-24237524D01*
X27923333Y-24028000D02*
X27751905Y-24285143D01*
X28180476Y-24037524D02*
X28199524Y-24037524D01*
X28199524Y-24037524D02*
X28218572Y-24047048D01*
X28218572Y-24047048D02*
X28228095Y-24056571D01*
X28228095Y-24056571D02*
X28237619Y-24075619D01*
X28237619Y-24075619D02*
X28247143Y-24113714D01*
X28247143Y-24113714D02*
X28247143Y-24161333D01*
X28247143Y-24161333D02*
X28237619Y-24199428D01*
X28237619Y-24199428D02*
X28228095Y-24218476D01*
X28228095Y-24218476D02*
X28218572Y-24228000D01*
X28218572Y-24228000D02*
X28199524Y-24237524D01*
X28199524Y-24237524D02*
X28180476Y-24237524D01*
X28180476Y-24237524D02*
X28161429Y-24228000D01*
X28161429Y-24228000D02*
X28151905Y-24218476D01*
X28151905Y-24218476D02*
X28142381Y-24199428D01*
X28142381Y-24199428D02*
X28132857Y-24161333D01*
X28132857Y-24161333D02*
X28132857Y-24113714D01*
X28132857Y-24113714D02*
X28142381Y-24075619D01*
X28142381Y-24075619D02*
X28151905Y-24056571D01*
X28151905Y-24056571D02*
X28161429Y-24047048D01*
X28161429Y-24047048D02*
X28180476Y-24037524D01*
X28332857Y-24218476D02*
X28342381Y-24228000D01*
X28342381Y-24228000D02*
X28332857Y-24237524D01*
X28332857Y-24237524D02*
X28323333Y-24228000D01*
X28323333Y-24228000D02*
X28332857Y-24218476D01*
X28332857Y-24218476D02*
X28332857Y-24237524D01*
X28466191Y-24037524D02*
X28485238Y-24037524D01*
X28485238Y-24037524D02*
X28504286Y-24047048D01*
X28504286Y-24047048D02*
X28513810Y-24056571D01*
X28513810Y-24056571D02*
X28523333Y-24075619D01*
X28523333Y-24075619D02*
X28532857Y-24113714D01*
X28532857Y-24113714D02*
X28532857Y-24161333D01*
X28532857Y-24161333D02*
X28523333Y-24199428D01*
X28523333Y-24199428D02*
X28513810Y-24218476D01*
X28513810Y-24218476D02*
X28504286Y-24228000D01*
X28504286Y-24228000D02*
X28485238Y-24237524D01*
X28485238Y-24237524D02*
X28466191Y-24237524D01*
X28466191Y-24237524D02*
X28447143Y-24228000D01*
X28447143Y-24228000D02*
X28437619Y-24218476D01*
X28437619Y-24218476D02*
X28428095Y-24199428D01*
X28428095Y-24199428D02*
X28418572Y-24161333D01*
X28418572Y-24161333D02*
X28418572Y-24113714D01*
X28418572Y-24113714D02*
X28428095Y-24075619D01*
X28428095Y-24075619D02*
X28437619Y-24056571D01*
X28437619Y-24056571D02*
X28447143Y-24047048D01*
X28447143Y-24047048D02*
X28466191Y-24037524D01*
X28647143Y-24123238D02*
X28628095Y-24113714D01*
X28628095Y-24113714D02*
X28618572Y-24104190D01*
X28618572Y-24104190D02*
X28609048Y-24085143D01*
X28609048Y-24085143D02*
X28609048Y-24075619D01*
X28609048Y-24075619D02*
X28618572Y-24056571D01*
X28618572Y-24056571D02*
X28628095Y-24047048D01*
X28628095Y-24047048D02*
X28647143Y-24037524D01*
X28647143Y-24037524D02*
X28685238Y-24037524D01*
X28685238Y-24037524D02*
X28704286Y-24047048D01*
X28704286Y-24047048D02*
X28713810Y-24056571D01*
X28713810Y-24056571D02*
X28723333Y-24075619D01*
X28723333Y-24075619D02*
X28723333Y-24085143D01*
X28723333Y-24085143D02*
X28713810Y-24104190D01*
X28713810Y-24104190D02*
X28704286Y-24113714D01*
X28704286Y-24113714D02*
X28685238Y-24123238D01*
X28685238Y-24123238D02*
X28647143Y-24123238D01*
X28647143Y-24123238D02*
X28628095Y-24132762D01*
X28628095Y-24132762D02*
X28618572Y-24142286D01*
X28618572Y-24142286D02*
X28609048Y-24161333D01*
X28609048Y-24161333D02*
X28609048Y-24199428D01*
X28609048Y-24199428D02*
X28618572Y-24218476D01*
X28618572Y-24218476D02*
X28628095Y-24228000D01*
X28628095Y-24228000D02*
X28647143Y-24237524D01*
X28647143Y-24237524D02*
X28685238Y-24237524D01*
X28685238Y-24237524D02*
X28704286Y-24228000D01*
X28704286Y-24228000D02*
X28713810Y-24218476D01*
X28713810Y-24218476D02*
X28723333Y-24199428D01*
X28723333Y-24199428D02*
X28723333Y-24161333D01*
X28723333Y-24161333D02*
X28713810Y-24142286D01*
X28713810Y-24142286D02*
X28704286Y-24132762D01*
X28704286Y-24132762D02*
X28685238Y-24123238D01*
X28894762Y-24037524D02*
X28856667Y-24037524D01*
X28856667Y-24037524D02*
X28837619Y-24047048D01*
X28837619Y-24047048D02*
X28828095Y-24056571D01*
X28828095Y-24056571D02*
X28809048Y-24085143D01*
X28809048Y-24085143D02*
X28799524Y-24123238D01*
X28799524Y-24123238D02*
X28799524Y-24199428D01*
X28799524Y-24199428D02*
X28809048Y-24218476D01*
X28809048Y-24218476D02*
X28818572Y-24228000D01*
X28818572Y-24228000D02*
X28837619Y-24237524D01*
X28837619Y-24237524D02*
X28875714Y-24237524D01*
X28875714Y-24237524D02*
X28894762Y-24228000D01*
X28894762Y-24228000D02*
X28904286Y-24218476D01*
X28904286Y-24218476D02*
X28913810Y-24199428D01*
X28913810Y-24199428D02*
X28913810Y-24151809D01*
X28913810Y-24151809D02*
X28904286Y-24132762D01*
X28904286Y-24132762D02*
X28894762Y-24123238D01*
X28894762Y-24123238D02*
X28875714Y-24113714D01*
X28875714Y-24113714D02*
X28837619Y-24113714D01*
X28837619Y-24113714D02*
X28818572Y-24123238D01*
X28818572Y-24123238D02*
X28809048Y-24132762D01*
X28809048Y-24132762D02*
X28799524Y-24151809D01*
X29085238Y-24037524D02*
X29047143Y-24037524D01*
X29047143Y-24037524D02*
X29028095Y-24047048D01*
X29028095Y-24047048D02*
X29018572Y-24056571D01*
X29018572Y-24056571D02*
X28999524Y-24085143D01*
X28999524Y-24085143D02*
X28990000Y-24123238D01*
X28990000Y-24123238D02*
X28990000Y-24199428D01*
X28990000Y-24199428D02*
X28999524Y-24218476D01*
X28999524Y-24218476D02*
X29009048Y-24228000D01*
X29009048Y-24228000D02*
X29028095Y-24237524D01*
X29028095Y-24237524D02*
X29066191Y-24237524D01*
X29066191Y-24237524D02*
X29085238Y-24228000D01*
X29085238Y-24228000D02*
X29094762Y-24218476D01*
X29094762Y-24218476D02*
X29104286Y-24199428D01*
X29104286Y-24199428D02*
X29104286Y-24151809D01*
X29104286Y-24151809D02*
X29094762Y-24132762D01*
X29094762Y-24132762D02*
X29085238Y-24123238D01*
X29085238Y-24123238D02*
X29066191Y-24113714D01*
X29066191Y-24113714D02*
X29028095Y-24113714D01*
X29028095Y-24113714D02*
X29009048Y-24123238D01*
X29009048Y-24123238D02*
X28999524Y-24132762D01*
X28999524Y-24132762D02*
X28990000Y-24151809D01*
X29180476Y-24037524D02*
X29180476Y-24075619D01*
X29256667Y-24037524D02*
X29256667Y-24075619D01*
X29551905Y-24313714D02*
X29542381Y-24304190D01*
X29542381Y-24304190D02*
X29523334Y-24275619D01*
X29523334Y-24275619D02*
X29513810Y-24256571D01*
X29513810Y-24256571D02*
X29504286Y-24228000D01*
X29504286Y-24228000D02*
X29494762Y-24180381D01*
X29494762Y-24180381D02*
X29494762Y-24142286D01*
X29494762Y-24142286D02*
X29504286Y-24094667D01*
X29504286Y-24094667D02*
X29513810Y-24066095D01*
X29513810Y-24066095D02*
X29523334Y-24047048D01*
X29523334Y-24047048D02*
X29542381Y-24018476D01*
X29542381Y-24018476D02*
X29551905Y-24008952D01*
X29609048Y-24037524D02*
X29742381Y-24037524D01*
X29742381Y-24037524D02*
X29656667Y-24237524D01*
X29970953Y-24237524D02*
X29970953Y-24037524D01*
X30056667Y-24237524D02*
X30056667Y-24132762D01*
X30056667Y-24132762D02*
X30047143Y-24113714D01*
X30047143Y-24113714D02*
X30028096Y-24104190D01*
X30028096Y-24104190D02*
X29999524Y-24104190D01*
X29999524Y-24104190D02*
X29980476Y-24113714D01*
X29980476Y-24113714D02*
X29970953Y-24123238D01*
X30180476Y-24237524D02*
X30161429Y-24228000D01*
X30161429Y-24228000D02*
X30151905Y-24218476D01*
X30151905Y-24218476D02*
X30142381Y-24199428D01*
X30142381Y-24199428D02*
X30142381Y-24142286D01*
X30142381Y-24142286D02*
X30151905Y-24123238D01*
X30151905Y-24123238D02*
X30161429Y-24113714D01*
X30161429Y-24113714D02*
X30180476Y-24104190D01*
X30180476Y-24104190D02*
X30209048Y-24104190D01*
X30209048Y-24104190D02*
X30228096Y-24113714D01*
X30228096Y-24113714D02*
X30237619Y-24123238D01*
X30237619Y-24123238D02*
X30247143Y-24142286D01*
X30247143Y-24142286D02*
X30247143Y-24199428D01*
X30247143Y-24199428D02*
X30237619Y-24218476D01*
X30237619Y-24218476D02*
X30228096Y-24228000D01*
X30228096Y-24228000D02*
X30209048Y-24237524D01*
X30209048Y-24237524D02*
X30180476Y-24237524D01*
X30361429Y-24237524D02*
X30342381Y-24228000D01*
X30342381Y-24228000D02*
X30332857Y-24208952D01*
X30332857Y-24208952D02*
X30332857Y-24037524D01*
X30513810Y-24228000D02*
X30494762Y-24237524D01*
X30494762Y-24237524D02*
X30456667Y-24237524D01*
X30456667Y-24237524D02*
X30437619Y-24228000D01*
X30437619Y-24228000D02*
X30428096Y-24208952D01*
X30428096Y-24208952D02*
X30428096Y-24132762D01*
X30428096Y-24132762D02*
X30437619Y-24113714D01*
X30437619Y-24113714D02*
X30456667Y-24104190D01*
X30456667Y-24104190D02*
X30494762Y-24104190D01*
X30494762Y-24104190D02*
X30513810Y-24113714D01*
X30513810Y-24113714D02*
X30523334Y-24132762D01*
X30523334Y-24132762D02*
X30523334Y-24151809D01*
X30523334Y-24151809D02*
X30428096Y-24170857D01*
X30599524Y-24228000D02*
X30618572Y-24237524D01*
X30618572Y-24237524D02*
X30656667Y-24237524D01*
X30656667Y-24237524D02*
X30675715Y-24228000D01*
X30675715Y-24228000D02*
X30685238Y-24208952D01*
X30685238Y-24208952D02*
X30685238Y-24199428D01*
X30685238Y-24199428D02*
X30675715Y-24180381D01*
X30675715Y-24180381D02*
X30656667Y-24170857D01*
X30656667Y-24170857D02*
X30628096Y-24170857D01*
X30628096Y-24170857D02*
X30609048Y-24161333D01*
X30609048Y-24161333D02*
X30599524Y-24142286D01*
X30599524Y-24142286D02*
X30599524Y-24132762D01*
X30599524Y-24132762D02*
X30609048Y-24113714D01*
X30609048Y-24113714D02*
X30628096Y-24104190D01*
X30628096Y-24104190D02*
X30656667Y-24104190D01*
X30656667Y-24104190D02*
X30675715Y-24113714D01*
X30751905Y-24313714D02*
X30761429Y-24304190D01*
X30761429Y-24304190D02*
X30780477Y-24275619D01*
X30780477Y-24275619D02*
X30790000Y-24256571D01*
X30790000Y-24256571D02*
X30799524Y-24228000D01*
X30799524Y-24228000D02*
X30809048Y-24180381D01*
X30809048Y-24180381D02*
X30809048Y-24142286D01*
X30809048Y-24142286D02*
X30799524Y-24094667D01*
X30799524Y-24094667D02*
X30790000Y-24066095D01*
X30790000Y-24066095D02*
X30780477Y-24047048D01*
X30780477Y-24047048D02*
X30761429Y-24018476D01*
X30761429Y-24018476D02*
X30751905Y-24008952D01*
X31113810Y-24313714D02*
X31104286Y-24304190D01*
X31104286Y-24304190D02*
X31085238Y-24275619D01*
X31085238Y-24275619D02*
X31075715Y-24256571D01*
X31075715Y-24256571D02*
X31066191Y-24228000D01*
X31066191Y-24228000D02*
X31056667Y-24180381D01*
X31056667Y-24180381D02*
X31056667Y-24142286D01*
X31056667Y-24142286D02*
X31066191Y-24094667D01*
X31066191Y-24094667D02*
X31075715Y-24066095D01*
X31075715Y-24066095D02*
X31085238Y-24047048D01*
X31085238Y-24047048D02*
X31104286Y-24018476D01*
X31104286Y-24018476D02*
X31113810Y-24008952D01*
X31190000Y-24104190D02*
X31190000Y-24237524D01*
X31190000Y-24123238D02*
X31199524Y-24113714D01*
X31199524Y-24113714D02*
X31218572Y-24104190D01*
X31218572Y-24104190D02*
X31247143Y-24104190D01*
X31247143Y-24104190D02*
X31266191Y-24113714D01*
X31266191Y-24113714D02*
X31275715Y-24132762D01*
X31275715Y-24132762D02*
X31275715Y-24237524D01*
X31399524Y-24237524D02*
X31380477Y-24228000D01*
X31380477Y-24228000D02*
X31370953Y-24218476D01*
X31370953Y-24218476D02*
X31361429Y-24199428D01*
X31361429Y-24199428D02*
X31361429Y-24142286D01*
X31361429Y-24142286D02*
X31370953Y-24123238D01*
X31370953Y-24123238D02*
X31380477Y-24113714D01*
X31380477Y-24113714D02*
X31399524Y-24104190D01*
X31399524Y-24104190D02*
X31428096Y-24104190D01*
X31428096Y-24104190D02*
X31447143Y-24113714D01*
X31447143Y-24113714D02*
X31456667Y-24123238D01*
X31456667Y-24123238D02*
X31466191Y-24142286D01*
X31466191Y-24142286D02*
X31466191Y-24199428D01*
X31466191Y-24199428D02*
X31456667Y-24218476D01*
X31456667Y-24218476D02*
X31447143Y-24228000D01*
X31447143Y-24228000D02*
X31428096Y-24237524D01*
X31428096Y-24237524D02*
X31399524Y-24237524D01*
X31523334Y-24104190D02*
X31599524Y-24104190D01*
X31551905Y-24037524D02*
X31551905Y-24208952D01*
X31551905Y-24208952D02*
X31561429Y-24228000D01*
X31561429Y-24228000D02*
X31580477Y-24237524D01*
X31580477Y-24237524D02*
X31599524Y-24237524D01*
X31818572Y-24104190D02*
X31818572Y-24304190D01*
X31818572Y-24113714D02*
X31837619Y-24104190D01*
X31837619Y-24104190D02*
X31875715Y-24104190D01*
X31875715Y-24104190D02*
X31894762Y-24113714D01*
X31894762Y-24113714D02*
X31904286Y-24123238D01*
X31904286Y-24123238D02*
X31913810Y-24142286D01*
X31913810Y-24142286D02*
X31913810Y-24199428D01*
X31913810Y-24199428D02*
X31904286Y-24218476D01*
X31904286Y-24218476D02*
X31894762Y-24228000D01*
X31894762Y-24228000D02*
X31875715Y-24237524D01*
X31875715Y-24237524D02*
X31837619Y-24237524D01*
X31837619Y-24237524D02*
X31818572Y-24228000D01*
X32028096Y-24237524D02*
X32009048Y-24228000D01*
X32009048Y-24228000D02*
X31999524Y-24208952D01*
X31999524Y-24208952D02*
X31999524Y-24037524D01*
X32190000Y-24237524D02*
X32190000Y-24132762D01*
X32190000Y-24132762D02*
X32180477Y-24113714D01*
X32180477Y-24113714D02*
X32161429Y-24104190D01*
X32161429Y-24104190D02*
X32123334Y-24104190D01*
X32123334Y-24104190D02*
X32104286Y-24113714D01*
X32190000Y-24228000D02*
X32170953Y-24237524D01*
X32170953Y-24237524D02*
X32123334Y-24237524D01*
X32123334Y-24237524D02*
X32104286Y-24228000D01*
X32104286Y-24228000D02*
X32094762Y-24208952D01*
X32094762Y-24208952D02*
X32094762Y-24189905D01*
X32094762Y-24189905D02*
X32104286Y-24170857D01*
X32104286Y-24170857D02*
X32123334Y-24161333D01*
X32123334Y-24161333D02*
X32170953Y-24161333D01*
X32170953Y-24161333D02*
X32190000Y-24151809D01*
X32256667Y-24104190D02*
X32332858Y-24104190D01*
X32285239Y-24037524D02*
X32285239Y-24208952D01*
X32285239Y-24208952D02*
X32294762Y-24228000D01*
X32294762Y-24228000D02*
X32313810Y-24237524D01*
X32313810Y-24237524D02*
X32332858Y-24237524D01*
X32475715Y-24228000D02*
X32456667Y-24237524D01*
X32456667Y-24237524D02*
X32418572Y-24237524D01*
X32418572Y-24237524D02*
X32399524Y-24228000D01*
X32399524Y-24228000D02*
X32390000Y-24208952D01*
X32390000Y-24208952D02*
X32390000Y-24132762D01*
X32390000Y-24132762D02*
X32399524Y-24113714D01*
X32399524Y-24113714D02*
X32418572Y-24104190D01*
X32418572Y-24104190D02*
X32456667Y-24104190D01*
X32456667Y-24104190D02*
X32475715Y-24113714D01*
X32475715Y-24113714D02*
X32485239Y-24132762D01*
X32485239Y-24132762D02*
X32485239Y-24151809D01*
X32485239Y-24151809D02*
X32390000Y-24170857D01*
X32656667Y-24237524D02*
X32656667Y-24037524D01*
X32656667Y-24228000D02*
X32637620Y-24237524D01*
X32637620Y-24237524D02*
X32599524Y-24237524D01*
X32599524Y-24237524D02*
X32580477Y-24228000D01*
X32580477Y-24228000D02*
X32570953Y-24218476D01*
X32570953Y-24218476D02*
X32561429Y-24199428D01*
X32561429Y-24199428D02*
X32561429Y-24142286D01*
X32561429Y-24142286D02*
X32570953Y-24123238D01*
X32570953Y-24123238D02*
X32580477Y-24113714D01*
X32580477Y-24113714D02*
X32599524Y-24104190D01*
X32599524Y-24104190D02*
X32637620Y-24104190D01*
X32637620Y-24104190D02*
X32656667Y-24113714D01*
X32732858Y-24313714D02*
X32742381Y-24304190D01*
X32742381Y-24304190D02*
X32761429Y-24275619D01*
X32761429Y-24275619D02*
X32770953Y-24256571D01*
X32770953Y-24256571D02*
X32780477Y-24228000D01*
X32780477Y-24228000D02*
X32790000Y-24180381D01*
X32790000Y-24180381D02*
X32790000Y-24142286D01*
X32790000Y-24142286D02*
X32780477Y-24094667D01*
X32780477Y-24094667D02*
X32770953Y-24066095D01*
X32770953Y-24066095D02*
X32761429Y-24047048D01*
X32761429Y-24047048D02*
X32742381Y-24018476D01*
X32742381Y-24018476D02*
X32732858Y-24008952D01*
X25890000Y-24365000D02*
X25890000Y-24565000D01*
X25790000Y-24465000D02*
X25990000Y-24465000D01*
X26218571Y-24357524D02*
X26342381Y-24357524D01*
X26342381Y-24357524D02*
X26275714Y-24433714D01*
X26275714Y-24433714D02*
X26304286Y-24433714D01*
X26304286Y-24433714D02*
X26323333Y-24443238D01*
X26323333Y-24443238D02*
X26332857Y-24452762D01*
X26332857Y-24452762D02*
X26342381Y-24471809D01*
X26342381Y-24471809D02*
X26342381Y-24519428D01*
X26342381Y-24519428D02*
X26332857Y-24538476D01*
X26332857Y-24538476D02*
X26323333Y-24548000D01*
X26323333Y-24548000D02*
X26304286Y-24557524D01*
X26304286Y-24557524D02*
X26247143Y-24557524D01*
X26247143Y-24557524D02*
X26228095Y-24548000D01*
X26228095Y-24548000D02*
X26218571Y-24538476D01*
X26428095Y-24538476D02*
X26437619Y-24548000D01*
X26437619Y-24548000D02*
X26428095Y-24557524D01*
X26428095Y-24557524D02*
X26418571Y-24548000D01*
X26418571Y-24548000D02*
X26428095Y-24538476D01*
X26428095Y-24538476D02*
X26428095Y-24557524D01*
X26561428Y-24357524D02*
X26580476Y-24357524D01*
X26580476Y-24357524D02*
X26599524Y-24367048D01*
X26599524Y-24367048D02*
X26609048Y-24376571D01*
X26609048Y-24376571D02*
X26618571Y-24395619D01*
X26618571Y-24395619D02*
X26628095Y-24433714D01*
X26628095Y-24433714D02*
X26628095Y-24481333D01*
X26628095Y-24481333D02*
X26618571Y-24519428D01*
X26618571Y-24519428D02*
X26609048Y-24538476D01*
X26609048Y-24538476D02*
X26599524Y-24548000D01*
X26599524Y-24548000D02*
X26580476Y-24557524D01*
X26580476Y-24557524D02*
X26561428Y-24557524D01*
X26561428Y-24557524D02*
X26542381Y-24548000D01*
X26542381Y-24548000D02*
X26532857Y-24538476D01*
X26532857Y-24538476D02*
X26523333Y-24519428D01*
X26523333Y-24519428D02*
X26513809Y-24481333D01*
X26513809Y-24481333D02*
X26513809Y-24433714D01*
X26513809Y-24433714D02*
X26523333Y-24395619D01*
X26523333Y-24395619D02*
X26532857Y-24376571D01*
X26532857Y-24376571D02*
X26542381Y-24367048D01*
X26542381Y-24367048D02*
X26561428Y-24357524D01*
X26799524Y-24424190D02*
X26799524Y-24557524D01*
X26751905Y-24348000D02*
X26704286Y-24490857D01*
X26704286Y-24490857D02*
X26828095Y-24490857D01*
X26932857Y-24443238D02*
X26913809Y-24433714D01*
X26913809Y-24433714D02*
X26904286Y-24424190D01*
X26904286Y-24424190D02*
X26894762Y-24405143D01*
X26894762Y-24405143D02*
X26894762Y-24395619D01*
X26894762Y-24395619D02*
X26904286Y-24376571D01*
X26904286Y-24376571D02*
X26913809Y-24367048D01*
X26913809Y-24367048D02*
X26932857Y-24357524D01*
X26932857Y-24357524D02*
X26970952Y-24357524D01*
X26970952Y-24357524D02*
X26990000Y-24367048D01*
X26990000Y-24367048D02*
X26999524Y-24376571D01*
X26999524Y-24376571D02*
X27009048Y-24395619D01*
X27009048Y-24395619D02*
X27009048Y-24405143D01*
X27009048Y-24405143D02*
X26999524Y-24424190D01*
X26999524Y-24424190D02*
X26990000Y-24433714D01*
X26990000Y-24433714D02*
X26970952Y-24443238D01*
X26970952Y-24443238D02*
X26932857Y-24443238D01*
X26932857Y-24443238D02*
X26913809Y-24452762D01*
X26913809Y-24452762D02*
X26904286Y-24462286D01*
X26904286Y-24462286D02*
X26894762Y-24481333D01*
X26894762Y-24481333D02*
X26894762Y-24519428D01*
X26894762Y-24519428D02*
X26904286Y-24538476D01*
X26904286Y-24538476D02*
X26913809Y-24548000D01*
X26913809Y-24548000D02*
X26932857Y-24557524D01*
X26932857Y-24557524D02*
X26970952Y-24557524D01*
X26970952Y-24557524D02*
X26990000Y-24548000D01*
X26990000Y-24548000D02*
X26999524Y-24538476D01*
X26999524Y-24538476D02*
X27009048Y-24519428D01*
X27009048Y-24519428D02*
X27009048Y-24481333D01*
X27009048Y-24481333D02*
X26999524Y-24462286D01*
X26999524Y-24462286D02*
X26990000Y-24452762D01*
X26990000Y-24452762D02*
X26970952Y-24443238D01*
X27094762Y-24557524D02*
X27094762Y-24424190D01*
X27094762Y-24443238D02*
X27104286Y-24433714D01*
X27104286Y-24433714D02*
X27123333Y-24424190D01*
X27123333Y-24424190D02*
X27151905Y-24424190D01*
X27151905Y-24424190D02*
X27170952Y-24433714D01*
X27170952Y-24433714D02*
X27180476Y-24452762D01*
X27180476Y-24452762D02*
X27180476Y-24557524D01*
X27180476Y-24452762D02*
X27190000Y-24433714D01*
X27190000Y-24433714D02*
X27209048Y-24424190D01*
X27209048Y-24424190D02*
X27237619Y-24424190D01*
X27237619Y-24424190D02*
X27256667Y-24433714D01*
X27256667Y-24433714D02*
X27266190Y-24452762D01*
X27266190Y-24452762D02*
X27266190Y-24557524D01*
X27361429Y-24557524D02*
X27361429Y-24424190D01*
X27361429Y-24443238D02*
X27370952Y-24433714D01*
X27370952Y-24433714D02*
X27390000Y-24424190D01*
X27390000Y-24424190D02*
X27418571Y-24424190D01*
X27418571Y-24424190D02*
X27437619Y-24433714D01*
X27437619Y-24433714D02*
X27447143Y-24452762D01*
X27447143Y-24452762D02*
X27447143Y-24557524D01*
X27447143Y-24452762D02*
X27456667Y-24433714D01*
X27456667Y-24433714D02*
X27475714Y-24424190D01*
X27475714Y-24424190D02*
X27504286Y-24424190D01*
X27504286Y-24424190D02*
X27523333Y-24433714D01*
X27523333Y-24433714D02*
X27532857Y-24452762D01*
X27532857Y-24452762D02*
X27532857Y-24557524D01*
X27923333Y-24348000D02*
X27751905Y-24605143D01*
X28180476Y-24357524D02*
X28199524Y-24357524D01*
X28199524Y-24357524D02*
X28218572Y-24367048D01*
X28218572Y-24367048D02*
X28228095Y-24376571D01*
X28228095Y-24376571D02*
X28237619Y-24395619D01*
X28237619Y-24395619D02*
X28247143Y-24433714D01*
X28247143Y-24433714D02*
X28247143Y-24481333D01*
X28247143Y-24481333D02*
X28237619Y-24519428D01*
X28237619Y-24519428D02*
X28228095Y-24538476D01*
X28228095Y-24538476D02*
X28218572Y-24548000D01*
X28218572Y-24548000D02*
X28199524Y-24557524D01*
X28199524Y-24557524D02*
X28180476Y-24557524D01*
X28180476Y-24557524D02*
X28161429Y-24548000D01*
X28161429Y-24548000D02*
X28151905Y-24538476D01*
X28151905Y-24538476D02*
X28142381Y-24519428D01*
X28142381Y-24519428D02*
X28132857Y-24481333D01*
X28132857Y-24481333D02*
X28132857Y-24433714D01*
X28132857Y-24433714D02*
X28142381Y-24395619D01*
X28142381Y-24395619D02*
X28151905Y-24376571D01*
X28151905Y-24376571D02*
X28161429Y-24367048D01*
X28161429Y-24367048D02*
X28180476Y-24357524D01*
X28332857Y-24538476D02*
X28342381Y-24548000D01*
X28342381Y-24548000D02*
X28332857Y-24557524D01*
X28332857Y-24557524D02*
X28323333Y-24548000D01*
X28323333Y-24548000D02*
X28332857Y-24538476D01*
X28332857Y-24538476D02*
X28332857Y-24557524D01*
X28532857Y-24557524D02*
X28418572Y-24557524D01*
X28475714Y-24557524D02*
X28475714Y-24357524D01*
X28475714Y-24357524D02*
X28456667Y-24386095D01*
X28456667Y-24386095D02*
X28437619Y-24405143D01*
X28437619Y-24405143D02*
X28418572Y-24414667D01*
X28609048Y-24376571D02*
X28618572Y-24367048D01*
X28618572Y-24367048D02*
X28637619Y-24357524D01*
X28637619Y-24357524D02*
X28685238Y-24357524D01*
X28685238Y-24357524D02*
X28704286Y-24367048D01*
X28704286Y-24367048D02*
X28713810Y-24376571D01*
X28713810Y-24376571D02*
X28723333Y-24395619D01*
X28723333Y-24395619D02*
X28723333Y-24414667D01*
X28723333Y-24414667D02*
X28713810Y-24443238D01*
X28713810Y-24443238D02*
X28599524Y-24557524D01*
X28599524Y-24557524D02*
X28723333Y-24557524D01*
X28847143Y-24357524D02*
X28866191Y-24357524D01*
X28866191Y-24357524D02*
X28885238Y-24367048D01*
X28885238Y-24367048D02*
X28894762Y-24376571D01*
X28894762Y-24376571D02*
X28904286Y-24395619D01*
X28904286Y-24395619D02*
X28913810Y-24433714D01*
X28913810Y-24433714D02*
X28913810Y-24481333D01*
X28913810Y-24481333D02*
X28904286Y-24519428D01*
X28904286Y-24519428D02*
X28894762Y-24538476D01*
X28894762Y-24538476D02*
X28885238Y-24548000D01*
X28885238Y-24548000D02*
X28866191Y-24557524D01*
X28866191Y-24557524D02*
X28847143Y-24557524D01*
X28847143Y-24557524D02*
X28828095Y-24548000D01*
X28828095Y-24548000D02*
X28818572Y-24538476D01*
X28818572Y-24538476D02*
X28809048Y-24519428D01*
X28809048Y-24519428D02*
X28799524Y-24481333D01*
X28799524Y-24481333D02*
X28799524Y-24433714D01*
X28799524Y-24433714D02*
X28809048Y-24395619D01*
X28809048Y-24395619D02*
X28818572Y-24376571D01*
X28818572Y-24376571D02*
X28828095Y-24367048D01*
X28828095Y-24367048D02*
X28847143Y-24357524D01*
X29037619Y-24357524D02*
X29056667Y-24357524D01*
X29056667Y-24357524D02*
X29075714Y-24367048D01*
X29075714Y-24367048D02*
X29085238Y-24376571D01*
X29085238Y-24376571D02*
X29094762Y-24395619D01*
X29094762Y-24395619D02*
X29104286Y-24433714D01*
X29104286Y-24433714D02*
X29104286Y-24481333D01*
X29104286Y-24481333D02*
X29094762Y-24519428D01*
X29094762Y-24519428D02*
X29085238Y-24538476D01*
X29085238Y-24538476D02*
X29075714Y-24548000D01*
X29075714Y-24548000D02*
X29056667Y-24557524D01*
X29056667Y-24557524D02*
X29037619Y-24557524D01*
X29037619Y-24557524D02*
X29018572Y-24548000D01*
X29018572Y-24548000D02*
X29009048Y-24538476D01*
X29009048Y-24538476D02*
X28999524Y-24519428D01*
X28999524Y-24519428D02*
X28990000Y-24481333D01*
X28990000Y-24481333D02*
X28990000Y-24433714D01*
X28990000Y-24433714D02*
X28999524Y-24395619D01*
X28999524Y-24395619D02*
X29009048Y-24376571D01*
X29009048Y-24376571D02*
X29018572Y-24367048D01*
X29018572Y-24367048D02*
X29037619Y-24357524D01*
X29180476Y-24357524D02*
X29180476Y-24395619D01*
X29256667Y-24357524D02*
X29256667Y-24395619D01*
X29551905Y-24633714D02*
X29542381Y-24624190D01*
X29542381Y-24624190D02*
X29523334Y-24595619D01*
X29523334Y-24595619D02*
X29513810Y-24576571D01*
X29513810Y-24576571D02*
X29504286Y-24548000D01*
X29504286Y-24548000D02*
X29494762Y-24500381D01*
X29494762Y-24500381D02*
X29494762Y-24462286D01*
X29494762Y-24462286D02*
X29504286Y-24414667D01*
X29504286Y-24414667D02*
X29513810Y-24386095D01*
X29513810Y-24386095D02*
X29523334Y-24367048D01*
X29523334Y-24367048D02*
X29542381Y-24338476D01*
X29542381Y-24338476D02*
X29551905Y-24328952D01*
X29713810Y-24357524D02*
X29675714Y-24357524D01*
X29675714Y-24357524D02*
X29656667Y-24367048D01*
X29656667Y-24367048D02*
X29647143Y-24376571D01*
X29647143Y-24376571D02*
X29628095Y-24405143D01*
X29628095Y-24405143D02*
X29618572Y-24443238D01*
X29618572Y-24443238D02*
X29618572Y-24519428D01*
X29618572Y-24519428D02*
X29628095Y-24538476D01*
X29628095Y-24538476D02*
X29637619Y-24548000D01*
X29637619Y-24548000D02*
X29656667Y-24557524D01*
X29656667Y-24557524D02*
X29694762Y-24557524D01*
X29694762Y-24557524D02*
X29713810Y-24548000D01*
X29713810Y-24548000D02*
X29723334Y-24538476D01*
X29723334Y-24538476D02*
X29732857Y-24519428D01*
X29732857Y-24519428D02*
X29732857Y-24471809D01*
X29732857Y-24471809D02*
X29723334Y-24452762D01*
X29723334Y-24452762D02*
X29713810Y-24443238D01*
X29713810Y-24443238D02*
X29694762Y-24433714D01*
X29694762Y-24433714D02*
X29656667Y-24433714D01*
X29656667Y-24433714D02*
X29637619Y-24443238D01*
X29637619Y-24443238D02*
X29628095Y-24452762D01*
X29628095Y-24452762D02*
X29618572Y-24471809D01*
X29970953Y-24557524D02*
X29970953Y-24357524D01*
X30056667Y-24557524D02*
X30056667Y-24452762D01*
X30056667Y-24452762D02*
X30047143Y-24433714D01*
X30047143Y-24433714D02*
X30028096Y-24424190D01*
X30028096Y-24424190D02*
X29999524Y-24424190D01*
X29999524Y-24424190D02*
X29980476Y-24433714D01*
X29980476Y-24433714D02*
X29970953Y-24443238D01*
X30180476Y-24557524D02*
X30161429Y-24548000D01*
X30161429Y-24548000D02*
X30151905Y-24538476D01*
X30151905Y-24538476D02*
X30142381Y-24519428D01*
X30142381Y-24519428D02*
X30142381Y-24462286D01*
X30142381Y-24462286D02*
X30151905Y-24443238D01*
X30151905Y-24443238D02*
X30161429Y-24433714D01*
X30161429Y-24433714D02*
X30180476Y-24424190D01*
X30180476Y-24424190D02*
X30209048Y-24424190D01*
X30209048Y-24424190D02*
X30228096Y-24433714D01*
X30228096Y-24433714D02*
X30237619Y-24443238D01*
X30237619Y-24443238D02*
X30247143Y-24462286D01*
X30247143Y-24462286D02*
X30247143Y-24519428D01*
X30247143Y-24519428D02*
X30237619Y-24538476D01*
X30237619Y-24538476D02*
X30228096Y-24548000D01*
X30228096Y-24548000D02*
X30209048Y-24557524D01*
X30209048Y-24557524D02*
X30180476Y-24557524D01*
X30361429Y-24557524D02*
X30342381Y-24548000D01*
X30342381Y-24548000D02*
X30332857Y-24528952D01*
X30332857Y-24528952D02*
X30332857Y-24357524D01*
X30513810Y-24548000D02*
X30494762Y-24557524D01*
X30494762Y-24557524D02*
X30456667Y-24557524D01*
X30456667Y-24557524D02*
X30437619Y-24548000D01*
X30437619Y-24548000D02*
X30428096Y-24528952D01*
X30428096Y-24528952D02*
X30428096Y-24452762D01*
X30428096Y-24452762D02*
X30437619Y-24433714D01*
X30437619Y-24433714D02*
X30456667Y-24424190D01*
X30456667Y-24424190D02*
X30494762Y-24424190D01*
X30494762Y-24424190D02*
X30513810Y-24433714D01*
X30513810Y-24433714D02*
X30523334Y-24452762D01*
X30523334Y-24452762D02*
X30523334Y-24471809D01*
X30523334Y-24471809D02*
X30428096Y-24490857D01*
X30599524Y-24548000D02*
X30618572Y-24557524D01*
X30618572Y-24557524D02*
X30656667Y-24557524D01*
X30656667Y-24557524D02*
X30675715Y-24548000D01*
X30675715Y-24548000D02*
X30685238Y-24528952D01*
X30685238Y-24528952D02*
X30685238Y-24519428D01*
X30685238Y-24519428D02*
X30675715Y-24500381D01*
X30675715Y-24500381D02*
X30656667Y-24490857D01*
X30656667Y-24490857D02*
X30628096Y-24490857D01*
X30628096Y-24490857D02*
X30609048Y-24481333D01*
X30609048Y-24481333D02*
X30599524Y-24462286D01*
X30599524Y-24462286D02*
X30599524Y-24452762D01*
X30599524Y-24452762D02*
X30609048Y-24433714D01*
X30609048Y-24433714D02*
X30628096Y-24424190D01*
X30628096Y-24424190D02*
X30656667Y-24424190D01*
X30656667Y-24424190D02*
X30675715Y-24433714D01*
X30751905Y-24633714D02*
X30761429Y-24624190D01*
X30761429Y-24624190D02*
X30780477Y-24595619D01*
X30780477Y-24595619D02*
X30790000Y-24576571D01*
X30790000Y-24576571D02*
X30799524Y-24548000D01*
X30799524Y-24548000D02*
X30809048Y-24500381D01*
X30809048Y-24500381D02*
X30809048Y-24462286D01*
X30809048Y-24462286D02*
X30799524Y-24414667D01*
X30799524Y-24414667D02*
X30790000Y-24386095D01*
X30790000Y-24386095D02*
X30780477Y-24367048D01*
X30780477Y-24367048D02*
X30761429Y-24338476D01*
X30761429Y-24338476D02*
X30751905Y-24328952D01*
X31113810Y-24633714D02*
X31104286Y-24624190D01*
X31104286Y-24624190D02*
X31085238Y-24595619D01*
X31085238Y-24595619D02*
X31075715Y-24576571D01*
X31075715Y-24576571D02*
X31066191Y-24548000D01*
X31066191Y-24548000D02*
X31056667Y-24500381D01*
X31056667Y-24500381D02*
X31056667Y-24462286D01*
X31056667Y-24462286D02*
X31066191Y-24414667D01*
X31066191Y-24414667D02*
X31075715Y-24386095D01*
X31075715Y-24386095D02*
X31085238Y-24367048D01*
X31085238Y-24367048D02*
X31104286Y-24338476D01*
X31104286Y-24338476D02*
X31113810Y-24328952D01*
X31190000Y-24424190D02*
X31190000Y-24557524D01*
X31190000Y-24443238D02*
X31199524Y-24433714D01*
X31199524Y-24433714D02*
X31218572Y-24424190D01*
X31218572Y-24424190D02*
X31247143Y-24424190D01*
X31247143Y-24424190D02*
X31266191Y-24433714D01*
X31266191Y-24433714D02*
X31275715Y-24452762D01*
X31275715Y-24452762D02*
X31275715Y-24557524D01*
X31399524Y-24557524D02*
X31380477Y-24548000D01*
X31380477Y-24548000D02*
X31370953Y-24538476D01*
X31370953Y-24538476D02*
X31361429Y-24519428D01*
X31361429Y-24519428D02*
X31361429Y-24462286D01*
X31361429Y-24462286D02*
X31370953Y-24443238D01*
X31370953Y-24443238D02*
X31380477Y-24433714D01*
X31380477Y-24433714D02*
X31399524Y-24424190D01*
X31399524Y-24424190D02*
X31428096Y-24424190D01*
X31428096Y-24424190D02*
X31447143Y-24433714D01*
X31447143Y-24433714D02*
X31456667Y-24443238D01*
X31456667Y-24443238D02*
X31466191Y-24462286D01*
X31466191Y-24462286D02*
X31466191Y-24519428D01*
X31466191Y-24519428D02*
X31456667Y-24538476D01*
X31456667Y-24538476D02*
X31447143Y-24548000D01*
X31447143Y-24548000D02*
X31428096Y-24557524D01*
X31428096Y-24557524D02*
X31399524Y-24557524D01*
X31523334Y-24424190D02*
X31599524Y-24424190D01*
X31551905Y-24357524D02*
X31551905Y-24528952D01*
X31551905Y-24528952D02*
X31561429Y-24548000D01*
X31561429Y-24548000D02*
X31580477Y-24557524D01*
X31580477Y-24557524D02*
X31599524Y-24557524D01*
X31818572Y-24424190D02*
X31818572Y-24624190D01*
X31818572Y-24433714D02*
X31837619Y-24424190D01*
X31837619Y-24424190D02*
X31875715Y-24424190D01*
X31875715Y-24424190D02*
X31894762Y-24433714D01*
X31894762Y-24433714D02*
X31904286Y-24443238D01*
X31904286Y-24443238D02*
X31913810Y-24462286D01*
X31913810Y-24462286D02*
X31913810Y-24519428D01*
X31913810Y-24519428D02*
X31904286Y-24538476D01*
X31904286Y-24538476D02*
X31894762Y-24548000D01*
X31894762Y-24548000D02*
X31875715Y-24557524D01*
X31875715Y-24557524D02*
X31837619Y-24557524D01*
X31837619Y-24557524D02*
X31818572Y-24548000D01*
X32028096Y-24557524D02*
X32009048Y-24548000D01*
X32009048Y-24548000D02*
X31999524Y-24528952D01*
X31999524Y-24528952D02*
X31999524Y-24357524D01*
X32190000Y-24557524D02*
X32190000Y-24452762D01*
X32190000Y-24452762D02*
X32180477Y-24433714D01*
X32180477Y-24433714D02*
X32161429Y-24424190D01*
X32161429Y-24424190D02*
X32123334Y-24424190D01*
X32123334Y-24424190D02*
X32104286Y-24433714D01*
X32190000Y-24548000D02*
X32170953Y-24557524D01*
X32170953Y-24557524D02*
X32123334Y-24557524D01*
X32123334Y-24557524D02*
X32104286Y-24548000D01*
X32104286Y-24548000D02*
X32094762Y-24528952D01*
X32094762Y-24528952D02*
X32094762Y-24509905D01*
X32094762Y-24509905D02*
X32104286Y-24490857D01*
X32104286Y-24490857D02*
X32123334Y-24481333D01*
X32123334Y-24481333D02*
X32170953Y-24481333D01*
X32170953Y-24481333D02*
X32190000Y-24471809D01*
X32256667Y-24424190D02*
X32332858Y-24424190D01*
X32285239Y-24357524D02*
X32285239Y-24528952D01*
X32285239Y-24528952D02*
X32294762Y-24548000D01*
X32294762Y-24548000D02*
X32313810Y-24557524D01*
X32313810Y-24557524D02*
X32332858Y-24557524D01*
X32475715Y-24548000D02*
X32456667Y-24557524D01*
X32456667Y-24557524D02*
X32418572Y-24557524D01*
X32418572Y-24557524D02*
X32399524Y-24548000D01*
X32399524Y-24548000D02*
X32390000Y-24528952D01*
X32390000Y-24528952D02*
X32390000Y-24452762D01*
X32390000Y-24452762D02*
X32399524Y-24433714D01*
X32399524Y-24433714D02*
X32418572Y-24424190D01*
X32418572Y-24424190D02*
X32456667Y-24424190D01*
X32456667Y-24424190D02*
X32475715Y-24433714D01*
X32475715Y-24433714D02*
X32485239Y-24452762D01*
X32485239Y-24452762D02*
X32485239Y-24471809D01*
X32485239Y-24471809D02*
X32390000Y-24490857D01*
X32656667Y-24557524D02*
X32656667Y-24357524D01*
X32656667Y-24548000D02*
X32637620Y-24557524D01*
X32637620Y-24557524D02*
X32599524Y-24557524D01*
X32599524Y-24557524D02*
X32580477Y-24548000D01*
X32580477Y-24548000D02*
X32570953Y-24538476D01*
X32570953Y-24538476D02*
X32561429Y-24519428D01*
X32561429Y-24519428D02*
X32561429Y-24462286D01*
X32561429Y-24462286D02*
X32570953Y-24443238D01*
X32570953Y-24443238D02*
X32580477Y-24433714D01*
X32580477Y-24433714D02*
X32599524Y-24424190D01*
X32599524Y-24424190D02*
X32637620Y-24424190D01*
X32637620Y-24424190D02*
X32656667Y-24433714D01*
X32732858Y-24633714D02*
X32742381Y-24624190D01*
X32742381Y-24624190D02*
X32761429Y-24595619D01*
X32761429Y-24595619D02*
X32770953Y-24576571D01*
X32770953Y-24576571D02*
X32780477Y-24548000D01*
X32780477Y-24548000D02*
X32790000Y-24500381D01*
X32790000Y-24500381D02*
X32790000Y-24462286D01*
X32790000Y-24462286D02*
X32780477Y-24414667D01*
X32780477Y-24414667D02*
X32770953Y-24386095D01*
X32770953Y-24386095D02*
X32761429Y-24367048D01*
X32761429Y-24367048D02*
X32742381Y-24338476D01*
X32742381Y-24338476D02*
X32732858Y-24328952D01*
X25960711Y-24855711D02*
X25960711Y-24714289D01*
X25819289Y-24714289D01*
X25819289Y-24855711D01*
X25960711Y-24855711D01*
X26218571Y-24677524D02*
X26342381Y-24677524D01*
X26342381Y-24677524D02*
X26275714Y-24753714D01*
X26275714Y-24753714D02*
X26304286Y-24753714D01*
X26304286Y-24753714D02*
X26323333Y-24763238D01*
X26323333Y-24763238D02*
X26332857Y-24772762D01*
X26332857Y-24772762D02*
X26342381Y-24791809D01*
X26342381Y-24791809D02*
X26342381Y-24839428D01*
X26342381Y-24839428D02*
X26332857Y-24858476D01*
X26332857Y-24858476D02*
X26323333Y-24868000D01*
X26323333Y-24868000D02*
X26304286Y-24877524D01*
X26304286Y-24877524D02*
X26247143Y-24877524D01*
X26247143Y-24877524D02*
X26228095Y-24868000D01*
X26228095Y-24868000D02*
X26218571Y-24858476D01*
X26428095Y-24858476D02*
X26437619Y-24868000D01*
X26437619Y-24868000D02*
X26428095Y-24877524D01*
X26428095Y-24877524D02*
X26418571Y-24868000D01*
X26418571Y-24868000D02*
X26428095Y-24858476D01*
X26428095Y-24858476D02*
X26428095Y-24877524D01*
X26532857Y-24877524D02*
X26570952Y-24877524D01*
X26570952Y-24877524D02*
X26590000Y-24868000D01*
X26590000Y-24868000D02*
X26599524Y-24858476D01*
X26599524Y-24858476D02*
X26618571Y-24829905D01*
X26618571Y-24829905D02*
X26628095Y-24791809D01*
X26628095Y-24791809D02*
X26628095Y-24715619D01*
X26628095Y-24715619D02*
X26618571Y-24696571D01*
X26618571Y-24696571D02*
X26609048Y-24687048D01*
X26609048Y-24687048D02*
X26590000Y-24677524D01*
X26590000Y-24677524D02*
X26551905Y-24677524D01*
X26551905Y-24677524D02*
X26532857Y-24687048D01*
X26532857Y-24687048D02*
X26523333Y-24696571D01*
X26523333Y-24696571D02*
X26513809Y-24715619D01*
X26513809Y-24715619D02*
X26513809Y-24763238D01*
X26513809Y-24763238D02*
X26523333Y-24782286D01*
X26523333Y-24782286D02*
X26532857Y-24791809D01*
X26532857Y-24791809D02*
X26551905Y-24801333D01*
X26551905Y-24801333D02*
X26590000Y-24801333D01*
X26590000Y-24801333D02*
X26609048Y-24791809D01*
X26609048Y-24791809D02*
X26618571Y-24782286D01*
X26618571Y-24782286D02*
X26628095Y-24763238D01*
X26742381Y-24763238D02*
X26723333Y-24753714D01*
X26723333Y-24753714D02*
X26713809Y-24744190D01*
X26713809Y-24744190D02*
X26704286Y-24725143D01*
X26704286Y-24725143D02*
X26704286Y-24715619D01*
X26704286Y-24715619D02*
X26713809Y-24696571D01*
X26713809Y-24696571D02*
X26723333Y-24687048D01*
X26723333Y-24687048D02*
X26742381Y-24677524D01*
X26742381Y-24677524D02*
X26780476Y-24677524D01*
X26780476Y-24677524D02*
X26799524Y-24687048D01*
X26799524Y-24687048D02*
X26809048Y-24696571D01*
X26809048Y-24696571D02*
X26818571Y-24715619D01*
X26818571Y-24715619D02*
X26818571Y-24725143D01*
X26818571Y-24725143D02*
X26809048Y-24744190D01*
X26809048Y-24744190D02*
X26799524Y-24753714D01*
X26799524Y-24753714D02*
X26780476Y-24763238D01*
X26780476Y-24763238D02*
X26742381Y-24763238D01*
X26742381Y-24763238D02*
X26723333Y-24772762D01*
X26723333Y-24772762D02*
X26713809Y-24782286D01*
X26713809Y-24782286D02*
X26704286Y-24801333D01*
X26704286Y-24801333D02*
X26704286Y-24839428D01*
X26704286Y-24839428D02*
X26713809Y-24858476D01*
X26713809Y-24858476D02*
X26723333Y-24868000D01*
X26723333Y-24868000D02*
X26742381Y-24877524D01*
X26742381Y-24877524D02*
X26780476Y-24877524D01*
X26780476Y-24877524D02*
X26799524Y-24868000D01*
X26799524Y-24868000D02*
X26809048Y-24858476D01*
X26809048Y-24858476D02*
X26818571Y-24839428D01*
X26818571Y-24839428D02*
X26818571Y-24801333D01*
X26818571Y-24801333D02*
X26809048Y-24782286D01*
X26809048Y-24782286D02*
X26799524Y-24772762D01*
X26799524Y-24772762D02*
X26780476Y-24763238D01*
X26932857Y-24763238D02*
X26913809Y-24753714D01*
X26913809Y-24753714D02*
X26904286Y-24744190D01*
X26904286Y-24744190D02*
X26894762Y-24725143D01*
X26894762Y-24725143D02*
X26894762Y-24715619D01*
X26894762Y-24715619D02*
X26904286Y-24696571D01*
X26904286Y-24696571D02*
X26913809Y-24687048D01*
X26913809Y-24687048D02*
X26932857Y-24677524D01*
X26932857Y-24677524D02*
X26970952Y-24677524D01*
X26970952Y-24677524D02*
X26990000Y-24687048D01*
X26990000Y-24687048D02*
X26999524Y-24696571D01*
X26999524Y-24696571D02*
X27009048Y-24715619D01*
X27009048Y-24715619D02*
X27009048Y-24725143D01*
X27009048Y-24725143D02*
X26999524Y-24744190D01*
X26999524Y-24744190D02*
X26990000Y-24753714D01*
X26990000Y-24753714D02*
X26970952Y-24763238D01*
X26970952Y-24763238D02*
X26932857Y-24763238D01*
X26932857Y-24763238D02*
X26913809Y-24772762D01*
X26913809Y-24772762D02*
X26904286Y-24782286D01*
X26904286Y-24782286D02*
X26894762Y-24801333D01*
X26894762Y-24801333D02*
X26894762Y-24839428D01*
X26894762Y-24839428D02*
X26904286Y-24858476D01*
X26904286Y-24858476D02*
X26913809Y-24868000D01*
X26913809Y-24868000D02*
X26932857Y-24877524D01*
X26932857Y-24877524D02*
X26970952Y-24877524D01*
X26970952Y-24877524D02*
X26990000Y-24868000D01*
X26990000Y-24868000D02*
X26999524Y-24858476D01*
X26999524Y-24858476D02*
X27009048Y-24839428D01*
X27009048Y-24839428D02*
X27009048Y-24801333D01*
X27009048Y-24801333D02*
X26999524Y-24782286D01*
X26999524Y-24782286D02*
X26990000Y-24772762D01*
X26990000Y-24772762D02*
X26970952Y-24763238D01*
X27094762Y-24877524D02*
X27094762Y-24744190D01*
X27094762Y-24763238D02*
X27104286Y-24753714D01*
X27104286Y-24753714D02*
X27123333Y-24744190D01*
X27123333Y-24744190D02*
X27151905Y-24744190D01*
X27151905Y-24744190D02*
X27170952Y-24753714D01*
X27170952Y-24753714D02*
X27180476Y-24772762D01*
X27180476Y-24772762D02*
X27180476Y-24877524D01*
X27180476Y-24772762D02*
X27190000Y-24753714D01*
X27190000Y-24753714D02*
X27209048Y-24744190D01*
X27209048Y-24744190D02*
X27237619Y-24744190D01*
X27237619Y-24744190D02*
X27256667Y-24753714D01*
X27256667Y-24753714D02*
X27266190Y-24772762D01*
X27266190Y-24772762D02*
X27266190Y-24877524D01*
X27361429Y-24877524D02*
X27361429Y-24744190D01*
X27361429Y-24763238D02*
X27370952Y-24753714D01*
X27370952Y-24753714D02*
X27390000Y-24744190D01*
X27390000Y-24744190D02*
X27418571Y-24744190D01*
X27418571Y-24744190D02*
X27437619Y-24753714D01*
X27437619Y-24753714D02*
X27447143Y-24772762D01*
X27447143Y-24772762D02*
X27447143Y-24877524D01*
X27447143Y-24772762D02*
X27456667Y-24753714D01*
X27456667Y-24753714D02*
X27475714Y-24744190D01*
X27475714Y-24744190D02*
X27504286Y-24744190D01*
X27504286Y-24744190D02*
X27523333Y-24753714D01*
X27523333Y-24753714D02*
X27532857Y-24772762D01*
X27532857Y-24772762D02*
X27532857Y-24877524D01*
X27923333Y-24668000D02*
X27751905Y-24925143D01*
X28180476Y-24677524D02*
X28199524Y-24677524D01*
X28199524Y-24677524D02*
X28218572Y-24687048D01*
X28218572Y-24687048D02*
X28228095Y-24696571D01*
X28228095Y-24696571D02*
X28237619Y-24715619D01*
X28237619Y-24715619D02*
X28247143Y-24753714D01*
X28247143Y-24753714D02*
X28247143Y-24801333D01*
X28247143Y-24801333D02*
X28237619Y-24839428D01*
X28237619Y-24839428D02*
X28228095Y-24858476D01*
X28228095Y-24858476D02*
X28218572Y-24868000D01*
X28218572Y-24868000D02*
X28199524Y-24877524D01*
X28199524Y-24877524D02*
X28180476Y-24877524D01*
X28180476Y-24877524D02*
X28161429Y-24868000D01*
X28161429Y-24868000D02*
X28151905Y-24858476D01*
X28151905Y-24858476D02*
X28142381Y-24839428D01*
X28142381Y-24839428D02*
X28132857Y-24801333D01*
X28132857Y-24801333D02*
X28132857Y-24753714D01*
X28132857Y-24753714D02*
X28142381Y-24715619D01*
X28142381Y-24715619D02*
X28151905Y-24696571D01*
X28151905Y-24696571D02*
X28161429Y-24687048D01*
X28161429Y-24687048D02*
X28180476Y-24677524D01*
X28332857Y-24858476D02*
X28342381Y-24868000D01*
X28342381Y-24868000D02*
X28332857Y-24877524D01*
X28332857Y-24877524D02*
X28323333Y-24868000D01*
X28323333Y-24868000D02*
X28332857Y-24858476D01*
X28332857Y-24858476D02*
X28332857Y-24877524D01*
X28532857Y-24877524D02*
X28418572Y-24877524D01*
X28475714Y-24877524D02*
X28475714Y-24677524D01*
X28475714Y-24677524D02*
X28456667Y-24706095D01*
X28456667Y-24706095D02*
X28437619Y-24725143D01*
X28437619Y-24725143D02*
X28418572Y-24734667D01*
X28713810Y-24677524D02*
X28618572Y-24677524D01*
X28618572Y-24677524D02*
X28609048Y-24772762D01*
X28609048Y-24772762D02*
X28618572Y-24763238D01*
X28618572Y-24763238D02*
X28637619Y-24753714D01*
X28637619Y-24753714D02*
X28685238Y-24753714D01*
X28685238Y-24753714D02*
X28704286Y-24763238D01*
X28704286Y-24763238D02*
X28713810Y-24772762D01*
X28713810Y-24772762D02*
X28723333Y-24791809D01*
X28723333Y-24791809D02*
X28723333Y-24839428D01*
X28723333Y-24839428D02*
X28713810Y-24858476D01*
X28713810Y-24858476D02*
X28704286Y-24868000D01*
X28704286Y-24868000D02*
X28685238Y-24877524D01*
X28685238Y-24877524D02*
X28637619Y-24877524D01*
X28637619Y-24877524D02*
X28618572Y-24868000D01*
X28618572Y-24868000D02*
X28609048Y-24858476D01*
X28790000Y-24677524D02*
X28923333Y-24677524D01*
X28923333Y-24677524D02*
X28837619Y-24877524D01*
X29037619Y-24677524D02*
X29056667Y-24677524D01*
X29056667Y-24677524D02*
X29075714Y-24687048D01*
X29075714Y-24687048D02*
X29085238Y-24696571D01*
X29085238Y-24696571D02*
X29094762Y-24715619D01*
X29094762Y-24715619D02*
X29104286Y-24753714D01*
X29104286Y-24753714D02*
X29104286Y-24801333D01*
X29104286Y-24801333D02*
X29094762Y-24839428D01*
X29094762Y-24839428D02*
X29085238Y-24858476D01*
X29085238Y-24858476D02*
X29075714Y-24868000D01*
X29075714Y-24868000D02*
X29056667Y-24877524D01*
X29056667Y-24877524D02*
X29037619Y-24877524D01*
X29037619Y-24877524D02*
X29018572Y-24868000D01*
X29018572Y-24868000D02*
X29009048Y-24858476D01*
X29009048Y-24858476D02*
X28999524Y-24839428D01*
X28999524Y-24839428D02*
X28990000Y-24801333D01*
X28990000Y-24801333D02*
X28990000Y-24753714D01*
X28990000Y-24753714D02*
X28999524Y-24715619D01*
X28999524Y-24715619D02*
X29009048Y-24696571D01*
X29009048Y-24696571D02*
X29018572Y-24687048D01*
X29018572Y-24687048D02*
X29037619Y-24677524D01*
X29180476Y-24677524D02*
X29180476Y-24715619D01*
X29256667Y-24677524D02*
X29256667Y-24715619D01*
X29551905Y-24953714D02*
X29542381Y-24944190D01*
X29542381Y-24944190D02*
X29523334Y-24915619D01*
X29523334Y-24915619D02*
X29513810Y-24896571D01*
X29513810Y-24896571D02*
X29504286Y-24868000D01*
X29504286Y-24868000D02*
X29494762Y-24820381D01*
X29494762Y-24820381D02*
X29494762Y-24782286D01*
X29494762Y-24782286D02*
X29504286Y-24734667D01*
X29504286Y-24734667D02*
X29513810Y-24706095D01*
X29513810Y-24706095D02*
X29523334Y-24687048D01*
X29523334Y-24687048D02*
X29542381Y-24658476D01*
X29542381Y-24658476D02*
X29551905Y-24648952D01*
X29618572Y-24696571D02*
X29628095Y-24687048D01*
X29628095Y-24687048D02*
X29647143Y-24677524D01*
X29647143Y-24677524D02*
X29694762Y-24677524D01*
X29694762Y-24677524D02*
X29713810Y-24687048D01*
X29713810Y-24687048D02*
X29723334Y-24696571D01*
X29723334Y-24696571D02*
X29732857Y-24715619D01*
X29732857Y-24715619D02*
X29732857Y-24734667D01*
X29732857Y-24734667D02*
X29723334Y-24763238D01*
X29723334Y-24763238D02*
X29609048Y-24877524D01*
X29609048Y-24877524D02*
X29732857Y-24877524D01*
X29799524Y-24677524D02*
X29923334Y-24677524D01*
X29923334Y-24677524D02*
X29856667Y-24753714D01*
X29856667Y-24753714D02*
X29885238Y-24753714D01*
X29885238Y-24753714D02*
X29904286Y-24763238D01*
X29904286Y-24763238D02*
X29913810Y-24772762D01*
X29913810Y-24772762D02*
X29923334Y-24791809D01*
X29923334Y-24791809D02*
X29923334Y-24839428D01*
X29923334Y-24839428D02*
X29913810Y-24858476D01*
X29913810Y-24858476D02*
X29904286Y-24868000D01*
X29904286Y-24868000D02*
X29885238Y-24877524D01*
X29885238Y-24877524D02*
X29828095Y-24877524D01*
X29828095Y-24877524D02*
X29809048Y-24868000D01*
X29809048Y-24868000D02*
X29799524Y-24858476D01*
X30161429Y-24877524D02*
X30161429Y-24677524D01*
X30247143Y-24877524D02*
X30247143Y-24772762D01*
X30247143Y-24772762D02*
X30237619Y-24753714D01*
X30237619Y-24753714D02*
X30218572Y-24744190D01*
X30218572Y-24744190D02*
X30190000Y-24744190D01*
X30190000Y-24744190D02*
X30170953Y-24753714D01*
X30170953Y-24753714D02*
X30161429Y-24763238D01*
X30370953Y-24877524D02*
X30351905Y-24868000D01*
X30351905Y-24868000D02*
X30342381Y-24858476D01*
X30342381Y-24858476D02*
X30332857Y-24839428D01*
X30332857Y-24839428D02*
X30332857Y-24782286D01*
X30332857Y-24782286D02*
X30342381Y-24763238D01*
X30342381Y-24763238D02*
X30351905Y-24753714D01*
X30351905Y-24753714D02*
X30370953Y-24744190D01*
X30370953Y-24744190D02*
X30399524Y-24744190D01*
X30399524Y-24744190D02*
X30418572Y-24753714D01*
X30418572Y-24753714D02*
X30428096Y-24763238D01*
X30428096Y-24763238D02*
X30437619Y-24782286D01*
X30437619Y-24782286D02*
X30437619Y-24839428D01*
X30437619Y-24839428D02*
X30428096Y-24858476D01*
X30428096Y-24858476D02*
X30418572Y-24868000D01*
X30418572Y-24868000D02*
X30399524Y-24877524D01*
X30399524Y-24877524D02*
X30370953Y-24877524D01*
X30551905Y-24877524D02*
X30532857Y-24868000D01*
X30532857Y-24868000D02*
X30523334Y-24848952D01*
X30523334Y-24848952D02*
X30523334Y-24677524D01*
X30704286Y-24868000D02*
X30685238Y-24877524D01*
X30685238Y-24877524D02*
X30647143Y-24877524D01*
X30647143Y-24877524D02*
X30628096Y-24868000D01*
X30628096Y-24868000D02*
X30618572Y-24848952D01*
X30618572Y-24848952D02*
X30618572Y-24772762D01*
X30618572Y-24772762D02*
X30628096Y-24753714D01*
X30628096Y-24753714D02*
X30647143Y-24744190D01*
X30647143Y-24744190D02*
X30685238Y-24744190D01*
X30685238Y-24744190D02*
X30704286Y-24753714D01*
X30704286Y-24753714D02*
X30713810Y-24772762D01*
X30713810Y-24772762D02*
X30713810Y-24791809D01*
X30713810Y-24791809D02*
X30618572Y-24810857D01*
X30790000Y-24868000D02*
X30809048Y-24877524D01*
X30809048Y-24877524D02*
X30847143Y-24877524D01*
X30847143Y-24877524D02*
X30866191Y-24868000D01*
X30866191Y-24868000D02*
X30875715Y-24848952D01*
X30875715Y-24848952D02*
X30875715Y-24839428D01*
X30875715Y-24839428D02*
X30866191Y-24820381D01*
X30866191Y-24820381D02*
X30847143Y-24810857D01*
X30847143Y-24810857D02*
X30818572Y-24810857D01*
X30818572Y-24810857D02*
X30799524Y-24801333D01*
X30799524Y-24801333D02*
X30790000Y-24782286D01*
X30790000Y-24782286D02*
X30790000Y-24772762D01*
X30790000Y-24772762D02*
X30799524Y-24753714D01*
X30799524Y-24753714D02*
X30818572Y-24744190D01*
X30818572Y-24744190D02*
X30847143Y-24744190D01*
X30847143Y-24744190D02*
X30866191Y-24753714D01*
X30942381Y-24953714D02*
X30951905Y-24944190D01*
X30951905Y-24944190D02*
X30970953Y-24915619D01*
X30970953Y-24915619D02*
X30980477Y-24896571D01*
X30980477Y-24896571D02*
X30990000Y-24868000D01*
X30990000Y-24868000D02*
X30999524Y-24820381D01*
X30999524Y-24820381D02*
X30999524Y-24782286D01*
X30999524Y-24782286D02*
X30990000Y-24734667D01*
X30990000Y-24734667D02*
X30980477Y-24706095D01*
X30980477Y-24706095D02*
X30970953Y-24687048D01*
X30970953Y-24687048D02*
X30951905Y-24658476D01*
X30951905Y-24658476D02*
X30942381Y-24648952D01*
X31304286Y-24953714D02*
X31294762Y-24944190D01*
X31294762Y-24944190D02*
X31275715Y-24915619D01*
X31275715Y-24915619D02*
X31266191Y-24896571D01*
X31266191Y-24896571D02*
X31256667Y-24868000D01*
X31256667Y-24868000D02*
X31247143Y-24820381D01*
X31247143Y-24820381D02*
X31247143Y-24782286D01*
X31247143Y-24782286D02*
X31256667Y-24734667D01*
X31256667Y-24734667D02*
X31266191Y-24706095D01*
X31266191Y-24706095D02*
X31275715Y-24687048D01*
X31275715Y-24687048D02*
X31294762Y-24658476D01*
X31294762Y-24658476D02*
X31304286Y-24648952D01*
X31380477Y-24744190D02*
X31380477Y-24877524D01*
X31380477Y-24763238D02*
X31390000Y-24753714D01*
X31390000Y-24753714D02*
X31409048Y-24744190D01*
X31409048Y-24744190D02*
X31437619Y-24744190D01*
X31437619Y-24744190D02*
X31456667Y-24753714D01*
X31456667Y-24753714D02*
X31466191Y-24772762D01*
X31466191Y-24772762D02*
X31466191Y-24877524D01*
X31590000Y-24877524D02*
X31570953Y-24868000D01*
X31570953Y-24868000D02*
X31561429Y-24858476D01*
X31561429Y-24858476D02*
X31551905Y-24839428D01*
X31551905Y-24839428D02*
X31551905Y-24782286D01*
X31551905Y-24782286D02*
X31561429Y-24763238D01*
X31561429Y-24763238D02*
X31570953Y-24753714D01*
X31570953Y-24753714D02*
X31590000Y-24744190D01*
X31590000Y-24744190D02*
X31618572Y-24744190D01*
X31618572Y-24744190D02*
X31637619Y-24753714D01*
X31637619Y-24753714D02*
X31647143Y-24763238D01*
X31647143Y-24763238D02*
X31656667Y-24782286D01*
X31656667Y-24782286D02*
X31656667Y-24839428D01*
X31656667Y-24839428D02*
X31647143Y-24858476D01*
X31647143Y-24858476D02*
X31637619Y-24868000D01*
X31637619Y-24868000D02*
X31618572Y-24877524D01*
X31618572Y-24877524D02*
X31590000Y-24877524D01*
X31713810Y-24744190D02*
X31790000Y-24744190D01*
X31742381Y-24677524D02*
X31742381Y-24848952D01*
X31742381Y-24848952D02*
X31751905Y-24868000D01*
X31751905Y-24868000D02*
X31770953Y-24877524D01*
X31770953Y-24877524D02*
X31790000Y-24877524D01*
X32009048Y-24744190D02*
X32009048Y-24944190D01*
X32009048Y-24753714D02*
X32028096Y-24744190D01*
X32028096Y-24744190D02*
X32066191Y-24744190D01*
X32066191Y-24744190D02*
X32085239Y-24753714D01*
X32085239Y-24753714D02*
X32094762Y-24763238D01*
X32094762Y-24763238D02*
X32104286Y-24782286D01*
X32104286Y-24782286D02*
X32104286Y-24839428D01*
X32104286Y-24839428D02*
X32094762Y-24858476D01*
X32094762Y-24858476D02*
X32085239Y-24868000D01*
X32085239Y-24868000D02*
X32066191Y-24877524D01*
X32066191Y-24877524D02*
X32028096Y-24877524D01*
X32028096Y-24877524D02*
X32009048Y-24868000D01*
X32218572Y-24877524D02*
X32199524Y-24868000D01*
X32199524Y-24868000D02*
X32190000Y-24848952D01*
X32190000Y-24848952D02*
X32190000Y-24677524D01*
X32380477Y-24877524D02*
X32380477Y-24772762D01*
X32380477Y-24772762D02*
X32370953Y-24753714D01*
X32370953Y-24753714D02*
X32351905Y-24744190D01*
X32351905Y-24744190D02*
X32313810Y-24744190D01*
X32313810Y-24744190D02*
X32294762Y-24753714D01*
X32380477Y-24868000D02*
X32361429Y-24877524D01*
X32361429Y-24877524D02*
X32313810Y-24877524D01*
X32313810Y-24877524D02*
X32294762Y-24868000D01*
X32294762Y-24868000D02*
X32285239Y-24848952D01*
X32285239Y-24848952D02*
X32285239Y-24829905D01*
X32285239Y-24829905D02*
X32294762Y-24810857D01*
X32294762Y-24810857D02*
X32313810Y-24801333D01*
X32313810Y-24801333D02*
X32361429Y-24801333D01*
X32361429Y-24801333D02*
X32380477Y-24791809D01*
X32447143Y-24744190D02*
X32523334Y-24744190D01*
X32475715Y-24677524D02*
X32475715Y-24848952D01*
X32475715Y-24848952D02*
X32485239Y-24868000D01*
X32485239Y-24868000D02*
X32504286Y-24877524D01*
X32504286Y-24877524D02*
X32523334Y-24877524D01*
X32666191Y-24868000D02*
X32647143Y-24877524D01*
X32647143Y-24877524D02*
X32609048Y-24877524D01*
X32609048Y-24877524D02*
X32590000Y-24868000D01*
X32590000Y-24868000D02*
X32580477Y-24848952D01*
X32580477Y-24848952D02*
X32580477Y-24772762D01*
X32580477Y-24772762D02*
X32590000Y-24753714D01*
X32590000Y-24753714D02*
X32609048Y-24744190D01*
X32609048Y-24744190D02*
X32647143Y-24744190D01*
X32647143Y-24744190D02*
X32666191Y-24753714D01*
X32666191Y-24753714D02*
X32675715Y-24772762D01*
X32675715Y-24772762D02*
X32675715Y-24791809D01*
X32675715Y-24791809D02*
X32580477Y-24810857D01*
X32847143Y-24877524D02*
X32847143Y-24677524D01*
X32847143Y-24868000D02*
X32828096Y-24877524D01*
X32828096Y-24877524D02*
X32790000Y-24877524D01*
X32790000Y-24877524D02*
X32770953Y-24868000D01*
X32770953Y-24868000D02*
X32761429Y-24858476D01*
X32761429Y-24858476D02*
X32751905Y-24839428D01*
X32751905Y-24839428D02*
X32751905Y-24782286D01*
X32751905Y-24782286D02*
X32761429Y-24763238D01*
X32761429Y-24763238D02*
X32770953Y-24753714D01*
X32770953Y-24753714D02*
X32790000Y-24744190D01*
X32790000Y-24744190D02*
X32828096Y-24744190D01*
X32828096Y-24744190D02*
X32847143Y-24753714D01*
X32923334Y-24953714D02*
X32932858Y-24944190D01*
X32932858Y-24944190D02*
X32951905Y-24915619D01*
X32951905Y-24915619D02*
X32961429Y-24896571D01*
X32961429Y-24896571D02*
X32970953Y-24868000D01*
X32970953Y-24868000D02*
X32980477Y-24820381D01*
X32980477Y-24820381D02*
X32980477Y-24782286D01*
X32980477Y-24782286D02*
X32970953Y-24734667D01*
X32970953Y-24734667D02*
X32961429Y-24706095D01*
X32961429Y-24706095D02*
X32951905Y-24687048D01*
X32951905Y-24687048D02*
X32932858Y-24658476D01*
X32932858Y-24658476D02*
X32923334Y-24648952D01*
M02*
