G04 #@! TF.GenerationSoftware,KiCad,Pcbnew,7.0.1*
G04 #@! TF.CreationDate,2023-10-11T20:02:21-04:00*
G04 #@! TF.ProjectId,keyboard,6b657962-6f61-4726-942e-6b696361645f,rev?*
G04 #@! TF.SameCoordinates,Original*
G04 #@! TF.FileFunction,Legend,Bot*
G04 #@! TF.FilePolarity,Positive*
%FSLAX46Y46*%
G04 Gerber Fmt 4.6, Leading zero omitted, Abs format (unit mm)*
G04 Created by KiCad (PCBNEW 7.0.1) date 2023-10-11 20:02:21*
%MOMM*%
%LPD*%
G01*
G04 APERTURE LIST*
%ADD10C,0.150000*%
%ADD11C,0.120000*%
G04 APERTURE END LIST*
D10*
X320982619Y-218974762D02*
X319982619Y-218974762D01*
X319982619Y-218974762D02*
X319982619Y-219212857D01*
X319982619Y-219212857D02*
X320030238Y-219355714D01*
X320030238Y-219355714D02*
X320125476Y-219450952D01*
X320125476Y-219450952D02*
X320220714Y-219498571D01*
X320220714Y-219498571D02*
X320411190Y-219546190D01*
X320411190Y-219546190D02*
X320554047Y-219546190D01*
X320554047Y-219546190D02*
X320744523Y-219498571D01*
X320744523Y-219498571D02*
X320839761Y-219450952D01*
X320839761Y-219450952D02*
X320935000Y-219355714D01*
X320935000Y-219355714D02*
X320982619Y-219212857D01*
X320982619Y-219212857D02*
X320982619Y-218974762D01*
X321077857Y-219736667D02*
X321077857Y-220498571D01*
X320982619Y-221260476D02*
X320982619Y-220689048D01*
X320982619Y-220974762D02*
X319982619Y-220974762D01*
X319982619Y-220974762D02*
X320125476Y-220879524D01*
X320125476Y-220879524D02*
X320220714Y-220784286D01*
X320220714Y-220784286D02*
X320268333Y-220689048D01*
X319982619Y-222117619D02*
X319982619Y-221927143D01*
X319982619Y-221927143D02*
X320030238Y-221831905D01*
X320030238Y-221831905D02*
X320077857Y-221784286D01*
X320077857Y-221784286D02*
X320220714Y-221689048D01*
X320220714Y-221689048D02*
X320411190Y-221641429D01*
X320411190Y-221641429D02*
X320792142Y-221641429D01*
X320792142Y-221641429D02*
X320887380Y-221689048D01*
X320887380Y-221689048D02*
X320935000Y-221736667D01*
X320935000Y-221736667D02*
X320982619Y-221831905D01*
X320982619Y-221831905D02*
X320982619Y-222022381D01*
X320982619Y-222022381D02*
X320935000Y-222117619D01*
X320935000Y-222117619D02*
X320887380Y-222165238D01*
X320887380Y-222165238D02*
X320792142Y-222212857D01*
X320792142Y-222212857D02*
X320554047Y-222212857D01*
X320554047Y-222212857D02*
X320458809Y-222165238D01*
X320458809Y-222165238D02*
X320411190Y-222117619D01*
X320411190Y-222117619D02*
X320363571Y-222022381D01*
X320363571Y-222022381D02*
X320363571Y-221831905D01*
X320363571Y-221831905D02*
X320411190Y-221736667D01*
X320411190Y-221736667D02*
X320458809Y-221689048D01*
X320458809Y-221689048D02*
X320554047Y-221641429D01*
X317326904Y-219391905D02*
X317326904Y-219868095D01*
X317612619Y-219296667D02*
X316612619Y-219630000D01*
X316612619Y-219630000D02*
X317612619Y-219963333D01*
X301932619Y-218974762D02*
X300932619Y-218974762D01*
X300932619Y-218974762D02*
X300932619Y-219212857D01*
X300932619Y-219212857D02*
X300980238Y-219355714D01*
X300980238Y-219355714D02*
X301075476Y-219450952D01*
X301075476Y-219450952D02*
X301170714Y-219498571D01*
X301170714Y-219498571D02*
X301361190Y-219546190D01*
X301361190Y-219546190D02*
X301504047Y-219546190D01*
X301504047Y-219546190D02*
X301694523Y-219498571D01*
X301694523Y-219498571D02*
X301789761Y-219450952D01*
X301789761Y-219450952D02*
X301885000Y-219355714D01*
X301885000Y-219355714D02*
X301932619Y-219212857D01*
X301932619Y-219212857D02*
X301932619Y-218974762D01*
X302027857Y-219736667D02*
X302027857Y-220498571D01*
X301932619Y-221260476D02*
X301932619Y-220689048D01*
X301932619Y-220974762D02*
X300932619Y-220974762D01*
X300932619Y-220974762D02*
X301075476Y-220879524D01*
X301075476Y-220879524D02*
X301170714Y-220784286D01*
X301170714Y-220784286D02*
X301218333Y-220689048D01*
X300932619Y-222165238D02*
X300932619Y-221689048D01*
X300932619Y-221689048D02*
X301408809Y-221641429D01*
X301408809Y-221641429D02*
X301361190Y-221689048D01*
X301361190Y-221689048D02*
X301313571Y-221784286D01*
X301313571Y-221784286D02*
X301313571Y-222022381D01*
X301313571Y-222022381D02*
X301361190Y-222117619D01*
X301361190Y-222117619D02*
X301408809Y-222165238D01*
X301408809Y-222165238D02*
X301504047Y-222212857D01*
X301504047Y-222212857D02*
X301742142Y-222212857D01*
X301742142Y-222212857D02*
X301837380Y-222165238D01*
X301837380Y-222165238D02*
X301885000Y-222117619D01*
X301885000Y-222117619D02*
X301932619Y-222022381D01*
X301932619Y-222022381D02*
X301932619Y-221784286D01*
X301932619Y-221784286D02*
X301885000Y-221689048D01*
X301885000Y-221689048D02*
X301837380Y-221641429D01*
X298276904Y-219391905D02*
X298276904Y-219868095D01*
X298562619Y-219296667D02*
X297562619Y-219630000D01*
X297562619Y-219630000D02*
X298562619Y-219963333D01*
X340372619Y-209094762D02*
X339372619Y-209094762D01*
X339372619Y-209094762D02*
X339372619Y-209332857D01*
X339372619Y-209332857D02*
X339420238Y-209475714D01*
X339420238Y-209475714D02*
X339515476Y-209570952D01*
X339515476Y-209570952D02*
X339610714Y-209618571D01*
X339610714Y-209618571D02*
X339801190Y-209666190D01*
X339801190Y-209666190D02*
X339944047Y-209666190D01*
X339944047Y-209666190D02*
X340134523Y-209618571D01*
X340134523Y-209618571D02*
X340229761Y-209570952D01*
X340229761Y-209570952D02*
X340325000Y-209475714D01*
X340325000Y-209475714D02*
X340372619Y-209332857D01*
X340372619Y-209332857D02*
X340372619Y-209094762D01*
X340467857Y-209856667D02*
X340467857Y-210618571D01*
X340372619Y-211380476D02*
X340372619Y-210809048D01*
X340372619Y-211094762D02*
X339372619Y-211094762D01*
X339372619Y-211094762D02*
X339515476Y-210999524D01*
X339515476Y-210999524D02*
X339610714Y-210904286D01*
X339610714Y-210904286D02*
X339658333Y-210809048D01*
X339705952Y-212237619D02*
X340372619Y-212237619D01*
X339325000Y-211999524D02*
X340039285Y-211761429D01*
X340039285Y-211761429D02*
X340039285Y-212380476D01*
X336716904Y-209511905D02*
X336716904Y-209988095D01*
X337002619Y-209416667D02*
X336002619Y-209750000D01*
X336002619Y-209750000D02*
X337002619Y-210083333D01*
X320982619Y-199924762D02*
X319982619Y-199924762D01*
X319982619Y-199924762D02*
X319982619Y-200162857D01*
X319982619Y-200162857D02*
X320030238Y-200305714D01*
X320030238Y-200305714D02*
X320125476Y-200400952D01*
X320125476Y-200400952D02*
X320220714Y-200448571D01*
X320220714Y-200448571D02*
X320411190Y-200496190D01*
X320411190Y-200496190D02*
X320554047Y-200496190D01*
X320554047Y-200496190D02*
X320744523Y-200448571D01*
X320744523Y-200448571D02*
X320839761Y-200400952D01*
X320839761Y-200400952D02*
X320935000Y-200305714D01*
X320935000Y-200305714D02*
X320982619Y-200162857D01*
X320982619Y-200162857D02*
X320982619Y-199924762D01*
X321077857Y-200686667D02*
X321077857Y-201448571D01*
X320982619Y-202210476D02*
X320982619Y-201639048D01*
X320982619Y-201924762D02*
X319982619Y-201924762D01*
X319982619Y-201924762D02*
X320125476Y-201829524D01*
X320125476Y-201829524D02*
X320220714Y-201734286D01*
X320220714Y-201734286D02*
X320268333Y-201639048D01*
X319982619Y-202543810D02*
X319982619Y-203162857D01*
X319982619Y-203162857D02*
X320363571Y-202829524D01*
X320363571Y-202829524D02*
X320363571Y-202972381D01*
X320363571Y-202972381D02*
X320411190Y-203067619D01*
X320411190Y-203067619D02*
X320458809Y-203115238D01*
X320458809Y-203115238D02*
X320554047Y-203162857D01*
X320554047Y-203162857D02*
X320792142Y-203162857D01*
X320792142Y-203162857D02*
X320887380Y-203115238D01*
X320887380Y-203115238D02*
X320935000Y-203067619D01*
X320935000Y-203067619D02*
X320982619Y-202972381D01*
X320982619Y-202972381D02*
X320982619Y-202686667D01*
X320982619Y-202686667D02*
X320935000Y-202591429D01*
X320935000Y-202591429D02*
X320887380Y-202543810D01*
X317326904Y-200341905D02*
X317326904Y-200818095D01*
X317612619Y-200246667D02*
X316612619Y-200580000D01*
X316612619Y-200580000D02*
X317612619Y-200913333D01*
X301932619Y-199924762D02*
X300932619Y-199924762D01*
X300932619Y-199924762D02*
X300932619Y-200162857D01*
X300932619Y-200162857D02*
X300980238Y-200305714D01*
X300980238Y-200305714D02*
X301075476Y-200400952D01*
X301075476Y-200400952D02*
X301170714Y-200448571D01*
X301170714Y-200448571D02*
X301361190Y-200496190D01*
X301361190Y-200496190D02*
X301504047Y-200496190D01*
X301504047Y-200496190D02*
X301694523Y-200448571D01*
X301694523Y-200448571D02*
X301789761Y-200400952D01*
X301789761Y-200400952D02*
X301885000Y-200305714D01*
X301885000Y-200305714D02*
X301932619Y-200162857D01*
X301932619Y-200162857D02*
X301932619Y-199924762D01*
X302027857Y-200686667D02*
X302027857Y-201448571D01*
X301932619Y-202210476D02*
X301932619Y-201639048D01*
X301932619Y-201924762D02*
X300932619Y-201924762D01*
X300932619Y-201924762D02*
X301075476Y-201829524D01*
X301075476Y-201829524D02*
X301170714Y-201734286D01*
X301170714Y-201734286D02*
X301218333Y-201639048D01*
X301027857Y-202591429D02*
X300980238Y-202639048D01*
X300980238Y-202639048D02*
X300932619Y-202734286D01*
X300932619Y-202734286D02*
X300932619Y-202972381D01*
X300932619Y-202972381D02*
X300980238Y-203067619D01*
X300980238Y-203067619D02*
X301027857Y-203115238D01*
X301027857Y-203115238D02*
X301123095Y-203162857D01*
X301123095Y-203162857D02*
X301218333Y-203162857D01*
X301218333Y-203162857D02*
X301361190Y-203115238D01*
X301361190Y-203115238D02*
X301932619Y-202543810D01*
X301932619Y-202543810D02*
X301932619Y-203162857D01*
X298276904Y-200341905D02*
X298276904Y-200818095D01*
X298562619Y-200246667D02*
X297562619Y-200580000D01*
X297562619Y-200580000D02*
X298562619Y-200913333D01*
X282882619Y-199924762D02*
X281882619Y-199924762D01*
X281882619Y-199924762D02*
X281882619Y-200162857D01*
X281882619Y-200162857D02*
X281930238Y-200305714D01*
X281930238Y-200305714D02*
X282025476Y-200400952D01*
X282025476Y-200400952D02*
X282120714Y-200448571D01*
X282120714Y-200448571D02*
X282311190Y-200496190D01*
X282311190Y-200496190D02*
X282454047Y-200496190D01*
X282454047Y-200496190D02*
X282644523Y-200448571D01*
X282644523Y-200448571D02*
X282739761Y-200400952D01*
X282739761Y-200400952D02*
X282835000Y-200305714D01*
X282835000Y-200305714D02*
X282882619Y-200162857D01*
X282882619Y-200162857D02*
X282882619Y-199924762D01*
X282977857Y-200686667D02*
X282977857Y-201448571D01*
X282882619Y-202210476D02*
X282882619Y-201639048D01*
X282882619Y-201924762D02*
X281882619Y-201924762D01*
X281882619Y-201924762D02*
X282025476Y-201829524D01*
X282025476Y-201829524D02*
X282120714Y-201734286D01*
X282120714Y-201734286D02*
X282168333Y-201639048D01*
X282882619Y-203162857D02*
X282882619Y-202591429D01*
X282882619Y-202877143D02*
X281882619Y-202877143D01*
X281882619Y-202877143D02*
X282025476Y-202781905D01*
X282025476Y-202781905D02*
X282120714Y-202686667D01*
X282120714Y-202686667D02*
X282168333Y-202591429D01*
X279226904Y-200341905D02*
X279226904Y-200818095D01*
X279512619Y-200246667D02*
X278512619Y-200580000D01*
X278512619Y-200580000D02*
X279512619Y-200913333D01*
X320982619Y-180874762D02*
X319982619Y-180874762D01*
X319982619Y-180874762D02*
X319982619Y-181112857D01*
X319982619Y-181112857D02*
X320030238Y-181255714D01*
X320030238Y-181255714D02*
X320125476Y-181350952D01*
X320125476Y-181350952D02*
X320220714Y-181398571D01*
X320220714Y-181398571D02*
X320411190Y-181446190D01*
X320411190Y-181446190D02*
X320554047Y-181446190D01*
X320554047Y-181446190D02*
X320744523Y-181398571D01*
X320744523Y-181398571D02*
X320839761Y-181350952D01*
X320839761Y-181350952D02*
X320935000Y-181255714D01*
X320935000Y-181255714D02*
X320982619Y-181112857D01*
X320982619Y-181112857D02*
X320982619Y-180874762D01*
X321077857Y-181636667D02*
X321077857Y-182398571D01*
X320982619Y-183160476D02*
X320982619Y-182589048D01*
X320982619Y-182874762D02*
X319982619Y-182874762D01*
X319982619Y-182874762D02*
X320125476Y-182779524D01*
X320125476Y-182779524D02*
X320220714Y-182684286D01*
X320220714Y-182684286D02*
X320268333Y-182589048D01*
X319982619Y-183779524D02*
X319982619Y-183874762D01*
X319982619Y-183874762D02*
X320030238Y-183970000D01*
X320030238Y-183970000D02*
X320077857Y-184017619D01*
X320077857Y-184017619D02*
X320173095Y-184065238D01*
X320173095Y-184065238D02*
X320363571Y-184112857D01*
X320363571Y-184112857D02*
X320601666Y-184112857D01*
X320601666Y-184112857D02*
X320792142Y-184065238D01*
X320792142Y-184065238D02*
X320887380Y-184017619D01*
X320887380Y-184017619D02*
X320935000Y-183970000D01*
X320935000Y-183970000D02*
X320982619Y-183874762D01*
X320982619Y-183874762D02*
X320982619Y-183779524D01*
X320982619Y-183779524D02*
X320935000Y-183684286D01*
X320935000Y-183684286D02*
X320887380Y-183636667D01*
X320887380Y-183636667D02*
X320792142Y-183589048D01*
X320792142Y-183589048D02*
X320601666Y-183541429D01*
X320601666Y-183541429D02*
X320363571Y-183541429D01*
X320363571Y-183541429D02*
X320173095Y-183589048D01*
X320173095Y-183589048D02*
X320077857Y-183636667D01*
X320077857Y-183636667D02*
X320030238Y-183684286D01*
X320030238Y-183684286D02*
X319982619Y-183779524D01*
X317326904Y-181291905D02*
X317326904Y-181768095D01*
X317612619Y-181196667D02*
X316612619Y-181530000D01*
X316612619Y-181530000D02*
X317612619Y-181863333D01*
X301932619Y-181350952D02*
X300932619Y-181350952D01*
X300932619Y-181350952D02*
X300932619Y-181589047D01*
X300932619Y-181589047D02*
X300980238Y-181731904D01*
X300980238Y-181731904D02*
X301075476Y-181827142D01*
X301075476Y-181827142D02*
X301170714Y-181874761D01*
X301170714Y-181874761D02*
X301361190Y-181922380D01*
X301361190Y-181922380D02*
X301504047Y-181922380D01*
X301504047Y-181922380D02*
X301694523Y-181874761D01*
X301694523Y-181874761D02*
X301789761Y-181827142D01*
X301789761Y-181827142D02*
X301885000Y-181731904D01*
X301885000Y-181731904D02*
X301932619Y-181589047D01*
X301932619Y-181589047D02*
X301932619Y-181350952D01*
X302027857Y-182112857D02*
X302027857Y-182874761D01*
X301932619Y-183160476D02*
X301932619Y-183350952D01*
X301932619Y-183350952D02*
X301885000Y-183446190D01*
X301885000Y-183446190D02*
X301837380Y-183493809D01*
X301837380Y-183493809D02*
X301694523Y-183589047D01*
X301694523Y-183589047D02*
X301504047Y-183636666D01*
X301504047Y-183636666D02*
X301123095Y-183636666D01*
X301123095Y-183636666D02*
X301027857Y-183589047D01*
X301027857Y-183589047D02*
X300980238Y-183541428D01*
X300980238Y-183541428D02*
X300932619Y-183446190D01*
X300932619Y-183446190D02*
X300932619Y-183255714D01*
X300932619Y-183255714D02*
X300980238Y-183160476D01*
X300980238Y-183160476D02*
X301027857Y-183112857D01*
X301027857Y-183112857D02*
X301123095Y-183065238D01*
X301123095Y-183065238D02*
X301361190Y-183065238D01*
X301361190Y-183065238D02*
X301456428Y-183112857D01*
X301456428Y-183112857D02*
X301504047Y-183160476D01*
X301504047Y-183160476D02*
X301551666Y-183255714D01*
X301551666Y-183255714D02*
X301551666Y-183446190D01*
X301551666Y-183446190D02*
X301504047Y-183541428D01*
X301504047Y-183541428D02*
X301456428Y-183589047D01*
X301456428Y-183589047D02*
X301361190Y-183636666D01*
X298276904Y-181291905D02*
X298276904Y-181768095D01*
X298562619Y-181196667D02*
X297562619Y-181530000D01*
X297562619Y-181530000D02*
X298562619Y-181863333D01*
X282882619Y-181350952D02*
X281882619Y-181350952D01*
X281882619Y-181350952D02*
X281882619Y-181589047D01*
X281882619Y-181589047D02*
X281930238Y-181731904D01*
X281930238Y-181731904D02*
X282025476Y-181827142D01*
X282025476Y-181827142D02*
X282120714Y-181874761D01*
X282120714Y-181874761D02*
X282311190Y-181922380D01*
X282311190Y-181922380D02*
X282454047Y-181922380D01*
X282454047Y-181922380D02*
X282644523Y-181874761D01*
X282644523Y-181874761D02*
X282739761Y-181827142D01*
X282739761Y-181827142D02*
X282835000Y-181731904D01*
X282835000Y-181731904D02*
X282882619Y-181589047D01*
X282882619Y-181589047D02*
X282882619Y-181350952D01*
X282977857Y-182112857D02*
X282977857Y-182874761D01*
X282311190Y-183255714D02*
X282263571Y-183160476D01*
X282263571Y-183160476D02*
X282215952Y-183112857D01*
X282215952Y-183112857D02*
X282120714Y-183065238D01*
X282120714Y-183065238D02*
X282073095Y-183065238D01*
X282073095Y-183065238D02*
X281977857Y-183112857D01*
X281977857Y-183112857D02*
X281930238Y-183160476D01*
X281930238Y-183160476D02*
X281882619Y-183255714D01*
X281882619Y-183255714D02*
X281882619Y-183446190D01*
X281882619Y-183446190D02*
X281930238Y-183541428D01*
X281930238Y-183541428D02*
X281977857Y-183589047D01*
X281977857Y-183589047D02*
X282073095Y-183636666D01*
X282073095Y-183636666D02*
X282120714Y-183636666D01*
X282120714Y-183636666D02*
X282215952Y-183589047D01*
X282215952Y-183589047D02*
X282263571Y-183541428D01*
X282263571Y-183541428D02*
X282311190Y-183446190D01*
X282311190Y-183446190D02*
X282311190Y-183255714D01*
X282311190Y-183255714D02*
X282358809Y-183160476D01*
X282358809Y-183160476D02*
X282406428Y-183112857D01*
X282406428Y-183112857D02*
X282501666Y-183065238D01*
X282501666Y-183065238D02*
X282692142Y-183065238D01*
X282692142Y-183065238D02*
X282787380Y-183112857D01*
X282787380Y-183112857D02*
X282835000Y-183160476D01*
X282835000Y-183160476D02*
X282882619Y-183255714D01*
X282882619Y-183255714D02*
X282882619Y-183446190D01*
X282882619Y-183446190D02*
X282835000Y-183541428D01*
X282835000Y-183541428D02*
X282787380Y-183589047D01*
X282787380Y-183589047D02*
X282692142Y-183636666D01*
X282692142Y-183636666D02*
X282501666Y-183636666D01*
X282501666Y-183636666D02*
X282406428Y-183589047D01*
X282406428Y-183589047D02*
X282358809Y-183541428D01*
X282358809Y-183541428D02*
X282311190Y-183446190D01*
X279226904Y-181291905D02*
X279226904Y-181768095D01*
X279512619Y-181196667D02*
X278512619Y-181530000D01*
X278512619Y-181530000D02*
X279512619Y-181863333D01*
X340372619Y-172070952D02*
X339372619Y-172070952D01*
X339372619Y-172070952D02*
X339372619Y-172309047D01*
X339372619Y-172309047D02*
X339420238Y-172451904D01*
X339420238Y-172451904D02*
X339515476Y-172547142D01*
X339515476Y-172547142D02*
X339610714Y-172594761D01*
X339610714Y-172594761D02*
X339801190Y-172642380D01*
X339801190Y-172642380D02*
X339944047Y-172642380D01*
X339944047Y-172642380D02*
X340134523Y-172594761D01*
X340134523Y-172594761D02*
X340229761Y-172547142D01*
X340229761Y-172547142D02*
X340325000Y-172451904D01*
X340325000Y-172451904D02*
X340372619Y-172309047D01*
X340372619Y-172309047D02*
X340372619Y-172070952D01*
X340467857Y-172832857D02*
X340467857Y-173594761D01*
X339372619Y-173737619D02*
X339372619Y-174404285D01*
X339372619Y-174404285D02*
X340372619Y-173975714D01*
X336716904Y-172011905D02*
X336716904Y-172488095D01*
X337002619Y-171916667D02*
X336002619Y-172250000D01*
X336002619Y-172250000D02*
X337002619Y-172583333D01*
X320982619Y-162300952D02*
X319982619Y-162300952D01*
X319982619Y-162300952D02*
X319982619Y-162539047D01*
X319982619Y-162539047D02*
X320030238Y-162681904D01*
X320030238Y-162681904D02*
X320125476Y-162777142D01*
X320125476Y-162777142D02*
X320220714Y-162824761D01*
X320220714Y-162824761D02*
X320411190Y-162872380D01*
X320411190Y-162872380D02*
X320554047Y-162872380D01*
X320554047Y-162872380D02*
X320744523Y-162824761D01*
X320744523Y-162824761D02*
X320839761Y-162777142D01*
X320839761Y-162777142D02*
X320935000Y-162681904D01*
X320935000Y-162681904D02*
X320982619Y-162539047D01*
X320982619Y-162539047D02*
X320982619Y-162300952D01*
X321077857Y-163062857D02*
X321077857Y-163824761D01*
X319982619Y-164491428D02*
X319982619Y-164300952D01*
X319982619Y-164300952D02*
X320030238Y-164205714D01*
X320030238Y-164205714D02*
X320077857Y-164158095D01*
X320077857Y-164158095D02*
X320220714Y-164062857D01*
X320220714Y-164062857D02*
X320411190Y-164015238D01*
X320411190Y-164015238D02*
X320792142Y-164015238D01*
X320792142Y-164015238D02*
X320887380Y-164062857D01*
X320887380Y-164062857D02*
X320935000Y-164110476D01*
X320935000Y-164110476D02*
X320982619Y-164205714D01*
X320982619Y-164205714D02*
X320982619Y-164396190D01*
X320982619Y-164396190D02*
X320935000Y-164491428D01*
X320935000Y-164491428D02*
X320887380Y-164539047D01*
X320887380Y-164539047D02*
X320792142Y-164586666D01*
X320792142Y-164586666D02*
X320554047Y-164586666D01*
X320554047Y-164586666D02*
X320458809Y-164539047D01*
X320458809Y-164539047D02*
X320411190Y-164491428D01*
X320411190Y-164491428D02*
X320363571Y-164396190D01*
X320363571Y-164396190D02*
X320363571Y-164205714D01*
X320363571Y-164205714D02*
X320411190Y-164110476D01*
X320411190Y-164110476D02*
X320458809Y-164062857D01*
X320458809Y-164062857D02*
X320554047Y-164015238D01*
X317326904Y-162241905D02*
X317326904Y-162718095D01*
X317612619Y-162146667D02*
X316612619Y-162480000D01*
X316612619Y-162480000D02*
X317612619Y-162813333D01*
X301932619Y-162300952D02*
X300932619Y-162300952D01*
X300932619Y-162300952D02*
X300932619Y-162539047D01*
X300932619Y-162539047D02*
X300980238Y-162681904D01*
X300980238Y-162681904D02*
X301075476Y-162777142D01*
X301075476Y-162777142D02*
X301170714Y-162824761D01*
X301170714Y-162824761D02*
X301361190Y-162872380D01*
X301361190Y-162872380D02*
X301504047Y-162872380D01*
X301504047Y-162872380D02*
X301694523Y-162824761D01*
X301694523Y-162824761D02*
X301789761Y-162777142D01*
X301789761Y-162777142D02*
X301885000Y-162681904D01*
X301885000Y-162681904D02*
X301932619Y-162539047D01*
X301932619Y-162539047D02*
X301932619Y-162300952D01*
X302027857Y-163062857D02*
X302027857Y-163824761D01*
X300932619Y-164539047D02*
X300932619Y-164062857D01*
X300932619Y-164062857D02*
X301408809Y-164015238D01*
X301408809Y-164015238D02*
X301361190Y-164062857D01*
X301361190Y-164062857D02*
X301313571Y-164158095D01*
X301313571Y-164158095D02*
X301313571Y-164396190D01*
X301313571Y-164396190D02*
X301361190Y-164491428D01*
X301361190Y-164491428D02*
X301408809Y-164539047D01*
X301408809Y-164539047D02*
X301504047Y-164586666D01*
X301504047Y-164586666D02*
X301742142Y-164586666D01*
X301742142Y-164586666D02*
X301837380Y-164539047D01*
X301837380Y-164539047D02*
X301885000Y-164491428D01*
X301885000Y-164491428D02*
X301932619Y-164396190D01*
X301932619Y-164396190D02*
X301932619Y-164158095D01*
X301932619Y-164158095D02*
X301885000Y-164062857D01*
X301885000Y-164062857D02*
X301837380Y-164015238D01*
X298276904Y-162241905D02*
X298276904Y-162718095D01*
X298562619Y-162146667D02*
X297562619Y-162480000D01*
X297562619Y-162480000D02*
X298562619Y-162813333D01*
X282882619Y-162300952D02*
X281882619Y-162300952D01*
X281882619Y-162300952D02*
X281882619Y-162539047D01*
X281882619Y-162539047D02*
X281930238Y-162681904D01*
X281930238Y-162681904D02*
X282025476Y-162777142D01*
X282025476Y-162777142D02*
X282120714Y-162824761D01*
X282120714Y-162824761D02*
X282311190Y-162872380D01*
X282311190Y-162872380D02*
X282454047Y-162872380D01*
X282454047Y-162872380D02*
X282644523Y-162824761D01*
X282644523Y-162824761D02*
X282739761Y-162777142D01*
X282739761Y-162777142D02*
X282835000Y-162681904D01*
X282835000Y-162681904D02*
X282882619Y-162539047D01*
X282882619Y-162539047D02*
X282882619Y-162300952D01*
X282977857Y-163062857D02*
X282977857Y-163824761D01*
X282215952Y-164491428D02*
X282882619Y-164491428D01*
X281835000Y-164253333D02*
X282549285Y-164015238D01*
X282549285Y-164015238D02*
X282549285Y-164634285D01*
X279226904Y-162241905D02*
X279226904Y-162718095D01*
X279512619Y-162146667D02*
X278512619Y-162480000D01*
X278512619Y-162480000D02*
X279512619Y-162813333D01*
X340032619Y-143345952D02*
X339032619Y-143345952D01*
X339032619Y-143345952D02*
X339032619Y-143584047D01*
X339032619Y-143584047D02*
X339080238Y-143726904D01*
X339080238Y-143726904D02*
X339175476Y-143822142D01*
X339175476Y-143822142D02*
X339270714Y-143869761D01*
X339270714Y-143869761D02*
X339461190Y-143917380D01*
X339461190Y-143917380D02*
X339604047Y-143917380D01*
X339604047Y-143917380D02*
X339794523Y-143869761D01*
X339794523Y-143869761D02*
X339889761Y-143822142D01*
X339889761Y-143822142D02*
X339985000Y-143726904D01*
X339985000Y-143726904D02*
X340032619Y-143584047D01*
X340032619Y-143584047D02*
X340032619Y-143345952D01*
X340127857Y-144107857D02*
X340127857Y-144869761D01*
X339032619Y-145012619D02*
X339032619Y-145631666D01*
X339032619Y-145631666D02*
X339413571Y-145298333D01*
X339413571Y-145298333D02*
X339413571Y-145441190D01*
X339413571Y-145441190D02*
X339461190Y-145536428D01*
X339461190Y-145536428D02*
X339508809Y-145584047D01*
X339508809Y-145584047D02*
X339604047Y-145631666D01*
X339604047Y-145631666D02*
X339842142Y-145631666D01*
X339842142Y-145631666D02*
X339937380Y-145584047D01*
X339937380Y-145584047D02*
X339985000Y-145536428D01*
X339985000Y-145536428D02*
X340032619Y-145441190D01*
X340032619Y-145441190D02*
X340032619Y-145155476D01*
X340032619Y-145155476D02*
X339985000Y-145060238D01*
X339985000Y-145060238D02*
X339937380Y-145012619D01*
X336376904Y-143286905D02*
X336376904Y-143763095D01*
X336662619Y-143191667D02*
X335662619Y-143525000D01*
X335662619Y-143525000D02*
X336662619Y-143858333D01*
X320982619Y-143340952D02*
X319982619Y-143340952D01*
X319982619Y-143340952D02*
X319982619Y-143579047D01*
X319982619Y-143579047D02*
X320030238Y-143721904D01*
X320030238Y-143721904D02*
X320125476Y-143817142D01*
X320125476Y-143817142D02*
X320220714Y-143864761D01*
X320220714Y-143864761D02*
X320411190Y-143912380D01*
X320411190Y-143912380D02*
X320554047Y-143912380D01*
X320554047Y-143912380D02*
X320744523Y-143864761D01*
X320744523Y-143864761D02*
X320839761Y-143817142D01*
X320839761Y-143817142D02*
X320935000Y-143721904D01*
X320935000Y-143721904D02*
X320982619Y-143579047D01*
X320982619Y-143579047D02*
X320982619Y-143340952D01*
X321077857Y-144102857D02*
X321077857Y-144864761D01*
X320077857Y-145055238D02*
X320030238Y-145102857D01*
X320030238Y-145102857D02*
X319982619Y-145198095D01*
X319982619Y-145198095D02*
X319982619Y-145436190D01*
X319982619Y-145436190D02*
X320030238Y-145531428D01*
X320030238Y-145531428D02*
X320077857Y-145579047D01*
X320077857Y-145579047D02*
X320173095Y-145626666D01*
X320173095Y-145626666D02*
X320268333Y-145626666D01*
X320268333Y-145626666D02*
X320411190Y-145579047D01*
X320411190Y-145579047D02*
X320982619Y-145007619D01*
X320982619Y-145007619D02*
X320982619Y-145626666D01*
X317326904Y-143281905D02*
X317326904Y-143758095D01*
X317612619Y-143186667D02*
X316612619Y-143520000D01*
X316612619Y-143520000D02*
X317612619Y-143853333D01*
X301932619Y-143340952D02*
X300932619Y-143340952D01*
X300932619Y-143340952D02*
X300932619Y-143579047D01*
X300932619Y-143579047D02*
X300980238Y-143721904D01*
X300980238Y-143721904D02*
X301075476Y-143817142D01*
X301075476Y-143817142D02*
X301170714Y-143864761D01*
X301170714Y-143864761D02*
X301361190Y-143912380D01*
X301361190Y-143912380D02*
X301504047Y-143912380D01*
X301504047Y-143912380D02*
X301694523Y-143864761D01*
X301694523Y-143864761D02*
X301789761Y-143817142D01*
X301789761Y-143817142D02*
X301885000Y-143721904D01*
X301885000Y-143721904D02*
X301932619Y-143579047D01*
X301932619Y-143579047D02*
X301932619Y-143340952D01*
X302027857Y-144102857D02*
X302027857Y-144864761D01*
X301932619Y-145626666D02*
X301932619Y-145055238D01*
X301932619Y-145340952D02*
X300932619Y-145340952D01*
X300932619Y-145340952D02*
X301075476Y-145245714D01*
X301075476Y-145245714D02*
X301170714Y-145150476D01*
X301170714Y-145150476D02*
X301218333Y-145055238D01*
X298276904Y-143281905D02*
X298276904Y-143758095D01*
X298562619Y-143186667D02*
X297562619Y-143520000D01*
X297562619Y-143520000D02*
X298562619Y-143853333D01*
X282882619Y-143340952D02*
X281882619Y-143340952D01*
X281882619Y-143340952D02*
X281882619Y-143579047D01*
X281882619Y-143579047D02*
X281930238Y-143721904D01*
X281930238Y-143721904D02*
X282025476Y-143817142D01*
X282025476Y-143817142D02*
X282120714Y-143864761D01*
X282120714Y-143864761D02*
X282311190Y-143912380D01*
X282311190Y-143912380D02*
X282454047Y-143912380D01*
X282454047Y-143912380D02*
X282644523Y-143864761D01*
X282644523Y-143864761D02*
X282739761Y-143817142D01*
X282739761Y-143817142D02*
X282835000Y-143721904D01*
X282835000Y-143721904D02*
X282882619Y-143579047D01*
X282882619Y-143579047D02*
X282882619Y-143340952D01*
X282977857Y-144102857D02*
X282977857Y-144864761D01*
X281882619Y-145293333D02*
X281882619Y-145388571D01*
X281882619Y-145388571D02*
X281930238Y-145483809D01*
X281930238Y-145483809D02*
X281977857Y-145531428D01*
X281977857Y-145531428D02*
X282073095Y-145579047D01*
X282073095Y-145579047D02*
X282263571Y-145626666D01*
X282263571Y-145626666D02*
X282501666Y-145626666D01*
X282501666Y-145626666D02*
X282692142Y-145579047D01*
X282692142Y-145579047D02*
X282787380Y-145531428D01*
X282787380Y-145531428D02*
X282835000Y-145483809D01*
X282835000Y-145483809D02*
X282882619Y-145388571D01*
X282882619Y-145388571D02*
X282882619Y-145293333D01*
X282882619Y-145293333D02*
X282835000Y-145198095D01*
X282835000Y-145198095D02*
X282787380Y-145150476D01*
X282787380Y-145150476D02*
X282692142Y-145102857D01*
X282692142Y-145102857D02*
X282501666Y-145055238D01*
X282501666Y-145055238D02*
X282263571Y-145055238D01*
X282263571Y-145055238D02*
X282073095Y-145102857D01*
X282073095Y-145102857D02*
X281977857Y-145150476D01*
X281977857Y-145150476D02*
X281930238Y-145198095D01*
X281930238Y-145198095D02*
X281882619Y-145293333D01*
X279226904Y-143281905D02*
X279226904Y-143758095D01*
X279512619Y-143186667D02*
X278512619Y-143520000D01*
X278512619Y-143520000D02*
X279512619Y-143853333D01*
D11*
X318050000Y-221640000D02*
X318050000Y-219230000D01*
X319520000Y-223110000D02*
G75*
G03*
X319520000Y-223110000I-1470000J0D01*
G01*
X299000000Y-221640000D02*
X299000000Y-219230000D01*
X300470000Y-223110000D02*
G75*
G03*
X300470000Y-223110000I-1470000J0D01*
G01*
X337440000Y-211760000D02*
X337440000Y-209350000D01*
X338910000Y-213230000D02*
G75*
G03*
X338910000Y-213230000I-1470000J0D01*
G01*
X318050000Y-202590000D02*
X318050000Y-200180000D01*
X319520000Y-204060000D02*
G75*
G03*
X319520000Y-204060000I-1470000J0D01*
G01*
X299000000Y-202590000D02*
X299000000Y-200180000D01*
X300470000Y-204060000D02*
G75*
G03*
X300470000Y-204060000I-1470000J0D01*
G01*
X279950000Y-202590000D02*
X279950000Y-200180000D01*
X281420000Y-204060000D02*
G75*
G03*
X281420000Y-204060000I-1470000J0D01*
G01*
X318050000Y-183540000D02*
X318050000Y-181130000D01*
X319520000Y-185010000D02*
G75*
G03*
X319520000Y-185010000I-1470000J0D01*
G01*
X299000000Y-183540000D02*
X299000000Y-181130000D01*
X300470000Y-185010000D02*
G75*
G03*
X300470000Y-185010000I-1470000J0D01*
G01*
X279950000Y-183540000D02*
X279950000Y-181130000D01*
X281420000Y-185010000D02*
G75*
G03*
X281420000Y-185010000I-1470000J0D01*
G01*
X337440000Y-174260000D02*
X337440000Y-171850000D01*
X338910000Y-175730000D02*
G75*
G03*
X338910000Y-175730000I-1470000J0D01*
G01*
X318050000Y-164490000D02*
X318050000Y-162080000D01*
X319520000Y-165960000D02*
G75*
G03*
X319520000Y-165960000I-1470000J0D01*
G01*
X299000000Y-164490000D02*
X299000000Y-162080000D01*
X300470000Y-165960000D02*
G75*
G03*
X300470000Y-165960000I-1470000J0D01*
G01*
X279950000Y-164490000D02*
X279950000Y-162080000D01*
X281420000Y-165960000D02*
G75*
G03*
X281420000Y-165960000I-1470000J0D01*
G01*
X337100000Y-145535000D02*
X337100000Y-143125000D01*
X338570000Y-147005000D02*
G75*
G03*
X338570000Y-147005000I-1470000J0D01*
G01*
X318050000Y-145530000D02*
X318050000Y-143120000D01*
X319520000Y-147000000D02*
G75*
G03*
X319520000Y-147000000I-1470000J0D01*
G01*
X299000000Y-145530000D02*
X299000000Y-143120000D01*
X300470000Y-147000000D02*
G75*
G03*
X300470000Y-147000000I-1470000J0D01*
G01*
X279950000Y-145530000D02*
X279950000Y-143120000D01*
X281420000Y-147000000D02*
G75*
G03*
X281420000Y-147000000I-1470000J0D01*
G01*
M02*
