%TF.GenerationSoftware,KiCad,Pcbnew,7.0.1*%
%TF.CreationDate,2023-10-11T20:02:25-04:00*%
%TF.ProjectId,keyboard,6b657962-6f61-4726-942e-6b696361645f,rev?*%
%TF.SameCoordinates,Original*%
%TF.FileFunction,Plated,1,2,PTH,Drill*%
%TF.FilePolarity,Positive*%
%FSLAX46Y46*%
G04 Gerber Fmt 4.6, Leading zero omitted, Abs format (unit mm)*
G04 Created by KiCad (PCBNEW 7.0.1) date 2023-10-11 20:02:25*
%MOMM*%
%LPD*%
G01*
G04 APERTURE LIST*
%TA.AperFunction,ComponentDrill*%
%ADD10C,0.900000*%
%TD*%
%TA.AperFunction,ComponentDrill*%
%ADD11C,1.000000*%
%TD*%
%TA.AperFunction,ComponentDrill*%
%ADD12C,1.470000*%
%TD*%
G04 APERTURE END LIST*
D10*
%TO.C,D_0*%
X279950000Y-141920000D03*
X279950000Y-147000000D03*
%TO.C,D_4*%
X279950000Y-160880000D03*
X279950000Y-165960000D03*
%TO.C,D_8*%
X279950000Y-179930000D03*
X279950000Y-185010000D03*
%TO.C,D_11*%
X279950000Y-198980000D03*
X279950000Y-204060000D03*
%TO.C,D_1*%
X299000000Y-141920000D03*
X299000000Y-147000000D03*
%TO.C,D_5*%
X299000000Y-160880000D03*
X299000000Y-165960000D03*
%TO.C,D_9*%
X299000000Y-179930000D03*
X299000000Y-185010000D03*
%TO.C,D_12*%
X299000000Y-198980000D03*
X299000000Y-204060000D03*
%TO.C,D_15*%
X299000000Y-218030000D03*
X299000000Y-223110000D03*
%TO.C,D_2*%
X318050000Y-141920000D03*
X318050000Y-147000000D03*
%TO.C,D_6*%
X318050000Y-160880000D03*
X318050000Y-165960000D03*
%TO.C,D_10*%
X318050000Y-179930000D03*
X318050000Y-185010000D03*
%TO.C,D_13*%
X318050000Y-198980000D03*
X318050000Y-204060000D03*
%TO.C,D_16*%
X318050000Y-218030000D03*
X318050000Y-223110000D03*
%TO.C,D_3*%
X337100000Y-141925000D03*
X337100000Y-147005000D03*
%TO.C,D_7*%
X337440000Y-170650000D03*
X337440000Y-175730000D03*
%TO.C,D_14*%
X337440000Y-208150000D03*
X337440000Y-213230000D03*
D11*
%TO.C,J3*%
X292000000Y-106000000D03*
X292000000Y-108540000D03*
X292000000Y-111080000D03*
X292000000Y-113620000D03*
X292000000Y-116160000D03*
X292000000Y-118700000D03*
X292000000Y-121240000D03*
X292000000Y-123780000D03*
X292000000Y-126320000D03*
%TO.C,J4*%
X307250000Y-106000000D03*
X307250000Y-108540000D03*
X307250000Y-111080000D03*
X307250000Y-113620000D03*
X307250000Y-116160000D03*
X307250000Y-118700000D03*
X307250000Y-121240000D03*
X307250000Y-123780000D03*
X307250000Y-126320000D03*
D12*
%TO.C,K_0*%
X267700000Y-141640000D03*
%TO.C,K_4*%
X267700000Y-160690000D03*
%TO.C,K_8*%
X267700000Y-179740000D03*
%TO.C,K_11*%
X267700000Y-198790000D03*
%TO.C,K_0*%
X269010000Y-140180000D03*
%TO.C,K_4*%
X269010000Y-159230000D03*
%TO.C,K_8*%
X269010000Y-178280000D03*
%TO.C,K_11*%
X269010000Y-197330000D03*
%TO.C,K_0*%
X274010000Y-139680000D03*
%TO.C,K_4*%
X274010000Y-158730000D03*
%TO.C,K_8*%
X274010000Y-177780000D03*
%TO.C,K_11*%
X274010000Y-196830000D03*
%TO.C,K_0*%
X274050000Y-139100000D03*
%TO.C,K_4*%
X274050000Y-158150000D03*
%TO.C,K_8*%
X274050000Y-177200000D03*
%TO.C,K_11*%
X274050000Y-196250000D03*
%TO.C,K_15*%
X277225000Y-217840000D03*
X278535000Y-216380000D03*
X283535000Y-215880000D03*
X283575000Y-215300000D03*
%TO.C,K_1*%
X286750000Y-141640000D03*
%TO.C,K_5*%
X286750000Y-160690000D03*
%TO.C,K_9*%
X286750000Y-179740000D03*
%TO.C,K_12*%
X286750000Y-198790000D03*
%TO.C,K_1*%
X288060000Y-140180000D03*
%TO.C,K_5*%
X288060000Y-159230000D03*
%TO.C,K_9*%
X288060000Y-178280000D03*
%TO.C,K_12*%
X288060000Y-197330000D03*
%TO.C,K_1*%
X293060000Y-139680000D03*
%TO.C,K_5*%
X293060000Y-158730000D03*
%TO.C,K_9*%
X293060000Y-177780000D03*
%TO.C,K_12*%
X293060000Y-196830000D03*
%TO.C,K_1*%
X293100000Y-139100000D03*
%TO.C,K_5*%
X293100000Y-158150000D03*
%TO.C,K_9*%
X293100000Y-177200000D03*
%TO.C,K_12*%
X293100000Y-196250000D03*
%TO.C,K_2*%
X305800000Y-141640000D03*
%TO.C,K_6*%
X305800000Y-160690000D03*
%TO.C,K_10*%
X305800000Y-179740000D03*
%TO.C,K_13*%
X305800000Y-198790000D03*
%TO.C,K_16*%
X305800000Y-217840000D03*
%TO.C,K_2*%
X307110000Y-140180000D03*
%TO.C,K_6*%
X307110000Y-159230000D03*
%TO.C,K_10*%
X307110000Y-178280000D03*
%TO.C,K_13*%
X307110000Y-197330000D03*
%TO.C,K_16*%
X307110000Y-216380000D03*
%TO.C,K_2*%
X312110000Y-139680000D03*
%TO.C,K_6*%
X312110000Y-158730000D03*
%TO.C,K_10*%
X312110000Y-177780000D03*
%TO.C,K_13*%
X312110000Y-196830000D03*
%TO.C,K_16*%
X312110000Y-215880000D03*
%TO.C,K_2*%
X312150000Y-139100000D03*
%TO.C,K_6*%
X312150000Y-158150000D03*
%TO.C,K_10*%
X312150000Y-177200000D03*
%TO.C,K_13*%
X312150000Y-196250000D03*
%TO.C,K_16*%
X312150000Y-215300000D03*
%TO.C,K_7*%
X323605000Y-170198000D03*
%TO.C,K_14*%
X323605000Y-208298000D03*
%TO.C,K_7*%
X324185000Y-170238000D03*
%TO.C,K_14*%
X324185000Y-208338000D03*
%TO.C,K_7*%
X324685000Y-175238000D03*
%TO.C,K_14*%
X324685000Y-213338000D03*
%TO.C,K_3*%
X324850000Y-141640000D03*
%TO.C,K_7*%
X326145000Y-176548000D03*
%TO.C,K_14*%
X326145000Y-214648000D03*
%TO.C,K_3*%
X326160000Y-140180000D03*
X331160000Y-139680000D03*
X331200000Y-139100000D03*
M02*
