%TF.GenerationSoftware,KiCad,Pcbnew,7.0.1*%
%TF.CreationDate,2023-10-11T20:02:27-04:00*%
%TF.ProjectId,keyboard,6b657962-6f61-4726-942e-6b696361645f,rev?*%
%TF.SameCoordinates,Original*%
%TF.FileFunction,Drillmap*%
%TF.FilePolarity,Positive*%
%FSLAX45Y45*%
G04 Gerber Fmt 4.5, Leading zero omitted, Abs format (unit mm)*
G04 Created by KiCad (PCBNEW 7.0.1) date 2023-10-11 20:02:27*
%MOMM*%
%LPD*%
G01*
G04 APERTURE LIST*
%ADD10C,0.200000*%
%ADD11C,0.090000*%
%ADD12C,0.100000*%
%ADD13C,0.147000*%
G04 APERTURE END LIST*
D10*
X26000000Y-10200000D02*
X34020000Y-10200000D01*
X34020000Y-23200000D02*
X26000000Y-23200000D01*
X34020000Y-10200000D02*
X34020000Y-23200000D01*
X26000000Y-23200000D02*
X26000000Y-10200000D01*
D11*
X27950000Y-14147000D02*
X28040000Y-14237000D01*
X28040000Y-14147000D02*
X27950000Y-14237000D01*
X27950000Y-14655000D02*
X28040000Y-14745000D01*
X28040000Y-14655000D02*
X27950000Y-14745000D01*
X27950000Y-16043000D02*
X28040000Y-16133000D01*
X28040000Y-16043000D02*
X27950000Y-16133000D01*
X27950000Y-16551000D02*
X28040000Y-16641000D01*
X28040000Y-16551000D02*
X27950000Y-16641000D01*
X27950000Y-17948000D02*
X28040000Y-18038000D01*
X28040000Y-17948000D02*
X27950000Y-18038000D01*
X27950000Y-18456000D02*
X28040000Y-18546000D01*
X28040000Y-18456000D02*
X27950000Y-18546000D01*
X27950000Y-19853000D02*
X28040000Y-19943000D01*
X28040000Y-19853000D02*
X27950000Y-19943000D01*
X27950000Y-20361000D02*
X28040000Y-20451000D01*
X28040000Y-20361000D02*
X27950000Y-20451000D01*
X29855000Y-14147000D02*
X29945000Y-14237000D01*
X29945000Y-14147000D02*
X29855000Y-14237000D01*
X29855000Y-14655000D02*
X29945000Y-14745000D01*
X29945000Y-14655000D02*
X29855000Y-14745000D01*
X29855000Y-16043000D02*
X29945000Y-16133000D01*
X29945000Y-16043000D02*
X29855000Y-16133000D01*
X29855000Y-16551000D02*
X29945000Y-16641000D01*
X29945000Y-16551000D02*
X29855000Y-16641000D01*
X29855000Y-17948000D02*
X29945000Y-18038000D01*
X29945000Y-17948000D02*
X29855000Y-18038000D01*
X29855000Y-18456000D02*
X29945000Y-18546000D01*
X29945000Y-18456000D02*
X29855000Y-18546000D01*
X29855000Y-19853000D02*
X29945000Y-19943000D01*
X29945000Y-19853000D02*
X29855000Y-19943000D01*
X29855000Y-20361000D02*
X29945000Y-20451000D01*
X29945000Y-20361000D02*
X29855000Y-20451000D01*
X29855000Y-21758000D02*
X29945000Y-21848000D01*
X29945000Y-21758000D02*
X29855000Y-21848000D01*
X29855000Y-22266000D02*
X29945000Y-22356000D01*
X29945000Y-22266000D02*
X29855000Y-22356000D01*
X31760000Y-14147000D02*
X31850000Y-14237000D01*
X31850000Y-14147000D02*
X31760000Y-14237000D01*
X31760000Y-14655000D02*
X31850000Y-14745000D01*
X31850000Y-14655000D02*
X31760000Y-14745000D01*
X31760000Y-16043000D02*
X31850000Y-16133000D01*
X31850000Y-16043000D02*
X31760000Y-16133000D01*
X31760000Y-16551000D02*
X31850000Y-16641000D01*
X31850000Y-16551000D02*
X31760000Y-16641000D01*
X31760000Y-17948000D02*
X31850000Y-18038000D01*
X31850000Y-17948000D02*
X31760000Y-18038000D01*
X31760000Y-18456000D02*
X31850000Y-18546000D01*
X31850000Y-18456000D02*
X31760000Y-18546000D01*
X31760000Y-19853000D02*
X31850000Y-19943000D01*
X31850000Y-19853000D02*
X31760000Y-19943000D01*
X31760000Y-20361000D02*
X31850000Y-20451000D01*
X31850000Y-20361000D02*
X31760000Y-20451000D01*
X31760000Y-21758000D02*
X31850000Y-21848000D01*
X31850000Y-21758000D02*
X31760000Y-21848000D01*
X31760000Y-22266000D02*
X31850000Y-22356000D01*
X31850000Y-22266000D02*
X31760000Y-22356000D01*
X33665000Y-14147500D02*
X33755000Y-14237500D01*
X33755000Y-14147500D02*
X33665000Y-14237500D01*
X33665000Y-14655500D02*
X33755000Y-14745500D01*
X33755000Y-14655500D02*
X33665000Y-14745500D01*
X33699000Y-17020000D02*
X33789000Y-17110000D01*
X33789000Y-17020000D02*
X33699000Y-17110000D01*
X33699000Y-17528000D02*
X33789000Y-17618000D01*
X33789000Y-17528000D02*
X33699000Y-17618000D01*
X33699000Y-20770000D02*
X33789000Y-20860000D01*
X33789000Y-20770000D02*
X33699000Y-20860000D01*
X33699000Y-21278000D02*
X33789000Y-21368000D01*
X33789000Y-21278000D02*
X33699000Y-21368000D01*
D12*
X29250000Y-10600000D02*
G75*
G03*
X29250000Y-10600000I-50000J0D01*
G01*
X29250000Y-10854000D02*
G75*
G03*
X29250000Y-10854000I-50000J0D01*
G01*
X29250000Y-11108000D02*
G75*
G03*
X29250000Y-11108000I-50000J0D01*
G01*
X29250000Y-11362000D02*
G75*
G03*
X29250000Y-11362000I-50000J0D01*
G01*
X29250000Y-11616000D02*
G75*
G03*
X29250000Y-11616000I-50000J0D01*
G01*
X29250000Y-11870000D02*
G75*
G03*
X29250000Y-11870000I-50000J0D01*
G01*
X29250000Y-12124000D02*
G75*
G03*
X29250000Y-12124000I-50000J0D01*
G01*
X29250000Y-12378000D02*
G75*
G03*
X29250000Y-12378000I-50000J0D01*
G01*
X29250000Y-12632000D02*
G75*
G03*
X29250000Y-12632000I-50000J0D01*
G01*
X30775000Y-10600000D02*
G75*
G03*
X30775000Y-10600000I-50000J0D01*
G01*
X30775000Y-10854000D02*
G75*
G03*
X30775000Y-10854000I-50000J0D01*
G01*
X30775000Y-11108000D02*
G75*
G03*
X30775000Y-11108000I-50000J0D01*
G01*
X30775000Y-11362000D02*
G75*
G03*
X30775000Y-11362000I-50000J0D01*
G01*
X30775000Y-11616000D02*
G75*
G03*
X30775000Y-11616000I-50000J0D01*
G01*
X30775000Y-11870000D02*
G75*
G03*
X30775000Y-11870000I-50000J0D01*
G01*
X30775000Y-12124000D02*
G75*
G03*
X30775000Y-12124000I-50000J0D01*
G01*
X30775000Y-12378000D02*
G75*
G03*
X30775000Y-12378000I-50000J0D01*
G01*
X30775000Y-12632000D02*
G75*
G03*
X30775000Y-12632000I-50000J0D01*
G01*
D13*
X26770000Y-14090500D02*
X26770000Y-14237500D01*
X26696500Y-14164000D02*
X26843500Y-14164000D01*
X26770000Y-15995500D02*
X26770000Y-16142500D01*
X26696500Y-16069000D02*
X26843500Y-16069000D01*
X26770000Y-17900500D02*
X26770000Y-18047500D01*
X26696500Y-17974000D02*
X26843500Y-17974000D01*
X26770000Y-19805500D02*
X26770000Y-19952500D01*
X26696500Y-19879000D02*
X26843500Y-19879000D01*
X26901000Y-13944500D02*
X26901000Y-14091500D01*
X26827500Y-14018000D02*
X26974500Y-14018000D01*
X26901000Y-15849500D02*
X26901000Y-15996500D01*
X26827500Y-15923000D02*
X26974500Y-15923000D01*
X26901000Y-17754500D02*
X26901000Y-17901500D01*
X26827500Y-17828000D02*
X26974500Y-17828000D01*
X26901000Y-19659500D02*
X26901000Y-19806500D01*
X26827500Y-19733000D02*
X26974500Y-19733000D01*
X27401000Y-13894500D02*
X27401000Y-14041500D01*
X27327500Y-13968000D02*
X27474500Y-13968000D01*
X27401000Y-15799500D02*
X27401000Y-15946500D01*
X27327500Y-15873000D02*
X27474500Y-15873000D01*
X27401000Y-17704500D02*
X27401000Y-17851500D01*
X27327500Y-17778000D02*
X27474500Y-17778000D01*
X27401000Y-19609500D02*
X27401000Y-19756500D01*
X27327500Y-19683000D02*
X27474500Y-19683000D01*
X27405000Y-13836500D02*
X27405000Y-13983500D01*
X27331500Y-13910000D02*
X27478500Y-13910000D01*
X27405000Y-15741500D02*
X27405000Y-15888500D01*
X27331500Y-15815000D02*
X27478500Y-15815000D01*
X27405000Y-17646500D02*
X27405000Y-17793500D01*
X27331500Y-17720000D02*
X27478500Y-17720000D01*
X27405000Y-19551500D02*
X27405000Y-19698500D01*
X27331500Y-19625000D02*
X27478500Y-19625000D01*
X27722500Y-21710500D02*
X27722500Y-21857500D01*
X27649000Y-21784000D02*
X27796000Y-21784000D01*
X27853500Y-21564500D02*
X27853500Y-21711500D01*
X27780000Y-21638000D02*
X27927000Y-21638000D01*
X28353500Y-21514500D02*
X28353500Y-21661500D01*
X28280000Y-21588000D02*
X28427000Y-21588000D01*
X28357500Y-21456500D02*
X28357500Y-21603500D01*
X28284000Y-21530000D02*
X28431000Y-21530000D01*
X28675000Y-14090500D02*
X28675000Y-14237500D01*
X28601500Y-14164000D02*
X28748500Y-14164000D01*
X28675000Y-15995500D02*
X28675000Y-16142500D01*
X28601500Y-16069000D02*
X28748500Y-16069000D01*
X28675000Y-17900500D02*
X28675000Y-18047500D01*
X28601500Y-17974000D02*
X28748500Y-17974000D01*
X28675000Y-19805500D02*
X28675000Y-19952500D01*
X28601500Y-19879000D02*
X28748500Y-19879000D01*
X28806000Y-13944500D02*
X28806000Y-14091500D01*
X28732500Y-14018000D02*
X28879500Y-14018000D01*
X28806000Y-15849500D02*
X28806000Y-15996500D01*
X28732500Y-15923000D02*
X28879500Y-15923000D01*
X28806000Y-17754500D02*
X28806000Y-17901500D01*
X28732500Y-17828000D02*
X28879500Y-17828000D01*
X28806000Y-19659500D02*
X28806000Y-19806500D01*
X28732500Y-19733000D02*
X28879500Y-19733000D01*
X29306000Y-13894500D02*
X29306000Y-14041500D01*
X29232500Y-13968000D02*
X29379500Y-13968000D01*
X29306000Y-15799500D02*
X29306000Y-15946500D01*
X29232500Y-15873000D02*
X29379500Y-15873000D01*
X29306000Y-17704500D02*
X29306000Y-17851500D01*
X29232500Y-17778000D02*
X29379500Y-17778000D01*
X29306000Y-19609500D02*
X29306000Y-19756500D01*
X29232500Y-19683000D02*
X29379500Y-19683000D01*
X29310000Y-13836500D02*
X29310000Y-13983500D01*
X29236500Y-13910000D02*
X29383500Y-13910000D01*
X29310000Y-15741500D02*
X29310000Y-15888500D01*
X29236500Y-15815000D02*
X29383500Y-15815000D01*
X29310000Y-17646500D02*
X29310000Y-17793500D01*
X29236500Y-17720000D02*
X29383500Y-17720000D01*
X29310000Y-19551500D02*
X29310000Y-19698500D01*
X29236500Y-19625000D02*
X29383500Y-19625000D01*
X30580000Y-14090500D02*
X30580000Y-14237500D01*
X30506500Y-14164000D02*
X30653500Y-14164000D01*
X30580000Y-15995500D02*
X30580000Y-16142500D01*
X30506500Y-16069000D02*
X30653500Y-16069000D01*
X30580000Y-17900500D02*
X30580000Y-18047500D01*
X30506500Y-17974000D02*
X30653500Y-17974000D01*
X30580000Y-19805500D02*
X30580000Y-19952500D01*
X30506500Y-19879000D02*
X30653500Y-19879000D01*
X30580000Y-21710500D02*
X30580000Y-21857500D01*
X30506500Y-21784000D02*
X30653500Y-21784000D01*
X30711000Y-13944500D02*
X30711000Y-14091500D01*
X30637500Y-14018000D02*
X30784500Y-14018000D01*
X30711000Y-15849500D02*
X30711000Y-15996500D01*
X30637500Y-15923000D02*
X30784500Y-15923000D01*
X30711000Y-17754500D02*
X30711000Y-17901500D01*
X30637500Y-17828000D02*
X30784500Y-17828000D01*
X30711000Y-19659500D02*
X30711000Y-19806500D01*
X30637500Y-19733000D02*
X30784500Y-19733000D01*
X30711000Y-21564500D02*
X30711000Y-21711500D01*
X30637500Y-21638000D02*
X30784500Y-21638000D01*
X31211000Y-13894500D02*
X31211000Y-14041500D01*
X31137500Y-13968000D02*
X31284500Y-13968000D01*
X31211000Y-15799500D02*
X31211000Y-15946500D01*
X31137500Y-15873000D02*
X31284500Y-15873000D01*
X31211000Y-17704500D02*
X31211000Y-17851500D01*
X31137500Y-17778000D02*
X31284500Y-17778000D01*
X31211000Y-19609500D02*
X31211000Y-19756500D01*
X31137500Y-19683000D02*
X31284500Y-19683000D01*
X31211000Y-21514500D02*
X31211000Y-21661500D01*
X31137500Y-21588000D02*
X31284500Y-21588000D01*
X31215000Y-13836500D02*
X31215000Y-13983500D01*
X31141500Y-13910000D02*
X31288500Y-13910000D01*
X31215000Y-15741500D02*
X31215000Y-15888500D01*
X31141500Y-15815000D02*
X31288500Y-15815000D01*
X31215000Y-17646500D02*
X31215000Y-17793500D01*
X31141500Y-17720000D02*
X31288500Y-17720000D01*
X31215000Y-19551500D02*
X31215000Y-19698500D01*
X31141500Y-19625000D02*
X31288500Y-19625000D01*
X31215000Y-21456500D02*
X31215000Y-21603500D01*
X31141500Y-21530000D02*
X31288500Y-21530000D01*
X32360500Y-16946300D02*
X32360500Y-17093300D01*
X32287000Y-17019800D02*
X32434000Y-17019800D01*
X32360500Y-20756300D02*
X32360500Y-20903300D01*
X32287000Y-20829800D02*
X32434000Y-20829800D01*
X32418500Y-16950300D02*
X32418500Y-17097300D01*
X32345000Y-17023800D02*
X32492000Y-17023800D01*
X32418500Y-20760300D02*
X32418500Y-20907300D01*
X32345000Y-20833800D02*
X32492000Y-20833800D01*
X32468500Y-17450300D02*
X32468500Y-17597300D01*
X32395000Y-17523800D02*
X32542000Y-17523800D01*
X32468500Y-21260300D02*
X32468500Y-21407300D01*
X32395000Y-21333800D02*
X32542000Y-21333800D01*
X32485000Y-14090500D02*
X32485000Y-14237500D01*
X32411500Y-14164000D02*
X32558500Y-14164000D01*
X32614500Y-17581300D02*
X32614500Y-17728300D01*
X32541000Y-17654800D02*
X32688000Y-17654800D01*
X32614500Y-21391300D02*
X32614500Y-21538300D01*
X32541000Y-21464800D02*
X32688000Y-21464800D01*
X32616000Y-13944500D02*
X32616000Y-14091500D01*
X32542500Y-14018000D02*
X32689500Y-14018000D01*
X33116000Y-13894500D02*
X33116000Y-14041500D01*
X33042500Y-13968000D02*
X33189500Y-13968000D01*
X33120000Y-13836500D02*
X33120000Y-13983500D01*
X33046500Y-13910000D02*
X33193500Y-13910000D01*
D10*
X26237619Y-23522524D02*
X26237619Y-23322524D01*
X26237619Y-23322524D02*
X26285238Y-23322524D01*
X26285238Y-23322524D02*
X26313809Y-23332048D01*
X26313809Y-23332048D02*
X26332857Y-23351095D01*
X26332857Y-23351095D02*
X26342381Y-23370143D01*
X26342381Y-23370143D02*
X26351905Y-23408238D01*
X26351905Y-23408238D02*
X26351905Y-23436809D01*
X26351905Y-23436809D02*
X26342381Y-23474905D01*
X26342381Y-23474905D02*
X26332857Y-23493952D01*
X26332857Y-23493952D02*
X26313809Y-23513000D01*
X26313809Y-23513000D02*
X26285238Y-23522524D01*
X26285238Y-23522524D02*
X26237619Y-23522524D01*
X26437619Y-23522524D02*
X26437619Y-23389190D01*
X26437619Y-23427286D02*
X26447143Y-23408238D01*
X26447143Y-23408238D02*
X26456667Y-23398714D01*
X26456667Y-23398714D02*
X26475714Y-23389190D01*
X26475714Y-23389190D02*
X26494762Y-23389190D01*
X26561428Y-23522524D02*
X26561428Y-23389190D01*
X26561428Y-23322524D02*
X26551905Y-23332048D01*
X26551905Y-23332048D02*
X26561428Y-23341571D01*
X26561428Y-23341571D02*
X26570952Y-23332048D01*
X26570952Y-23332048D02*
X26561428Y-23322524D01*
X26561428Y-23322524D02*
X26561428Y-23341571D01*
X26685238Y-23522524D02*
X26666190Y-23513000D01*
X26666190Y-23513000D02*
X26656667Y-23493952D01*
X26656667Y-23493952D02*
X26656667Y-23322524D01*
X26790000Y-23522524D02*
X26770952Y-23513000D01*
X26770952Y-23513000D02*
X26761428Y-23493952D01*
X26761428Y-23493952D02*
X26761428Y-23322524D01*
X27018571Y-23522524D02*
X27018571Y-23322524D01*
X27018571Y-23322524D02*
X27085238Y-23465381D01*
X27085238Y-23465381D02*
X27151905Y-23322524D01*
X27151905Y-23322524D02*
X27151905Y-23522524D01*
X27332857Y-23522524D02*
X27332857Y-23417762D01*
X27332857Y-23417762D02*
X27323333Y-23398714D01*
X27323333Y-23398714D02*
X27304286Y-23389190D01*
X27304286Y-23389190D02*
X27266190Y-23389190D01*
X27266190Y-23389190D02*
X27247143Y-23398714D01*
X27332857Y-23513000D02*
X27313809Y-23522524D01*
X27313809Y-23522524D02*
X27266190Y-23522524D01*
X27266190Y-23522524D02*
X27247143Y-23513000D01*
X27247143Y-23513000D02*
X27237619Y-23493952D01*
X27237619Y-23493952D02*
X27237619Y-23474905D01*
X27237619Y-23474905D02*
X27247143Y-23455857D01*
X27247143Y-23455857D02*
X27266190Y-23446333D01*
X27266190Y-23446333D02*
X27313809Y-23446333D01*
X27313809Y-23446333D02*
X27332857Y-23436809D01*
X27428095Y-23389190D02*
X27428095Y-23589190D01*
X27428095Y-23398714D02*
X27447143Y-23389190D01*
X27447143Y-23389190D02*
X27485238Y-23389190D01*
X27485238Y-23389190D02*
X27504286Y-23398714D01*
X27504286Y-23398714D02*
X27513809Y-23408238D01*
X27513809Y-23408238D02*
X27523333Y-23427286D01*
X27523333Y-23427286D02*
X27523333Y-23484428D01*
X27523333Y-23484428D02*
X27513809Y-23503476D01*
X27513809Y-23503476D02*
X27504286Y-23513000D01*
X27504286Y-23513000D02*
X27485238Y-23522524D01*
X27485238Y-23522524D02*
X27447143Y-23522524D01*
X27447143Y-23522524D02*
X27428095Y-23513000D01*
X27609048Y-23503476D02*
X27618571Y-23513000D01*
X27618571Y-23513000D02*
X27609048Y-23522524D01*
X27609048Y-23522524D02*
X27599524Y-23513000D01*
X27599524Y-23513000D02*
X27609048Y-23503476D01*
X27609048Y-23503476D02*
X27609048Y-23522524D01*
X27609048Y-23398714D02*
X27618571Y-23408238D01*
X27618571Y-23408238D02*
X27609048Y-23417762D01*
X27609048Y-23417762D02*
X27599524Y-23408238D01*
X27599524Y-23408238D02*
X27609048Y-23398714D01*
X27609048Y-23398714D02*
X27609048Y-23417762D01*
D11*
X25900000Y-23805000D02*
X25990000Y-23895000D01*
X25990000Y-23805000D02*
X25900000Y-23895000D01*
D10*
X26275714Y-23742524D02*
X26294762Y-23742524D01*
X26294762Y-23742524D02*
X26313809Y-23752048D01*
X26313809Y-23752048D02*
X26323333Y-23761571D01*
X26323333Y-23761571D02*
X26332857Y-23780619D01*
X26332857Y-23780619D02*
X26342381Y-23818714D01*
X26342381Y-23818714D02*
X26342381Y-23866333D01*
X26342381Y-23866333D02*
X26332857Y-23904428D01*
X26332857Y-23904428D02*
X26323333Y-23923476D01*
X26323333Y-23923476D02*
X26313809Y-23933000D01*
X26313809Y-23933000D02*
X26294762Y-23942524D01*
X26294762Y-23942524D02*
X26275714Y-23942524D01*
X26275714Y-23942524D02*
X26256667Y-23933000D01*
X26256667Y-23933000D02*
X26247143Y-23923476D01*
X26247143Y-23923476D02*
X26237619Y-23904428D01*
X26237619Y-23904428D02*
X26228095Y-23866333D01*
X26228095Y-23866333D02*
X26228095Y-23818714D01*
X26228095Y-23818714D02*
X26237619Y-23780619D01*
X26237619Y-23780619D02*
X26247143Y-23761571D01*
X26247143Y-23761571D02*
X26256667Y-23752048D01*
X26256667Y-23752048D02*
X26275714Y-23742524D01*
X26428095Y-23923476D02*
X26437619Y-23933000D01*
X26437619Y-23933000D02*
X26428095Y-23942524D01*
X26428095Y-23942524D02*
X26418571Y-23933000D01*
X26418571Y-23933000D02*
X26428095Y-23923476D01*
X26428095Y-23923476D02*
X26428095Y-23942524D01*
X26532857Y-23942524D02*
X26570952Y-23942524D01*
X26570952Y-23942524D02*
X26590000Y-23933000D01*
X26590000Y-23933000D02*
X26599524Y-23923476D01*
X26599524Y-23923476D02*
X26618571Y-23894905D01*
X26618571Y-23894905D02*
X26628095Y-23856809D01*
X26628095Y-23856809D02*
X26628095Y-23780619D01*
X26628095Y-23780619D02*
X26618571Y-23761571D01*
X26618571Y-23761571D02*
X26609048Y-23752048D01*
X26609048Y-23752048D02*
X26590000Y-23742524D01*
X26590000Y-23742524D02*
X26551905Y-23742524D01*
X26551905Y-23742524D02*
X26532857Y-23752048D01*
X26532857Y-23752048D02*
X26523333Y-23761571D01*
X26523333Y-23761571D02*
X26513809Y-23780619D01*
X26513809Y-23780619D02*
X26513809Y-23828238D01*
X26513809Y-23828238D02*
X26523333Y-23847286D01*
X26523333Y-23847286D02*
X26532857Y-23856809D01*
X26532857Y-23856809D02*
X26551905Y-23866333D01*
X26551905Y-23866333D02*
X26590000Y-23866333D01*
X26590000Y-23866333D02*
X26609048Y-23856809D01*
X26609048Y-23856809D02*
X26618571Y-23847286D01*
X26618571Y-23847286D02*
X26628095Y-23828238D01*
X26751905Y-23742524D02*
X26770952Y-23742524D01*
X26770952Y-23742524D02*
X26790000Y-23752048D01*
X26790000Y-23752048D02*
X26799524Y-23761571D01*
X26799524Y-23761571D02*
X26809048Y-23780619D01*
X26809048Y-23780619D02*
X26818571Y-23818714D01*
X26818571Y-23818714D02*
X26818571Y-23866333D01*
X26818571Y-23866333D02*
X26809048Y-23904428D01*
X26809048Y-23904428D02*
X26799524Y-23923476D01*
X26799524Y-23923476D02*
X26790000Y-23933000D01*
X26790000Y-23933000D02*
X26770952Y-23942524D01*
X26770952Y-23942524D02*
X26751905Y-23942524D01*
X26751905Y-23942524D02*
X26732857Y-23933000D01*
X26732857Y-23933000D02*
X26723333Y-23923476D01*
X26723333Y-23923476D02*
X26713809Y-23904428D01*
X26713809Y-23904428D02*
X26704286Y-23866333D01*
X26704286Y-23866333D02*
X26704286Y-23818714D01*
X26704286Y-23818714D02*
X26713809Y-23780619D01*
X26713809Y-23780619D02*
X26723333Y-23761571D01*
X26723333Y-23761571D02*
X26732857Y-23752048D01*
X26732857Y-23752048D02*
X26751905Y-23742524D01*
X26942381Y-23742524D02*
X26961429Y-23742524D01*
X26961429Y-23742524D02*
X26980476Y-23752048D01*
X26980476Y-23752048D02*
X26990000Y-23761571D01*
X26990000Y-23761571D02*
X26999524Y-23780619D01*
X26999524Y-23780619D02*
X27009048Y-23818714D01*
X27009048Y-23818714D02*
X27009048Y-23866333D01*
X27009048Y-23866333D02*
X26999524Y-23904428D01*
X26999524Y-23904428D02*
X26990000Y-23923476D01*
X26990000Y-23923476D02*
X26980476Y-23933000D01*
X26980476Y-23933000D02*
X26961429Y-23942524D01*
X26961429Y-23942524D02*
X26942381Y-23942524D01*
X26942381Y-23942524D02*
X26923333Y-23933000D01*
X26923333Y-23933000D02*
X26913809Y-23923476D01*
X26913809Y-23923476D02*
X26904286Y-23904428D01*
X26904286Y-23904428D02*
X26894762Y-23866333D01*
X26894762Y-23866333D02*
X26894762Y-23818714D01*
X26894762Y-23818714D02*
X26904286Y-23780619D01*
X26904286Y-23780619D02*
X26913809Y-23761571D01*
X26913809Y-23761571D02*
X26923333Y-23752048D01*
X26923333Y-23752048D02*
X26942381Y-23742524D01*
X27094762Y-23942524D02*
X27094762Y-23809190D01*
X27094762Y-23828238D02*
X27104286Y-23818714D01*
X27104286Y-23818714D02*
X27123333Y-23809190D01*
X27123333Y-23809190D02*
X27151905Y-23809190D01*
X27151905Y-23809190D02*
X27170952Y-23818714D01*
X27170952Y-23818714D02*
X27180476Y-23837762D01*
X27180476Y-23837762D02*
X27180476Y-23942524D01*
X27180476Y-23837762D02*
X27190000Y-23818714D01*
X27190000Y-23818714D02*
X27209048Y-23809190D01*
X27209048Y-23809190D02*
X27237619Y-23809190D01*
X27237619Y-23809190D02*
X27256667Y-23818714D01*
X27256667Y-23818714D02*
X27266190Y-23837762D01*
X27266190Y-23837762D02*
X27266190Y-23942524D01*
X27361429Y-23942524D02*
X27361429Y-23809190D01*
X27361429Y-23828238D02*
X27370952Y-23818714D01*
X27370952Y-23818714D02*
X27390000Y-23809190D01*
X27390000Y-23809190D02*
X27418571Y-23809190D01*
X27418571Y-23809190D02*
X27437619Y-23818714D01*
X27437619Y-23818714D02*
X27447143Y-23837762D01*
X27447143Y-23837762D02*
X27447143Y-23942524D01*
X27447143Y-23837762D02*
X27456667Y-23818714D01*
X27456667Y-23818714D02*
X27475714Y-23809190D01*
X27475714Y-23809190D02*
X27504286Y-23809190D01*
X27504286Y-23809190D02*
X27523333Y-23818714D01*
X27523333Y-23818714D02*
X27532857Y-23837762D01*
X27532857Y-23837762D02*
X27532857Y-23942524D01*
X27923333Y-23733000D02*
X27751905Y-23990143D01*
X28180476Y-23742524D02*
X28199524Y-23742524D01*
X28199524Y-23742524D02*
X28218572Y-23752048D01*
X28218572Y-23752048D02*
X28228095Y-23761571D01*
X28228095Y-23761571D02*
X28237619Y-23780619D01*
X28237619Y-23780619D02*
X28247143Y-23818714D01*
X28247143Y-23818714D02*
X28247143Y-23866333D01*
X28247143Y-23866333D02*
X28237619Y-23904428D01*
X28237619Y-23904428D02*
X28228095Y-23923476D01*
X28228095Y-23923476D02*
X28218572Y-23933000D01*
X28218572Y-23933000D02*
X28199524Y-23942524D01*
X28199524Y-23942524D02*
X28180476Y-23942524D01*
X28180476Y-23942524D02*
X28161429Y-23933000D01*
X28161429Y-23933000D02*
X28151905Y-23923476D01*
X28151905Y-23923476D02*
X28142381Y-23904428D01*
X28142381Y-23904428D02*
X28132857Y-23866333D01*
X28132857Y-23866333D02*
X28132857Y-23818714D01*
X28132857Y-23818714D02*
X28142381Y-23780619D01*
X28142381Y-23780619D02*
X28151905Y-23761571D01*
X28151905Y-23761571D02*
X28161429Y-23752048D01*
X28161429Y-23752048D02*
X28180476Y-23742524D01*
X28332857Y-23923476D02*
X28342381Y-23933000D01*
X28342381Y-23933000D02*
X28332857Y-23942524D01*
X28332857Y-23942524D02*
X28323333Y-23933000D01*
X28323333Y-23933000D02*
X28332857Y-23923476D01*
X28332857Y-23923476D02*
X28332857Y-23942524D01*
X28466191Y-23742524D02*
X28485238Y-23742524D01*
X28485238Y-23742524D02*
X28504286Y-23752048D01*
X28504286Y-23752048D02*
X28513810Y-23761571D01*
X28513810Y-23761571D02*
X28523333Y-23780619D01*
X28523333Y-23780619D02*
X28532857Y-23818714D01*
X28532857Y-23818714D02*
X28532857Y-23866333D01*
X28532857Y-23866333D02*
X28523333Y-23904428D01*
X28523333Y-23904428D02*
X28513810Y-23923476D01*
X28513810Y-23923476D02*
X28504286Y-23933000D01*
X28504286Y-23933000D02*
X28485238Y-23942524D01*
X28485238Y-23942524D02*
X28466191Y-23942524D01*
X28466191Y-23942524D02*
X28447143Y-23933000D01*
X28447143Y-23933000D02*
X28437619Y-23923476D01*
X28437619Y-23923476D02*
X28428095Y-23904428D01*
X28428095Y-23904428D02*
X28418572Y-23866333D01*
X28418572Y-23866333D02*
X28418572Y-23818714D01*
X28418572Y-23818714D02*
X28428095Y-23780619D01*
X28428095Y-23780619D02*
X28437619Y-23761571D01*
X28437619Y-23761571D02*
X28447143Y-23752048D01*
X28447143Y-23752048D02*
X28466191Y-23742524D01*
X28599524Y-23742524D02*
X28723333Y-23742524D01*
X28723333Y-23742524D02*
X28656667Y-23818714D01*
X28656667Y-23818714D02*
X28685238Y-23818714D01*
X28685238Y-23818714D02*
X28704286Y-23828238D01*
X28704286Y-23828238D02*
X28713810Y-23837762D01*
X28713810Y-23837762D02*
X28723333Y-23856809D01*
X28723333Y-23856809D02*
X28723333Y-23904428D01*
X28723333Y-23904428D02*
X28713810Y-23923476D01*
X28713810Y-23923476D02*
X28704286Y-23933000D01*
X28704286Y-23933000D02*
X28685238Y-23942524D01*
X28685238Y-23942524D02*
X28628095Y-23942524D01*
X28628095Y-23942524D02*
X28609048Y-23933000D01*
X28609048Y-23933000D02*
X28599524Y-23923476D01*
X28904286Y-23742524D02*
X28809048Y-23742524D01*
X28809048Y-23742524D02*
X28799524Y-23837762D01*
X28799524Y-23837762D02*
X28809048Y-23828238D01*
X28809048Y-23828238D02*
X28828095Y-23818714D01*
X28828095Y-23818714D02*
X28875714Y-23818714D01*
X28875714Y-23818714D02*
X28894762Y-23828238D01*
X28894762Y-23828238D02*
X28904286Y-23837762D01*
X28904286Y-23837762D02*
X28913810Y-23856809D01*
X28913810Y-23856809D02*
X28913810Y-23904428D01*
X28913810Y-23904428D02*
X28904286Y-23923476D01*
X28904286Y-23923476D02*
X28894762Y-23933000D01*
X28894762Y-23933000D02*
X28875714Y-23942524D01*
X28875714Y-23942524D02*
X28828095Y-23942524D01*
X28828095Y-23942524D02*
X28809048Y-23933000D01*
X28809048Y-23933000D02*
X28799524Y-23923476D01*
X29085238Y-23809190D02*
X29085238Y-23942524D01*
X29037619Y-23733000D02*
X28990000Y-23875857D01*
X28990000Y-23875857D02*
X29113810Y-23875857D01*
X29180476Y-23742524D02*
X29180476Y-23780619D01*
X29256667Y-23742524D02*
X29256667Y-23780619D01*
X29551905Y-24018714D02*
X29542381Y-24009190D01*
X29542381Y-24009190D02*
X29523334Y-23980619D01*
X29523334Y-23980619D02*
X29513810Y-23961571D01*
X29513810Y-23961571D02*
X29504286Y-23933000D01*
X29504286Y-23933000D02*
X29494762Y-23885381D01*
X29494762Y-23885381D02*
X29494762Y-23847286D01*
X29494762Y-23847286D02*
X29504286Y-23799667D01*
X29504286Y-23799667D02*
X29513810Y-23771095D01*
X29513810Y-23771095D02*
X29523334Y-23752048D01*
X29523334Y-23752048D02*
X29542381Y-23723476D01*
X29542381Y-23723476D02*
X29551905Y-23713952D01*
X29609048Y-23742524D02*
X29732857Y-23742524D01*
X29732857Y-23742524D02*
X29666191Y-23818714D01*
X29666191Y-23818714D02*
X29694762Y-23818714D01*
X29694762Y-23818714D02*
X29713810Y-23828238D01*
X29713810Y-23828238D02*
X29723334Y-23837762D01*
X29723334Y-23837762D02*
X29732857Y-23856809D01*
X29732857Y-23856809D02*
X29732857Y-23904428D01*
X29732857Y-23904428D02*
X29723334Y-23923476D01*
X29723334Y-23923476D02*
X29713810Y-23933000D01*
X29713810Y-23933000D02*
X29694762Y-23942524D01*
X29694762Y-23942524D02*
X29637619Y-23942524D01*
X29637619Y-23942524D02*
X29618572Y-23933000D01*
X29618572Y-23933000D02*
X29609048Y-23923476D01*
X29904286Y-23809190D02*
X29904286Y-23942524D01*
X29856667Y-23733000D02*
X29809048Y-23875857D01*
X29809048Y-23875857D02*
X29932857Y-23875857D01*
X30161429Y-23942524D02*
X30161429Y-23742524D01*
X30247143Y-23942524D02*
X30247143Y-23837762D01*
X30247143Y-23837762D02*
X30237619Y-23818714D01*
X30237619Y-23818714D02*
X30218572Y-23809190D01*
X30218572Y-23809190D02*
X30190000Y-23809190D01*
X30190000Y-23809190D02*
X30170953Y-23818714D01*
X30170953Y-23818714D02*
X30161429Y-23828238D01*
X30370953Y-23942524D02*
X30351905Y-23933000D01*
X30351905Y-23933000D02*
X30342381Y-23923476D01*
X30342381Y-23923476D02*
X30332857Y-23904428D01*
X30332857Y-23904428D02*
X30332857Y-23847286D01*
X30332857Y-23847286D02*
X30342381Y-23828238D01*
X30342381Y-23828238D02*
X30351905Y-23818714D01*
X30351905Y-23818714D02*
X30370953Y-23809190D01*
X30370953Y-23809190D02*
X30399524Y-23809190D01*
X30399524Y-23809190D02*
X30418572Y-23818714D01*
X30418572Y-23818714D02*
X30428096Y-23828238D01*
X30428096Y-23828238D02*
X30437619Y-23847286D01*
X30437619Y-23847286D02*
X30437619Y-23904428D01*
X30437619Y-23904428D02*
X30428096Y-23923476D01*
X30428096Y-23923476D02*
X30418572Y-23933000D01*
X30418572Y-23933000D02*
X30399524Y-23942524D01*
X30399524Y-23942524D02*
X30370953Y-23942524D01*
X30551905Y-23942524D02*
X30532857Y-23933000D01*
X30532857Y-23933000D02*
X30523334Y-23913952D01*
X30523334Y-23913952D02*
X30523334Y-23742524D01*
X30704286Y-23933000D02*
X30685238Y-23942524D01*
X30685238Y-23942524D02*
X30647143Y-23942524D01*
X30647143Y-23942524D02*
X30628096Y-23933000D01*
X30628096Y-23933000D02*
X30618572Y-23913952D01*
X30618572Y-23913952D02*
X30618572Y-23837762D01*
X30618572Y-23837762D02*
X30628096Y-23818714D01*
X30628096Y-23818714D02*
X30647143Y-23809190D01*
X30647143Y-23809190D02*
X30685238Y-23809190D01*
X30685238Y-23809190D02*
X30704286Y-23818714D01*
X30704286Y-23818714D02*
X30713810Y-23837762D01*
X30713810Y-23837762D02*
X30713810Y-23856809D01*
X30713810Y-23856809D02*
X30618572Y-23875857D01*
X30790000Y-23933000D02*
X30809048Y-23942524D01*
X30809048Y-23942524D02*
X30847143Y-23942524D01*
X30847143Y-23942524D02*
X30866191Y-23933000D01*
X30866191Y-23933000D02*
X30875715Y-23913952D01*
X30875715Y-23913952D02*
X30875715Y-23904428D01*
X30875715Y-23904428D02*
X30866191Y-23885381D01*
X30866191Y-23885381D02*
X30847143Y-23875857D01*
X30847143Y-23875857D02*
X30818572Y-23875857D01*
X30818572Y-23875857D02*
X30799524Y-23866333D01*
X30799524Y-23866333D02*
X30790000Y-23847286D01*
X30790000Y-23847286D02*
X30790000Y-23837762D01*
X30790000Y-23837762D02*
X30799524Y-23818714D01*
X30799524Y-23818714D02*
X30818572Y-23809190D01*
X30818572Y-23809190D02*
X30847143Y-23809190D01*
X30847143Y-23809190D02*
X30866191Y-23818714D01*
X30942381Y-24018714D02*
X30951905Y-24009190D01*
X30951905Y-24009190D02*
X30970953Y-23980619D01*
X30970953Y-23980619D02*
X30980477Y-23961571D01*
X30980477Y-23961571D02*
X30990000Y-23933000D01*
X30990000Y-23933000D02*
X30999524Y-23885381D01*
X30999524Y-23885381D02*
X30999524Y-23847286D01*
X30999524Y-23847286D02*
X30990000Y-23799667D01*
X30990000Y-23799667D02*
X30980477Y-23771095D01*
X30980477Y-23771095D02*
X30970953Y-23752048D01*
X30970953Y-23752048D02*
X30951905Y-23723476D01*
X30951905Y-23723476D02*
X30942381Y-23713952D01*
D12*
X25990000Y-24114000D02*
G75*
G03*
X25990000Y-24114000I-50000J0D01*
G01*
D10*
X26342381Y-24206524D02*
X26228095Y-24206524D01*
X26285238Y-24206524D02*
X26285238Y-24006524D01*
X26285238Y-24006524D02*
X26266190Y-24035095D01*
X26266190Y-24035095D02*
X26247143Y-24054143D01*
X26247143Y-24054143D02*
X26228095Y-24063667D01*
X26428095Y-24187476D02*
X26437619Y-24197000D01*
X26437619Y-24197000D02*
X26428095Y-24206524D01*
X26428095Y-24206524D02*
X26418571Y-24197000D01*
X26418571Y-24197000D02*
X26428095Y-24187476D01*
X26428095Y-24187476D02*
X26428095Y-24206524D01*
X26561428Y-24006524D02*
X26580476Y-24006524D01*
X26580476Y-24006524D02*
X26599524Y-24016048D01*
X26599524Y-24016048D02*
X26609048Y-24025571D01*
X26609048Y-24025571D02*
X26618571Y-24044619D01*
X26618571Y-24044619D02*
X26628095Y-24082714D01*
X26628095Y-24082714D02*
X26628095Y-24130333D01*
X26628095Y-24130333D02*
X26618571Y-24168428D01*
X26618571Y-24168428D02*
X26609048Y-24187476D01*
X26609048Y-24187476D02*
X26599524Y-24197000D01*
X26599524Y-24197000D02*
X26580476Y-24206524D01*
X26580476Y-24206524D02*
X26561428Y-24206524D01*
X26561428Y-24206524D02*
X26542381Y-24197000D01*
X26542381Y-24197000D02*
X26532857Y-24187476D01*
X26532857Y-24187476D02*
X26523333Y-24168428D01*
X26523333Y-24168428D02*
X26513809Y-24130333D01*
X26513809Y-24130333D02*
X26513809Y-24082714D01*
X26513809Y-24082714D02*
X26523333Y-24044619D01*
X26523333Y-24044619D02*
X26532857Y-24025571D01*
X26532857Y-24025571D02*
X26542381Y-24016048D01*
X26542381Y-24016048D02*
X26561428Y-24006524D01*
X26751905Y-24006524D02*
X26770952Y-24006524D01*
X26770952Y-24006524D02*
X26790000Y-24016048D01*
X26790000Y-24016048D02*
X26799524Y-24025571D01*
X26799524Y-24025571D02*
X26809048Y-24044619D01*
X26809048Y-24044619D02*
X26818571Y-24082714D01*
X26818571Y-24082714D02*
X26818571Y-24130333D01*
X26818571Y-24130333D02*
X26809048Y-24168428D01*
X26809048Y-24168428D02*
X26799524Y-24187476D01*
X26799524Y-24187476D02*
X26790000Y-24197000D01*
X26790000Y-24197000D02*
X26770952Y-24206524D01*
X26770952Y-24206524D02*
X26751905Y-24206524D01*
X26751905Y-24206524D02*
X26732857Y-24197000D01*
X26732857Y-24197000D02*
X26723333Y-24187476D01*
X26723333Y-24187476D02*
X26713809Y-24168428D01*
X26713809Y-24168428D02*
X26704286Y-24130333D01*
X26704286Y-24130333D02*
X26704286Y-24082714D01*
X26704286Y-24082714D02*
X26713809Y-24044619D01*
X26713809Y-24044619D02*
X26723333Y-24025571D01*
X26723333Y-24025571D02*
X26732857Y-24016048D01*
X26732857Y-24016048D02*
X26751905Y-24006524D01*
X26942381Y-24006524D02*
X26961429Y-24006524D01*
X26961429Y-24006524D02*
X26980476Y-24016048D01*
X26980476Y-24016048D02*
X26990000Y-24025571D01*
X26990000Y-24025571D02*
X26999524Y-24044619D01*
X26999524Y-24044619D02*
X27009048Y-24082714D01*
X27009048Y-24082714D02*
X27009048Y-24130333D01*
X27009048Y-24130333D02*
X26999524Y-24168428D01*
X26999524Y-24168428D02*
X26990000Y-24187476D01*
X26990000Y-24187476D02*
X26980476Y-24197000D01*
X26980476Y-24197000D02*
X26961429Y-24206524D01*
X26961429Y-24206524D02*
X26942381Y-24206524D01*
X26942381Y-24206524D02*
X26923333Y-24197000D01*
X26923333Y-24197000D02*
X26913809Y-24187476D01*
X26913809Y-24187476D02*
X26904286Y-24168428D01*
X26904286Y-24168428D02*
X26894762Y-24130333D01*
X26894762Y-24130333D02*
X26894762Y-24082714D01*
X26894762Y-24082714D02*
X26904286Y-24044619D01*
X26904286Y-24044619D02*
X26913809Y-24025571D01*
X26913809Y-24025571D02*
X26923333Y-24016048D01*
X26923333Y-24016048D02*
X26942381Y-24006524D01*
X27094762Y-24206524D02*
X27094762Y-24073190D01*
X27094762Y-24092238D02*
X27104286Y-24082714D01*
X27104286Y-24082714D02*
X27123333Y-24073190D01*
X27123333Y-24073190D02*
X27151905Y-24073190D01*
X27151905Y-24073190D02*
X27170952Y-24082714D01*
X27170952Y-24082714D02*
X27180476Y-24101762D01*
X27180476Y-24101762D02*
X27180476Y-24206524D01*
X27180476Y-24101762D02*
X27190000Y-24082714D01*
X27190000Y-24082714D02*
X27209048Y-24073190D01*
X27209048Y-24073190D02*
X27237619Y-24073190D01*
X27237619Y-24073190D02*
X27256667Y-24082714D01*
X27256667Y-24082714D02*
X27266190Y-24101762D01*
X27266190Y-24101762D02*
X27266190Y-24206524D01*
X27361429Y-24206524D02*
X27361429Y-24073190D01*
X27361429Y-24092238D02*
X27370952Y-24082714D01*
X27370952Y-24082714D02*
X27390000Y-24073190D01*
X27390000Y-24073190D02*
X27418571Y-24073190D01*
X27418571Y-24073190D02*
X27437619Y-24082714D01*
X27437619Y-24082714D02*
X27447143Y-24101762D01*
X27447143Y-24101762D02*
X27447143Y-24206524D01*
X27447143Y-24101762D02*
X27456667Y-24082714D01*
X27456667Y-24082714D02*
X27475714Y-24073190D01*
X27475714Y-24073190D02*
X27504286Y-24073190D01*
X27504286Y-24073190D02*
X27523333Y-24082714D01*
X27523333Y-24082714D02*
X27532857Y-24101762D01*
X27532857Y-24101762D02*
X27532857Y-24206524D01*
X27923333Y-23997000D02*
X27751905Y-24254143D01*
X28180476Y-24006524D02*
X28199524Y-24006524D01*
X28199524Y-24006524D02*
X28218572Y-24016048D01*
X28218572Y-24016048D02*
X28228095Y-24025571D01*
X28228095Y-24025571D02*
X28237619Y-24044619D01*
X28237619Y-24044619D02*
X28247143Y-24082714D01*
X28247143Y-24082714D02*
X28247143Y-24130333D01*
X28247143Y-24130333D02*
X28237619Y-24168428D01*
X28237619Y-24168428D02*
X28228095Y-24187476D01*
X28228095Y-24187476D02*
X28218572Y-24197000D01*
X28218572Y-24197000D02*
X28199524Y-24206524D01*
X28199524Y-24206524D02*
X28180476Y-24206524D01*
X28180476Y-24206524D02*
X28161429Y-24197000D01*
X28161429Y-24197000D02*
X28151905Y-24187476D01*
X28151905Y-24187476D02*
X28142381Y-24168428D01*
X28142381Y-24168428D02*
X28132857Y-24130333D01*
X28132857Y-24130333D02*
X28132857Y-24082714D01*
X28132857Y-24082714D02*
X28142381Y-24044619D01*
X28142381Y-24044619D02*
X28151905Y-24025571D01*
X28151905Y-24025571D02*
X28161429Y-24016048D01*
X28161429Y-24016048D02*
X28180476Y-24006524D01*
X28332857Y-24187476D02*
X28342381Y-24197000D01*
X28342381Y-24197000D02*
X28332857Y-24206524D01*
X28332857Y-24206524D02*
X28323333Y-24197000D01*
X28323333Y-24197000D02*
X28332857Y-24187476D01*
X28332857Y-24187476D02*
X28332857Y-24206524D01*
X28466191Y-24006524D02*
X28485238Y-24006524D01*
X28485238Y-24006524D02*
X28504286Y-24016048D01*
X28504286Y-24016048D02*
X28513810Y-24025571D01*
X28513810Y-24025571D02*
X28523333Y-24044619D01*
X28523333Y-24044619D02*
X28532857Y-24082714D01*
X28532857Y-24082714D02*
X28532857Y-24130333D01*
X28532857Y-24130333D02*
X28523333Y-24168428D01*
X28523333Y-24168428D02*
X28513810Y-24187476D01*
X28513810Y-24187476D02*
X28504286Y-24197000D01*
X28504286Y-24197000D02*
X28485238Y-24206524D01*
X28485238Y-24206524D02*
X28466191Y-24206524D01*
X28466191Y-24206524D02*
X28447143Y-24197000D01*
X28447143Y-24197000D02*
X28437619Y-24187476D01*
X28437619Y-24187476D02*
X28428095Y-24168428D01*
X28428095Y-24168428D02*
X28418572Y-24130333D01*
X28418572Y-24130333D02*
X28418572Y-24082714D01*
X28418572Y-24082714D02*
X28428095Y-24044619D01*
X28428095Y-24044619D02*
X28437619Y-24025571D01*
X28437619Y-24025571D02*
X28447143Y-24016048D01*
X28447143Y-24016048D02*
X28466191Y-24006524D01*
X28599524Y-24006524D02*
X28723333Y-24006524D01*
X28723333Y-24006524D02*
X28656667Y-24082714D01*
X28656667Y-24082714D02*
X28685238Y-24082714D01*
X28685238Y-24082714D02*
X28704286Y-24092238D01*
X28704286Y-24092238D02*
X28713810Y-24101762D01*
X28713810Y-24101762D02*
X28723333Y-24120809D01*
X28723333Y-24120809D02*
X28723333Y-24168428D01*
X28723333Y-24168428D02*
X28713810Y-24187476D01*
X28713810Y-24187476D02*
X28704286Y-24197000D01*
X28704286Y-24197000D02*
X28685238Y-24206524D01*
X28685238Y-24206524D02*
X28628095Y-24206524D01*
X28628095Y-24206524D02*
X28609048Y-24197000D01*
X28609048Y-24197000D02*
X28599524Y-24187476D01*
X28818572Y-24206524D02*
X28856667Y-24206524D01*
X28856667Y-24206524D02*
X28875714Y-24197000D01*
X28875714Y-24197000D02*
X28885238Y-24187476D01*
X28885238Y-24187476D02*
X28904286Y-24158905D01*
X28904286Y-24158905D02*
X28913810Y-24120809D01*
X28913810Y-24120809D02*
X28913810Y-24044619D01*
X28913810Y-24044619D02*
X28904286Y-24025571D01*
X28904286Y-24025571D02*
X28894762Y-24016048D01*
X28894762Y-24016048D02*
X28875714Y-24006524D01*
X28875714Y-24006524D02*
X28837619Y-24006524D01*
X28837619Y-24006524D02*
X28818572Y-24016048D01*
X28818572Y-24016048D02*
X28809048Y-24025571D01*
X28809048Y-24025571D02*
X28799524Y-24044619D01*
X28799524Y-24044619D02*
X28799524Y-24092238D01*
X28799524Y-24092238D02*
X28809048Y-24111286D01*
X28809048Y-24111286D02*
X28818572Y-24120809D01*
X28818572Y-24120809D02*
X28837619Y-24130333D01*
X28837619Y-24130333D02*
X28875714Y-24130333D01*
X28875714Y-24130333D02*
X28894762Y-24120809D01*
X28894762Y-24120809D02*
X28904286Y-24111286D01*
X28904286Y-24111286D02*
X28913810Y-24092238D01*
X29085238Y-24073190D02*
X29085238Y-24206524D01*
X29037619Y-23997000D02*
X28990000Y-24139857D01*
X28990000Y-24139857D02*
X29113810Y-24139857D01*
X29180476Y-24006524D02*
X29180476Y-24044619D01*
X29256667Y-24006524D02*
X29256667Y-24044619D01*
X29551905Y-24282714D02*
X29542381Y-24273190D01*
X29542381Y-24273190D02*
X29523334Y-24244619D01*
X29523334Y-24244619D02*
X29513810Y-24225571D01*
X29513810Y-24225571D02*
X29504286Y-24197000D01*
X29504286Y-24197000D02*
X29494762Y-24149381D01*
X29494762Y-24149381D02*
X29494762Y-24111286D01*
X29494762Y-24111286D02*
X29504286Y-24063667D01*
X29504286Y-24063667D02*
X29513810Y-24035095D01*
X29513810Y-24035095D02*
X29523334Y-24016048D01*
X29523334Y-24016048D02*
X29542381Y-23987476D01*
X29542381Y-23987476D02*
X29551905Y-23977952D01*
X29732857Y-24206524D02*
X29618572Y-24206524D01*
X29675714Y-24206524D02*
X29675714Y-24006524D01*
X29675714Y-24006524D02*
X29656667Y-24035095D01*
X29656667Y-24035095D02*
X29637619Y-24054143D01*
X29637619Y-24054143D02*
X29618572Y-24063667D01*
X29847143Y-24092238D02*
X29828095Y-24082714D01*
X29828095Y-24082714D02*
X29818572Y-24073190D01*
X29818572Y-24073190D02*
X29809048Y-24054143D01*
X29809048Y-24054143D02*
X29809048Y-24044619D01*
X29809048Y-24044619D02*
X29818572Y-24025571D01*
X29818572Y-24025571D02*
X29828095Y-24016048D01*
X29828095Y-24016048D02*
X29847143Y-24006524D01*
X29847143Y-24006524D02*
X29885238Y-24006524D01*
X29885238Y-24006524D02*
X29904286Y-24016048D01*
X29904286Y-24016048D02*
X29913810Y-24025571D01*
X29913810Y-24025571D02*
X29923334Y-24044619D01*
X29923334Y-24044619D02*
X29923334Y-24054143D01*
X29923334Y-24054143D02*
X29913810Y-24073190D01*
X29913810Y-24073190D02*
X29904286Y-24082714D01*
X29904286Y-24082714D02*
X29885238Y-24092238D01*
X29885238Y-24092238D02*
X29847143Y-24092238D01*
X29847143Y-24092238D02*
X29828095Y-24101762D01*
X29828095Y-24101762D02*
X29818572Y-24111286D01*
X29818572Y-24111286D02*
X29809048Y-24130333D01*
X29809048Y-24130333D02*
X29809048Y-24168428D01*
X29809048Y-24168428D02*
X29818572Y-24187476D01*
X29818572Y-24187476D02*
X29828095Y-24197000D01*
X29828095Y-24197000D02*
X29847143Y-24206524D01*
X29847143Y-24206524D02*
X29885238Y-24206524D01*
X29885238Y-24206524D02*
X29904286Y-24197000D01*
X29904286Y-24197000D02*
X29913810Y-24187476D01*
X29913810Y-24187476D02*
X29923334Y-24168428D01*
X29923334Y-24168428D02*
X29923334Y-24130333D01*
X29923334Y-24130333D02*
X29913810Y-24111286D01*
X29913810Y-24111286D02*
X29904286Y-24101762D01*
X29904286Y-24101762D02*
X29885238Y-24092238D01*
X30161429Y-24206524D02*
X30161429Y-24006524D01*
X30247143Y-24206524D02*
X30247143Y-24101762D01*
X30247143Y-24101762D02*
X30237619Y-24082714D01*
X30237619Y-24082714D02*
X30218572Y-24073190D01*
X30218572Y-24073190D02*
X30190000Y-24073190D01*
X30190000Y-24073190D02*
X30170953Y-24082714D01*
X30170953Y-24082714D02*
X30161429Y-24092238D01*
X30370953Y-24206524D02*
X30351905Y-24197000D01*
X30351905Y-24197000D02*
X30342381Y-24187476D01*
X30342381Y-24187476D02*
X30332857Y-24168428D01*
X30332857Y-24168428D02*
X30332857Y-24111286D01*
X30332857Y-24111286D02*
X30342381Y-24092238D01*
X30342381Y-24092238D02*
X30351905Y-24082714D01*
X30351905Y-24082714D02*
X30370953Y-24073190D01*
X30370953Y-24073190D02*
X30399524Y-24073190D01*
X30399524Y-24073190D02*
X30418572Y-24082714D01*
X30418572Y-24082714D02*
X30428096Y-24092238D01*
X30428096Y-24092238D02*
X30437619Y-24111286D01*
X30437619Y-24111286D02*
X30437619Y-24168428D01*
X30437619Y-24168428D02*
X30428096Y-24187476D01*
X30428096Y-24187476D02*
X30418572Y-24197000D01*
X30418572Y-24197000D02*
X30399524Y-24206524D01*
X30399524Y-24206524D02*
X30370953Y-24206524D01*
X30551905Y-24206524D02*
X30532857Y-24197000D01*
X30532857Y-24197000D02*
X30523334Y-24177952D01*
X30523334Y-24177952D02*
X30523334Y-24006524D01*
X30704286Y-24197000D02*
X30685238Y-24206524D01*
X30685238Y-24206524D02*
X30647143Y-24206524D01*
X30647143Y-24206524D02*
X30628096Y-24197000D01*
X30628096Y-24197000D02*
X30618572Y-24177952D01*
X30618572Y-24177952D02*
X30618572Y-24101762D01*
X30618572Y-24101762D02*
X30628096Y-24082714D01*
X30628096Y-24082714D02*
X30647143Y-24073190D01*
X30647143Y-24073190D02*
X30685238Y-24073190D01*
X30685238Y-24073190D02*
X30704286Y-24082714D01*
X30704286Y-24082714D02*
X30713810Y-24101762D01*
X30713810Y-24101762D02*
X30713810Y-24120809D01*
X30713810Y-24120809D02*
X30618572Y-24139857D01*
X30790000Y-24197000D02*
X30809048Y-24206524D01*
X30809048Y-24206524D02*
X30847143Y-24206524D01*
X30847143Y-24206524D02*
X30866191Y-24197000D01*
X30866191Y-24197000D02*
X30875715Y-24177952D01*
X30875715Y-24177952D02*
X30875715Y-24168428D01*
X30875715Y-24168428D02*
X30866191Y-24149381D01*
X30866191Y-24149381D02*
X30847143Y-24139857D01*
X30847143Y-24139857D02*
X30818572Y-24139857D01*
X30818572Y-24139857D02*
X30799524Y-24130333D01*
X30799524Y-24130333D02*
X30790000Y-24111286D01*
X30790000Y-24111286D02*
X30790000Y-24101762D01*
X30790000Y-24101762D02*
X30799524Y-24082714D01*
X30799524Y-24082714D02*
X30818572Y-24073190D01*
X30818572Y-24073190D02*
X30847143Y-24073190D01*
X30847143Y-24073190D02*
X30866191Y-24082714D01*
X30942381Y-24282714D02*
X30951905Y-24273190D01*
X30951905Y-24273190D02*
X30970953Y-24244619D01*
X30970953Y-24244619D02*
X30980477Y-24225571D01*
X30980477Y-24225571D02*
X30990000Y-24197000D01*
X30990000Y-24197000D02*
X30999524Y-24149381D01*
X30999524Y-24149381D02*
X30999524Y-24111286D01*
X30999524Y-24111286D02*
X30990000Y-24063667D01*
X30990000Y-24063667D02*
X30980477Y-24035095D01*
X30980477Y-24035095D02*
X30970953Y-24016048D01*
X30970953Y-24016048D02*
X30951905Y-23987476D01*
X30951905Y-23987476D02*
X30942381Y-23977952D01*
D13*
X25916500Y-24304500D02*
X25916500Y-24451500D01*
X25843000Y-24378000D02*
X25990000Y-24378000D01*
D10*
X26342381Y-24470524D02*
X26228095Y-24470524D01*
X26285238Y-24470524D02*
X26285238Y-24270524D01*
X26285238Y-24270524D02*
X26266190Y-24299095D01*
X26266190Y-24299095D02*
X26247143Y-24318143D01*
X26247143Y-24318143D02*
X26228095Y-24327667D01*
X26428095Y-24451476D02*
X26437619Y-24461000D01*
X26437619Y-24461000D02*
X26428095Y-24470524D01*
X26428095Y-24470524D02*
X26418571Y-24461000D01*
X26418571Y-24461000D02*
X26428095Y-24451476D01*
X26428095Y-24451476D02*
X26428095Y-24470524D01*
X26609048Y-24337190D02*
X26609048Y-24470524D01*
X26561428Y-24261000D02*
X26513809Y-24403857D01*
X26513809Y-24403857D02*
X26637619Y-24403857D01*
X26694762Y-24270524D02*
X26828095Y-24270524D01*
X26828095Y-24270524D02*
X26742381Y-24470524D01*
X26942381Y-24270524D02*
X26961429Y-24270524D01*
X26961429Y-24270524D02*
X26980476Y-24280048D01*
X26980476Y-24280048D02*
X26990000Y-24289571D01*
X26990000Y-24289571D02*
X26999524Y-24308619D01*
X26999524Y-24308619D02*
X27009048Y-24346714D01*
X27009048Y-24346714D02*
X27009048Y-24394333D01*
X27009048Y-24394333D02*
X26999524Y-24432428D01*
X26999524Y-24432428D02*
X26990000Y-24451476D01*
X26990000Y-24451476D02*
X26980476Y-24461000D01*
X26980476Y-24461000D02*
X26961429Y-24470524D01*
X26961429Y-24470524D02*
X26942381Y-24470524D01*
X26942381Y-24470524D02*
X26923333Y-24461000D01*
X26923333Y-24461000D02*
X26913809Y-24451476D01*
X26913809Y-24451476D02*
X26904286Y-24432428D01*
X26904286Y-24432428D02*
X26894762Y-24394333D01*
X26894762Y-24394333D02*
X26894762Y-24346714D01*
X26894762Y-24346714D02*
X26904286Y-24308619D01*
X26904286Y-24308619D02*
X26913809Y-24289571D01*
X26913809Y-24289571D02*
X26923333Y-24280048D01*
X26923333Y-24280048D02*
X26942381Y-24270524D01*
X27094762Y-24470524D02*
X27094762Y-24337190D01*
X27094762Y-24356238D02*
X27104286Y-24346714D01*
X27104286Y-24346714D02*
X27123333Y-24337190D01*
X27123333Y-24337190D02*
X27151905Y-24337190D01*
X27151905Y-24337190D02*
X27170952Y-24346714D01*
X27170952Y-24346714D02*
X27180476Y-24365762D01*
X27180476Y-24365762D02*
X27180476Y-24470524D01*
X27180476Y-24365762D02*
X27190000Y-24346714D01*
X27190000Y-24346714D02*
X27209048Y-24337190D01*
X27209048Y-24337190D02*
X27237619Y-24337190D01*
X27237619Y-24337190D02*
X27256667Y-24346714D01*
X27256667Y-24346714D02*
X27266190Y-24365762D01*
X27266190Y-24365762D02*
X27266190Y-24470524D01*
X27361429Y-24470524D02*
X27361429Y-24337190D01*
X27361429Y-24356238D02*
X27370952Y-24346714D01*
X27370952Y-24346714D02*
X27390000Y-24337190D01*
X27390000Y-24337190D02*
X27418571Y-24337190D01*
X27418571Y-24337190D02*
X27437619Y-24346714D01*
X27437619Y-24346714D02*
X27447143Y-24365762D01*
X27447143Y-24365762D02*
X27447143Y-24470524D01*
X27447143Y-24365762D02*
X27456667Y-24346714D01*
X27456667Y-24346714D02*
X27475714Y-24337190D01*
X27475714Y-24337190D02*
X27504286Y-24337190D01*
X27504286Y-24337190D02*
X27523333Y-24346714D01*
X27523333Y-24346714D02*
X27532857Y-24365762D01*
X27532857Y-24365762D02*
X27532857Y-24470524D01*
X27923333Y-24261000D02*
X27751905Y-24518143D01*
X28180476Y-24270524D02*
X28199524Y-24270524D01*
X28199524Y-24270524D02*
X28218572Y-24280048D01*
X28218572Y-24280048D02*
X28228095Y-24289571D01*
X28228095Y-24289571D02*
X28237619Y-24308619D01*
X28237619Y-24308619D02*
X28247143Y-24346714D01*
X28247143Y-24346714D02*
X28247143Y-24394333D01*
X28247143Y-24394333D02*
X28237619Y-24432428D01*
X28237619Y-24432428D02*
X28228095Y-24451476D01*
X28228095Y-24451476D02*
X28218572Y-24461000D01*
X28218572Y-24461000D02*
X28199524Y-24470524D01*
X28199524Y-24470524D02*
X28180476Y-24470524D01*
X28180476Y-24470524D02*
X28161429Y-24461000D01*
X28161429Y-24461000D02*
X28151905Y-24451476D01*
X28151905Y-24451476D02*
X28142381Y-24432428D01*
X28142381Y-24432428D02*
X28132857Y-24394333D01*
X28132857Y-24394333D02*
X28132857Y-24346714D01*
X28132857Y-24346714D02*
X28142381Y-24308619D01*
X28142381Y-24308619D02*
X28151905Y-24289571D01*
X28151905Y-24289571D02*
X28161429Y-24280048D01*
X28161429Y-24280048D02*
X28180476Y-24270524D01*
X28332857Y-24451476D02*
X28342381Y-24461000D01*
X28342381Y-24461000D02*
X28332857Y-24470524D01*
X28332857Y-24470524D02*
X28323333Y-24461000D01*
X28323333Y-24461000D02*
X28332857Y-24451476D01*
X28332857Y-24451476D02*
X28332857Y-24470524D01*
X28466191Y-24270524D02*
X28485238Y-24270524D01*
X28485238Y-24270524D02*
X28504286Y-24280048D01*
X28504286Y-24280048D02*
X28513810Y-24289571D01*
X28513810Y-24289571D02*
X28523333Y-24308619D01*
X28523333Y-24308619D02*
X28532857Y-24346714D01*
X28532857Y-24346714D02*
X28532857Y-24394333D01*
X28532857Y-24394333D02*
X28523333Y-24432428D01*
X28523333Y-24432428D02*
X28513810Y-24451476D01*
X28513810Y-24451476D02*
X28504286Y-24461000D01*
X28504286Y-24461000D02*
X28485238Y-24470524D01*
X28485238Y-24470524D02*
X28466191Y-24470524D01*
X28466191Y-24470524D02*
X28447143Y-24461000D01*
X28447143Y-24461000D02*
X28437619Y-24451476D01*
X28437619Y-24451476D02*
X28428095Y-24432428D01*
X28428095Y-24432428D02*
X28418572Y-24394333D01*
X28418572Y-24394333D02*
X28418572Y-24346714D01*
X28418572Y-24346714D02*
X28428095Y-24308619D01*
X28428095Y-24308619D02*
X28437619Y-24289571D01*
X28437619Y-24289571D02*
X28447143Y-24280048D01*
X28447143Y-24280048D02*
X28466191Y-24270524D01*
X28713810Y-24270524D02*
X28618572Y-24270524D01*
X28618572Y-24270524D02*
X28609048Y-24365762D01*
X28609048Y-24365762D02*
X28618572Y-24356238D01*
X28618572Y-24356238D02*
X28637619Y-24346714D01*
X28637619Y-24346714D02*
X28685238Y-24346714D01*
X28685238Y-24346714D02*
X28704286Y-24356238D01*
X28704286Y-24356238D02*
X28713810Y-24365762D01*
X28713810Y-24365762D02*
X28723333Y-24384809D01*
X28723333Y-24384809D02*
X28723333Y-24432428D01*
X28723333Y-24432428D02*
X28713810Y-24451476D01*
X28713810Y-24451476D02*
X28704286Y-24461000D01*
X28704286Y-24461000D02*
X28685238Y-24470524D01*
X28685238Y-24470524D02*
X28637619Y-24470524D01*
X28637619Y-24470524D02*
X28618572Y-24461000D01*
X28618572Y-24461000D02*
X28609048Y-24451476D01*
X28790000Y-24270524D02*
X28923333Y-24270524D01*
X28923333Y-24270524D02*
X28837619Y-24470524D01*
X29009048Y-24470524D02*
X29047143Y-24470524D01*
X29047143Y-24470524D02*
X29066191Y-24461000D01*
X29066191Y-24461000D02*
X29075714Y-24451476D01*
X29075714Y-24451476D02*
X29094762Y-24422905D01*
X29094762Y-24422905D02*
X29104286Y-24384809D01*
X29104286Y-24384809D02*
X29104286Y-24308619D01*
X29104286Y-24308619D02*
X29094762Y-24289571D01*
X29094762Y-24289571D02*
X29085238Y-24280048D01*
X29085238Y-24280048D02*
X29066191Y-24270524D01*
X29066191Y-24270524D02*
X29028095Y-24270524D01*
X29028095Y-24270524D02*
X29009048Y-24280048D01*
X29009048Y-24280048D02*
X28999524Y-24289571D01*
X28999524Y-24289571D02*
X28990000Y-24308619D01*
X28990000Y-24308619D02*
X28990000Y-24356238D01*
X28990000Y-24356238D02*
X28999524Y-24375286D01*
X28999524Y-24375286D02*
X29009048Y-24384809D01*
X29009048Y-24384809D02*
X29028095Y-24394333D01*
X29028095Y-24394333D02*
X29066191Y-24394333D01*
X29066191Y-24394333D02*
X29085238Y-24384809D01*
X29085238Y-24384809D02*
X29094762Y-24375286D01*
X29094762Y-24375286D02*
X29104286Y-24356238D01*
X29180476Y-24270524D02*
X29180476Y-24308619D01*
X29256667Y-24270524D02*
X29256667Y-24308619D01*
X29551905Y-24546714D02*
X29542381Y-24537190D01*
X29542381Y-24537190D02*
X29523334Y-24508619D01*
X29523334Y-24508619D02*
X29513810Y-24489571D01*
X29513810Y-24489571D02*
X29504286Y-24461000D01*
X29504286Y-24461000D02*
X29494762Y-24413381D01*
X29494762Y-24413381D02*
X29494762Y-24375286D01*
X29494762Y-24375286D02*
X29504286Y-24327667D01*
X29504286Y-24327667D02*
X29513810Y-24299095D01*
X29513810Y-24299095D02*
X29523334Y-24280048D01*
X29523334Y-24280048D02*
X29542381Y-24251476D01*
X29542381Y-24251476D02*
X29551905Y-24241952D01*
X29713810Y-24270524D02*
X29675714Y-24270524D01*
X29675714Y-24270524D02*
X29656667Y-24280048D01*
X29656667Y-24280048D02*
X29647143Y-24289571D01*
X29647143Y-24289571D02*
X29628095Y-24318143D01*
X29628095Y-24318143D02*
X29618572Y-24356238D01*
X29618572Y-24356238D02*
X29618572Y-24432428D01*
X29618572Y-24432428D02*
X29628095Y-24451476D01*
X29628095Y-24451476D02*
X29637619Y-24461000D01*
X29637619Y-24461000D02*
X29656667Y-24470524D01*
X29656667Y-24470524D02*
X29694762Y-24470524D01*
X29694762Y-24470524D02*
X29713810Y-24461000D01*
X29713810Y-24461000D02*
X29723334Y-24451476D01*
X29723334Y-24451476D02*
X29732857Y-24432428D01*
X29732857Y-24432428D02*
X29732857Y-24384809D01*
X29732857Y-24384809D02*
X29723334Y-24365762D01*
X29723334Y-24365762D02*
X29713810Y-24356238D01*
X29713810Y-24356238D02*
X29694762Y-24346714D01*
X29694762Y-24346714D02*
X29656667Y-24346714D01*
X29656667Y-24346714D02*
X29637619Y-24356238D01*
X29637619Y-24356238D02*
X29628095Y-24365762D01*
X29628095Y-24365762D02*
X29618572Y-24384809D01*
X29847143Y-24356238D02*
X29828095Y-24346714D01*
X29828095Y-24346714D02*
X29818572Y-24337190D01*
X29818572Y-24337190D02*
X29809048Y-24318143D01*
X29809048Y-24318143D02*
X29809048Y-24308619D01*
X29809048Y-24308619D02*
X29818572Y-24289571D01*
X29818572Y-24289571D02*
X29828095Y-24280048D01*
X29828095Y-24280048D02*
X29847143Y-24270524D01*
X29847143Y-24270524D02*
X29885238Y-24270524D01*
X29885238Y-24270524D02*
X29904286Y-24280048D01*
X29904286Y-24280048D02*
X29913810Y-24289571D01*
X29913810Y-24289571D02*
X29923334Y-24308619D01*
X29923334Y-24308619D02*
X29923334Y-24318143D01*
X29923334Y-24318143D02*
X29913810Y-24337190D01*
X29913810Y-24337190D02*
X29904286Y-24346714D01*
X29904286Y-24346714D02*
X29885238Y-24356238D01*
X29885238Y-24356238D02*
X29847143Y-24356238D01*
X29847143Y-24356238D02*
X29828095Y-24365762D01*
X29828095Y-24365762D02*
X29818572Y-24375286D01*
X29818572Y-24375286D02*
X29809048Y-24394333D01*
X29809048Y-24394333D02*
X29809048Y-24432428D01*
X29809048Y-24432428D02*
X29818572Y-24451476D01*
X29818572Y-24451476D02*
X29828095Y-24461000D01*
X29828095Y-24461000D02*
X29847143Y-24470524D01*
X29847143Y-24470524D02*
X29885238Y-24470524D01*
X29885238Y-24470524D02*
X29904286Y-24461000D01*
X29904286Y-24461000D02*
X29913810Y-24451476D01*
X29913810Y-24451476D02*
X29923334Y-24432428D01*
X29923334Y-24432428D02*
X29923334Y-24394333D01*
X29923334Y-24394333D02*
X29913810Y-24375286D01*
X29913810Y-24375286D02*
X29904286Y-24365762D01*
X29904286Y-24365762D02*
X29885238Y-24356238D01*
X30161429Y-24470524D02*
X30161429Y-24270524D01*
X30247143Y-24470524D02*
X30247143Y-24365762D01*
X30247143Y-24365762D02*
X30237619Y-24346714D01*
X30237619Y-24346714D02*
X30218572Y-24337190D01*
X30218572Y-24337190D02*
X30190000Y-24337190D01*
X30190000Y-24337190D02*
X30170953Y-24346714D01*
X30170953Y-24346714D02*
X30161429Y-24356238D01*
X30370953Y-24470524D02*
X30351905Y-24461000D01*
X30351905Y-24461000D02*
X30342381Y-24451476D01*
X30342381Y-24451476D02*
X30332857Y-24432428D01*
X30332857Y-24432428D02*
X30332857Y-24375286D01*
X30332857Y-24375286D02*
X30342381Y-24356238D01*
X30342381Y-24356238D02*
X30351905Y-24346714D01*
X30351905Y-24346714D02*
X30370953Y-24337190D01*
X30370953Y-24337190D02*
X30399524Y-24337190D01*
X30399524Y-24337190D02*
X30418572Y-24346714D01*
X30418572Y-24346714D02*
X30428096Y-24356238D01*
X30428096Y-24356238D02*
X30437619Y-24375286D01*
X30437619Y-24375286D02*
X30437619Y-24432428D01*
X30437619Y-24432428D02*
X30428096Y-24451476D01*
X30428096Y-24451476D02*
X30418572Y-24461000D01*
X30418572Y-24461000D02*
X30399524Y-24470524D01*
X30399524Y-24470524D02*
X30370953Y-24470524D01*
X30551905Y-24470524D02*
X30532857Y-24461000D01*
X30532857Y-24461000D02*
X30523334Y-24441952D01*
X30523334Y-24441952D02*
X30523334Y-24270524D01*
X30704286Y-24461000D02*
X30685238Y-24470524D01*
X30685238Y-24470524D02*
X30647143Y-24470524D01*
X30647143Y-24470524D02*
X30628096Y-24461000D01*
X30628096Y-24461000D02*
X30618572Y-24441952D01*
X30618572Y-24441952D02*
X30618572Y-24365762D01*
X30618572Y-24365762D02*
X30628096Y-24346714D01*
X30628096Y-24346714D02*
X30647143Y-24337190D01*
X30647143Y-24337190D02*
X30685238Y-24337190D01*
X30685238Y-24337190D02*
X30704286Y-24346714D01*
X30704286Y-24346714D02*
X30713810Y-24365762D01*
X30713810Y-24365762D02*
X30713810Y-24384809D01*
X30713810Y-24384809D02*
X30618572Y-24403857D01*
X30790000Y-24461000D02*
X30809048Y-24470524D01*
X30809048Y-24470524D02*
X30847143Y-24470524D01*
X30847143Y-24470524D02*
X30866191Y-24461000D01*
X30866191Y-24461000D02*
X30875715Y-24441952D01*
X30875715Y-24441952D02*
X30875715Y-24432428D01*
X30875715Y-24432428D02*
X30866191Y-24413381D01*
X30866191Y-24413381D02*
X30847143Y-24403857D01*
X30847143Y-24403857D02*
X30818572Y-24403857D01*
X30818572Y-24403857D02*
X30799524Y-24394333D01*
X30799524Y-24394333D02*
X30790000Y-24375286D01*
X30790000Y-24375286D02*
X30790000Y-24365762D01*
X30790000Y-24365762D02*
X30799524Y-24346714D01*
X30799524Y-24346714D02*
X30818572Y-24337190D01*
X30818572Y-24337190D02*
X30847143Y-24337190D01*
X30847143Y-24337190D02*
X30866191Y-24346714D01*
X30942381Y-24546714D02*
X30951905Y-24537190D01*
X30951905Y-24537190D02*
X30970953Y-24508619D01*
X30970953Y-24508619D02*
X30980477Y-24489571D01*
X30980477Y-24489571D02*
X30990000Y-24461000D01*
X30990000Y-24461000D02*
X30999524Y-24413381D01*
X30999524Y-24413381D02*
X30999524Y-24375286D01*
X30999524Y-24375286D02*
X30990000Y-24327667D01*
X30990000Y-24327667D02*
X30980477Y-24299095D01*
X30980477Y-24299095D02*
X30970953Y-24280048D01*
X30970953Y-24280048D02*
X30951905Y-24251476D01*
X30951905Y-24251476D02*
X30942381Y-24241952D01*
M02*
