G04 #@! TF.GenerationSoftware,KiCad,Pcbnew,7.0.1*
G04 #@! TF.CreationDate,2023-10-11T20:02:21-04:00*
G04 #@! TF.ProjectId,keyboard,6b657962-6f61-4726-942e-6b696361645f,rev?*
G04 #@! TF.SameCoordinates,Original*
G04 #@! TF.FileFunction,Soldermask,Bot*
G04 #@! TF.FilePolarity,Negative*
%FSLAX46Y46*%
G04 Gerber Fmt 4.6, Leading zero omitted, Abs format (unit mm)*
G04 Created by KiCad (PCBNEW 7.0.1) date 2023-10-11 20:02:21*
%MOMM*%
%LPD*%
G01*
G04 APERTURE LIST*
G04 Aperture macros list*
%AMHorizOval*
0 Thick line with rounded ends*
0 $1 width*
0 $2 $3 position (X,Y) of the first rounded end (center of the circle)*
0 $4 $5 position (X,Y) of the second rounded end (center of the circle)*
0 Add line between two ends*
20,1,$1,$2,$3,$4,$5,0*
0 Add two circle primitives to create the rounded ends*
1,1,$1,$2,$3*
1,1,$1,$4,$5*%
G04 Aperture macros list end*
%ADD10R,1.800000X1.800000*%
%ADD11O,1.800000X1.800000*%
%ADD12C,3.048000*%
%ADD13C,3.987800*%
%ADD14C,1.750000*%
%ADD15HorizOval,2.250000X-0.730000X0.655001X0.730000X-0.655001X0*%
%ADD16C,2.250000*%
%ADD17HorizOval,2.250000X-0.290000X0.020000X0.290000X-0.020000X0*%
%ADD18C,2.200000*%
%ADD19HorizOval,2.250000X0.655001X0.730000X-0.655001X-0.730000X0*%
%ADD20HorizOval,2.250000X0.020000X0.290000X-0.020000X-0.290000X0*%
%ADD21R,1.700000X1.700000*%
%ADD22O,1.700000X1.700000*%
G04 APERTURE END LIST*
D10*
X318050000Y-223110000D03*
D11*
X318050000Y-218030000D03*
D10*
X299000000Y-223110000D03*
D11*
X299000000Y-218030000D03*
D10*
X337440000Y-213230000D03*
D11*
X337440000Y-208150000D03*
D10*
X318050000Y-204060000D03*
D11*
X318050000Y-198980000D03*
D10*
X299000000Y-204060000D03*
D11*
X299000000Y-198980000D03*
D10*
X279950000Y-204060000D03*
D11*
X279950000Y-198980000D03*
D10*
X318050000Y-185010000D03*
D11*
X318050000Y-179930000D03*
D10*
X299000000Y-185010000D03*
D11*
X299000000Y-179930000D03*
D10*
X279950000Y-185010000D03*
D11*
X279950000Y-179930000D03*
D10*
X337440000Y-175730000D03*
D11*
X337440000Y-170650000D03*
D10*
X318050000Y-165960000D03*
D11*
X318050000Y-160880000D03*
D10*
X299000000Y-165960000D03*
D11*
X299000000Y-160880000D03*
D10*
X279950000Y-165960000D03*
D11*
X279950000Y-160880000D03*
D10*
X337100000Y-147005000D03*
D11*
X337100000Y-141925000D03*
D10*
X318050000Y-147000000D03*
D11*
X318050000Y-141920000D03*
D10*
X299000000Y-147000000D03*
D11*
X299000000Y-141920000D03*
D10*
X279950000Y-147000000D03*
D11*
X279950000Y-141920000D03*
D12*
X321700000Y-184676000D03*
D13*
X336940000Y-184676000D03*
D14*
X328685000Y-177818000D03*
D13*
X328685000Y-172738000D03*
D14*
X328685000Y-167658000D03*
D12*
X321700000Y-160800000D03*
D13*
X336940000Y-160800000D03*
D15*
X325415000Y-175892999D03*
D16*
X324685000Y-175238000D03*
D17*
X323895000Y-170218000D03*
D16*
X323605000Y-170198000D03*
D18*
X263100000Y-129100000D03*
D14*
X266430000Y-201330000D03*
D13*
X271510000Y-201330000D03*
D14*
X276590000Y-201330000D03*
D19*
X268355001Y-198060000D03*
D16*
X269010000Y-197330000D03*
D20*
X274030000Y-196540000D03*
D16*
X274050000Y-196250000D03*
D18*
X263000000Y-228900000D03*
D12*
X321700000Y-222776000D03*
D13*
X336940000Y-222776000D03*
D14*
X328685000Y-215918000D03*
D13*
X328685000Y-210838000D03*
D14*
X328685000Y-205758000D03*
D12*
X321700000Y-198900000D03*
D13*
X336940000Y-198900000D03*
D15*
X325415000Y-213992999D03*
D16*
X324685000Y-213338000D03*
D17*
X323895000Y-208318000D03*
D16*
X323605000Y-208298000D03*
D18*
X337300000Y-129100000D03*
D21*
X307250000Y-106000000D03*
D22*
X307250000Y-108540000D03*
X307250000Y-111080000D03*
X307250000Y-113620000D03*
X307250000Y-116160000D03*
X307250000Y-118700000D03*
X307250000Y-121240000D03*
X307250000Y-123780000D03*
X307250000Y-126320000D03*
D14*
X285480000Y-163230000D03*
D13*
X290560000Y-163230000D03*
D14*
X295640000Y-163230000D03*
D19*
X287405001Y-159960000D03*
D16*
X288060000Y-159230000D03*
D20*
X293080000Y-158440000D03*
D16*
X293100000Y-158150000D03*
D14*
X323580000Y-144180000D03*
D13*
X328660000Y-144180000D03*
D14*
X333740000Y-144180000D03*
D19*
X325505001Y-140910000D03*
D16*
X326160000Y-140180000D03*
D20*
X331180000Y-139390000D03*
D16*
X331200000Y-139100000D03*
D18*
X337200000Y-228900000D03*
D14*
X266430000Y-144180000D03*
D13*
X271510000Y-144180000D03*
D14*
X276590000Y-144180000D03*
D19*
X268355001Y-140910000D03*
D16*
X269010000Y-140180000D03*
D20*
X274030000Y-139390000D03*
D16*
X274050000Y-139100000D03*
D12*
X269097000Y-213395000D03*
D13*
X269097000Y-228635000D03*
D14*
X275955000Y-220380000D03*
D13*
X281035000Y-220380000D03*
D14*
X286115000Y-220380000D03*
D12*
X292973000Y-213395000D03*
D13*
X292973000Y-228635000D03*
D19*
X277880001Y-217110000D03*
D16*
X278535000Y-216380000D03*
D20*
X283555000Y-215590000D03*
D16*
X283575000Y-215300000D03*
D14*
X304530000Y-163230000D03*
D13*
X309610000Y-163230000D03*
D14*
X314690000Y-163230000D03*
D19*
X306455001Y-159960000D03*
D16*
X307110000Y-159230000D03*
D20*
X312130000Y-158440000D03*
D16*
X312150000Y-158150000D03*
D14*
X266430000Y-163230000D03*
D13*
X271510000Y-163230000D03*
D14*
X276590000Y-163230000D03*
D19*
X268355001Y-159960000D03*
D16*
X269010000Y-159230000D03*
D20*
X274030000Y-158440000D03*
D16*
X274050000Y-158150000D03*
D14*
X304530000Y-182280000D03*
D13*
X309610000Y-182280000D03*
D14*
X314690000Y-182280000D03*
D19*
X306455001Y-179010000D03*
D16*
X307110000Y-178280000D03*
D20*
X312130000Y-177490000D03*
D16*
X312150000Y-177200000D03*
D14*
X285480000Y-144180000D03*
D13*
X290560000Y-144180000D03*
D14*
X295640000Y-144180000D03*
D19*
X287405001Y-140910000D03*
D16*
X288060000Y-140180000D03*
D20*
X293080000Y-139390000D03*
D16*
X293100000Y-139100000D03*
D14*
X304530000Y-201330000D03*
D13*
X309610000Y-201330000D03*
D14*
X314690000Y-201330000D03*
D19*
X306455001Y-198060000D03*
D16*
X307110000Y-197330000D03*
D20*
X312130000Y-196540000D03*
D16*
X312150000Y-196250000D03*
D14*
X285480000Y-182280000D03*
D13*
X290560000Y-182280000D03*
D14*
X295640000Y-182280000D03*
D19*
X287405001Y-179010000D03*
D16*
X288060000Y-178280000D03*
D20*
X293080000Y-177490000D03*
D16*
X293100000Y-177200000D03*
D14*
X285480000Y-201330000D03*
D13*
X290560000Y-201330000D03*
D14*
X295640000Y-201330000D03*
D19*
X287405001Y-198060000D03*
D16*
X288060000Y-197330000D03*
D20*
X293080000Y-196540000D03*
D16*
X293100000Y-196250000D03*
D18*
X300100000Y-172800000D03*
D21*
X292000000Y-106000000D03*
D22*
X292000000Y-108540000D03*
X292000000Y-111080000D03*
X292000000Y-113620000D03*
X292000000Y-116160000D03*
X292000000Y-118700000D03*
X292000000Y-121240000D03*
X292000000Y-123780000D03*
X292000000Y-126320000D03*
D14*
X266430000Y-182280000D03*
D13*
X271510000Y-182280000D03*
D14*
X276590000Y-182280000D03*
D19*
X268355001Y-179010000D03*
D16*
X269010000Y-178280000D03*
D20*
X274030000Y-177490000D03*
D16*
X274050000Y-177200000D03*
D14*
X304530000Y-144180000D03*
D13*
X309610000Y-144180000D03*
D14*
X314690000Y-144180000D03*
D19*
X306455001Y-140910000D03*
D16*
X307110000Y-140180000D03*
D20*
X312130000Y-139390000D03*
D16*
X312150000Y-139100000D03*
D18*
X263100000Y-105000000D03*
X337300000Y-105000000D03*
D14*
X304530000Y-220380000D03*
D13*
X309610000Y-220380000D03*
D14*
X314690000Y-220380000D03*
D19*
X306455001Y-217110000D03*
D16*
X307110000Y-216380000D03*
D20*
X312130000Y-215590000D03*
D16*
X312150000Y-215300000D03*
M02*
