G04 #@! TF.GenerationSoftware,KiCad,Pcbnew,7.0.1*
G04 #@! TF.CreationDate,2023-10-11T20:02:21-04:00*
G04 #@! TF.ProjectId,keyboard,6b657962-6f61-4726-942e-6b696361645f,rev?*
G04 #@! TF.SameCoordinates,Original*
G04 #@! TF.FileFunction,Copper,L2,Bot*
G04 #@! TF.FilePolarity,Positive*
%FSLAX46Y46*%
G04 Gerber Fmt 4.6, Leading zero omitted, Abs format (unit mm)*
G04 Created by KiCad (PCBNEW 7.0.1) date 2023-10-11 20:02:21*
%MOMM*%
%LPD*%
G01*
G04 APERTURE LIST*
G04 Aperture macros list*
%AMHorizOval*
0 Thick line with rounded ends*
0 $1 width*
0 $2 $3 position (X,Y) of the first rounded end (center of the circle)*
0 $4 $5 position (X,Y) of the second rounded end (center of the circle)*
0 Add line between two ends*
20,1,$1,$2,$3,$4,$5,0*
0 Add two circle primitives to create the rounded ends*
1,1,$1,$2,$3*
1,1,$1,$4,$5*%
G04 Aperture macros list end*
G04 #@! TA.AperFunction,ComponentPad*
%ADD10R,1.800000X1.800000*%
G04 #@! TD*
G04 #@! TA.AperFunction,ComponentPad*
%ADD11O,1.800000X1.800000*%
G04 #@! TD*
G04 #@! TA.AperFunction,ComponentPad*
%ADD12HorizOval,2.250000X-0.730000X0.655001X0.730000X-0.655001X0*%
G04 #@! TD*
G04 #@! TA.AperFunction,ComponentPad*
%ADD13C,2.250000*%
G04 #@! TD*
G04 #@! TA.AperFunction,ComponentPad*
%ADD14HorizOval,2.250000X-0.290000X0.020000X0.290000X-0.020000X0*%
G04 #@! TD*
G04 #@! TA.AperFunction,ComponentPad*
%ADD15HorizOval,2.250000X0.655001X0.730000X-0.655001X-0.730000X0*%
G04 #@! TD*
G04 #@! TA.AperFunction,ComponentPad*
%ADD16HorizOval,2.250000X0.020000X0.290000X-0.020000X-0.290000X0*%
G04 #@! TD*
G04 #@! TA.AperFunction,ComponentPad*
%ADD17R,1.700000X1.700000*%
G04 #@! TD*
G04 #@! TA.AperFunction,ComponentPad*
%ADD18O,1.700000X1.700000*%
G04 #@! TD*
G04 #@! TA.AperFunction,Conductor*
%ADD19C,0.250000*%
G04 #@! TD*
G04 APERTURE END LIST*
D10*
X318050000Y-223110000D03*
D11*
X318050000Y-218030000D03*
D10*
X299000000Y-223110000D03*
D11*
X299000000Y-218030000D03*
D10*
X337440000Y-213230000D03*
D11*
X337440000Y-208150000D03*
D10*
X318050000Y-204060000D03*
D11*
X318050000Y-198980000D03*
D10*
X299000000Y-204060000D03*
D11*
X299000000Y-198980000D03*
D10*
X279950000Y-204060000D03*
D11*
X279950000Y-198980000D03*
D10*
X318050000Y-185010000D03*
D11*
X318050000Y-179930000D03*
D10*
X299000000Y-185010000D03*
D11*
X299000000Y-179930000D03*
D10*
X279950000Y-185010000D03*
D11*
X279950000Y-179930000D03*
D10*
X337440000Y-175730000D03*
D11*
X337440000Y-170650000D03*
D10*
X318050000Y-165960000D03*
D11*
X318050000Y-160880000D03*
D10*
X299000000Y-165960000D03*
D11*
X299000000Y-160880000D03*
D10*
X279950000Y-165960000D03*
D11*
X279950000Y-160880000D03*
D10*
X337100000Y-147005000D03*
D11*
X337100000Y-141925000D03*
D10*
X318050000Y-147000000D03*
D11*
X318050000Y-141920000D03*
D10*
X299000000Y-147000000D03*
D11*
X299000000Y-141920000D03*
D10*
X279950000Y-147000000D03*
D11*
X279950000Y-141920000D03*
D12*
X325415000Y-175892999D03*
D13*
X324685000Y-175238000D03*
D14*
X323895000Y-170218000D03*
D13*
X323605000Y-170198000D03*
D15*
X268355001Y-198060000D03*
D13*
X269010000Y-197330000D03*
D16*
X274030000Y-196540000D03*
D13*
X274050000Y-196250000D03*
D12*
X325415000Y-213992999D03*
D13*
X324685000Y-213338000D03*
D14*
X323895000Y-208318000D03*
D13*
X323605000Y-208298000D03*
D17*
X307250000Y-106000000D03*
D18*
X307250000Y-108540000D03*
X307250000Y-111080000D03*
X307250000Y-113620000D03*
X307250000Y-116160000D03*
X307250000Y-118700000D03*
X307250000Y-121240000D03*
X307250000Y-123780000D03*
X307250000Y-126320000D03*
D15*
X287405001Y-159960000D03*
D13*
X288060000Y-159230000D03*
D16*
X293080000Y-158440000D03*
D13*
X293100000Y-158150000D03*
D15*
X325505001Y-140910000D03*
D13*
X326160000Y-140180000D03*
D16*
X331180000Y-139390000D03*
D13*
X331200000Y-139100000D03*
D15*
X268355001Y-140910000D03*
D13*
X269010000Y-140180000D03*
D16*
X274030000Y-139390000D03*
D13*
X274050000Y-139100000D03*
D15*
X277880001Y-217110000D03*
D13*
X278535000Y-216380000D03*
D16*
X283555000Y-215590000D03*
D13*
X283575000Y-215300000D03*
D15*
X306455001Y-159960000D03*
D13*
X307110000Y-159230000D03*
D16*
X312130000Y-158440000D03*
D13*
X312150000Y-158150000D03*
D15*
X268355001Y-159960000D03*
D13*
X269010000Y-159230000D03*
D16*
X274030000Y-158440000D03*
D13*
X274050000Y-158150000D03*
D15*
X306455001Y-179010000D03*
D13*
X307110000Y-178280000D03*
D16*
X312130000Y-177490000D03*
D13*
X312150000Y-177200000D03*
D15*
X287405001Y-140910000D03*
D13*
X288060000Y-140180000D03*
D16*
X293080000Y-139390000D03*
D13*
X293100000Y-139100000D03*
D15*
X306455001Y-198060000D03*
D13*
X307110000Y-197330000D03*
D16*
X312130000Y-196540000D03*
D13*
X312150000Y-196250000D03*
D15*
X287405001Y-179010000D03*
D13*
X288060000Y-178280000D03*
D16*
X293080000Y-177490000D03*
D13*
X293100000Y-177200000D03*
D15*
X287405001Y-198060000D03*
D13*
X288060000Y-197330000D03*
D16*
X293080000Y-196540000D03*
D13*
X293100000Y-196250000D03*
D17*
X292000000Y-106000000D03*
D18*
X292000000Y-108540000D03*
X292000000Y-111080000D03*
X292000000Y-113620000D03*
X292000000Y-116160000D03*
X292000000Y-118700000D03*
X292000000Y-121240000D03*
X292000000Y-123780000D03*
X292000000Y-126320000D03*
D15*
X268355001Y-179010000D03*
D13*
X269010000Y-178280000D03*
D16*
X274030000Y-177490000D03*
D13*
X274050000Y-177200000D03*
D15*
X306455001Y-140910000D03*
D13*
X307110000Y-140180000D03*
D16*
X312130000Y-139390000D03*
D13*
X312150000Y-139100000D03*
D15*
X306455001Y-217110000D03*
D13*
X307110000Y-216380000D03*
D16*
X312130000Y-215590000D03*
D13*
X312150000Y-215300000D03*
D19*
X336790000Y-170000000D02*
X337440000Y-170650000D01*
X324669000Y-170000000D02*
X336790000Y-170000000D01*
X324287000Y-170382000D02*
X324669000Y-170000000D01*
X283655000Y-216000000D02*
X283535000Y-215880000D01*
X288000000Y-218000000D02*
X286000000Y-216000000D01*
X298970000Y-218000000D02*
X288000000Y-218000000D01*
X299000000Y-218030000D02*
X298970000Y-218000000D01*
X286000000Y-216000000D02*
X283655000Y-216000000D01*
X313230000Y-217000000D02*
X312110000Y-215880000D01*
X316935000Y-218030000D02*
X315905000Y-217000000D01*
X315905000Y-217000000D02*
X313230000Y-217000000D01*
X318050000Y-218030000D02*
X316935000Y-218030000D01*
X337290000Y-208000000D02*
X324769000Y-208000000D01*
X337440000Y-208150000D02*
X337290000Y-208000000D01*
X315000000Y-197000000D02*
X312280000Y-197000000D01*
X312280000Y-197000000D02*
X312110000Y-196830000D01*
X318050000Y-198980000D02*
X316980000Y-198980000D01*
X318135000Y-199065000D02*
X318050000Y-198980000D01*
X316980000Y-198980000D02*
X315000000Y-197000000D01*
X295905000Y-197000000D02*
X293230000Y-197000000D01*
X297885000Y-198980000D02*
X295905000Y-197000000D01*
X293230000Y-197000000D02*
X293060000Y-196830000D01*
X299000000Y-198980000D02*
X297885000Y-198980000D01*
X276855000Y-197000000D02*
X274180000Y-197000000D01*
X278835000Y-198980000D02*
X276855000Y-197000000D01*
X279950000Y-198980000D02*
X278835000Y-198980000D01*
X274180000Y-197000000D02*
X274010000Y-196830000D01*
X312330000Y-178000000D02*
X312110000Y-177780000D01*
X315005000Y-178000000D02*
X312330000Y-178000000D01*
X318050000Y-179930000D02*
X316935000Y-179930000D01*
X316935000Y-179930000D02*
X315005000Y-178000000D01*
X293280000Y-178000000D02*
X293060000Y-177780000D01*
X296000000Y-178045000D02*
X296000000Y-178000000D01*
X296000000Y-178000000D02*
X293280000Y-178000000D01*
X297885000Y-179930000D02*
X296000000Y-178045000D01*
X299000000Y-179930000D02*
X297885000Y-179930000D01*
X277000000Y-178000000D02*
X274230000Y-178000000D01*
X278930000Y-179930000D02*
X277000000Y-178000000D01*
X279950000Y-179930000D02*
X278930000Y-179930000D01*
X274230000Y-178000000D02*
X274010000Y-177780000D01*
X315000000Y-159000000D02*
X312380000Y-159000000D01*
X312380000Y-159000000D02*
X312110000Y-158730000D01*
X316880000Y-160880000D02*
X315000000Y-159000000D01*
X318050000Y-160880000D02*
X316880000Y-160880000D01*
X296005000Y-159000000D02*
X293330000Y-159000000D01*
X297885000Y-160880000D02*
X296005000Y-159000000D01*
X299000000Y-160880000D02*
X297885000Y-160880000D01*
X293330000Y-159000000D02*
X293060000Y-158730000D01*
X274280000Y-159000000D02*
X274010000Y-158730000D01*
X277000000Y-159000000D02*
X274280000Y-159000000D01*
X278835000Y-160880000D02*
X277000000Y-159045000D01*
X277000000Y-159045000D02*
X277000000Y-159000000D01*
X279950000Y-160880000D02*
X278835000Y-160880000D01*
X331480000Y-140000000D02*
X331160000Y-139680000D01*
X334000000Y-140000000D02*
X331480000Y-140000000D01*
X335925000Y-141925000D02*
X334000000Y-140000000D01*
X337100000Y-141925000D02*
X335925000Y-141925000D01*
X315105000Y-140000000D02*
X312430000Y-140000000D01*
X317025000Y-141920000D02*
X315105000Y-140000000D01*
X318050000Y-141920000D02*
X317025000Y-141920000D01*
X312430000Y-140000000D02*
X312110000Y-139680000D01*
X293380000Y-140000000D02*
X293060000Y-139680000D01*
X296000000Y-140000000D02*
X293380000Y-140000000D01*
X297920000Y-141920000D02*
X296000000Y-140000000D01*
X299000000Y-141920000D02*
X297920000Y-141920000D01*
X277000000Y-140000000D02*
X274330000Y-140000000D01*
X274330000Y-140000000D02*
X274010000Y-139680000D01*
X278920000Y-141920000D02*
X277000000Y-140000000D01*
X279950000Y-141920000D02*
X278920000Y-141920000D01*
X280035000Y-142005000D02*
X279950000Y-141920000D01*
X279365000Y-147000000D02*
X280035000Y-146330000D01*
X264000000Y-146150000D02*
X264850000Y-147000000D01*
X299085000Y-146330000D02*
X298415000Y-147000000D01*
X299755000Y-147000000D02*
X299085000Y-146330000D01*
X291680000Y-126000000D02*
X275545584Y-126000000D01*
X318805000Y-147000000D02*
X318135000Y-146330000D01*
X317465000Y-147000000D02*
X299755000Y-147000000D01*
X275545584Y-126000000D02*
X264000000Y-137545584D01*
X337185000Y-146330000D02*
X336515000Y-147000000D01*
X292000000Y-126320000D02*
X291680000Y-126000000D01*
X318135000Y-146330000D02*
X317465000Y-147000000D01*
X280705000Y-147000000D02*
X280035000Y-146330000D01*
X264850000Y-147000000D02*
X279365000Y-147000000D01*
X336515000Y-147000000D02*
X318805000Y-147000000D01*
X264000000Y-137545584D02*
X264000000Y-146150000D01*
X298415000Y-147000000D02*
X280705000Y-147000000D01*
X299085000Y-165380000D02*
X298465000Y-166000000D01*
X291720000Y-123500000D02*
X277409188Y-123500000D01*
X279415000Y-166000000D02*
X280035000Y-165380000D01*
X265000000Y-166000000D02*
X279415000Y-166000000D01*
X280655000Y-166000000D02*
X280035000Y-165380000D01*
X318135000Y-165380000D02*
X317515000Y-166000000D01*
X317515000Y-166000000D02*
X299705000Y-166000000D01*
X292000000Y-123780000D02*
X291720000Y-123500000D01*
X299705000Y-166000000D02*
X299085000Y-165380000D01*
X263550000Y-137359188D02*
X263550000Y-164550000D01*
X298465000Y-166000000D02*
X280655000Y-166000000D01*
X292000000Y-123780000D02*
X291780000Y-124000000D01*
X263550000Y-164550000D02*
X265000000Y-166000000D01*
X277409188Y-123500000D02*
X263550000Y-137359188D01*
X318135000Y-186208750D02*
X318135000Y-184430000D01*
X325675000Y-187000000D02*
X318926250Y-187000000D01*
X299655000Y-185000000D02*
X299085000Y-184430000D01*
X279272792Y-121000000D02*
X263100000Y-137172792D01*
X263100000Y-183100000D02*
X265000000Y-185000000D01*
X337525000Y-175150000D02*
X325675000Y-187000000D01*
X318135000Y-184430000D02*
X317565000Y-185000000D01*
X318926250Y-187000000D02*
X318135000Y-186208750D01*
X298515000Y-185000000D02*
X280605000Y-185000000D01*
X292000000Y-121240000D02*
X291760000Y-121000000D01*
X263100000Y-137172792D02*
X263100000Y-183100000D01*
X317565000Y-185000000D02*
X299655000Y-185000000D01*
X299085000Y-184430000D02*
X298515000Y-185000000D01*
X265000000Y-185000000D02*
X279465000Y-185000000D01*
X280605000Y-185000000D02*
X280035000Y-184430000D01*
X279465000Y-185000000D02*
X280035000Y-184430000D01*
X291760000Y-121000000D02*
X279272792Y-121000000D01*
X292000000Y-121240000D02*
X291740000Y-121500000D01*
X292000000Y-118700000D02*
X291700000Y-119000000D01*
X298565000Y-204000000D02*
X280555000Y-204000000D01*
X279515000Y-204000000D02*
X280035000Y-203480000D01*
X292000000Y-118700000D02*
X291800000Y-118500000D01*
X280555000Y-204000000D02*
X280035000Y-203480000D01*
X262650000Y-136986396D02*
X262650000Y-201650000D01*
X265000000Y-204000000D02*
X279515000Y-204000000D01*
X318135000Y-203480000D02*
X317615000Y-204000000D01*
X281136396Y-118500000D02*
X262650000Y-136986396D01*
X299085000Y-203480000D02*
X298565000Y-204000000D01*
X291800000Y-118500000D02*
X281136396Y-118500000D01*
X262650000Y-201650000D02*
X265000000Y-204000000D01*
X299605000Y-204000000D02*
X299085000Y-203480000D01*
X317615000Y-204000000D02*
X299605000Y-204000000D01*
X318135000Y-224135000D02*
X318135000Y-222530000D01*
X292000000Y-116160000D02*
X291660000Y-116500000D01*
X325000000Y-225000000D02*
X319000000Y-225000000D01*
X317665000Y-223000000D02*
X299555000Y-223000000D01*
X318135000Y-222530000D02*
X317665000Y-223000000D01*
X337350000Y-212650000D02*
X325000000Y-225000000D01*
X299555000Y-223000000D02*
X299085000Y-222530000D01*
X291840000Y-116000000D02*
X283000000Y-116000000D01*
X319000000Y-225000000D02*
X318135000Y-224135000D01*
X269000000Y-223000000D02*
X298615000Y-223000000D01*
X292000000Y-116160000D02*
X291840000Y-116000000D01*
X262200000Y-136800000D02*
X262200000Y-216200000D01*
X298615000Y-223000000D02*
X299085000Y-222530000D01*
X262200000Y-216200000D02*
X269000000Y-223000000D01*
X283000000Y-116000000D02*
X262200000Y-136800000D01*
X337525000Y-212650000D02*
X337350000Y-212650000D01*
M02*
